<svg xmlns="http://www.w3.org/2000/svg" xmlns:xlink="http://www.w3.org/1999/xlink" xmlns:inkscape="http://www.inkscape.org/namespaces/inkscape" version="1.1" width="227" height="210" viewBox="0 0 227 210">
<defs>
<clipPath id="clip_0">
<path transform="matrix(1,0,0,-1,0,210)" d="M0 0H227V210H0Z"/>
</clipPath>
<clipPath id="clip_1">
<path transform="matrix(1,0,0,-1,0,210)" d="M0 210H227.0758V.00001482967H0Z" clip-rule="evenodd"/>
</clipPath>
<clipPath id="clip_2">
<path transform="matrix(1,0,0,-1,0,210)" d="M0 .000006079674H227V210H0Z"/>
</clipPath>
<clipPath id="clip_3">
<path transform="matrix(1,0,0,-1,0,210)" d="M5.919351 204.5608H221.1469V5.439204H5.919351Z" clip-rule="evenodd"/>
</clipPath>
<clipPath id="clip_4">
<path transform="matrix(1,0,0,-1,0,210)" d="M0 .000006079674H227V210H0Z"/>
</clipPath>
</defs>
<g clip-path="url(#clip_0)">
<path transform="matrix(1,0,0,-1,0,210)" d="M0 210H227V0H0Z" fill="#ffffff"/>
</g>
<g clip-path="url(#clip_1)">
<g clip-path="url(#clip_2)">
<path transform="matrix(1,0,0,-1,0,210)" d="M0 210H227.0663V.00001482967H0Z" fill="#ffffff"/>
</g>
</g>
<g clip-path="url(#clip_3)">
<g clip-path="url(#clip_4)">
<path transform="matrix(1,0,0,-1,0,210)" d="M72.59765 203.8948H153.4453C153.6147 203.8948 153.7825 203.8783 153.9487 203.8453 154.1149 203.8123 154.2762 203.7634 154.4327 203.6986 154.5893 203.6339 154.7379 203.5545 154.8788 203.4605 155.0197 203.3665 155.15 203.2596 155.2698 203.14 155.3896 203.0203 155.4966 202.8902 155.5907 202.7495 155.6848 202.6088 155.7643 202.4603 155.8291 202.3039 155.894 202.1476 155.9429 201.9864 155.976 201.8205 156.009 201.6545 156.0256 201.4869 156.0256 201.3177V189.2912C156.0256 189.122 156.009 188.9544 155.976 188.7884 155.9429 188.6224 155.894 188.4613 155.8291 188.305 155.7643 188.1486 155.6848 188.0001 155.5907 187.8594 155.4966 187.7187 155.3896 187.5885 155.2698 187.4689 155.15 187.3492 155.0197 187.2424 154.8788 187.1484 154.7379 187.0544 154.5892 186.975 154.4327 186.9102 154.2762 186.8455 154.1149 186.7966 153.9487 186.7636 153.7825 186.7306 153.6147 186.7141 153.4453 186.7141H72.59765C72.42824 186.7141 72.26044 186.7306 72.09428 186.7636 71.9281 186.7966 71.76676 186.8455 71.61023 186.9102 71.4537 186.975 71.305 187.0544 71.16413 187.1484 71.02326 187.2424 70.89293 187.3492 70.77314 187.4689 70.65334 187.5885 70.54638 187.7187 70.45225 187.8594 70.35812 188.0001 70.27864 188.1486 70.21381 188.305 70.14896 188.4613 70.10002 188.6224 70.06698 188.7884 70.03392 188.9544 70.0174 189.122 70.01741 189.2912V201.3177C70.0174 201.4869 70.03392 201.6545 70.06698 201.8205 70.10002 201.9864 70.14896 202.1476 70.21381 202.3039 70.27864 202.4603 70.35812 202.6088 70.45225 202.7495 70.54638 202.8902 70.65334 203.0203 70.77314 203.14 70.89293 203.2596 71.02326 203.3665 71.16413 203.4605 71.305 203.5545 71.4537 203.6339 71.61023 203.6986 71.76676 203.7634 71.9281 203.8123 72.09428 203.8453 72.26044 203.8783 72.42824 203.8948 72.59765 203.8948Z" fill="#ffffff"/>
<path transform="matrix(.4300408,0,0,.4295186,-41.79321,-28.256302)" stroke-width="1" stroke-linecap="butt" stroke-miterlimit="4" stroke-linejoin="miter" fill="none" stroke="#000000" d="M266 80H454C454.394 80 454.7841 80.03843 455.1705 80.11528 455.5569 80.19214 455.9321 80.30595 456.2961 80.45671 456.66 80.60748 457.0058 80.7923 457.3334 81.01118 457.661 81.23005 457.964 81.47878 458.2426 81.75736 458.5212 82.03593 458.7699 82.339 458.9888 82.66656 459.2076 82.99413 459.3924 83.33991 459.5432 83.7039 459.694 84.06787 459.8078 84.44305 459.8847 84.82945 459.9615 85.21584 460 85.60603 460 86V114C460 114.394 459.9615 114.7841 459.8847 115.1705 459.8078 115.5569 459.694 115.9321 459.5432 116.2961 459.3924 116.6601 459.2076 117.0058 458.9888 117.3334 458.7699 117.661 458.5212 117.9641 458.2426 118.2426 457.964 118.5212 457.6609 118.7699 457.3334 118.9888 457.0058 119.2077 456.66 119.3925 456.2961 119.5433 455.9321 119.694 455.5569 119.8078 455.1705 119.8847 454.7841 119.9616 454.394 120 454 120H266C265.6061 120 265.2159 119.9616 264.8295 119.8847 264.4431 119.8078 264.0679 119.694 263.7039 119.5433 263.3399 119.3925 262.9941 119.2077 262.6665 118.9888 262.339 118.7699 262.0359 118.5212 261.7574 118.2426 261.4788 117.9641 261.23 117.661 261.0112 117.3334 260.7923 117.0058 260.6075 116.6601 260.4567 116.2961 260.3059 115.9321 260.1921 115.5569 260.1153 115.1705 260.0384 114.7841 260 114.394 260 114V86C260 85.60603 260.0384 85.21584 260.1153 84.82945 260.1921 84.44305 260.3059 84.06787 260.4567 83.7039 260.6075 83.33991 260.7923 82.99413 261.0112 82.66656 261.23 82.339 261.4788 82.03593 261.7574 81.75736 262.0359 81.47878 262.339 81.23005 262.6665 81.01118 262.9941 80.7923 263.3399 80.60748 263.7039 80.45671 264.0679 80.30595 264.4431 80.19214 264.8295 80.11528 265.2159 80.03843 265.6061 80 266 80Z"/>
<text xml:space="preserve" transform="matrix(.4300408 0 0 .4295186 -42.00823 -28.470993)" font-size="20" font-family="SawarabiMincho"><tspan y="108" x="310">&#x5165;</tspan></text>
<text xml:space="preserve" transform="matrix(.4300408 0 0 .4295186 -42.00823 -28.470993)" font-size="20" font-family="SawarabiMincho"><tspan y="108" x="330">&#x529b;</tspan></text>
<text xml:space="preserve" transform="matrix(.4300408 0 0 .4295186 -42.00823 -28.470993)" font-size="20" font-family="SawarabiMincho"><tspan y="108" x="350 370 390">&#x30b3;&#x30fc;&#x30c9;</tspan></text>
<path transform="matrix(.4300408,0,0,.4295186,-41.79321,-28.256302)" stroke-width="1" stroke-linecap="butt" stroke-miterlimit="10" stroke-linejoin="miter" fill="none" stroke="#000000" d="M360 180V193.63"/>
<path transform="matrix(1,0,0,-1,0,210)" d="M113.0215 152.8336 111.5163 155.8403 113.0215 155.0886 114.5266 155.8403 113.0215 152.8336Z"/>
<path transform="matrix(.4300408,0,0,.4295186,-41.79321,-28.256302)" stroke-width="1" stroke-linecap="butt" stroke-miterlimit="10" stroke-linejoin="miter" fill="none" stroke="#000000" d="M360 198.88 356.5 191.88 360 193.63 363.5 191.88 360 198.88Z"/>
<path transform="matrix(1,0,0,-1,0,210)" d="M61.41659 178.1237H164.6264V160.943H61.41659Z" fill="#ffffff"/>
<path transform="matrix(.4300408,0,0,.4295186,-41.79321,-28.256302)" stroke-width="1" stroke-linecap="butt" stroke-miterlimit="4" stroke-linejoin="miter" fill="none" stroke="#000000" d="M240 140H480V180H240Z"/>
<text xml:space="preserve" transform="matrix(.4300408 0 0 .4295186 -42.00823 -28.470993)" font-size="20" font-family="SawarabiMincho"><tspan y="168" x="320">&#x5b57;</tspan></text>
<text xml:space="preserve" transform="matrix(.4300408 0 0 .4295186 -42.00823 -28.470993)" font-size="20" font-family="SawarabiMincho"><tspan y="168" x="340">&#x53e5;</tspan></text>
<text xml:space="preserve" transform="matrix(.4300408 0 0 .4295186 -42.00823 -28.470993)" font-size="20" font-family="SawarabiMincho"><tspan y="168" x="360">&#x89e3;</tspan></text>
<text xml:space="preserve" transform="matrix(.4300408 0 0 .4295186 -42.00823 -28.470993)" font-size="20" font-family="SawarabiMincho"><tspan y="168" x="380">&#x6790;</tspan></text>
<path transform="matrix(.4300408,0,0,.4295186,-41.79321,-28.256302)" stroke-width="1" stroke-linecap="butt" stroke-miterlimit="10" stroke-linejoin="miter" fill="none" stroke="#000000" d="M360 240V253.63"/>
<path transform="matrix(1,0,0,-1,0,210)" d="M113.0215 127.0625 111.5163 130.0692 113.0215 129.3175 114.5266 130.0692 113.0215 127.0625Z"/>
<path transform="matrix(.4300408,0,0,.4295186,-41.79321,-28.256302)" stroke-width="1" stroke-linecap="butt" stroke-miterlimit="10" stroke-linejoin="miter" fill="none" stroke="#000000" d="M360 258.88 356.5 251.88 360 253.63 363.5 251.88 360 258.88Z"/>
<path transform="matrix(1,0,0,-1,0,210)" d="M61.41659 152.3526H164.6264V135.1718H61.41659Z" fill="#ffffff"/>
<path transform="matrix(.4300408,0,0,.4295186,-41.79321,-28.256302)" stroke-width="1" stroke-linecap="butt" stroke-miterlimit="4" stroke-linejoin="miter" fill="none" stroke="#000000" d="M240 200H480V240H240Z"/>
<text xml:space="preserve" transform="matrix(.4300408 0 0 .4295186 -42.00823 -28.470993)" font-size="20" font-family="SawarabiMincho"><tspan y="228" x="320">&#x69cb;</tspan></text>
<text xml:space="preserve" transform="matrix(.4300408 0 0 .4295186 -42.00823 -28.470993)" font-size="20" font-family="SawarabiMincho"><tspan y="228" x="340">&#x6587;</tspan></text>
<text xml:space="preserve" transform="matrix(.4300408 0 0 .4295186 -42.00823 -28.470993)" font-size="20" font-family="SawarabiMincho"><tspan y="228" x="360">&#x89e3;</tspan></text>
<text xml:space="preserve" transform="matrix(.4300408 0 0 .4295186 -42.00823 -28.470993)" font-size="20" font-family="SawarabiMincho"><tspan y="228" x="380">&#x6790;</tspan></text>
<path transform="matrix(1,0,0,-1,0,210)" d="M61.41659 126.5815H164.6264V109.4007H61.41659Z" fill="#ffffff"/>
<path transform="matrix(.4300408,0,0,.4295186,-41.79321,-28.256302)" stroke-width="1" stroke-linecap="butt" stroke-miterlimit="4" stroke-linejoin="miter" fill="none" stroke="#000000" d="M240 260H480V300H240Z"/>
<text xml:space="preserve" transform="matrix(.4300408 0 0 .4295186 -42.00823 -28.470993)" font-size="20" font-family="SawarabiMincho"><tspan y="288" x="320">&#x610f;</tspan></text>
<text xml:space="preserve" transform="matrix(.4300408 0 0 .4295186 -42.00823 -28.470993)" font-size="20" font-family="SawarabiMincho"><tspan y="288" x="340 360">&#x5473;&#x89e3;</tspan></text>
<text xml:space="preserve" transform="matrix(.4300408 0 0 .4295186 -42.00823 -28.470993)" font-size="20" font-family="SawarabiMincho"><tspan y="288" x="380">&#x6790;</tspan></text>
<path transform="matrix(.4300408,0,0,.4295186,-41.79321,-28.256302)" stroke-width="1" stroke-linecap="butt" stroke-miterlimit="10" stroke-linejoin="miter" fill="none" stroke="#000000" d="M360 360V373.63"/>
<path transform="matrix(1,0,0,-1,0,210)" d="M113.0215 75.5203 111.5163 78.52693 113.0215 77.77527 114.5266 78.52693 113.0215 75.5203Z"/>
<path transform="matrix(.4300408,0,0,.4295186,-41.79321,-28.256302)" stroke-width="1" stroke-linecap="butt" stroke-miterlimit="10" stroke-linejoin="miter" fill="none" stroke="#000000" d="M360 378.88 356.5 371.88 360 373.63 363.5 371.88 360 378.88Z"/>
<path transform="matrix(1,0,0,-1,0,210)" d="M61.41659 100.8104H164.6264V83.62961H61.41659Z" fill="#ffffff"/>
<path transform="matrix(.4300408,0,0,.4295186,-41.79321,-28.256302)" stroke-width="1" stroke-linecap="butt" stroke-miterlimit="4" stroke-linejoin="miter" fill="none" stroke="#000000" d="M240 320H480V360H240Z"/>
<text xml:space="preserve" transform="matrix(.4300408 0 0 .4295186 -42.00823 -28.470993)" font-size="20" font-family="SawarabiMincho"><tspan y="348" x="330">&#x6700;</tspan></text>
<text xml:space="preserve" transform="matrix(.4300408 0 0 .4295186 -42.00823 -28.470993)" font-size="20" font-family="SawarabiMincho"><tspan y="348" x="350">&#x9069;</tspan></text>
<text xml:space="preserve" transform="matrix(.4300408 0 0 .4295186 -42.00823 -28.470993)" font-size="20" font-family="SawarabiMincho"><tspan y="348" x="370">&#x5316;</tspan></text>
<path transform="matrix(.4300408,0,0,.4295186,-41.79321,-28.256302)" stroke-width="1" stroke-linecap="butt" stroke-miterlimit="10" stroke-linejoin="miter" fill="none" stroke="#000000" d="M360 420V433.63"/>
<path transform="matrix(1,0,0,-1,0,210)" d="M113.0215 49.74919 111.5163 52.75582 113.0215 52.00416 114.5266 52.75582 113.0215 49.74919Z"/>
<path transform="matrix(.4300408,0,0,.4295186,-41.79321,-28.256302)" stroke-width="1" stroke-linecap="butt" stroke-miterlimit="10" stroke-linejoin="miter" fill="none" stroke="#000000" d="M360 438.88 356.5 431.88 360 433.63 363.5 431.88 360 438.88Z"/>
<path transform="matrix(1,0,0,-1,0,210)" d="M61.41659 75.03924H164.6264V57.8585H61.41659Z" fill="#ffffff"/>
<path transform="matrix(.4300408,0,0,.4295186,-41.79321,-28.256302)" stroke-width="1" stroke-linecap="butt" stroke-miterlimit="4" stroke-linejoin="miter" fill="none" stroke="#000000" d="M240 380H480V420H240Z"/>
<text xml:space="preserve" transform="matrix(.4300408 0 0 .4295186 -42.00823 -28.470993)" font-size="20" font-family="SawarabiMincho"><tspan y="408" x="310 330 350">&#x30b3;&#x30fc;&#x30c9;</tspan></text>
<text xml:space="preserve" transform="matrix(.4300408 0 0 .4295186 -42.00823 -28.470993)" font-size="20" font-family="SawarabiMincho"><tspan y="408" x="370">&#x751f;</tspan></text>
<text xml:space="preserve" transform="matrix(.4300408 0 0 .4295186 -42.00823 -28.470993)" font-size="20" font-family="SawarabiMincho"><tspan y="408" x="390">&#x6210;</tspan></text>
<path transform="matrix(.4300408,0,0,.4295186,-41.79321,-28.256302)" stroke-width="1" stroke-linecap="butt" stroke-miterlimit="10" stroke-linejoin="miter" fill="none" stroke="#000000" d="M360 480V493.63"/>
<path transform="matrix(1,0,0,-1,0,210)" d="M113.0215 23.97807 111.5163 26.9847 113.0215 26.23305 114.5266 26.9847 113.0215 23.97807Z"/>
<path transform="matrix(.4300408,0,0,.4295186,-41.79321,-28.256302)" stroke-width="1" stroke-linecap="butt" stroke-miterlimit="10" stroke-linejoin="miter" fill="none" stroke="#000000" d="M360 498.88 356.5 491.88 360 493.63 363.5 491.88 360 498.88Z"/>
<path transform="matrix(1,0,0,-1,0,210)" d="M61.41659 49.26813H164.6264V32.08738H61.41659Z" fill="#ffffff"/>
<path transform="matrix(.4300408,0,0,.4295186,-41.79321,-28.256302)" stroke-width="1" stroke-linecap="butt" stroke-miterlimit="4" stroke-linejoin="miter" fill="none" stroke="#000000" d="M240 440H480V480H240Z"/>
<text xml:space="preserve" transform="matrix(.4300408 0 0 .4295186 -42.00823 -28.470993)" font-size="20" font-family="SawarabiMincho"><tspan y="468" x="310 330 350 370 390">&#x30ea;&#x30f3;&#x30ad;&#x30f3;&#x30b0;</tspan></text>
<path transform="matrix(1,0,0,-1,0,210)" d="M72.59765 23.49701H153.4453C153.6147 23.497 153.7825 23.4805 153.9487 23.44749 154.1149 23.41449 154.2762 23.36561 154.4327 23.30085 154.5893 23.2361 154.7379 23.15672 154.8788 23.06271 155.0197 22.96871 155.15 22.86188 155.2698 22.74222 155.3896 22.62257 155.4966 22.4924 155.5907 22.3517 155.6848 22.211 155.7643 22.06249 155.8291 21.90615 155.894 21.74981 155.9429 21.58867 155.976 21.42269 156.009 21.25673 156.0256 21.08914 156.0256 20.9199V8.893382C156.0256 8.72416 156.009 8.556588 155.976 8.390644 155.9429 8.224673 155.894 8.063522 155.8291 7.907199 155.7643 7.75085 155.6848 7.602335 155.5907 7.461638 155.4966 7.320936 155.3896 7.190749 155.2698 7.071102 155.15 6.951452 155.0197 6.844622 154.8788 6.750639 154.7379 6.65663 154.5892 6.577246 154.4327 6.512471 154.2762 6.447716 154.1149 6.398824 153.9487 6.36582 153.7825 6.332786 153.6147 6.316271 153.4453 6.316271H72.59765C72.42824 6.316271 72.26044 6.332786 72.09428 6.36582 71.9281 6.398824 71.76676 6.447716 71.61023 6.512471 71.4537 6.577246 71.305 6.65663 71.16413 6.750639 71.02326 6.844622 70.89293 6.951452 70.77314 7.071102 70.65334 7.190749 70.54638 7.320936 70.45225 7.461638 70.35812 7.602335 70.27864 7.75085 70.21381 7.907199 70.14896 8.063522 70.10002 8.224673 70.06698 8.390644 70.03392 8.556588 70.0174 8.72416 70.01741 8.893382V20.9199C70.0174 21.08914 70.03392 21.25673 70.06698 21.42269 70.10002 21.58867 70.14896 21.74981 70.21381 21.90615 70.27864 22.06249 70.35812 22.211 70.45225 22.3517 70.54638 22.4924 70.65334 22.62257 70.77314 22.74222 70.89293 22.86188 71.02326 22.96871 71.16413 23.06272 71.305 23.15673 71.4537 23.23611 71.61023 23.30086 71.76676 23.36561 71.9281 23.41449 72.09428 23.44751 72.26044 23.4805 72.42824 23.497 72.59765 23.49701Z" fill="#ffffff"/>
<path transform="matrix(.4300408,0,0,.4295186,-41.79321,-28.256302)" stroke-width="1" stroke-linecap="butt" stroke-miterlimit="4" stroke-linejoin="miter" fill="none" stroke="#000000" d="M266 500H454C454.394 500 454.7841 500.0385 455.1705 500.1153 455.5569 500.1921 455.9321 500.3059 456.2961 500.4567 456.66 500.6075 457.0058 500.7923 457.3334 501.0111 457.661 501.23 457.964 501.4787 458.2426 501.7573 458.5212 502.0359 458.7699 502.3389 458.9888 502.6665 459.2076 502.9941 459.3924 503.3398 459.5432 503.7038 459.694 504.0678 459.8078 504.443 459.8847 504.8294 459.9615 505.2158 460 505.606 460 506V534C460 534.394 459.9615 534.7841 459.8847 535.1705 459.8078 535.5569 459.694 535.9321 459.5432 536.296 459.3924 536.66 459.2076 537.0058 458.9888 537.3334 458.7699 537.661 458.5212 537.9641 458.2426 538.2426 457.964 538.5212 457.6609 538.7699 457.3334 538.9887 457.0058 539.2076 456.66 539.3924 456.2961 539.5432 455.9321 539.694 455.5569 539.8078 455.1705 539.8846 454.7841 539.9615 454.394 540 454 540H266C265.6061 540 265.2159 539.9615 264.8295 539.8846 264.4431 539.8078 264.0679 539.694 263.7039 539.5432 263.3399 539.3924 262.9941 539.2076 262.6665 538.9887 262.339 538.7699 262.0359 538.5212 261.7574 538.2426 261.4788 537.9641 261.23 537.661 261.0112 537.3334 260.7923 537.0058 260.6075 536.66 260.4567 536.296 260.3059 535.9321 260.1921 535.5569 260.1153 535.1705 260.0384 534.7841 260 534.394 260 534V506C260 505.606 260.0384 505.2158 260.1153 504.8294 260.1921 504.443 260.3059 504.0678 260.4567 503.7038 260.6075 503.3398 260.7923 502.9941 261.0112 502.6665 261.23 502.3389 261.4788 502.0359 261.7574 501.7573 262.0359 501.4787 262.339 501.23 262.6665 501.0111 262.9941 500.7922 263.3399 500.6074 263.7039 500.4567 264.0679 500.3059 264.4431 500.1921 264.8295 500.1153 265.2159 500.0385 265.6061 500 266 500Z"/>
<text xml:space="preserve" transform="matrix(.4300408 0 0 .4295186 -42.00823 -28.470993)" font-size="20" font-family="SawarabiMincho"><tspan y="528" x="310">&#x51fa;</tspan></text>
<text xml:space="preserve" transform="matrix(.4300408 0 0 .4295186 -42.00823 -28.470993)" font-size="20" font-family="SawarabiMincho"><tspan y="528" x="330 350">&#x529b;&#x6a5f;</tspan></text>
<text xml:space="preserve" transform="matrix(.4300408 0 0 .4295186 -42.00823 -28.470993)" font-size="20" font-family="SawarabiMincho"><tspan y="528" x="370">&#x68b0;</tspan></text>
<text xml:space="preserve" transform="matrix(.4300408 0 0 .4295186 -42.00823 -28.470993)" font-size="20" font-family="SawarabiMincho"><tspan y="528" x="390">&#x8a9e;</tspan></text>
<path transform="matrix(.4300408,0,0,.4295186,-41.79321,-28.256302)" stroke-width="1" stroke-linecap="butt" stroke-miterlimit="10" stroke-linejoin="miter" fill="none" stroke="#000000" d="M360 120V130.23"/>
<path transform="matrix(1,0,0,-1,0,210)" d="M113.0215 180.0651 111.5163 183.0717 113.0215 182.3201 114.5266 183.0717 113.0215 180.0651Z"/>
<path transform="matrix(.4300408,0,0,.4295186,-41.79321,-28.256302)" stroke-width="1" stroke-linecap="butt" stroke-miterlimit="10" stroke-linejoin="miter" fill="none" stroke="#000000" d="M360 135.48 356.5 128.48 360 130.23 363.5 128.48 360 135.48Z"/>
<path transform="matrix(.4300408,0,0,.4295186,-41.79321,-28.256302)" stroke-width="1" stroke-linecap="butt" stroke-miterlimit="10" stroke-linejoin="miter" fill="none" stroke="#000000" d="M360 300V310.23"/>
<path transform="matrix(1,0,0,-1,0,210)" d="M113.0215 102.7518 111.5163 105.7584 113.0215 105.0067 114.5266 105.7584 113.0215 102.7518Z"/>
<path transform="matrix(.4300408,0,0,.4295186,-41.79321,-28.256302)" stroke-width="1" stroke-linecap="butt" stroke-miterlimit="10" stroke-linejoin="miter" fill="none" stroke="#000000" d="M360 315.48 356.5 308.48 360 310.23 363.5 308.48 360 315.48Z"/>
<path transform="matrix(.4300408,0,0,.4295186,-41.79321,-28.256302)" stroke-width="1" stroke-linecap="butt" stroke-miterlimit="10" stroke-linejoin="miter" fill="none" stroke="#000000" d="M202 130H222"/>
<path transform="matrix(.4300408,0,0,.4295186,-41.79321,-28.256302)" stroke-width="1" stroke-linecap="butt" stroke-miterlimit="10" stroke-linejoin="miter" fill="none" stroke="#000000" d="M212 370V130"/>
<path transform="matrix(.4300408,0,0,.4295186,-41.79321,-28.256302)" stroke-width="1" stroke-linecap="butt" stroke-miterlimit="10" stroke-linejoin="miter" fill="none" stroke="#000000" d="M202 370H222"/>
<path transform="matrix(.4300408,0,0,.4295186,-41.79321,-28.256302)" stroke-width="1" stroke-linecap="butt" stroke-miterlimit="10" stroke-linejoin="miter" fill="none" stroke="#000000" d="M202 370H222"/>
<path transform="matrix(.4300408,0,0,.4295186,-41.79321,-28.256302)" stroke-width="1" stroke-linecap="butt" stroke-miterlimit="10" stroke-linejoin="miter" fill="none" stroke="#000000" d="M212 490V370"/>
<path transform="matrix(.4300408,0,0,.4295186,-41.79321,-28.256302)" stroke-width="1" stroke-linecap="butt" stroke-miterlimit="10" stroke-linejoin="miter" fill="none" stroke="#000000" d="M202 490H222"/>
<text xml:space="preserve" transform="matrix(.4300408 0 0 .4295186 -42.00823 -28.470993)" font-size="20" font-family="SawarabiMincho"><tspan y="253" x="117">&#x89e3;</tspan></text>
<text xml:space="preserve" transform="matrix(.4300408 0 0 .4295186 -42.00823 -28.470993)" font-size="20" font-family="SawarabiMincho"><tspan y="253" x="137">&#x6790;</tspan></text>
<text xml:space="preserve" transform="matrix(.4300408 0 0 .4295186 -42.00823 -28.470993)" font-size="20" font-family="SawarabiMincho"><tspan y="253" x="157">&#x90e8;</tspan></text>
<text xml:space="preserve" transform="matrix(.4300408 0 0 .4295186 -42.00823 -28.470993)" font-size="20" font-family="SawarabiMincho"><tspan y="253" x="177">&#x5206;</tspan></text>
<text xml:space="preserve" transform="matrix(.4300408 0 0 .4295186 -42.00823 -28.470993)" font-size="20" font-family="SawarabiMincho"><tspan y="443" x="117">&#x5909;</tspan></text>
<text xml:space="preserve" transform="matrix(.4300408 0 0 .4295186 -42.00823 -28.470993)" font-size="20" font-family="SawarabiMincho"><tspan y="443" x="137">&#x63db;</tspan></text>
<text xml:space="preserve" transform="matrix(.4300408 0 0 .4295186 -42.00823 -28.470993)" font-size="20" font-family="SawarabiMincho"><tspan y="443" x="157">&#x90e8;</tspan></text>
<text xml:space="preserve" transform="matrix(.4300408 0 0 .4295186 -42.00823 -28.470993)" font-size="20" font-family="SawarabiMincho"><tspan y="443" x="177">&#x5206;</tspan></text>
</g>
</g>
</svg>
