<svg xmlns="http://www.w3.org/2000/svg" xmlns:xlink="http://www.w3.org/1999/xlink" xmlns:inkscape="http://www.inkscape.org/namespaces/inkscape" version="1.1" width="431" height="82" viewBox="0 0 431 82">
<defs>
<clipPath id="clip_0">
<path transform="matrix(1,0,0,-1,0,82)" d="M0 0H431V82H0Z"/>
</clipPath>
<clipPath id="clip_1">
<path transform="matrix(1,0,0,-1,0,82)" d="M-13.72817 82H452.5134V-.0007474279H-13.72817Z" clip-rule="evenodd"/>
</clipPath>
<clipPath id="clip_2">
<path transform="matrix(1,0,0,-1,0,82)" d="M0-.000001209963H431V82H0Z"/>
</clipPath>
<clipPath id="clip_3">
<path transform="matrix(1,0,0,-1,0,82)" d="M1.224759 79.61072H437.8502V1.959207H1.224759Z" clip-rule="evenodd"/>
</clipPath>
<clipPath id="clip_4">
<path transform="matrix(1,0,0,-1,0,82)" d="M0-.000001209963H431V82H0Z"/>
</clipPath>
<clipPath id="clip_5">
<path transform="matrix(1,0,0,-1,0,82)" d="M83.04544 62.153H143.0736V48.23648H83.04544Z" clip-rule="evenodd"/>
</clipPath>
<clipPath id="clip_6">
<path transform="matrix(1,0,0,-1,0,82)" d="M0-.000001209963H431V82H0Z"/>
</clipPath>
<clipPath id="clip_7">
<path transform="matrix(1,0,0,-1,0,82)" d="M83.04544 48.23648H143.0736V34.31995H83.04544Z" clip-rule="evenodd"/>
</clipPath>
<clipPath id="clip_8">
<path transform="matrix(1,0,0,-1,0,82)" d="M0-.000001209963H431V82H0Z"/>
</clipPath>
<clipPath id="clip_9">
<path transform="matrix(1,0,0,-1,0,82)" d="M83.04544 34.31995H143.0736V20.40343H83.04544Z" clip-rule="evenodd"/>
</clipPath>
<clipPath id="clip_10">
<path transform="matrix(1,0,0,-1,0,82)" d="M0-.000001209963H431V82H0Z"/>
</clipPath>
<clipPath id="clip_11">
<path transform="matrix(1,0,0,-1,0,82)" d="M1.224759 79.61072H437.8502V1.959207H1.224759Z" clip-rule="evenodd"/>
</clipPath>
<clipPath id="clip_12">
<path transform="matrix(1,0,0,-1,0,82)" d="M0-.000001209963H431V82H0Z"/>
</clipPath>
<clipPath id="clip_13">
<path transform="matrix(1,0,0,-1,0,82)" d="M83.04544 16.12143H143.0736V2.204902H83.04544Z" clip-rule="evenodd"/>
</clipPath>
<clipPath id="clip_14">
<path transform="matrix(1,0,0,-1,0,82)" d="M0-.000001209963H431V82H0Z"/>
</clipPath>
<clipPath id="clip_15">
<path transform="matrix(1,0,0,-1,0,82)" d="M1.224759 79.61072H437.8502V1.959207H1.224759Z" clip-rule="evenodd"/>
</clipPath>
<clipPath id="clip_16">
<path transform="matrix(1,0,0,-1,0,82)" d="M0-.000001209963H431V82H0Z"/>
</clipPath>
<clipPath id="clip_17">
<path transform="matrix(1,0,0,-1,0,82)" d="M4.258479 74.99902H64.28663V61.08249H4.258479Z" clip-rule="evenodd"/>
</clipPath>
<clipPath id="clip_18">
<path transform="matrix(1,0,0,-1,0,82)" d="M0-.000001209963H431V82H0Z"/>
</clipPath>
<clipPath id="clip_19">
<path transform="matrix(1,0,0,-1,0,82)" d="M1.224759 79.61072H437.8502V1.959207H1.224759Z" clip-rule="evenodd"/>
</clipPath>
<clipPath id="clip_20">
<path transform="matrix(1,0,0,-1,0,82)" d="M0-.000001209963H431V82H0Z"/>
</clipPath>
<clipPath id="clip_21">
<path transform="matrix(1,0,0,-1,0,82)" d="M163.4403 62.153H223.4684V48.23648H163.4403Z" clip-rule="evenodd"/>
</clipPath>
<clipPath id="clip_22">
<path transform="matrix(1,0,0,-1,0,82)" d="M0-.000001209963H431V82H0Z"/>
</clipPath>
<clipPath id="clip_23">
<path transform="matrix(1,0,0,-1,0,82)" d="M163.4403 48.23648H223.4684V34.31995H163.4403Z" clip-rule="evenodd"/>
</clipPath>
<clipPath id="clip_24">
<path transform="matrix(1,0,0,-1,0,82)" d="M0-.000001209963H431V82H0Z"/>
</clipPath>
<clipPath id="clip_25">
<path transform="matrix(1,0,0,-1,0,82)" d="M163.4403 34.31995H223.4684V20.40343H163.4403Z" clip-rule="evenodd"/>
</clipPath>
<clipPath id="clip_26">
<path transform="matrix(1,0,0,-1,0,82)" d="M0-.000001209963H431V82H0Z"/>
</clipPath>
<clipPath id="clip_27">
<path transform="matrix(1,0,0,-1,0,82)" d="M1.224759 79.61072H437.8502V1.959207H1.224759Z" clip-rule="evenodd"/>
</clipPath>
<clipPath id="clip_28">
<path transform="matrix(1,0,0,-1,0,82)" d="M0-.000001209963H431V82H0Z"/>
</clipPath>
<clipPath id="clip_29">
<path transform="matrix(1,0,0,-1,0,82)" d="M163.4403 16.12143H223.4684V2.204902H163.4403Z" clip-rule="evenodd"/>
</clipPath>
<clipPath id="clip_30">
<path transform="matrix(1,0,0,-1,0,82)" d="M0-.000001209963H431V82H0Z"/>
</clipPath>
<clipPath id="clip_31">
<path transform="matrix(1,0,0,-1,0,82)" d="M1.224759 79.61072H437.8502V1.959207H1.224759Z" clip-rule="evenodd"/>
</clipPath>
<clipPath id="clip_32">
<path transform="matrix(1,0,0,-1,0,82)" d="M0-.000001209963H431V82H0Z"/>
</clipPath>
<clipPath id="clip_33">
<path transform="matrix(1,0,0,-1,0,82)" d="M243.8351 62.153H303.8633V48.23648H243.8351Z" clip-rule="evenodd"/>
</clipPath>
<clipPath id="clip_34">
<path transform="matrix(1,0,0,-1,0,82)" d="M0-.000001209963H431V82H0Z"/>
</clipPath>
<clipPath id="clip_35">
<path transform="matrix(1,0,0,-1,0,82)" d="M243.8351 48.23648H303.8633V34.31995H243.8351Z" clip-rule="evenodd"/>
</clipPath>
<clipPath id="clip_36">
<path transform="matrix(1,0,0,-1,0,82)" d="M0-.000001209963H431V82H0Z"/>
</clipPath>
<clipPath id="clip_37">
<path transform="matrix(1,0,0,-1,0,82)" d="M243.8351 34.31995H303.8633V20.40343H243.8351Z" clip-rule="evenodd"/>
</clipPath>
<clipPath id="clip_38">
<path transform="matrix(1,0,0,-1,0,82)" d="M0-.000001209963H431V82H0Z"/>
</clipPath>
<clipPath id="clip_39">
<path transform="matrix(1,0,0,-1,0,82)" d="M1.224759 79.61072H437.8502V1.959207H1.224759Z" clip-rule="evenodd"/>
</clipPath>
<clipPath id="clip_40">
<path transform="matrix(1,0,0,-1,0,82)" d="M0-.000001209963H431V82H0Z"/>
</clipPath>
<clipPath id="clip_41">
<path transform="matrix(1,0,0,-1,0,82)" d="M243.8351 16.12143H303.8633V2.204902H243.8351Z" clip-rule="evenodd"/>
</clipPath>
<clipPath id="clip_42">
<path transform="matrix(1,0,0,-1,0,82)" d="M0-.000001209963H431V82H0Z"/>
</clipPath>
<clipPath id="clip_43">
<path transform="matrix(1,0,0,-1,0,82)" d="M1.224759 79.61072H437.8502V1.959207H1.224759Z" clip-rule="evenodd"/>
</clipPath>
<clipPath id="clip_44">
<path transform="matrix(1,0,0,-1,0,82)" d="M0-.000001209963H431V82H0Z"/>
</clipPath>
<clipPath id="clip_45">
<path transform="matrix(1,0,0,-1,0,82)" d="M324.23 62.153H384.2581V48.23648H324.23Z" clip-rule="evenodd"/>
</clipPath>
<clipPath id="clip_46">
<path transform="matrix(1,0,0,-1,0,82)" d="M0-.000001209963H431V82H0Z"/>
</clipPath>
<clipPath id="clip_47">
<path transform="matrix(1,0,0,-1,0,82)" d="M324.23 48.23648H384.2581V34.31995H324.23Z" clip-rule="evenodd"/>
</clipPath>
<clipPath id="clip_48">
<path transform="matrix(1,0,0,-1,0,82)" d="M0-.000001209963H431V82H0Z"/>
</clipPath>
<clipPath id="clip_49">
<path transform="matrix(1,0,0,-1,0,82)" d="M324.23 34.31995H384.2581V20.40343H324.23Z" clip-rule="evenodd"/>
</clipPath>
<clipPath id="clip_50">
<path transform="matrix(1,0,0,-1,0,82)" d="M0-.000001209963H431V82H0Z"/>
</clipPath>
<clipPath id="clip_51">
<path transform="matrix(1,0,0,-1,0,82)" d="M1.224759 79.61072H437.8502V1.959207H1.224759Z" clip-rule="evenodd"/>
</clipPath>
<clipPath id="clip_52">
<path transform="matrix(1,0,0,-1,0,82)" d="M0-.000001209963H431V82H0Z"/>
</clipPath>
<clipPath id="clip_53">
<path transform="matrix(1,0,0,-1,0,82)" d="M324.23 16.12143H384.2581V2.204902H324.23Z" clip-rule="evenodd"/>
</clipPath>
<clipPath id="clip_54">
<path transform="matrix(1,0,0,-1,0,82)" d="M0-.000001209963H431V82H0Z"/>
</clipPath>
<clipPath id="clip_55">
<path transform="matrix(1,0,0,-1,0,82)" d="M1.224759 79.61072H437.8502V1.959207H1.224759Z" clip-rule="evenodd"/>
</clipPath>
<clipPath id="clip_56">
<path transform="matrix(1,0,0,-1,0,82)" d="M0-.000001209963H431V82H0Z"/>
</clipPath>
</defs>
<g clip-path="url(#clip_0)">
<path transform="matrix(1,0,0,-1,0,82)" d="M0 82H431V0H0Z" fill="#ffffff"/>
</g>
<g clip-path="url(#clip_1)">
<g clip-path="url(#clip_2)">
<path transform="matrix(1,0,0,-1,0,82)" d="M-13.72817 82H452.8031V.1672494H-13.72817Z" fill="#ffffff"/>
</g>
</g>
<g clip-path="url(#clip_3)">
<g clip-path="url(#clip_4)">
<path transform="matrix(1,0,0,-1,0,82)" d="M81.16955 64.56163V78.47815H145.4854V64.56163" fill="#ffffff"/>
<path transform="matrix(.5359657,0,0,.5352509,-2.977058,-66.06081)" stroke-width="1" stroke-linecap="butt" stroke-miterlimit="10" stroke-linejoin="miter" fill="none" stroke="#000000" d="M157 156V130H277V156"/>
<path transform="matrix(.5359657,0,0,.5352509,-2.977058,-66.06081)" stroke-width="1" stroke-linecap="butt" stroke-miterlimit="10" stroke-linejoin="miter" fill="none" stroke="#000000" d="M157 156V268H277V156"/>
<path transform="matrix(.5359657,0,0,.5352509,-2.977058,-66.06081)" stroke-width="1" stroke-linecap="butt" stroke-miterlimit="10" stroke-linejoin="miter" fill="none" stroke="#000000" d="M157 156H277"/>
<text xml:space="preserve" transform="matrix(.598117 0 0 .5973193 -3.245041 -66.3284)" font-size="10.75" font-family="Arial" font-style="italic"><tspan y="132.6094" x="180">T</tspan></text>
<text xml:space="preserve" transform="matrix(.598117 0 0 .5973193 -3.245041 -66.3284)" font-size="10.75" font-family="Arial" font-style="italic"><tspan y="132.6094" x="185.5797 191.55886 196.93386 202.91301">oken</tspan></text>
</g>
</g>
<g clip-path="url(#clip_5)">
<g clip-path="url(#clip_6)">
<text xml:space="preserve" transform="matrix(.598117 0 0 .5973193 -3.245041 -66.3284)" font-size="10.75" font-family="ArialMT"><tspan y="155.9062" x="146.0469 149.86316 152.25182 158.23097 161.21732">"int"</tspan></text>
</g>
</g>
<g clip-path="url(#clip_7)">
<g clip-path="url(#clip_8)">
<text xml:space="preserve" transform="matrix(.598117 0 0 .5973193 -3.245041 -66.3284)" font-size="10.75" font-family="ArialMT"><tspan y="179.2031" x="146.0469 152.02606 158.00522 160.99156 164.57132 167.55767 172.93267 178.91182 184.89098 187.87732 193.25232 199.23148 205.21063 210.58563 212.97429 215.96063 218.34929 224.32845 227.9082">27 (type specifier)</tspan></text>
</g>
</g>
<g clip-path="url(#clip_9)">
<g clip-path="url(#clip_10)">
<text xml:space="preserve" transform="matrix(.598117 0 0 .5973193 -3.245041 -66.3284)" font-size="10.75" font-family="ArialMT"><tspan y="202.5156" x="146.0469">0</tspan></text>
</g>
</g>
<g clip-path="url(#clip_11)">
<g clip-path="url(#clip_12)">
<path transform="matrix(.5359657,0,0,.5352509,-2.977058,-66.06081)" stroke-width="1" stroke-linecap="butt" stroke-miterlimit="10" stroke-linejoin="miter" fill="none" stroke="#000000" d="M157 238H277"/>
</g>
</g>
<g clip-path="url(#clip_13)">
<g clip-path="url(#clip_14)">
<text xml:space="preserve" transform="matrix(.598117 0 0 .5973193 -3.245041 -66.3284)" font-size="10.75" font-family="ArialMT"><tspan y="232.9688" x="146.0469">T</tspan></text>
<text xml:space="preserve" transform="matrix(.598117 0 0 .5973193 -3.245041 -66.3284)" font-size="10.75" font-family="ArialMT"><tspan y="232.9688" x="151.4219 157.40106 162.77606 168.75522 174.73438 178.91828 181.90462 187.88378 193.86293 199.23793">oken* next</tspan></text>
</g>
</g>
<g clip-path="url(#clip_15)">
<g clip-path="url(#clip_16)">
<path transform="matrix(1,0,0,-1,0,82)" d="M2.382598 78.47815H66.69848V63.49113H2.382598Z" fill="#ffffff"/>
<path transform="matrix(.5359657,0,0,.5352509,-2.977058,-66.06081)" stroke-width="1" stroke-linecap="butt" stroke-miterlimit="4" stroke-linejoin="miter" fill="none" stroke="#000000" d="M10 130H130V158H10Z"/>
</g>
</g>
<g clip-path="url(#clip_17)">
<g clip-path="url(#clip_18)">
<text xml:space="preserve" transform="matrix(.598117 0 0 .5973193 -3.245041 -66.3284)" font-size="10.75" font-family="ArialMT"><tspan y="134.4062" x="14.32812">T</tspan></text>
<text xml:space="preserve" transform="matrix(.598117 0 0 .5973193 -3.245041 -66.3284)" font-size="10.75" font-family="ArialMT"><tspan y="134.4062" x="19.70312 25.68227 31.05727 37.036424 43.015577 47.19948 50.185827 56.164979 62.14413 67.519138">oken* next</tspan></text>
</g>
</g>
<g clip-path="url(#clip_19)">
<g clip-path="url(#clip_20)">
<path transform="matrix(.5359657,0,0,.5352509,-2.977058,-66.06081)" stroke-width="1" stroke-linecap="butt" stroke-miterlimit="10" stroke-linejoin="miter" fill="none" stroke="#000000" d="M130 145H150 150.15"/>
<path transform="matrix(1,0,0,-1,0,82)" d="M80.312 70.49221 76.58704 68.5653 77.49818 70.44939 76.53345 72.31206 80.312 70.49221Z"/>
<path transform="matrix(.5359657,0,0,.5352509,-2.977058,-66.06081)" stroke-width="1" stroke-linecap="butt" stroke-miterlimit="10" stroke-linejoin="miter" fill="none" stroke="#000000" d="M155.4 144.92 148.45 148.52 150.15 145 148.35 141.52 155.4 144.92Z"/>
<path transform="matrix(1,0,0,-1,0,82)" d="M161.5644 64.56163V78.47815H225.8803V64.56163" fill="#ffffff"/>
<path transform="matrix(.5359657,0,0,.5352509,-2.977058,-66.06081)" stroke-width="1" stroke-linecap="butt" stroke-miterlimit="10" stroke-linejoin="miter" fill="none" stroke="#000000" d="M307 156V130H427V156"/>
<path transform="matrix(.5359657,0,0,.5352509,-2.977058,-66.06081)" stroke-width="1" stroke-linecap="butt" stroke-miterlimit="10" stroke-linejoin="miter" fill="none" stroke="#000000" d="M307 156V268H427V156"/>
<path transform="matrix(.5359657,0,0,.5352509,-2.977058,-66.06081)" stroke-width="1" stroke-linecap="butt" stroke-miterlimit="10" stroke-linejoin="miter" fill="none" stroke="#000000" d="M307 156H427"/>
<text xml:space="preserve" transform="matrix(.598117 0 0 .5973193 -3.245041 -66.3284)" font-size="10.75" font-family="Arial" font-style="italic"><tspan y="132.6094" x="314.4062">T</tspan></text>
<text xml:space="preserve" transform="matrix(.598117 0 0 .5973193 -3.245041 -66.3284)" font-size="10.75" font-family="Arial" font-style="italic"><tspan y="132.6094" x="319.986 325.96513 331.34013 337.31925">oken</tspan></text>
</g>
</g>
<g clip-path="url(#clip_21)">
<g clip-path="url(#clip_22)">
<text xml:space="preserve" transform="matrix(.598117 0 0 .5973193 -3.245041 -66.3284)" font-size="10.75" font-family="ArialMT"><tspan y="155.9062" x="280.4688 284.28507 289.66007">"x"</tspan></text>
</g>
</g>
<g clip-path="url(#clip_23)">
<g clip-path="url(#clip_24)">
<text xml:space="preserve" transform="matrix(.598117 0 0 .5973193 -3.245041 -66.3284)" font-size="10.75" font-family="ArialMT"><tspan y="179.2031" x="280.4688 286.44795 292.42707 295.41343 298.99317 304.9723 310.3473 316.32643 319.90617 322.89253 328.87165 334.85078 337.83714 340.22578 346.2049 352.18403 358.16316">52 (user defined)</tspan></text>
</g>
</g>
<g clip-path="url(#clip_25)">
<g clip-path="url(#clip_26)">
<text xml:space="preserve" transform="matrix(.598117 0 0 .5973193 -3.245041 -66.3284)" font-size="10.75" font-family="ArialMT"><tspan y="202.5156" x="280.4688">0</tspan></text>
</g>
</g>
<g clip-path="url(#clip_27)">
<g clip-path="url(#clip_28)">
<path transform="matrix(.5359657,0,0,.5352509,-2.977058,-66.06081)" stroke-width="1" stroke-linecap="butt" stroke-miterlimit="10" stroke-linejoin="miter" fill="none" stroke="#000000" d="M307 238H427"/>
</g>
</g>
<g clip-path="url(#clip_29)">
<g clip-path="url(#clip_30)">
<text xml:space="preserve" transform="matrix(.598117 0 0 .5973193 -3.245041 -66.3284)" font-size="10.75" font-family="ArialMT"><tspan y="232.9688" x="280.4688">T</tspan></text>
<text xml:space="preserve" transform="matrix(.598117 0 0 .5973193 -3.245041 -66.3284)" font-size="10.75" font-family="ArialMT"><tspan y="232.9688" x="285.8438 291.82295 297.19795 303.17707 309.1562 313.3401 316.32646 322.30558 328.2847 333.6597">oken* next</tspan></text>
</g>
</g>
<g clip-path="url(#clip_31)">
<g clip-path="url(#clip_32)">
<path transform="matrix(.5359657,0,0,.5352509,-2.977058,-66.06081)" stroke-width="1" stroke-linecap="butt" stroke-miterlimit="10" stroke-linejoin="miter" fill="none" stroke="#000000" d="M277 255H287V143.7L300.63 143.67"/>
<path transform="matrix(1,0,0,-1,0,82)" d="M160.9641 71.16662 157.2177 69.28255 158.1503 71.16127 157.2124 73.0293 160.9641 71.16662Z"/>
<path transform="matrix(.5359657,0,0,.5352509,-2.977058,-66.06081)" stroke-width="1" stroke-linecap="butt" stroke-miterlimit="10" stroke-linejoin="miter" fill="none" stroke="#000000" d="M305.88 143.66 298.89 147.18 300.63 143.67 298.88 140.18 305.88 143.66Z"/>
<path transform="matrix(1,0,0,-1,0,82)" d="M241.9592 64.56163V78.47815H306.2751V64.56163" fill="#ffffff"/>
<path transform="matrix(.5359657,0,0,.5352509,-2.977058,-66.06081)" stroke-width="1" stroke-linecap="butt" stroke-miterlimit="10" stroke-linejoin="miter" fill="none" stroke="#000000" d="M457 156V130H577V156"/>
<path transform="matrix(.5359657,0,0,.5352509,-2.977058,-66.06081)" stroke-width="1" stroke-linecap="butt" stroke-miterlimit="10" stroke-linejoin="miter" fill="none" stroke="#000000" d="M457 156V268H577V156"/>
<path transform="matrix(.5359657,0,0,.5352509,-2.977058,-66.06081)" stroke-width="1" stroke-linecap="butt" stroke-miterlimit="10" stroke-linejoin="miter" fill="none" stroke="#000000" d="M457 156H577"/>
<text xml:space="preserve" transform="matrix(.598117 0 0 .5973193 -3.245041 -66.3284)" font-size="10.75" font-family="Arial" font-style="italic"><tspan y="132.6094" x="448.8281">T</tspan></text>
<text xml:space="preserve" transform="matrix(.598117 0 0 .5973193 -3.245041 -66.3284)" font-size="10.75" font-family="Arial" font-style="italic"><tspan y="132.6094" x="454.4078 460.38694 465.76194 471.74107">oken</tspan></text>
</g>
</g>
<g clip-path="url(#clip_33)">
<g clip-path="url(#clip_34)">
<text xml:space="preserve" transform="matrix(.598117 0 0 .5973193 -3.245041 -66.3284)" font-size="10.75" font-family="ArialMT"><tspan y="155.9062" x="414.875 418.69126 424.96928">"="</tspan></text>
</g>
</g>
<g clip-path="url(#clip_35)">
<g clip-path="url(#clip_36)">
<text xml:space="preserve" transform="matrix(.598117 0 0 .5973193 -3.245041 -66.3284)" font-size="10.75" font-family="ArialMT"><tspan y="179.2031" x="414.875 420.85414 426.83326 429.8196 433.39936 439.37849 445.3576 451.33674 457.31587 459.7045">21 (equal)</tspan></text>
</g>
</g>
<g clip-path="url(#clip_37)">
<g clip-path="url(#clip_38)">
<text xml:space="preserve" transform="matrix(.598117 0 0 .5973193 -3.245041 -66.3284)" font-size="10.75" font-family="ArialMT"><tspan y="202.5156" x="414.875">0</tspan></text>
</g>
</g>
<g clip-path="url(#clip_39)">
<g clip-path="url(#clip_40)">
<path transform="matrix(.5359657,0,0,.5352509,-2.977058,-66.06081)" stroke-width="1" stroke-linecap="butt" stroke-miterlimit="10" stroke-linejoin="miter" fill="none" stroke="#000000" d="M457 238H577"/>
</g>
</g>
<g clip-path="url(#clip_41)">
<g clip-path="url(#clip_42)">
<text xml:space="preserve" transform="matrix(.598117 0 0 .5973193 -3.245041 -66.3284)" font-size="10.75" font-family="ArialMT"><tspan y="232.9688" x="414.875">T</tspan></text>
<text xml:space="preserve" transform="matrix(.598117 0 0 .5973193 -3.245041 -66.3284)" font-size="10.75" font-family="ArialMT"><tspan y="232.9688" x="420.25 426.22914 431.60414 437.58326 443.56239 447.74629 450.73265 456.71177 462.6909 468.0659">oken* next</tspan></text>
</g>
</g>
<g clip-path="url(#clip_43)">
<g clip-path="url(#clip_44)">
<path transform="matrix(.5359657,0,0,.5352509,-2.977058,-66.06081)" stroke-width="1" stroke-linecap="butt" stroke-miterlimit="10" stroke-linejoin="miter" fill="none" stroke="#000000" d="M427 255H437V143.7L450.63 143.67"/>
<path transform="matrix(1,0,0,-1,0,82)" d="M241.359 71.16662 237.6126 69.28255 238.5451 71.16127 237.6072 73.0293 241.359 71.16662Z"/>
<path transform="matrix(.5359657,0,0,.5352509,-2.977058,-66.06081)" stroke-width="1" stroke-linecap="butt" stroke-miterlimit="10" stroke-linejoin="miter" fill="none" stroke="#000000" d="M455.88 143.66 448.89 147.18 450.63 143.67 448.88 140.18 455.88 143.66Z"/>
<path transform="matrix(1,0,0,-1,0,82)" d="M322.3541 64.56163V78.47815H386.67V64.56163" fill="#ffffff"/>
<path transform="matrix(.5359657,0,0,.5352509,-2.977058,-66.06081)" stroke-width="1" stroke-linecap="butt" stroke-miterlimit="10" stroke-linejoin="miter" fill="none" stroke="#000000" d="M607 156V130H727V156"/>
<path transform="matrix(.5359657,0,0,.5352509,-2.977058,-66.06081)" stroke-width="1" stroke-linecap="butt" stroke-miterlimit="10" stroke-linejoin="miter" fill="none" stroke="#000000" d="M607 156V268H727V156"/>
<path transform="matrix(.5359657,0,0,.5352509,-2.977058,-66.06081)" stroke-width="1" stroke-linecap="butt" stroke-miterlimit="10" stroke-linejoin="miter" fill="none" stroke="#000000" d="M607 156H727"/>
<text xml:space="preserve" transform="matrix(.598117 0 0 .5973193 -3.245041 -66.3284)" font-size="10.75" font-family="Arial" font-style="italic"><tspan y="132.6094" x="583.2344">T</tspan></text>
<text xml:space="preserve" transform="matrix(.598117 0 0 .5973193 -3.245041 -66.3284)" font-size="10.75" font-family="Arial" font-style="italic"><tspan y="132.6094" x="588.8141 594.7932 600.1682 606.14736">oken</tspan></text>
</g>
</g>
<g clip-path="url(#clip_45)">
<g clip-path="url(#clip_46)">
<text xml:space="preserve" transform="matrix(.598117 0 0 .5973193 -3.245041 -66.3284)" font-size="10.75" font-family="ArialMT"><tspan y="155.9062" x="549.2969 553.1131 559.0922">"3"</tspan></text>
</g>
</g>
<g clip-path="url(#clip_47)">
<g clip-path="url(#clip_48)">
<text xml:space="preserve" transform="matrix(.598117 0 0 .5973193 -3.245041 -66.3284)" font-size="10.75" font-family="ArialMT"><tspan y="179.2031" x="549.2969 555.276 561.2551 564.2415 567.8213 573.1963 579.1754 585.15457 590.52957 593.5159 599.49508 605.4742 608.4606">36 (constant)</tspan></text>
</g>
</g>
<g clip-path="url(#clip_49)">
<g clip-path="url(#clip_50)">
<text xml:space="preserve" transform="matrix(.598117 0 0 .5973193 -3.245041 -66.3284)" font-size="10.75" font-family="ArialMT"><tspan y="202.5156" x="549.2969 555.276 558.2624 561.84219 564.2308 570.2099 573.1963 579.1754 585.15457 591.13369 594.71347 597.6998 603.0748 609.05398 615.0331 620.4081 623.3945 629.3736 635.3527 638.3391">1 (integer constant)</tspan></text>
</g>
</g>
<g clip-path="url(#clip_51)">
<g clip-path="url(#clip_52)">
<path transform="matrix(.5359657,0,0,.5352509,-2.977058,-66.06081)" stroke-width="1" stroke-linecap="butt" stroke-miterlimit="10" stroke-linejoin="miter" fill="none" stroke="#000000" d="M607 238H727"/>
</g>
</g>
<g clip-path="url(#clip_53)">
<g clip-path="url(#clip_54)">
<text xml:space="preserve" transform="matrix(.598117 0 0 .5973193 -3.245041 -66.3284)" font-size="10.75" font-family="ArialMT"><tspan y="232.9688" x="549.2969">T</tspan></text>
<text xml:space="preserve" transform="matrix(.598117 0 0 .5973193 -3.245041 -66.3284)" font-size="10.75" font-family="ArialMT"><tspan y="232.9688" x="554.6719 560.651 566.026 572.0051 577.98428 582.16818 585.15457 591.13369 597.1128 602.4878">oken* next</tspan></text>
</g>
</g>
<g clip-path="url(#clip_55)">
<g clip-path="url(#clip_56)">
<path transform="matrix(.5359657,0,0,.5352509,-2.977058,-66.06081)" stroke-width="1" stroke-linecap="butt" stroke-miterlimit="10" stroke-linejoin="miter" fill="none" stroke="#000000" d="M577 255H587V143.7L600.63 143.67"/>
<path transform="matrix(1,0,0,-1,0,82)" d="M321.7538 71.16662 318.0074 69.28255 318.94 71.16127 318.0021 73.0293 321.7538 71.16662Z"/>
<path transform="matrix(.5359657,0,0,.5352509,-2.977058,-66.06081)" stroke-width="1" stroke-linecap="butt" stroke-miterlimit="10" stroke-linejoin="miter" fill="none" stroke="#000000" d="M605.88 143.66 598.89 147.18 600.63 143.67 598.88 140.18 605.88 143.66Z"/>
<path transform="matrix(.5359657,0,0,.5352509,-2.977058,-66.06081)" stroke-width="1" stroke-linecap="butt" stroke-miterlimit="10" stroke-linejoin="miter" fill="none" stroke="#000000" d="M727 254.5H737V143.5H750.63"/>
<path transform="matrix(1,0,0,-1,0,82)" d="M402.1487 71.25226 398.3969 69.37889 399.3348 71.25226 398.3969 73.12564 402.1487 71.25226Z"/>
<path transform="matrix(.5359657,0,0,.5352509,-2.977058,-66.06081)" stroke-width="1" stroke-linecap="butt" stroke-miterlimit="10" stroke-linejoin="miter" fill="none" stroke="#000000" d="M755.88 143.5 748.88 147 750.63 143.5 748.88 140 755.88 143.5Z"/>
<path transform="matrix(1,0,0,-1,0,82)" d="M413.6879 38.3887C413.6879 38.5883 413.7587 38.76296 413.9003 38.91266 414.0419 39.06236 414.2209 39.13721 414.4374 39.13721 414.6373 39.13721 414.8122 39.07068 414.9621 38.93761 415.112 38.80454 415.1911 38.62573 415.1995 38.40117 415.1995 38.19325 415.1287 38.01444 414.9871 37.86474 414.8455 37.71503 414.6665 37.64018 414.4499 37.64018 414.2334 37.64018 414.0544 37.71088 413.9128 37.85226 413.7712 37.99365 413.6963 38.17246 413.6879 38.3887ZM419.2718 38.3887C419.2718 38.5883 419.3426 38.76296 419.4842 38.91266 419.6258 39.06236 419.8048 39.13721 420.0213 39.13721 420.2212 39.13721 420.3961 39.07068 420.546 38.93761 420.6959 38.80454 420.775 38.62573 420.7833 38.40117 420.7833 38.19325 420.7125 38.01444 420.571 37.86474 420.4294 37.71503 420.2503 37.64018 420.0338 37.64018 419.8173 37.64018 419.6382 37.71088 419.4967 37.85226 419.3551 37.99365 419.2801 38.17246 419.2718 38.3887ZM424.8557 38.3887C424.8557 38.5883 424.9265 38.76296 425.0681 38.91266 425.2096 39.06236 425.3887 39.13721 425.6052 39.13721 425.8051 39.13721 425.98 39.07068 426.1299 38.93761 426.2798 38.80454 426.3589 38.62573 426.3672 38.40117 426.3672 38.19325 426.2964 38.01444 426.1549 37.86474 426.0133 37.71503 425.8342 37.64018 425.6177 37.64018 425.4012 37.64018 425.2221 37.71088 425.0806 37.85226 424.939 37.99365 424.864 38.17246 424.8557 38.3887Z"/>
<path transform="matrix(.01249191,0,0,-.01247525,412.7136,44.35982)" stroke-width="0" stroke-linecap="butt" stroke-miterlimit="4" stroke-linejoin="miter" fill="none" stroke="#000000" stroke-opacity=".047" d="M78 60C78 76 83.66666 90 95 102 106.3333 114 120.6667 120 138 120 154 120 168 114.6667 180 104 192 93.33334 198.3333 79 199 61 199 44.33333 193.3333 30 182 18 170.6667 6 156.3333 0 139 0 121.6667 0 107.3333 5.666666 96 17 84.66666 28.33333 78.66666 42.66666 78 60ZM525 60C525 76 530.6667 90 542 102 553.3333 114 567.6667 120 585 120 601 120 615 114.6667 627 104 639 93.33334 645.3333 79 646 61 646 44.33333 640.3333 30 629 18 617.6667 6 603.3333 0 586 0 568.6667 0 554.3333 5.666666 543 17 531.6667 28.33333 525.6667 42.66666 525 60ZM972 60C972 76 977.6667 90 989 102 1000.333 114 1014.667 120 1032 120 1048 120 1062 114.6667 1074 104 1086 93.33334 1092.333 79 1093 61 1093 44.33333 1087.333 30 1076 18 1064.667 6 1050.333 0 1033 0 1015.667 0 1001.333 5.666666 990 17 978.6667 28.33333 972.6667 42.66666 972 60Z"/>
</g>
</g>
</svg>
