<svg xmlns="http://www.w3.org/2000/svg" xmlns:xlink="http://www.w3.org/1999/xlink" xmlns:inkscape="http://www.inkscape.org/namespaces/inkscape" version="1.1" width="422" height="387" viewBox="0 0 422 387">
<defs>
<clipPath id="clip_0">
<path transform="matrix(1,0,0,-1,0,387)" d="M0 0H422V387H0Z"/>
</clipPath>
<clipPath id="clip_1">
<path transform="matrix(1,0,0,-1,0,387)" d="M0 387H422.0578V-.05788107H0Z" clip-rule="evenodd"/>
</clipPath>
<clipPath id="clip_2">
<path transform="matrix(1,0,0,-1,0,387)" d="M0 .000009119511H422V387H0Z"/>
</clipPath>
<clipPath id="clip_3">
<path transform="matrix(1,0,0,-1,0,387)" d="M4.608436 382.7559H417.5243V4.111226H4.608436Z" clip-rule="evenodd"/>
</clipPath>
<clipPath id="clip_4">
<path transform="matrix(1,0,0,-1,0,387)" d="M0 .000009119511H422V387H0Z"/>
</clipPath>
</defs>
<g clip-path="url(#clip_0)">
<path transform="matrix(1,0,0,-1,0,387)" d="M0 387H422V0H0Z" fill="#ffffff"/>
</g>
<g clip-path="url(#clip_1)">
<g clip-path="url(#clip_2)">
<path transform="matrix(1,0,0,-1,0,387)" d="M0 387H422.1327V-.1328424H0Z" fill="#ffffff"/>
</g>
</g>
<g clip-path="url(#clip_3)">
<g clip-path="url(#clip_4)">
<path transform="matrix(.3459174,0,0,.3462689,139.8737,-2.3236085)" stroke-width="2" stroke-linecap="butt" stroke-miterlimit="10" stroke-linejoin="miter" fill="none" stroke="#ffffff" d="M-305 60V71.76"/>
<path transform="matrix(1,0,0,-1,0,387)" d="M34.36887 362.3978 32.9852 365.1679 34.36887 364.4754 35.75254 365.1679 34.36887 362.3978Z" fill="#ffffff"/>
<path transform="matrix(.3459174,0,0,.3462689,139.8737,-2.3236085)" stroke-width="2" stroke-linecap="butt" stroke-miterlimit="10" stroke-linejoin="miter" fill="none" stroke="#ffffff" d="M-305 77.76-309 69.76-305 71.76-301 69.76-305 77.76Z"/>
<path transform="matrix(.3459174,0,0,.3462689,139.8737,-2.3236085)" stroke-width="2" stroke-linecap="butt" stroke-miterlimit="10" stroke-linejoin="miter" fill="none" stroke="#000000" d="M-305 60V71.76"/>
<path transform="matrix(1,0,0,-1,0,387)" d="M34.36887 362.3978 32.9852 365.1679 34.36887 364.4754 35.75254 365.1679 34.36887 362.3978Z"/>
<path transform="matrix(.3459174,0,0,.3462689,139.8737,-2.3236085)" stroke-width="2" stroke-linecap="butt" stroke-miterlimit="10" stroke-linejoin="miter" fill="none" stroke="#000000" d="M-305 77.76-309 69.76-305 71.76-301 69.76-305 77.76Z"/>
<path transform="matrix(1,0,0,-1,0,387)" d="M5.138857 382.2251H63.94482V368.3744H5.138857Z" fill="#99ff99"/>
<path transform="matrix(.3459174,0,0,.3462689,140.0466,-2.1505128)" stroke-width="1" stroke-linecap="butt" stroke-miterlimit="4" stroke-linejoin="miter" fill="none" stroke="#000000" d="M-390 20H-220V60H-390Z"/>
<text xml:space="preserve" transform="matrix(.3459174 0 0 .3462689 139.8737 -2.3236085)" font-size="17" font-family="ArialMT"><tspan y="45" x="-364.2188">T</tspan></text>
<text xml:space="preserve" transform="matrix(.3459174 0 0 .3462689 139.8737 -2.3236085)" font-size="17" font-family="ArialMT"><tspan y="45" x="-354.4653 -348.8043 -339.3489 -329.89353 -321.39353 -317.61616 -308.16078 -303.43815 -299.66078 -290.20539 -280.75 -276.02738 -263.75 -254.2946 -250.5172">ranslation Unit</tspan></text>
<path transform="matrix(.3459174,0,0,.3462689,139.8737,-2.3236085)" stroke-width="2" stroke-linecap="butt" stroke-miterlimit="10" stroke-linejoin="miter" fill="none" stroke="#000000" d="M-220 100H325V121.76"/>
<path transform="matrix(1,0,0,-1,0,387)" d="M252.2968 345.0843 250.9132 347.8545 252.2968 347.162 253.6805 347.8545 252.2968 345.0843Z"/>
<path transform="matrix(.3459174,0,0,.3462689,139.8737,-2.3236085)" stroke-width="2" stroke-linecap="butt" stroke-miterlimit="10" stroke-linejoin="miter" fill="none" stroke="#000000" d="M325 127.76 321 119.76 325 121.76 329 119.76 325 127.76Z"/>
<path transform="matrix(.3459174,0,0,.3462689,139.8737,-2.3236085)" stroke-width="2" stroke-linecap="butt" stroke-miterlimit="10" stroke-linejoin="miter" fill="none" stroke="#000000" d="M-305 120V911.76"/>
<path transform="matrix(1,0,0,-1,0,387)" d="M34.36887 71.53194 32.9852 74.30209 34.36887 73.60955 35.75254 74.30209 34.36887 71.53194Z"/>
<path transform="matrix(.3459174,0,0,.3462689,139.8737,-2.3236085)" stroke-width="2" stroke-linecap="butt" stroke-miterlimit="10" stroke-linejoin="miter" fill="none" stroke="#000000" d="M-305 917.76-309 909.76-305 911.76-301 909.76-305 917.76Z"/>
<path transform="matrix(.3459174,0,0,.3462689,139.8737,-2.3236085)" stroke-width="2" stroke-linecap="butt" stroke-miterlimit="10" stroke-linejoin="miter" fill="none" stroke="#000000" d="M-220 100H-180V480H325V501.76"/>
<path transform="matrix(1,0,0,-1,0,387)" d="M252.2968 213.5022 250.9132 216.2723 252.2968 215.5798 253.6805 216.2723 252.2968 213.5022Z"/>
<path transform="matrix(.3459174,0,0,.3462689,139.8737,-2.3236085)" stroke-width="2" stroke-linecap="butt" stroke-miterlimit="10" stroke-linejoin="miter" fill="none" stroke="#000000" d="M325 507.76 321 499.76 325 501.76 329 499.76 325 507.76Z"/>
<path transform="matrix(1,0,0,-1,0,387)" d="M5.138857 361.449H63.94482V347.5983H5.138857Z" fill="#99ff99"/>
<path transform="matrix(.3459174,0,0,.3462689,140.0466,-2.1505128)" stroke-width="1" stroke-linecap="butt" stroke-miterlimit="4" stroke-linejoin="miter" fill="none" stroke="#000000" d="M-390 80H-220V120H-390Z"/>
<text xml:space="preserve" transform="matrix(.3459174 0 0 .3462689 139.8737 -2.3236085)" font-size="17" font-family="ArialMT"><tspan y="105" x="-381.5469 -370.20793 -361.70793 -356.9853 -347.5299 -341.8689 -332.4135 -322.95814 -319.18077 -314.45814 -302.18077 -292.72538 -284.22538 -280.448 -270.9926 -265.3316 -255.8762 -251.15361 -247.3762 -237.9208">External Declaration</tspan></text>
<path transform="matrix(.3459174,0,0,.3462689,139.8737,-2.3236085)" stroke-width="2" stroke-linecap="butt" stroke-miterlimit="10" stroke-linejoin="miter" fill="none" stroke="#000000" d="M325 170V190H-55V211.76"/>
<path transform="matrix(1,0,0,-1,0,387)" d="M120.8482 313.9201 119.4646 316.6903 120.8482 315.9978 122.2319 316.6903 120.8482 313.9201Z"/>
<path transform="matrix(.3459174,0,0,.3462689,139.8737,-2.3236085)" stroke-width="2" stroke-linecap="butt" stroke-miterlimit="10" stroke-linejoin="miter" fill="none" stroke="#000000" d="M-55 217.76-59 209.76-55 211.76-51 209.76-55 217.76Z"/>
<path transform="matrix(.3459174,0,0,.3462689,139.8737,-2.3236085)" stroke-width="2" stroke-linecap="butt" stroke-miterlimit="10" stroke-linejoin="miter" fill="none" stroke="#000000" d="M325 170V190H135V211.76"/>
<path transform="matrix(1,0,0,-1,0,387)" d="M186.5725 313.9201 185.1889 316.6903 186.5725 315.9978 187.9562 316.6903 186.5725 313.9201Z"/>
<path transform="matrix(.3459174,0,0,.3462689,139.8737,-2.3236085)" stroke-width="2" stroke-linecap="butt" stroke-miterlimit="10" stroke-linejoin="miter" fill="none" stroke="#000000" d="M135 217.76 131 209.76 135 211.76 139 209.76 135 217.76Z"/>
<path transform="matrix(.3459174,0,0,.3462689,139.8737,-2.3236085)" stroke-width="2" stroke-linecap="butt" stroke-miterlimit="10" stroke-linejoin="miter" fill="none" stroke="#000000" d="M325 170V211.76"/>
<path transform="matrix(1,0,0,-1,0,387)" d="M252.2968 313.9201 250.9132 316.6903 252.2968 315.9978 253.6805 316.6903 252.2968 313.9201Z"/>
<path transform="matrix(.3459174,0,0,.3462689,139.8737,-2.3236085)" stroke-width="2" stroke-linecap="butt" stroke-miterlimit="10" stroke-linejoin="miter" fill="none" stroke="#000000" d="M325 217.76 321 209.76 325 211.76 329 209.76 325 217.76Z"/>
<path transform="matrix(.3459174,0,0,.3462689,139.8737,-2.3236085)" stroke-width="2" stroke-linecap="butt" stroke-miterlimit="10" stroke-linejoin="miter" fill="none" stroke="#000000" d="M325 170V190H515V211.76"/>
<path transform="matrix(1,0,0,-1,0,387)" d="M318.0211 313.9201 316.6375 316.6903 318.0211 315.9978 319.4048 316.6903 318.0211 313.9201Z"/>
<path transform="matrix(.3459174,0,0,.3462689,139.8737,-2.3236085)" stroke-width="2" stroke-linecap="butt" stroke-miterlimit="10" stroke-linejoin="miter" fill="none" stroke="#000000" d="M515 217.76 511 209.76 515 211.76 519 209.76 515 217.76Z"/>
<path transform="matrix(.3459174,0,0,.3462689,139.8737,-2.3236085)" stroke-width="2" stroke-linecap="butt" stroke-miterlimit="10" stroke-linejoin="miter" fill="none" stroke="#000000" d="M325 170V190H705V211.76"/>
<path transform="matrix(1,0,0,-1,0,387)" d="M383.7455 313.9201 382.3618 316.6903 383.7455 315.9978 385.1291 316.6903 383.7455 313.9201Z"/>
<path transform="matrix(.3459174,0,0,.3462689,139.8737,-2.3236085)" stroke-width="2" stroke-linecap="butt" stroke-miterlimit="10" stroke-linejoin="miter" fill="none" stroke="#000000" d="M705 217.76 701 209.76 705 211.76 709 209.76 705 217.76Z"/>
<path transform="matrix(1,0,0,-1,0,387)" d="M223.0668 344.1356H281.8728V330.2848H223.0668Z" fill="#ff6666"/>
<path transform="matrix(.3459174,0,0,.3462689,140.0466,-2.1505128)" stroke-width="1" stroke-linecap="butt" stroke-miterlimit="4" stroke-linejoin="miter" fill="none" stroke="#000000" d="M240 130H410V170H240Z"/>
<text xml:space="preserve" transform="matrix(.3459174 0 0 .3462689 139.8737 -2.3236085)" font-size="17" font-family="ArialMT"><tspan y="155" x="254.5938 264.97743 274.4328 283.88819 292.38819 297.1108 300.88819 310.34358 319.79896 324.52159 336.79896 346.25434 350.97697 354.75434 364.20973 367.9871 372.70973 376.4871 385.94248">Function Definition</tspan></text>
<path transform="matrix(.3459174,0,0,.3462689,139.8737,-2.3236085)" stroke-width="2" stroke-linecap="butt" stroke-miterlimit="10" stroke-linejoin="miter" fill="none" stroke="#000000" d="M325 550V570H435V591.76"/>
<path transform="matrix(1,0,0,-1,0,387)" d="M290.3478 182.338 288.9641 185.1081 290.3478 184.4156 291.7314 185.1081 290.3478 182.338Z"/>
<path transform="matrix(.3459174,0,0,.3462689,139.8737,-2.3236085)" stroke-width="2" stroke-linecap="butt" stroke-miterlimit="10" stroke-linejoin="miter" fill="none" stroke="#000000" d="M435 597.76 431 589.76 435 591.76 439 589.76 435 597.76Z"/>
<path transform="matrix(.3459174,0,0,.3462689,139.8737,-2.3236085)" stroke-width="2" stroke-linecap="butt" stroke-miterlimit="10" stroke-linejoin="miter" fill="none" stroke="#000000" d="M325 550V570H705V591.76"/>
<path transform="matrix(1,0,0,-1,0,387)" d="M383.7455 182.338 382.3618 185.1081 383.7455 184.4156 385.1291 185.1081 383.7455 182.338Z"/>
<path transform="matrix(.3459174,0,0,.3462689,139.8737,-2.3236085)" stroke-width="2" stroke-linecap="butt" stroke-miterlimit="10" stroke-linejoin="miter" fill="none" stroke="#000000" d="M705 597.76 701 589.76 705 591.76 709 589.76 705 597.76Z"/>
<path transform="matrix(.3459174,0,0,.3462689,139.8737,-2.3236085)" stroke-width="2" stroke-linecap="butt" stroke-miterlimit="10" stroke-linejoin="miter" fill="none" stroke="#000000" d="M325 550V570H135V591.76"/>
<path transform="matrix(1,0,0,-1,0,387)" d="M186.5725 182.338 185.1889 185.1081 186.5725 184.4156 187.9562 185.1081 186.5725 182.338Z"/>
<path transform="matrix(.3459174,0,0,.3462689,139.8737,-2.3236085)" stroke-width="2" stroke-linecap="butt" stroke-miterlimit="10" stroke-linejoin="miter" fill="none" stroke="#000000" d="M135 597.76 131 589.76 135 591.76 139 589.76 135 597.76Z"/>
<path transform="matrix(1,0,0,-1,0,387)" d="M223.0668 212.5534H281.8728V198.7026H223.0668Z" fill="#99ff73"/>
<path transform="matrix(.3459174,0,0,.3462689,140.0466,-2.1505128)" stroke-width="1" stroke-linecap="butt" stroke-miterlimit="4" stroke-linejoin="miter" fill="none" stroke="#000000" d="M240 510H410V550H240Z"/>
<text xml:space="preserve" transform="matrix(.3459174 0 0 .3462689 139.8737 -2.3236085)" font-size="17" font-family="ArialMT"><tspan y="535" x="282 294.27738 303.73277 312.23277 316.01014 325.4655 331.12654 340.5819 345.30455 349.0819 358.5373">Declaration</tspan></text>
<path transform="matrix(1,0,0,-1,0,387)" d="M121.1941 285.443V283.3654H120.5023V285.443M121.1941 281.2878V279.2102H120.5023V281.2878M121.1941 277.1325V275.0549H120.5023V277.1325"/>
<path transform="matrix(1,0,0,-1,0,387)" d="M120.8482 272.3679 119.4646 275.138 120.8482 274.4455 122.2319 275.138 120.8482 272.3679Z"/>
<path transform="matrix(.3459174,0,0,.3462689,139.8737,-2.3236085)" stroke-width="2" stroke-linecap="butt" stroke-miterlimit="10" stroke-linejoin="miter" fill="none" stroke="#000000" d="M-55 337.76-59 329.76-55 331.76-51 329.76-55 337.76Z"/>
<path transform="matrix(1,0,0,-1,0,387)" d="M91.61821 299.1206H150.4242V285.2699H91.61821Z" fill="#ffffff"/>
<path transform="matrix(.3459174,0,0,.3462689,140.0466,-2.1505128)" stroke-width="1" stroke-linecap="butt" stroke-miterlimit="4" stroke-linejoin="miter" fill="none" stroke="#000000" d="M-140 260H30V300H-140Z"/>
<text xml:space="preserve" transform="matrix(.3459174 0 0 .3462689 139.8737 -2.3236085)" font-size="17" font-family="ArialMT"><tspan y="285" x="-133.4375 -121.160099 -111.70469 -103.20469 -99.427288 -89.97188 -84.310878 -74.85547 -70.13287 -66.35547 -56.90007 -47.44467 -42.72207 -31.383069 -21.927668 -12.472267 -3.9722672 -.19486675 4.527734 8.305134 17.760535">Declaration Specifier</tspan></text>
<path transform="matrix(1,0,0,-1,0,387)" d="M91.61821 257.5683H150.4242V243.7176H91.61821Z" fill="#ffffff"/>
<path transform="matrix(.3459174,0,0,.3462689,140.0466,-2.1505128)" stroke-width="1" stroke-linecap="butt" stroke-miterlimit="4" stroke-linejoin="miter" fill="none" stroke="#000000" d="M-140 380H30V420H-140Z"/>
<text xml:space="preserve" transform="matrix(.3459174 0 0 .3462689 139.8737 -2.3236085)" font-size="17" font-family="ArialMT"><tspan y="405" x="-122.5625 -113.10709 -103.65169 -98.92909 -93.26809 -88.545497 -80.045497 -70.59009 -61.13469 -56.412088 -47.912088 -38.456689 -29.001288 -20.501288 -16.723887 -12.0012869 -8.2238869 1.2315141 6.892514">27 (type specifier)</tspan></text>
<path transform="matrix(1,0,0,-1,0,387)" d="M186.9184 285.443V283.3654H186.2266V285.443H186.9184ZM186.9184 281.2878V279.2102H186.2266V281.2878H186.9184ZM186.2266 279.9027V281.3916H186.9184V280.803H186.2266V281.3916H186.5725 186.9184V279.9027H186.2266ZM186.9184 278.7254V277.3126H186.2266V278.7254H186.9184Z"/>
<path transform="matrix(1,0,0,-1,0,387)" d="M186.5725 275.235 185.1889 278.0051 186.5725 277.3126 187.9562 278.0051 186.5725 275.235Z"/>
<path transform="matrix(.3459174,0,0,.3462689,139.8737,-2.3236085)" stroke-width="2" stroke-linecap="butt" stroke-miterlimit="10" stroke-linejoin="miter" fill="none" stroke="#000000" d="M135 329.48 131 321.48 135 323.48 139 321.48 135 329.48Z"/>
<path transform="matrix(1,0,0,-1,0,387)" d="M157.3425 299.1206H216.1485V285.2699H157.3425Z" fill="#ffffff"/>
<path transform="matrix(.3459174,0,0,.3462689,140.0466,-2.1505128)" stroke-width="1" stroke-linecap="butt" stroke-miterlimit="4" stroke-linejoin="miter" fill="none" stroke="#000000" d="M50 260H220V300H50Z"/>
<text xml:space="preserve" transform="matrix(.3459174 0 0 .3462689 139.8737 -2.3236085)" font-size="17" font-family="ArialMT"><tspan y="285" x="56.5625 68.839908 78.29531 86.79531 90.572719 100.02812 105.689128 115.14453 119.86713 123.64453 133.09993 142.55533 147.27793 158.61693 168.07233 177.52773 186.02773 189.80513 194.52773 198.30513 207.76053">Declaration Specifier</tspan></text>
<path transform="matrix(1,0,0,-1,0,387)" d="M182.8319 270.3701 186.7455 266.4525 190.6591 270.3701 192.6159 268.4113 188.7023 264.4937 192.6159 260.5761 190.6591 258.6174 186.7455 262.5349 182.8319 258.6174 180.8751 260.5761 184.7887 264.4937 180.8751 268.4113 182.8319 270.3701Z" fill="#ff6666"/>
<path transform="matrix(1,0,0,-1,0,387)" d="M91.61821 312.9714H150.4242V299.1206H91.61821Z" fill="#99ff73"/>
<path transform="matrix(.3459174,0,0,.3462689,140.0466,-2.1505128)" stroke-width="1" stroke-linecap="butt" stroke-miterlimit="4" stroke-linejoin="miter" fill="none" stroke="#000000" d="M-140 220H30V260H-140Z"/>
<text xml:space="preserve" transform="matrix(.3459174 0 0 .3462689 139.8737 -2.3236085)" font-size="17" font-family="ArialMT"><tspan y="245" x="-70.01562 -63.980619 -60.203218 -50.747819 -46.025217">"int"</tspan></text>
<path transform="matrix(1,0,0,-1,0,387)" d="M157.3425 312.9714H216.1485V299.1206H157.3425Z" fill="#ff6666"/>
<path transform="matrix(.3459174,0,0,.3462689,140.0466,-2.1505128)" stroke-width="1" stroke-linecap="butt" stroke-miterlimit="4" stroke-linejoin="miter" fill="none" stroke="#000000" d="M50 220H220V260H50Z"/>
<text xml:space="preserve" transform="matrix(.3459174 0 0 .3462689 139.8737 -2.3236085)" font-size="17" font-family="ArialMT"><tspan y="245" x="124.7031 130.7381 139.2381">"x"</tspan></text>
<path transform="matrix(1,0,0,-1,0,387)" d="M91.61821 271.4191H150.4242V257.5683H91.61821Z" fill="#99ff73"/>
<path transform="matrix(.3459174,0,0,.3462689,140.0466,-2.1505128)" stroke-width="1" stroke-linecap="butt" stroke-miterlimit="4" stroke-linejoin="miter" fill="none" stroke="#000000" d="M-140 340H30V380H-140Z"/>
<text xml:space="preserve" transform="matrix(.3459174 0 0 .3462689 139.8737 -2.3236085)" font-size="17" font-family="ArialMT"><tspan y="365" x="-70.01562 -63.980619 -60.203218 -50.747819 -46.025217">"int"</tspan></text>
<path transform="matrix(1,0,0,-1,0,387)" d="M252.6428 285.443V283.3654H251.9509V285.443M252.6428 281.2878V279.2102H251.9509V281.2878M252.6428 277.1325V275.0549H251.9509V277.1325"/>
<path transform="matrix(1,0,0,-1,0,387)" d="M252.2968 272.3679 250.9132 275.138 252.2968 274.4455 253.6805 275.138 252.2968 272.3679Z"/>
<path transform="matrix(.3459174,0,0,.3462689,139.8737,-2.3236085)" stroke-width="2" stroke-linecap="butt" stroke-miterlimit="10" stroke-linejoin="miter" fill="none" stroke="#000000" d="M325 337.76 321 329.76 325 331.76 329 329.76 325 337.76Z"/>
<path transform="matrix(1,0,0,-1,0,387)" d="M223.0668 299.1206H281.8728V285.2699H223.0668Z" fill="#ffffff"/>
<path transform="matrix(.3459174,0,0,.3462689,140.0466,-2.1505128)" stroke-width="1" stroke-linecap="butt" stroke-miterlimit="4" stroke-linejoin="miter" fill="none" stroke="#000000" d="M240 260H410V300H240Z"/>
<text xml:space="preserve" transform="matrix(.3459174 0 0 .3462689 139.8737 -2.3236085)" font-size="17" font-family="ArialMT"><tspan y="285" x="285.7812 298.05857 307.51396 316.01396 319.79133 329.2467 334.9077 344.3631 349.08573 358.5411">Declarator</tspan></text>
<path transform="matrix(1,0,0,-1,0,387)" d="M223.0668 312.9714H281.8728V299.1206H223.0668Z" fill="#99ff73"/>
<path transform="matrix(.3459174,0,0,.3462689,140.0466,-2.1505128)" stroke-width="1" stroke-linecap="butt" stroke-miterlimit="4" stroke-linejoin="miter" fill="none" stroke="#000000" d="M240 220H410V260H240Z"/>
<text xml:space="preserve" transform="matrix(.3459174 0 0 .3462689 139.8737 -2.3236085)" font-size="17" font-family="ArialMT"><tspan y="245" x="314.7031 320.7381 329.2381">"x"</tspan></text>
<path transform="matrix(1,0,0,-1,0,387)" d="M223.0668 257.5683H281.8728V243.7176H223.0668Z" fill="#ffffff"/>
<path transform="matrix(.3459174,0,0,.3462689,140.0466,-2.1505128)" stroke-width="1" stroke-linecap="butt" stroke-miterlimit="4" stroke-linejoin="miter" fill="none" stroke="#000000" d="M240 380H410V420H240Z"/>
<text xml:space="preserve" transform="matrix(.3459174 0 0 .3462689 139.8737 -2.3236085)" font-size="17" font-family="ArialMT"><tspan y="405" x="260.7344 270.1898 279.64518 284.3678 290.0288 299.4842 307.9842 317.43959 323.1006 327.8232 337.2786 346.73399 351.4566 355.23399 364.68937 374.14476 383.60014">52 (user defined)</tspan></text>
<path transform="matrix(1,0,0,-1,0,387)" d="M223.0668 271.4191H281.8728V257.5683H223.0668Z" fill="#99ff73"/>
<path transform="matrix(.3459174,0,0,.3462689,140.0466,-2.1505128)" stroke-width="1" stroke-linecap="butt" stroke-miterlimit="4" stroke-linejoin="miter" fill="none" stroke="#000000" d="M240 340H410V380H240Z"/>
<text xml:space="preserve" transform="matrix(.3459174 0 0 .3462689 139.8737 -2.3236085)" font-size="17" font-family="ArialMT"><tspan y="365" x="314.7031 320.7381 329.2381">"x"</tspan></text>
<path transform="matrix(1,0,0,-1,0,387)" d="M318.3671 285.443V283.3654H317.6752V285.443H318.3671ZM318.3671 281.2878V279.2102H317.6752V281.2878H318.3671ZM317.6752 279.9027V281.3916H318.3671V280.803H317.6752V281.3916H318.0211 318.3671V279.9027H317.6752ZM318.3671 278.7254V277.3126H317.6752V278.7254H318.3671Z"/>
<path transform="matrix(1,0,0,-1,0,387)" d="M318.0211 275.235 316.6375 278.0051 318.0211 277.3126 319.4048 278.0051 318.0211 275.235Z"/>
<path transform="matrix(.3459174,0,0,.3462689,139.8737,-2.3236085)" stroke-width="2" stroke-linecap="butt" stroke-miterlimit="10" stroke-linejoin="miter" fill="none" stroke="#000000" d="M515 329.48 511 321.48 515 323.48 519 321.48 515 329.48Z"/>
<path transform="matrix(1,0,0,-1,0,387)" d="M288.7911 299.1206H347.5971V285.2699H288.7911Z" fill="#ffffff"/>
<path transform="matrix(.3459174,0,0,.3462689,140.0466,-2.1505128)" stroke-width="1" stroke-linecap="butt" stroke-miterlimit="4" stroke-linejoin="miter" fill="none" stroke="#000000" d="M430 260H600V300H430Z"/>
<text xml:space="preserve" transform="matrix(.3459174 0 0 .3462689 139.8737 -2.3236085)" font-size="17" font-family="ArialMT"><tspan y="285" x="472 484.27738 493.73277 502.23277 506.01014 515.4656 521.1266 530.58206 535.3046 539.08206 548.5375">Declaration</tspan></text>
<path transform="matrix(1,0,0,-1,0,387)" d="M314.2805 270.3701 318.1941 266.4525 322.1077 270.3701 324.0645 268.4113 320.1509 264.4937 324.0645 260.5762 322.1077 258.6174 318.1941 262.5349 314.2805 258.6174 312.3237 260.5762 316.2373 264.4937 312.3237 268.4113 314.2805 270.3701Z" fill="#ff6666"/>
<path transform="matrix(1,0,0,-1,0,387)" d="M288.7911 312.9714H347.5971V299.1206H288.7911Z" fill="#ff6666"/>
<path transform="matrix(.3459174,0,0,.3462689,140.0466,-2.1505128)" stroke-width="1" stroke-linecap="butt" stroke-miterlimit="4" stroke-linejoin="miter" fill="none" stroke="#000000" d="M430 220H600V260H430Z"/>
<text xml:space="preserve" transform="matrix(.3459174 0 0 .3462689 139.8737 -2.3236085)" font-size="17" font-family="ArialMT"><tspan y="245" x="504 510.035 519.963">"="</tspan></text>
<path transform="matrix(1,0,0,-1,0,387)" d="M384.0914 285.443V283.3654H383.3995V285.443H384.0914ZM384.0914 281.2878V279.2102H383.3995V281.2878H384.0914ZM383.3995 279.9027V281.3916H384.0914V280.803H383.3995V281.3916H383.7455 384.0914V279.9027H383.3995ZM384.0914 278.7254V277.3126H383.3995V278.7254H384.0914Z"/>
<path transform="matrix(1,0,0,-1,0,387)" d="M383.7455 275.235 382.3618 278.0051 383.7455 277.3126 385.1291 278.0051 383.7455 275.235Z"/>
<path transform="matrix(.3459174,0,0,.3462689,139.8737,-2.3236085)" stroke-width="2" stroke-linecap="butt" stroke-miterlimit="10" stroke-linejoin="miter" fill="none" stroke="#000000" d="M705 329.48 701 321.48 705 323.48 709 321.48 705 329.48Z"/>
<path transform="matrix(1,0,0,-1,0,387)" d="M354.5154 299.1206H413.3214V285.2699H354.5154Z" fill="#ffffff"/>
<path transform="matrix(.3459174,0,0,.3462689,140.0466,-2.1505128)" stroke-width="1" stroke-linecap="butt" stroke-miterlimit="4" stroke-linejoin="miter" fill="none" stroke="#000000" d="M620 260H790V300H620Z"/>
<text xml:space="preserve" transform="matrix(.3459174 0 0 .3462689 139.8737 -2.3236085)" font-size="16" font-family="ArialMT"><tspan y="286" x="627.1719 638.72708 647.6262 660.9542 669.8534 678.75259 687.65176 696.5509 705.4501 709.8949 720.5669 725.0117 733.9109 738.3557 747.2549 760.5829 769.48208 778.3812">Compound Statement</tspan></text>
<path transform="matrix(1,0,0,-1,0,387)" d="M380.0048 270.3701 383.9184 266.4525 387.832 270.3701 389.7888 268.4113 385.8752 264.4937 389.7888 260.5761 387.832 258.6173 383.9184 262.5349 380.0048 258.6173 378.048 260.5761 381.9616 264.4937 378.048 268.4113 380.0048 270.3701Z" fill="#ff6666"/>
<path transform="matrix(1,0,0,-1,0,387)" d="M354.5154 312.9714H413.3214V299.1206H354.5154Z" fill="#ff6666"/>
<path transform="matrix(.3459174,0,0,.3462689,140.0466,-2.1505128)" stroke-width="1" stroke-linecap="butt" stroke-miterlimit="4" stroke-linejoin="miter" fill="none" stroke="#000000" d="M620 220H790V260H620Z"/>
<text xml:space="preserve" transform="matrix(.3459174 0 0 .3462689 139.8737 -2.3236085)" font-size="17" font-family="ArialMT"><tspan y="245" x="694 700.035 709.96298">"="</tspan></text>
<path transform="matrix(1,0,0,-1,0,387)" d="M5.138857 70.58317H63.94482V56.73241H5.138857Z" fill="#ff6666"/>
<path transform="matrix(.3459174,0,0,.3462689,140.0466,-2.1505128)" stroke-width="1" stroke-linecap="butt" stroke-miterlimit="4" stroke-linejoin="miter" fill="none" stroke="#000000" d="M-390 920H-220V960H-390Z"/>
<text xml:space="preserve" transform="matrix(.3459174 0 0 .3462689 139.8737 -2.3236085)" font-size="17" font-family="ArialMT"><tspan y="945" x="-381.5469 -370.20793 -361.70793 -356.9853 -347.5299 -341.8689 -332.4135 -322.95814 -319.18077 -314.45814 -302.18077 -292.72538 -284.22538 -280.448 -270.9926 -265.3316 -255.8762 -251.15361 -247.3762 -237.9208">External Declaration</tspan></text>
<path transform="matrix(1,0,0,-1,0,387)" d="M121.1941 153.8608V151.7832H120.5023V153.8608M121.1941 149.7056V147.628H120.5023V149.7056M121.1941 145.5504V143.4728H120.5023V145.5504"/>
<path transform="matrix(1,0,0,-1,0,387)" d="M120.8482 140.7857 119.4646 143.5559 120.8482 142.8633 122.2319 143.5559 120.8482 140.7857Z"/>
<path transform="matrix(.3459174,0,0,.3462689,139.8737,-2.3236085)" stroke-width="2" stroke-linecap="butt" stroke-miterlimit="10" stroke-linejoin="miter" fill="none" stroke="#000000" d="M-55 717.76-59 709.76-55 711.76-51 709.76-55 717.76Z"/>
<path transform="matrix(1,0,0,-1,0,387)" d="M91.61821 167.5384H150.4242V153.6877H91.61821Z" fill="#ffffff"/>
<path transform="matrix(.3459174,0,0,.3462689,140.0466,-2.1505128)" stroke-width="1" stroke-linecap="butt" stroke-miterlimit="4" stroke-linejoin="miter" fill="none" stroke="#000000" d="M-140 640H30V680H-140Z"/>
<text xml:space="preserve" transform="matrix(.3459174 0 0 .3462689 139.8737 -2.3236085)" font-size="17" font-family="ArialMT"><tspan y="665" x="-133.4375 -121.160099 -111.70469 -103.20469 -99.427288 -89.97188 -84.310878 -74.85547 -70.13287 -66.35547 -56.90007 -47.44467 -42.72207 -31.383069 -21.927668 -12.472267 -3.9722672 -.19486675 4.527734 8.305134 17.760535">Declaration Specifier</tspan></text>
<path transform="matrix(1,0,0,-1,0,387)" d="M91.61821 125.9862H150.4242V112.1354H91.61821Z" fill="#ffffff"/>
<path transform="matrix(.3459174,0,0,.3462689,140.0466,-2.1505128)" stroke-width="1" stroke-linecap="butt" stroke-miterlimit="4" stroke-linejoin="miter" fill="none" stroke="#000000" d="M-140 760H30V800H-140Z"/>
<text xml:space="preserve" transform="matrix(.3459174 0 0 .3462689 139.8737 -2.3236085)" font-size="17" font-family="ArialMT"><tspan y="785" x="-122.5625 -113.10709 -103.65169 -98.92909 -93.26809 -88.545497 -80.045497 -70.59009 -61.13469 -56.412088 -47.912088 -38.456689 -29.001288 -20.501288 -16.723887 -12.0012869 -8.2238869 1.2315141 6.892514">27 (type specifier)</tspan></text>
<path transform="matrix(1,0,0,-1,0,387)" d="M186.9184 153.8608V151.7832H186.2266V153.8608H186.9184ZM186.9184 149.7056V147.628H186.2266V149.7056H186.9184ZM186.2266 148.3205V149.8095H186.9184V149.2208H186.2266V149.8095H186.5725 186.9184V148.3205H186.2266ZM186.9184 147.1432V145.7304H186.2266V147.1432H186.9184Z"/>
<path transform="matrix(1,0,0,-1,0,387)" d="M186.5725 143.6528 185.1889 146.423 186.5725 145.7304 187.9562 146.423 186.5725 143.6528Z"/>
<path transform="matrix(.3459174,0,0,.3462689,139.8737,-2.3236085)" stroke-width="2" stroke-linecap="butt" stroke-miterlimit="10" stroke-linejoin="miter" fill="none" stroke="#000000" d="M135 709.48 131 701.48 135 703.48 139 701.48 135 709.48Z"/>
<path transform="matrix(1,0,0,-1,0,387)" d="M157.3425 167.5384H216.1485V153.6877H157.3425Z" fill="#ffffff"/>
<path transform="matrix(.3459174,0,0,.3462689,140.0466,-2.1505128)" stroke-width="1" stroke-linecap="butt" stroke-miterlimit="4" stroke-linejoin="miter" fill="none" stroke="#000000" d="M50 640H220V680H50Z"/>
<text xml:space="preserve" transform="matrix(.3459174 0 0 .3462689 139.8737 -2.3236085)" font-size="17" font-family="ArialMT"><tspan y="665" x="56.5625 68.839908 78.29531 86.79531 90.572719 100.02812 105.689128 115.14453 119.86713 123.64453 133.09993 142.55533 147.27793 158.61693 168.07233 177.52773 186.02773 189.80513 194.52773 198.30513 207.76053">Declaration Specifier</tspan></text>
<path transform="matrix(1,0,0,-1,0,387)" d="M182.8319 138.7879 186.7455 134.8704 190.6591 138.7879 192.6159 136.8291 188.7023 132.9116 192.6159 128.994 190.6591 127.0352 186.7455 130.9528 182.8319 127.0352 180.8751 128.994 184.7887 132.9116 180.8751 136.8291 182.8319 138.7879Z" fill="#ff6666"/>
<path transform="matrix(1,0,0,-1,0,387)" d="M91.61821 181.3892H150.4242V167.5384H91.61821Z" fill="#99ff73"/>
<path transform="matrix(.3459174,0,0,.3462689,140.0466,-2.1505128)" stroke-width="1" stroke-linecap="butt" stroke-miterlimit="4" stroke-linejoin="miter" fill="none" stroke="#000000" d="M-140 600H30V640H-140Z"/>
<text xml:space="preserve" transform="matrix(.3459174 0 0 .3462689 139.8737 -2.3236085)" font-size="17" font-family="ArialMT"><tspan y="625" x="-70.01562 -63.980619 -60.203218 -50.747819 -46.025217">"int"</tspan></text>
<path transform="matrix(1,0,0,-1,0,387)" d="M157.3425 181.3892H216.1485V167.5384H157.3425Z" fill="#ff6666"/>
<path transform="matrix(.3459174,0,0,.3462689,140.0466,-2.1505128)" stroke-width="1" stroke-linecap="butt" stroke-miterlimit="4" stroke-linejoin="miter" fill="none" stroke="#000000" d="M50 600H220V640H50Z"/>
<text xml:space="preserve" transform="matrix(.3459174 0 0 .3462689 139.8737 -2.3236085)" font-size="17" font-family="ArialMT"><tspan y="625" x="124.7031 130.7381 139.2381">"x"</tspan></text>
<path transform="matrix(1,0,0,-1,0,387)" d="M91.61821 139.8369H150.4242V125.9862H91.61821Z" fill="#99ff73"/>
<path transform="matrix(.3459174,0,0,.3462689,140.0466,-2.1505128)" stroke-width="1" stroke-linecap="butt" stroke-miterlimit="4" stroke-linejoin="miter" fill="none" stroke="#000000" d="M-140 720H30V760H-140Z"/>
<text xml:space="preserve" transform="matrix(.3459174 0 0 .3462689 139.8737 -2.3236085)" font-size="17" font-family="ArialMT"><tspan y="745" x="-70.01562 -63.980619 -60.203218 -50.747819 -46.025217">"int"</tspan></text>
<path transform="matrix(.3459174,0,0,.3462689,139.8737,-2.3236085)" stroke-width="2" stroke-linecap="butt" stroke-miterlimit="10" stroke-linejoin="miter" fill="none" stroke="#000000" d="M325 550V570H-55V591.76"/>
<path transform="matrix(1,0,0,-1,0,387)" d="M120.8482 182.338 119.4646 185.1081 120.8482 184.4156 122.2319 185.1081 120.8482 182.338Z"/>
<path transform="matrix(.3459174,0,0,.3462689,139.8737,-2.3236085)" stroke-width="2" stroke-linecap="butt" stroke-miterlimit="10" stroke-linejoin="miter" fill="none" stroke="#000000" d="M-55 597.76-59 589.76-55 591.76-51 589.76-55 597.76Z"/>
<path transform="matrix(.3459174,0,0,.3462689,139.8737,-2.3236085)" stroke-width="2" stroke-linecap="butt" stroke-miterlimit="10" stroke-linejoin="miter" fill="none" stroke="#000000" d="M329 860V880H135V901.76"/>
<path transform="matrix(1,0,0,-1,0,387)" d="M186.5725 74.99463 185.1889 77.76478 186.5725 77.07224 187.9562 77.76478 186.5725 74.99463Z"/>
<path transform="matrix(.3459174,0,0,.3462689,139.8737,-2.3236085)" stroke-width="2" stroke-linecap="butt" stroke-miterlimit="10" stroke-linejoin="miter" fill="none" stroke="#000000" d="M135 907.76 131 899.76 135 901.76 139 899.76 135 907.76Z"/>
<path transform="matrix(.3459174,0,0,.3462689,139.8737,-2.3236085)" stroke-width="2" stroke-linecap="butt" stroke-miterlimit="10" stroke-linejoin="miter" fill="none" stroke="#000000" d="M329 860V901.76"/>
<path transform="matrix(1,0,0,-1,0,387)" d="M253.6805 74.99463 252.2968 77.76478 253.6805 77.07224 255.0642 77.76478 253.6805 74.99463Z"/>
<path transform="matrix(.3459174,0,0,.3462689,139.8737,-2.3236085)" stroke-width="2" stroke-linecap="butt" stroke-miterlimit="10" stroke-linejoin="miter" fill="none" stroke="#000000" d="M329 907.76 325 899.76 329 901.76 333 899.76 329 907.76Z"/>
<path transform="matrix(.3459174,0,0,.3462689,139.8737,-2.3236085)" stroke-width="2" stroke-linecap="butt" stroke-miterlimit="10" stroke-linejoin="miter" fill="none" stroke="#000000" d="M329 860V880H525V901.76"/>
<path transform="matrix(1,0,0,-1,0,387)" d="M321.4803 74.99463 320.0966 77.76478 321.4803 77.07224 322.864 77.76478 321.4803 74.99463Z"/>
<path transform="matrix(.3459174,0,0,.3462689,139.8737,-2.3236085)" stroke-width="2" stroke-linecap="butt" stroke-miterlimit="10" stroke-linejoin="miter" fill="none" stroke="#000000" d="M525 907.76 521 899.76 525 901.76 529 899.76 525 907.76Z"/>
<path transform="matrix(.3459174,0,0,.3462689,139.8737,-2.3236085)" stroke-width="2" stroke-linecap="butt" stroke-miterlimit="10" stroke-linejoin="miter" fill="none" stroke="#000000" d="M435 680V730H329V771.76"/>
<path transform="matrix(1,0,0,-1,0,387)" d="M253.6805 120.0096 252.2968 122.7797 253.6805 122.0872 255.0642 122.7797 253.6805 120.0096Z"/>
<path transform="matrix(.3459174,0,0,.3462689,139.8737,-2.3236085)" stroke-width="2" stroke-linecap="butt" stroke-miterlimit="10" stroke-linejoin="miter" fill="none" stroke="#000000" d="M329 777.76 325 769.76 329 771.76 333 769.76 329 777.76Z"/>
<path transform="matrix(.3459174,0,0,.3462689,139.8737,-2.3236085)" stroke-width="2" stroke-linecap="butt" stroke-miterlimit="10" stroke-linejoin="miter" fill="none" stroke="#000000" d="M435 680V730H715V771.76"/>
<path transform="matrix(1,0,0,-1,0,387)" d="M387.2046 120.0096 385.821 122.7797 387.2046 122.0872 388.5883 122.7797 387.2046 120.0096Z"/>
<path transform="matrix(.3459174,0,0,.3462689,139.8737,-2.3236085)" stroke-width="2" stroke-linecap="butt" stroke-miterlimit="10" stroke-linejoin="miter" fill="none" stroke="#000000" d="M715 777.76 711 769.76 715 771.76 719 769.76 715 777.76Z"/>
<path transform="matrix(1,0,0,-1,0,387)" d="M261.1177 167.5384H319.9237V153.6877H261.1177Z" fill="#ffffff"/>
<path transform="matrix(.3459174,0,0,.3462689,140.0466,-2.1505128)" stroke-width="1" stroke-linecap="butt" stroke-miterlimit="4" stroke-linejoin="miter" fill="none" stroke="#000000" d="M350 640H520V680H350Z"/>
<text xml:space="preserve" transform="matrix(.3459174 0 0 .3462689 139.8737 -2.3236085)" font-size="17" font-family="ArialMT"><tspan y="665" x="366.5 371.22264 380.678 384.45539 389.178 393.90065 406.178 415.6334 424.1334 427.91078 437.36616 443.02717 452.48255 457.20518 466.66056 472.32157 477.0442 486.49958 490.27696 498.77696">Init Declarator List</tspan></text>
<path transform="matrix(1,0,0,-1,0,387)" d="M261.1177 181.3892H319.9237V167.5384H261.1177Z" fill="#99ff73"/>
<path transform="matrix(.3459174,0,0,.3462689,140.0466,-2.1505128)" stroke-width="1" stroke-linecap="butt" stroke-miterlimit="4" stroke-linejoin="miter" fill="none" stroke="#000000" d="M350 600H520V640H350Z"/>
<text xml:space="preserve" transform="matrix(.3459174 0 0 .3462689 139.8737 -2.3236085)" font-size="17" font-family="ArialMT"><tspan y="625" x="407.9375 413.9725 422.4725 427.19514 437.12315 441.84577 451.30116 456.02378">"x = 3;"</tspan></text>
<path transform="matrix(1,0,0,-1,0,387)" d="M157.3425 18.64284H216.1485V4.792084H157.3425Z" fill="#ffffff"/>
<path transform="matrix(.3459174,0,0,.3462689,140.0466,-2.1505128)" stroke-width="1" stroke-linecap="butt" stroke-miterlimit="4" stroke-linejoin="miter" fill="none" stroke="#000000" d="M50 1070H220V1110H50Z"/>
<text xml:space="preserve" transform="matrix(.3459174 0 0 .3462689 139.8737 -2.3236085)" font-size="17" font-family="ArialMT"><tspan y="1095" x="79.71875 89.17416 98.62956 103.35216 109.01316 118.46857 127.92397 136.42398 140.20139 149.65679 155.31778 164.77318 169.49578 178.95117 184.61217">27 (declarator)</tspan></text>
<path transform="matrix(1,0,0,-1,0,387)" d="M157.3425 32.49359H216.1485V18.64284H157.3425Z" fill="#99ff73"/>
<path transform="matrix(.3459174,0,0,.3462689,140.0466,-2.1505128)" stroke-width="1" stroke-linecap="butt" stroke-miterlimit="4" stroke-linejoin="miter" fill="none" stroke="#000000" d="M50 1030H220V1070H50Z"/>
<text xml:space="preserve" transform="matrix(.3459174 0 0 .3462689 139.8737 -2.3236085)" font-size="17" font-family="ArialMT"><tspan y="1055" x="124.7031 130.7381 139.2381">"x"</tspan></text>
<path transform="matrix(1,0,0,-1,0,387)" d="M354.5154 167.5384H413.3214V153.6877H354.5154Z" fill="#ffffff"/>
<path transform="matrix(.3459174,0,0,.3462689,140.0466,-2.1505128)" stroke-width="1" stroke-linecap="butt" stroke-miterlimit="4" stroke-linejoin="miter" fill="none" stroke="#000000" d="M620 640H790V680H620Z"/>
<text xml:space="preserve" transform="matrix(.3459174 0 0 .3462689 139.8737 -2.3236085)" font-size="17" font-family="ArialMT"><tspan y="665" x="649.25 658.70547 668.1609 672.8835 678.5445 687.0445 696.49996 710.66098 714.43838 722.93838 732.3938 736.1712 745.62667 755.0821">22 (semicolon)</tspan></text>
<path transform="matrix(1,0,0,-1,0,387)" d="M354.5154 181.3892H413.3214V167.5384H354.5154Z" fill="#99ff73"/>
<path transform="matrix(.3459174,0,0,.3462689,140.0466,-2.1505128)" stroke-width="1" stroke-linecap="butt" stroke-miterlimit="4" stroke-linejoin="miter" fill="none" stroke="#000000" d="M620 600H790V640H620Z"/>
<text xml:space="preserve" transform="matrix(.3459174 0 0 .3462689 139.8737 -2.3236085)" font-size="17" font-family="ArialMT"><tspan y="625" x="696.5938 702.6288 707.3514">";"</tspan></text>
<path transform="matrix(1,0,0,-1,0,387)" d="M186.9184 46.51748V44.43987H186.2266V46.51748H186.9184ZM186.9184 42.36226V40.28464H186.2266V42.36226H186.9184ZM186.9184 38.20703V36.12942H186.2266V38.20703H186.9184Z"/>
<path transform="matrix(1,0,0,-1,0,387)" d="M186.5725 33.44237 185.1889 36.21252 186.5725 35.51998 187.9562 36.21252 186.5725 33.44237Z"/>
<path transform="matrix(.3459174,0,0,.3462689,139.8737,-2.3236085)" stroke-width="2" stroke-linecap="butt" stroke-miterlimit="10" stroke-linejoin="miter" fill="none" stroke="#000000" d="M135 1027.76 131 1019.76 135 1021.76 139 1019.76 135 1027.76Z"/>
<path transform="matrix(1,0,0,-1,0,387)" d="M157.3425 60.1951H216.1485V46.34435H157.3425Z" fill="#ffffff"/>
<path transform="matrix(.3459174,0,0,.3462689,140.0466,-2.1505128)" stroke-width="1" stroke-linecap="butt" stroke-miterlimit="4" stroke-linejoin="miter" fill="none" stroke="#000000" d="M50 950H220V990H50Z"/>
<text xml:space="preserve" transform="matrix(.3459174 0 0 .3462689 139.8737 -2.3236085)" font-size="17" font-family="ArialMT"><tspan y="975" x="95.78125 108.058658 117.51406 126.01406 129.79146 139.24686 144.90785 154.36325 159.08585 168.54125">Declarator</tspan></text>
<path transform="matrix(1,0,0,-1,0,387)" d="M157.3425 74.04586H216.1485V60.1951H157.3425Z" fill="#99ff73"/>
<path transform="matrix(.3459174,0,0,.3462689,140.0466,-2.1505128)" stroke-width="1" stroke-linecap="butt" stroke-miterlimit="4" stroke-linejoin="miter" fill="none" stroke="#000000" d="M50 910H220V950H50Z"/>
<text xml:space="preserve" transform="matrix(.3459174 0 0 .3462689 139.8737 -2.3236085)" font-size="17" font-family="ArialMT"><tspan y="935" x="124.7031 130.7381 139.2381">"x"</tspan></text>
<path transform="matrix(1,0,0,-1,0,387)" d="M224.4505 60.1951H283.2565V46.34435H224.4505Z" fill="#ffffff"/>
<path transform="matrix(.3459174,0,0,.3462689,140.0466,-2.1505128)" stroke-width="1" stroke-linecap="butt" stroke-miterlimit="4" stroke-linejoin="miter" fill="none" stroke="#000000" d="M244 950H414V990H244Z"/>
<text xml:space="preserve" transform="matrix(.3459174 0 0 .3462689 139.8737 -2.3236085)" font-size="17" font-family="ArialMT"><tspan y="975" x="290.7188 300.1742 309.62959 314.3522 320.0132 329.4686 338.92399 348.37937 357.83476 361.61213">21 (equal)</tspan></text>
<path transform="matrix(1,0,0,-1,0,387)" d="M224.4505 74.04586H283.2565V60.1951H224.4505Z" fill="#99ff73"/>
<path transform="matrix(.3459174,0,0,.3462689,140.0466,-2.1505128)" stroke-width="1" stroke-linecap="butt" stroke-miterlimit="4" stroke-linejoin="miter" fill="none" stroke="#000000" d="M244 910H414V950H244Z"/>
<text xml:space="preserve" transform="matrix(.3459174 0 0 .3462689 139.8737 -2.3236085)" font-size="17" font-family="ArialMT"><tspan y="935" x="318 324.035 333.963">"="</tspan></text>
<path transform="matrix(1,0,0,-1,0,387)" d="M321.8262 46.51748V44.43987H321.1344V46.51748M321.8262 42.36226V40.28464H321.1344V42.36226M321.8262 38.20703V36.12942H321.1344V38.20703"/>
<path transform="matrix(1,0,0,-1,0,387)" d="M321.4803 33.44237 320.0966 36.21252 321.4803 35.51998 322.864 36.21252 321.4803 33.44237Z"/>
<path transform="matrix(.3459174,0,0,.3462689,139.8737,-2.3236085)" stroke-width="2" stroke-linecap="butt" stroke-miterlimit="10" stroke-linejoin="miter" fill="none" stroke="#000000" d="M525 1027.76 521 1019.76 525 1021.76 529 1019.76 525 1027.76Z"/>
<path transform="matrix(1,0,0,-1,0,387)" d="M292.2503 60.1951H351.0563V46.34435H292.2503Z" fill="#ffffff"/>
<path transform="matrix(.3459174,0,0,.3462689,140.0466,-2.1505128)" stroke-width="1" stroke-linecap="butt" stroke-miterlimit="4" stroke-linejoin="miter" fill="none" stroke="#000000" d="M440 950H610V990H440Z"/>
<text xml:space="preserve" transform="matrix(.3459174 0 0 .3462689 139.8737 -2.3236085)" font-size="17" font-family="ArialMT"><tspan y="975" x="491.4531 496.17573 505.6311 509.40849 514.13107 517.90847 527.3639 531.1413 534.9187 543.4187 552.87417">Initializer</tspan></text>
<path transform="matrix(1,0,0,-1,0,387)" d="M292.2503 74.04586H351.0563V60.1951H292.2503Z" fill="#99ff73"/>
<path transform="matrix(.3459174,0,0,.3462689,140.0466,-2.1505128)" stroke-width="1" stroke-linecap="butt" stroke-miterlimit="4" stroke-linejoin="miter" fill="none" stroke="#000000" d="M440 910H610V950H440Z"/>
<text xml:space="preserve" transform="matrix(.3459174 0 0 .3462689 139.8737 -2.3236085)" font-size="17" font-family="ArialMT"><tspan y="935" x="514.2344 520.26937 529.7248">"3"</tspan></text>
<path transform="matrix(1,0,0,-1,0,387)" d="M224.4505 105.2101H283.2565V91.3593H224.4505Z" fill="#ffffff"/>
<path transform="matrix(.3459174,0,0,.3462689,140.0466,-2.1505128)" stroke-width="1" stroke-linecap="butt" stroke-miterlimit="4" stroke-linejoin="miter" fill="none" stroke="#000000" d="M244 820H414V860H244Z"/>
<text xml:space="preserve" transform="matrix(.3459174 0 0 .3462689 139.8737 -2.3236085)" font-size="17" font-family="ArialMT"><tspan y="845" x="276.0781 280.80073 290.2561 294.03349 298.7561 303.47874 315.7561 325.2115 333.7115 337.48887 346.94425 352.60527 362.06065 366.78327 376.23866">Init Declarator</tspan></text>
<path transform="matrix(1,0,0,-1,0,387)" d="M224.4505 119.0608H283.2565V105.2101H224.4505Z" fill="#99ff73"/>
<path transform="matrix(.3459174,0,0,.3462689,140.0466,-2.1505128)" stroke-width="1" stroke-linecap="butt" stroke-miterlimit="4" stroke-linejoin="miter" fill="none" stroke="#000000" d="M244 780H414V820H244Z"/>
<text xml:space="preserve" transform="matrix(.3459174 0 0 .3462689 139.8737 -2.3236085)" font-size="17" font-family="ArialMT"><tspan y="805" x="304.2969 310.3319 318.8319 323.55455 333.48255 338.20518 347.66056">"x = 3"</tspan></text>
<path transform="matrix(1,0,0,-1,0,387)" d="M292.2503 18.64284H351.0563V4.792084H292.2503Z" fill="#ffffff"/>
<path transform="matrix(.3459174,0,0,.3462689,140.0466,-2.1505128)" stroke-width="1" stroke-linecap="butt" stroke-miterlimit="4" stroke-linejoin="miter" fill="none" stroke="#000000" d="M440 1070H610V1110H440Z"/>
<text xml:space="preserve" transform="matrix(.3459174 0 0 .3462689 139.8737 -2.3236085)" font-size="17" font-family="ArialMT"><tspan y="1095" x="475.375 484.83039 494.28578 499.0084 504.6694 513.16946 522.6249 532.0803 540.5803 545.3029 554.75839 564.2138 568.9364">36 (constant)</tspan></text>
<path transform="matrix(1,0,0,-1,0,387)" d="M292.2503 32.49359H351.0563V18.64284H292.2503Z" fill="#99ff73"/>
<path transform="matrix(.3459174,0,0,.3462689,140.0466,-2.1505128)" stroke-width="1" stroke-linecap="butt" stroke-miterlimit="4" stroke-linejoin="miter" fill="none" stroke="#000000" d="M440 1030H610V1070H440Z"/>
<text xml:space="preserve" transform="matrix(.3459174 0 0 .3462689 139.8737 -2.3236085)" font-size="17" font-family="ArialMT"><tspan y="1055" x="514.2344 520.26937 529.7248">"3"</tspan></text>
<path transform="matrix(1,0,0,-1,0,387)" d="M387.5505 91.53243V89.45482H386.8587V91.53243H387.5505ZM387.5505 87.37721V85.29959H386.8587V87.37721H387.5505ZM386.8587 85.99213V87.48108H387.5505V86.89242H386.8587V87.48108H387.2046 387.5505V85.99213H386.8587ZM387.5505 84.81481V83.40205H386.8587V84.81481H387.5505Z"/>
<path transform="matrix(1,0,0,-1,0,387)" d="M387.2046 81.32443 385.821 84.09459 387.2046 83.40205 388.5883 84.09459 387.2046 81.32443Z"/>
<path transform="matrix(.3459174,0,0,.3462689,139.8737,-2.3236085)" stroke-width="2" stroke-linecap="butt" stroke-miterlimit="10" stroke-linejoin="miter" fill="none" stroke="#000000" d="M715 889.48 711 881.48 715 883.48 719 881.48 715 889.48Z"/>
<path transform="matrix(1,0,0,-1,0,387)" d="M357.9746 105.2101H416.7806V91.3593H357.9746Z" fill="#ffffff"/>
<path transform="matrix(.3459174,0,0,.3462689,140.0466,-2.1505128)" stroke-width="1" stroke-linecap="butt" stroke-miterlimit="4" stroke-linejoin="miter" fill="none" stroke="#000000" d="M630 820H800V860H630Z"/>
<text xml:space="preserve" transform="matrix(.3459174 0 0 .3462689 139.8737 -2.3236085)" font-size="17" font-family="ArialMT"><tspan y="845" x="662.0781 666.8007 676.25619 680.03359 684.75619 689.47879 701.75619 711.2116 719.7116 723.489 732.94448 738.60549 748.0609 752.7835 762.23898">Init Declarator</tspan></text>
<path transform="matrix(1,0,0,-1,0,387)" d="M357.9746 119.0608H416.7806V105.2101H357.9746Z" fill="#ff6666"/>
<path transform="matrix(.3459174,0,0,.3462689,140.0466,-2.1505128)" stroke-width="1" stroke-linecap="butt" stroke-miterlimit="4" stroke-linejoin="miter" fill="none" stroke="#000000" d="M630 780H800V820H630Z"/>
<text xml:space="preserve" transform="matrix(.3459174 0 0 .3462689 139.8737 -2.3236085)" font-size="17" font-family="ArialMT"><tspan y="805" x="706.5938 712.6288 717.3514">";"</tspan></text>
<path transform="matrix(1,0,0,-1,0,387)" d="M383.464 76.45955 387.3776 72.54197 391.2912 76.45955 393.248 74.50076 389.3344 70.58317 393.248 66.66559 391.2912 64.7068 387.3776 68.62438 383.464 64.7068 381.5072 66.66559 385.4208 70.58317 381.5072 74.50076 383.464 76.45955Z" fill="#ff6666"/>
<path transform="matrix(1,0,0,-1,0,387)" d="M34.7147 56.91379 34.7641 54.83677 34.07246 54.82029 34.02305 56.89731 34.7147 56.91379ZM34.8135 52.75975 34.8629 50.68273 34.17125 50.66624 34.12186 52.74326 34.8135 52.75975Z"/>
<path transform="matrix(1,0,0,-1,0,387)" d="M34.40347 46.69755 33.15125 49.53002 34.50032 48.7717 35.91512 49.39844 34.40347 46.69755Z"/>
<path transform="matrix(.3459174,0,0,.3462689,139.8737,-2.3236085)" stroke-width="2" stroke-linecap="butt" stroke-miterlimit="10" stroke-linejoin="miter" fill="none" stroke="#000000" d="M-304.9 989.48-308.52 981.3-304.62 983.49-300.53 981.68-304.9 989.48Z"/>
<path transform="matrix(1,0,0,-1,0,387)" d="M30.62824 41.83266 34.54185 37.91508 38.45546 41.83266 40.41226 39.87387 36.49865 35.95628 40.41226 32.0387 38.45546 30.07991 34.54185 33.99749 30.62824 30.07991 28.67144 32.0387 32.58504 35.95628 28.67144 39.87387 30.62824 41.83266Z" fill="#ff6666"/>
</g>
</g>
</svg>
