<svg xmlns="http://www.w3.org/2000/svg" xmlns:xlink="http://www.w3.org/1999/xlink" xmlns:inkscape="http://www.inkscape.org/namespaces/inkscape" version="1.1" width="426" height="157" viewBox="0 0 426 157">
<defs>
<clipPath id="clip_0">
<path transform="matrix(1,0,0,-1,0,157)" d="M0 .1272723H425.8909V156.99997H0Z"/>
</clipPath>
<clipPath id="clip_1">
<path transform="matrix(1,0,0,-1,0,157)" d="M0 .3454542H425.0182V156.99996H0Z"/>
</clipPath>
<clipPath id="clip_2">
<path transform="matrix(1,0,0,-1,0,157)" d="M0 .3454542H425.0182V156.99996H0Z"/>
</clipPath>
<clipPath id="clip_3">
<path transform="matrix(1,0,0,-1,0,157)" d="M0 .3454542H425.0182V156.99996H0Z"/>
</clipPath>
<clipPath id="clip_4">
<path transform="matrix(1,0,0,-1,0,157)" d="M0 .3454542H425.0182V156.99996H0Z"/>
</clipPath>
<clipPath id="clip_5">
<path transform="matrix(1,0,0,-1,0,157)" d="M24.87273 20.2H409.96366V136.7091H24.87273Z"/>
</clipPath>
<clipPath id="clip_6">
<path transform="matrix(1,0,0,-1,0,157)" d="M0 .3454542H425.0182V156.99996H0Z"/>
</clipPath>
<clipPath id="clip_7">
<path transform="matrix(1,0,0,-1,0,157)" d="M0 .3454542H425.0182V156.99996H0Z"/>
</clipPath>
<clipPath id="clip_8">
<path transform="matrix(1,0,0,-1,0,157)" d="M0 .3454542H425.0182V156.99996H0Z"/>
</clipPath>
<clipPath id="clip_9">
<path transform="matrix(1,0,0,-1,0,157)" d="M0 .3454542H425.0182V156.99996H0Z"/>
</clipPath>
<clipPath id="clip_10">
<path transform="matrix(1,0,0,-1,0,157)" d="M0 .3454542H425.0182V156.99996H0Z"/>
</clipPath>
<clipPath id="clip_11">
<path transform="matrix(1,0,0,-1,0,157)" d="M0 .3454542H425.0182V156.99996H0Z"/>
</clipPath>
<clipPath id="clip_12">
<path transform="matrix(1,0,0,-1,0,157)" d="M0 .3454542H425.0182V156.99996H0Z"/>
</clipPath>
<clipPath id="clip_13">
<path transform="matrix(1,0,0,-1,0,157)" d="M0 .3454542H425.0182V156.99996H0Z"/>
</clipPath>
<clipPath id="clip_14">
<path transform="matrix(1,0,0,-1,0,157)" d="M0 .3454542H425.0182V156.99996H0Z"/>
</clipPath>
<clipPath id="clip_15">
<path transform="matrix(1,0,0,-1,0,157)" d="M0 .3454542H425.0182V156.99996H0Z"/>
</clipPath>
<clipPath id="clip_16">
<path transform="matrix(1,0,0,-1,0,157)" d="M0 .3454542H425.0182V156.99996H0Z"/>
</clipPath>
<clipPath id="clip_17">
<path transform="matrix(1,0,0,-1,0,157)" d="M0 .3454542H425.0182V156.99996H0Z"/>
</clipPath>
<clipPath id="clip_18">
<path transform="matrix(1,0,0,-1,0,157)" d="M0 .3454542H425.0182V156.99996H0Z"/>
</clipPath>
<clipPath id="clip_19">
<path transform="matrix(1,0,0,-1,0,157)" d="M0 .3454542H425.0182V156.99996H0Z"/>
</clipPath>
<clipPath id="clip_20">
<path transform="matrix(1,0,0,-1,0,157)" d="M0 .3454542H425.0182V156.99996H0Z"/>
</clipPath>
<clipPath id="clip_21">
<path transform="matrix(1,0,0,-1,0,157)" d="M0 .3454542H425.0182V156.99996H0Z"/>
</clipPath>
</defs>
<g clip-path="url(#clip_0)">
<path transform="matrix(1,0,0,-1,0,157)" d="M0 157H425.8909V.1272723H0Z" fill="#ffffff"/>
</g>
<g clip-path="url(#clip_1)">
<path transform="matrix(.00007874016,0,0,.00007874016,24.98181,20.399994)" stroke-width="9525" stroke-linecap="butt" stroke-linejoin="round" fill="none" stroke="#d9d9d9" d="M0 978172H4882342M0 490476H4882342M0 0H4882342"/>
</g>
<g clip-path="url(#clip_2)">
<path transform="matrix(.00007874016,0,0,.00007874016,24.98181,20.399994)" stroke-width="9525" stroke-linecap="butt" stroke-linejoin="round" fill="none" stroke="#d9d9d9" d="M548669 0V1468582M1097327 0V1468582M1645985 0V1468582M2194643 0V1468582M2743301 0V1468582M3291959 0V1468582M3837846 0V1468582M4386349 0V1468582"/>
</g>
<g clip-path="url(#clip_3)">
<path transform="matrix(.00007874016,0,0,-.00007874016,24.98181,136.03638)" stroke-width="9525" stroke-linecap="butt" stroke-linejoin="round" fill="none" stroke="#bfbfbf" d="M0 0 1 1468582"/>
</g>
<g clip-path="url(#clip_4)">
<path transform="matrix(.00007874016,0,0,.00007874016,24.98181,136.03638)" stroke-width="9525" stroke-linecap="butt" stroke-linejoin="round" fill="none" stroke="#bfbfbf" d="M0 0 4882342 1"/>
</g>
<g clip-path="url(#clip_5)">
<path transform="matrix(.00007874016,0,0,.00007874016,25.09095,40.1454)" stroke-width="6350" stroke-linecap="round" stroke-linejoin="round" fill="none" stroke="#156082" d="M0 640430.7C18274.82 670154.9 36550.63 729324.3 54826.45 729603.4 73101.27 729881.4 91377.09 642990.9 109652.9 642099.9 127927.7 641207.7 146204.5 720670.4 164480.3 724251.8 182755.2 727833.2 201031 668800.7 219306.8 663588.2 237581.6 658374.6 255857.4 680479 274133.2 692971.4 292408.1 705462.7 310683.9 715877.9 328959.7 738538.4 347234.5 761197.8 365510.3 817899 383786.2 828933.2 402061 839966.4 420336.8 809547.1 438612.6 804742.6 456887.4 799937 475164.2 814217.6 493440 800103.1 511714.9 785988.5 529990.7 718694.2 548266.5 720055.3 566541.3 721415.5 584817.1 790350 603092.9 808267.9 621367.7 826185.9 639643.6 806193.7 657919.4 827563 676194.2 848931.4 694470 917000.7 712745.8 936482.9 731020.7 955964 749297.5 941906.5 767573.3 944452.7 785848.1 946999 804123.9 954027.8 822399.8 951760.6 840674.6 949492.3 858950.4 941999.5 877226.2 930844.2 895501 919688.1 913776.8 893945.2 932052.6 884825.2 950327.4 875704.2 968603.2 888996.7 986879.1 876122.3 1005154 863246.9 1023430 845569 1041706 807575.9 1059980 769581.7 1078257 664307.2 1096533 648162.5 1114808 632016.7 1133084 714789.7 1151360 710706.3 1169634 706621.9 1187910 628281.4 1206186 623658.9 1224461 619035.4 1242736 673652.3 1261012 682970.3 1279287 692287.3 1297563 683709.4 1315839 679561.9 1330029 676340.6 1356474 683886.4 1370665 658085.6 1388940 624857 1407217 491959.5 1425493 480195.2 1443767 468430 1462043 566475.6 1480319 587496.9 1498594 608517.2 1516870 617504.2 1535146 606321.9 1553420 595138.7 1571696 545238.3 1589972 520399.6 1608247 495559.9 1626523 463891.5 1644798 457286.7 1663073 450681 1681350 483703.6 1699626 480769.3 1710633 479001.1 1743444 472126.4 1754452 439680.8 1772727 385809 1791003 143395.6 1809279 157540.1 1827554 171683.7 1845830 440454.9 1864105 524544.1 1879826 596882.9 1903210 634997.1 1918932 662070 1937206 693539.4 1955482 700155.2 1973758 713362.6 1992033 726569.1 2010310 737572.2 2028586 741313.6 2046860 745054.1 2065136 733133.7 2083412 735808.1 2101687 738481.3 2119963 766332.4 2138238 757356.4 2156513 748379.4 2174789 691931.2 2193065 681949.2 2211340 671966.1 2229615 711889.4 2247892 697458.9 2266166 683027.3 2284443 612490.6 2302719 595364.7 2320994 578238.9 2339270 606885 2357545 594703.7 2375820 582521.4 2394096 543068.1 2412372 522275.8 2430646 501482.6 2448922 493216.7 2467198 469947.1 2485473 446676.6 2503749 371149.4 2522025 382655.6 2540300 394160.9 2558575 536537.4 2576851 538979.6 2595126 541420.9 2613403 400635.6 2631678 397304.2 2649954 393972.9 2668229 501707.6 2686505 518991.5 2704780 536274.3 2723056 486188.9 2741331 501003.5 2759606 515817.1 2777882 595701.8 2796158 607878.1 2814433 620053.4 2832708 580775.2 2850984 574057.4 2864836 568964.9 2891959 591452.4 2905812 567568.7 2924087 536057.3 2942362 403557.9 2960638 384988.9 2978913 366418.9 2997189 445871.5 3015465 456151.6 3033740 466430.7 3052015 435740.4 3070291 446667.6 3088566 457593.8 3106842 530137.7 3125117 521713.8 3143392 513288.8 3161668 412534.9 3179944 396122.1 3198219 379708.3 3216496 425607.3 3234771 423234 3253046 420859.8 3271322 379767.3 3289598 381881.5 3307873 383994.8 3326148 457757.8 3344424 435915.4 3362699 414072.1 3380975 260596.3 3399251 250822.3 3417526 241048.2 3435801 378014.1 3454077 377271 3472352 376527 3490629 249811.2 3508905 246359.8 3527180 242908.4 3545456 363071.5 3563731 356562.8 3582006 350054.1 3600282 225080.5 3618558 207307.5 3636832 189533.6 3655108 267215.1 3673384 249920.2 3691659 232624.3 3709935 109855 3728210 103535.3 3746485 97214.58 3764761 218033.7 3783037 211998.1 3801312 205961.4 3819589 57098.21 3837864 67319.32 3856139 77539.44 3874415 257695 3892691 273321.8 3910966 288947.4 3929241 165841 3947517 161077.5 3965792 156313 3984068 216804.6 4002344 244737.6 4020619 272670.7 4038894 295858.2 4057170 328675.8 4075445 361492.3 4093721 481944.4 4111997 441642 4130271 401338.7 4148548 114948.5 4166824 86857.45 4185099 58765.39 4203375 275349 4221650 273094.7 4239925 270840.5 4258201 48390.27 4276477 73331.98 4294752 98273.69 4313027 366591.9 4331303 422745 4340007 449486.9 4377425 405158.1 4386130 410248.6 4399576 418112.5 4427509 532025.9 4440957 486873 4459232 425505.3 4477508 84085.15 4495784 42042.57 4514058 0 4532334 218899.8 4550610 234617.5 4568885 250334.2 4587161 135137.7 4605437 136343.8 4623711 137549 4641987 253704.6 4660263 241852.3 4678538 230000 4696814 78385.53 4715089 65230.1 4733364 52073.66 4751641 161228.5 4769917 162918.7 4788192 164607.9 4806467 65611.14 4824743 75370.2 4843018 85128.26 4861294 172770.8 4879570 221471.1"/>
</g>
<g clip-path="url(#clip_6)">
<path transform="matrix(1,0,0,-1,0,157)" d="M27.70898 66.34551C27.70898 64.9598 26.58563 63.83645 25.19992 63.83645 23.81421 63.83645 22.69087 64.9598 22.69087 66.34551 22.69087 67.73122 23.81421 68.85457 25.19992 68.85457 26.58563 68.85457 27.70898 67.73122 27.70898 66.34551Z" fill="#156082"/>
<path transform="matrix(.00007874016,0,0,.00007874016,22.69087,88.14543)" stroke-width="6350" stroke-linecap="butt" stroke-linejoin="round" fill="none" stroke="#156082" d="M63730 31865C63730 49463.55 49463.55 63730 31865 63730 14266.45 63730 0 49463.55 0 31865 0 14266.45 14266.45 0 31865 0 49463.55 0 63730 14266.45 63730 31865Z"/>
<path transform="matrix(1,0,0,-1,0,157)" d="M32.0726 59.3637C32.0726 57.97799 30.94926 56.85464 29.56354 56.85464 28.17783 56.85464 27.05449 57.97799 27.05449 59.3637 27.05449 60.74941 28.17783 61.87275 29.56354 61.87275 30.94926 61.87275 32.0726 60.74941 32.0726 59.3637Z" fill="#156082"/>
<path transform="matrix(.00007874016,0,0,.00007874016,27.05449,95.12725)" stroke-width="6350" stroke-linecap="butt" stroke-linejoin="round" fill="none" stroke="#156082" d="M63730 31865C63730 49463.55 49463.55 63730 31865 63730 14266.45 63730 0 49463.55 0 31865 0 14266.45 14266.45 0 31865 0 49463.55 0 63730 14266.45 63730 31865Z"/>
<path transform="matrix(1,0,0,-1,0,157)" d="M36.21811 66.12732C36.21811 64.74161 35.09477 63.61827 33.70906 63.61827 32.32334 63.61827 31.2 64.74161 31.2 66.12732 31.2 67.51303 32.32334 68.63638 33.70906 68.63638 35.09477 68.63638 36.21811 67.51303 36.21811 66.12732Z" fill="#156082"/>
<path transform="matrix(.00007874016,0,0,.00007874016,31.2,88.36362)" stroke-width="6350" stroke-linecap="butt" stroke-linejoin="round" fill="none" stroke="#156082" d="M63730 31865C63730 49463.55 49463.55 63730 31865 63730 14266.45 63730 0 49463.55 0 31865 0 14266.45 14266.45 0 31865 0 49463.55 0 63730 14266.45 63730 31865Z"/>
<path transform="matrix(1,0,0,-1,0,157)" d="M40.58173 59.80008C40.58173 58.41436 39.45839 57.29102 38.07268 57.29102 36.68697 57.29102 35.56362 58.41436 35.56362 59.80008 35.56362 61.18579 36.68697 62.30913 38.07268 62.30913 39.45839 62.30913 40.58173 61.18579 40.58173 59.80008Z" fill="#156082"/>
<path transform="matrix(.00007874016,0,0,.00007874016,35.56362,94.69087)" stroke-width="6350" stroke-linecap="butt" stroke-linejoin="round" fill="none" stroke="#156082" d="M63730 31865C63730 49463.55 49463.55 63730 31865 63730 14266.45 63730 0 49463.55 0 31865 0 14266.45 14266.45 0 31865 0 49463.55 0 63730 14266.45 63730 31865Z"/>
<path transform="matrix(1,0,0,-1,0,157)" d="M44.94535 64.60008C44.94535 63.21436 43.82201 62.09102 42.4363 62.09102 41.05059 62.09102 39.92724 63.21436 39.92724 64.60008 39.92724 65.98579 41.05059 67.10913 42.4363 67.10913 43.82201 67.10913 44.94535 65.98579 44.94535 64.60008Z" fill="#156082"/>
<path transform="matrix(.00007874016,0,0,.00007874016,39.92724,89.89087)" stroke-width="6350" stroke-linecap="butt" stroke-linejoin="round" fill="none" stroke="#156082" d="M63730 31865C63730 49463.55 49463.55 63730 31865 63730 14266.45 63730 0 49463.55 0 31865 0 14266.45 14266.45 0 31865 0 49463.55 0 63730 14266.45 63730 31865Z"/>
<path transform="matrix(1,0,0,-1,0,157)" d="M49.30898 62.20008C49.30898 60.81436 48.18563 59.69102 46.79992 59.69102 45.41421 59.69102 44.29087 60.81436 44.29087 62.20008 44.29087 63.58579 45.41421 64.70913 46.79992 64.70913 48.18563 64.70913 49.30898 63.58579 49.30898 62.20008Z" fill="#156082"/>
<path transform="matrix(.00007874016,0,0,.00007874016,44.29087,92.29087)" stroke-width="6350" stroke-linecap="butt" stroke-linejoin="round" fill="none" stroke="#156082" d="M63730 31865C63730 49463.55 49463.55 63730 31865 63730 14266.45 63730 0 49463.55 0 31865 0 14266.45 14266.45 0 31865 0 49463.55 0 63730 14266.45 63730 31865Z"/>
<path transform="matrix(1,0,0,-1,0,157)" d="M53.45441 58.70913C53.45441 57.32342 52.33107 56.20008 50.94536 56.20008 49.55964 56.20008 48.4363 57.32342 48.4363 58.70913 48.4363 60.09485 49.55964 61.21819 50.94536 61.21819 52.33107 61.21819 53.45441 60.09485 53.45441 58.70913Z" fill="#156082"/>
<path transform="matrix(.00007874016,0,0,.00007874016,48.4363,95.781818)" stroke-width="6350" stroke-linecap="butt" stroke-linejoin="round" fill="none" stroke="#156082" d="M63730 31865C63730 49463.55 49463.55 63730 31865 63730 14266.45 63730 0 49463.55 0 31865 0 14266.45 14266.45 0 31865 0 49463.55 0 63730 14266.45 63730 31865Z"/>
<path transform="matrix(1,0,0,-1,0,157)" d="M57.81811 51.50913C57.81811 50.12342 56.69477 49.00008 55.30906 49.00008 53.92334 49.00008 52.8 50.12342 52.8 51.50913 52.8 52.89485 53.92334 54.01819 55.30906 54.01819 56.69477 54.01819 57.81811 52.89485 57.81811 51.50913Z" fill="#156082"/>
<path transform="matrix(.00007874016,0,0,.00007874016,52.8,102.98181)" stroke-width="6350" stroke-linecap="butt" stroke-linejoin="round" fill="none" stroke="#156082" d="M63730 31865C63730 49463.55 49463.55 63730 31865 63730 14266.45 63730 0 49463.55 0 31865 0 14266.45 14266.45 0 31865 0 49463.55 0 63730 14266.45 63730 31865Z"/>
<path transform="matrix(1,0,0,-1,0,157)" d="M62.18173 53.47284C62.18173 52.08712 61.05839 50.96378 59.67268 50.96378 58.28697 50.96378 57.16362 52.08712 57.16362 53.47284 57.16362 54.85855 58.28697 55.98189 59.67268 55.98189 61.05839 55.98189 62.18173 54.85855 62.18173 53.47284Z" fill="#156082"/>
<path transform="matrix(.00007874016,0,0,.00007874016,57.16362,101.01811)" stroke-width="6350" stroke-linecap="butt" stroke-linejoin="round" fill="none" stroke="#156082" d="M63730 31865C63730 49463.55 49463.55 63730 31865 63730 14266.45 63730 0 49463.55 0 31865 0 14266.45 14266.45 0 31865 0 49463.55 0 63730 14266.45 63730 31865Z"/>
<path transform="matrix(1,0,0,-1,0,157)" d="M66.54536 53.69094C66.54536 52.30523 65.42201 51.18189 64.0363 51.18189 62.65059 51.18189 61.52725 52.30523 61.52725 53.69094 61.52725 55.07666 62.65059 56.2 64.0363 56.2 65.42201 56.2 66.54536 55.07666 66.54536 53.69094Z" fill="#156082"/>
<path transform="matrix(.00007874016,0,0,.00007874016,61.52725,100.8)" stroke-width="6350" stroke-linecap="butt" stroke-linejoin="round" fill="none" stroke="#156082" d="M63730 31865C63730 49463.55 49463.55 63730 31865 63730 14266.45 63730 0 49463.55 0 31865 0 14266.45 14266.45 0 31865 0 49463.55 0 63730 14266.45 63730 31865Z"/>
<path transform="matrix(1,0,0,-1,0,157)" d="M70.90898 60.01827C70.90898 58.63256 69.78564 57.50922 68.39992 57.50922 67.01421 57.50922 65.89087 58.63256 65.89087 60.01827 65.89087 61.40398 67.01421 62.52733 68.39992 62.52733 69.78564 62.52733 70.90898 61.40398 70.90898 60.01827Z" fill="#156082"/>
<path transform="matrix(.00007874016,0,0,.00007874016,65.89087,94.47267)" stroke-width="6350" stroke-linecap="butt" stroke-linejoin="round" fill="none" stroke="#156082" d="M63730 31865C63730 49463.55 49463.55 63730 31865 63730 14266.45 63730 0 49463.55 0 31865 0 14266.45 14266.45 0 31865 0 49463.55 0 63730 14266.45 63730 31865Z"/>
<path transform="matrix(1,0,0,-1,0,157)" d="M75.05441 53.25465C75.05441 51.86893 73.93107 50.74559 72.54535 50.74559 71.15964 50.74559 70.0363 51.86893 70.0363 53.25465 70.0363 54.64036 71.15964 55.7637 72.54535 55.7637 73.93107 55.7637 75.05441 54.64036 75.05441 53.25465Z" fill="#156082"/>
<path transform="matrix(.00007874016,0,0,.00007874016,70.0363,101.2363)" stroke-width="6350" stroke-linecap="butt" stroke-linejoin="round" fill="none" stroke="#156082" d="M63730 31865C63730 49463.55 49463.55 63730 31865 63730 14266.45 63730 0 49463.55 0 31865 0 14266.45 14266.45 0 31865 0 49463.55 0 63730 14266.45 63730 31865Z"/>
<path transform="matrix(1,0,0,-1,0,157)" d="M79.41811 51.72732C79.41811 50.34161 78.29477 49.21827 76.90906 49.21827 75.52334 49.21827 74.4 50.34161 74.4 51.72732 74.4 53.11303 75.52334 54.23638 76.90906 54.23638 78.29477 54.23638 79.41811 53.11303 79.41811 51.72732Z" fill="#156082"/>
<path transform="matrix(.00007874016,0,0,.00007874016,74.4,102.76362)" stroke-width="6350" stroke-linecap="butt" stroke-linejoin="round" fill="none" stroke="#156082" d="M63730 31865C63730 49463.55 49463.55 63730 31865 63730 14266.45 63730 0 49463.55 0 31865 0 14266.45 14266.45 0 31865 0 49463.55 0 63730 14266.45 63730 31865Z"/>
<path transform="matrix(1,0,0,-1,0,157)" d="M83.78173 43.00008C83.78173 41.61436 82.65839 40.49102 81.27268 40.49102 79.88697 40.49102 78.76362 41.61436 78.76362 43.00008 78.76362 44.38579 79.88697 45.50913 81.27268 45.50913 82.65839 45.50913 83.78173 44.38579 83.78173 43.00008Z" fill="#156082"/>
<path transform="matrix(.00007874016,0,0,.00007874016,78.76362,111.490879)" stroke-width="6350" stroke-linecap="butt" stroke-linejoin="round" fill="none" stroke="#156082" d="M63730 31865C63730 49463.55 49463.55 63730 31865 63730 14266.45 63730 0 49463.55 0 31865 0 14266.45 14266.45 0 31865 0 49463.55 0 63730 14266.45 63730 31865Z"/>
<path transform="matrix(1,0,0,-1,0,157)" d="M88.14536 42.34552C88.14536 40.9598 87.02201 39.83646 85.6363 39.83646 84.25059 39.83646 83.12725 40.9598 83.12725 42.34552 83.12725 43.73123 84.25059 44.85457 85.6363 44.85457 87.02201 44.85457 88.14536 43.73123 88.14536 42.34552Z" fill="#156082"/>
<path transform="matrix(.00007874016,0,0,.00007874016,83.12725,112.14543)" stroke-width="6350" stroke-linecap="butt" stroke-linejoin="round" fill="none" stroke="#156082" d="M63730 31865C63730 49463.55 49463.55 63730 31865 63730 14266.45 63730 0 49463.55 0 31865 0 14266.45 14266.45 0 31865 0 49463.55 0 63730 14266.45 63730 31865Z"/>
<path transform="matrix(1,0,0,-1,0,157)" d="M92.50898 41.90914C92.50898 40.52343 91.38564 39.40008 89.99992 39.40008 88.61421 39.40008 87.49087 40.52343 87.49087 41.90914 87.49087 43.29485 88.61421 44.41819 89.99992 44.41819 91.38564 44.41819 92.50898 43.29485 92.50898 41.90914Z" fill="#156082"/>
<path transform="matrix(.00007874016,0,0,.00007874016,87.49087,112.58181)" stroke-width="6350" stroke-linecap="butt" stroke-linejoin="round" fill="none" stroke="#156082" d="M63730 31865C63730 49463.55 49463.55 63730 31865 63730 14266.45 63730 0 49463.55 0 31865 0 14266.45 14266.45 0 31865 0 49463.55 0 63730 14266.45 63730 31865Z"/>
<path transform="matrix(1,0,0,-1,0,157)" d="M96.65441 43.43646C96.65441 42.05075 95.53107 40.9274 94.14535 40.9274 92.75964 40.9274 91.6363 42.05075 91.6363 43.43646 91.6363 44.82217 92.75964 45.94551 94.14535 45.94551 95.53107 45.94551 96.65441 44.82217 96.65441 43.43646Z" fill="#156082"/>
<path transform="matrix(.00007874016,0,0,.00007874016,91.6363,111.05449)" stroke-width="6350" stroke-linecap="butt" stroke-linejoin="round" fill="none" stroke="#156082" d="M63730 31865C63730 49463.55 49463.55 63730 31865 63730 14266.45 63730 0 49463.55 0 31865 0 14266.45 14266.45 0 31865 0 49463.55 0 63730 14266.45 63730 31865Z"/>
<path transform="matrix(1,0,0,-1,0,157)" d="M101.0181 47.14551C101.0181 45.7598 99.89477 44.63645 98.50906 44.63645 97.12334 44.63645 96 45.7598 96 47.14551 96 48.53122 97.12334 49.65457 98.50906 49.65457 99.89477 49.65457 101.0181 48.53122 101.0181 47.14551Z" fill="#156082"/>
<path transform="matrix(.00007874016,0,0,.00007874016,96,107.34543)" stroke-width="6350" stroke-linecap="butt" stroke-linejoin="round" fill="none" stroke="#156082" d="M63730 31865C63730 49463.55 49463.55 63730 31865 63730 14266.45 63730 0 49463.55 0 31865 0 14266.45 14266.45 0 31865 0 49463.55 0 63730 14266.45 63730 31865Z"/>
<path transform="matrix(1,0,0,-1,0,157)" d="M105.3817 47.80008C105.3817 46.41436 104.2584 45.29102 102.8727 45.29102 101.487 45.29102 100.3636 46.41436 100.3636 47.80008 100.3636 49.18579 101.487 50.30913 102.8727 50.30913 104.2584 50.30913 105.3817 49.18579 105.3817 47.80008Z" fill="#156082"/>
<path transform="matrix(.00007874016,0,0,.00007874016,100.3636,106.69087)" stroke-width="6350" stroke-linecap="butt" stroke-linejoin="round" fill="none" stroke="#156082" d="M63730 31865C63730 49463.55 49463.55 63730 31865 63730 14266.45 63730 0 49463.55 0 31865 0 14266.45 14266.45 0 31865 0 49463.55 0 63730 14266.45 63730 31865Z"/>
<path transform="matrix(1,0,0,-1,0,157)" d="M109.7454 53.25465C109.7454 51.86893 108.622 50.74559 107.2363 50.74559 105.8506 50.74559 104.7272 51.86893 104.7272 53.25465 104.7272 54.64036 105.8506 55.7637 107.2363 55.7637 108.622 55.7637 109.7454 54.64036 109.7454 53.25465Z" fill="#156082"/>
<path transform="matrix(.00007874016,0,0,.00007874016,104.7272,101.2363)" stroke-width="6350" stroke-linecap="butt" stroke-linejoin="round" fill="none" stroke="#156082" d="M63730 31865C63730 49463.55 49463.55 63730 31865 63730 14266.45 63730 0 49463.55 0 31865 0 14266.45 14266.45 0 31865 0 49463.55 0 63730 14266.45 63730 31865Z"/>
<path transform="matrix(1,0,0,-1,0,157)" d="M114.109 65.69094C114.109 64.30523 112.9856 63.18189 111.5999 63.18189 110.2142 63.18189 109.0909 64.30523 109.0909 65.69094 109.0909 67.07666 110.2142 68.2 111.5999 68.2 112.9856 68.2 114.109 67.07666 114.109 65.69094Z" fill="#156082"/>
<path transform="matrix(.00007874016,0,0,.00007874016,109.0909,88.8)" stroke-width="6350" stroke-linecap="butt" stroke-linejoin="round" fill="none" stroke="#156082" d="M63730 31865C63730 49463.55 49463.55 63730 31865 63730 14266.45 63730 0 49463.55 0 31865 0 14266.45 14266.45 0 31865 0 49463.55 0 63730 14266.45 63730 31865Z"/>
<path transform="matrix(1,0,0,-1,0,157)" d="M118.2544 60.89094C118.2544 59.50523 117.1311 58.38189 115.7454 58.38189 114.3596 58.38189 113.2363 59.50523 113.2363 60.89094 113.2363 62.27666 114.3596 63.4 115.7454 63.4 117.1311 63.4 118.2544 62.27666 118.2544 60.89094Z" fill="#156082"/>
<path transform="matrix(.00007874016,0,0,.00007874016,113.2363,93.6)" stroke-width="6350" stroke-linecap="butt" stroke-linejoin="round" fill="none" stroke="#156082" d="M63730 31865C63730 49463.55 49463.55 63730 31865 63730 14266.45 63730 0 49463.55 0 31865 0 14266.45 14266.45 0 31865 0 49463.55 0 63730 14266.45 63730 31865Z"/>
<path transform="matrix(1,0,0,-1,0,157)" d="M122.6181 67.65465C122.6181 66.26893 121.4948 65.14559 120.1091 65.14559 118.7233 65.14559 117.6 66.26893 117.6 67.65465 117.6 69.04036 118.7233 70.1637 120.1091 70.1637 121.4948 70.1637 122.6181 69.04036 122.6181 67.65465Z" fill="#156082"/>
<path transform="matrix(.00007874016,0,0,.00007874016,117.6,86.8363)" stroke-width="6350" stroke-linecap="butt" stroke-linejoin="round" fill="none" stroke="#156082" d="M63730 31865C63730 49463.55 49463.55 63730 31865 63730 14266.45 63730 0 49463.55 0 31865 0 14266.45 14266.45 0 31865 0 49463.55 0 63730 14266.45 63730 31865Z"/>
<path transform="matrix(1,0,0,-1,0,157)" d="M126.9817 63.07284C126.9817 61.68712 125.8584 60.56378 124.4727 60.56378 123.087 60.56378 121.9636 61.68712 121.9636 63.07284 121.9636 64.45855 123.087 65.58189 124.4727 65.58189 125.8584 65.58189 126.9817 64.45855 126.9817 63.07284Z" fill="#156082"/>
<path transform="matrix(.00007874016,0,0,.00007874016,121.9636,91.41811)" stroke-width="6350" stroke-linecap="butt" stroke-linejoin="round" fill="none" stroke="#156082" d="M63730 31865C63730 49463.55 49463.55 63730 31865 63730 14266.45 63730 0 49463.55 0 31865 0 14266.45 14266.45 0 31865 0 49463.55 0 63730 14266.45 63730 31865Z"/>
<path transform="matrix(1,0,0,-1,0,157)" d="M131.3454 63.29094C131.3454 61.90523 130.222 60.78189 128.8363 60.78189 127.4506 60.78189 126.3272 61.90523 126.3272 63.29094 126.3272 64.67666 127.4506 65.8 128.8363 65.8 130.222 65.8 131.3454 64.67666 131.3454 63.29094Z" fill="#156082"/>
<path transform="matrix(.00007874016,0,0,.00007874016,126.3272,91.2)" stroke-width="6350" stroke-linecap="butt" stroke-linejoin="round" fill="none" stroke="#156082" d="M63730 31865C63730 49463.55 49463.55 63730 31865 63730 14266.45 63730 0 49463.55 0 31865 0 14266.45 14266.45 0 31865 0 49463.55 0 63730 14266.45 63730 31865Z"/>
<path transform="matrix(1,0,0,-1,0,157)" d="M135.4908 65.03646C135.4908 63.65075 134.3674 62.5274 132.9817 62.5274 131.596 62.5274 130.4727 63.65075 130.4727 65.03646 130.4727 66.42217 131.596 67.54551 132.9817 67.54551 134.3674 67.54551 135.4908 66.42217 135.4908 65.03646Z" fill="#156082"/>
<path transform="matrix(.00007874016,0,0,.00007874016,130.4727,89.45449)" stroke-width="6350" stroke-linecap="butt" stroke-linejoin="round" fill="none" stroke="#156082" d="M63730 31865C63730 49463.55 49463.55 63730 31865 63730 14266.45 63730 0 49463.55 0 31865 0 14266.45 14266.45 0 31865 0 49463.55 0 63730 14266.45 63730 31865Z"/>
<path transform="matrix(1,0,0,-1,0,157)" d="M139.8544 79.00008C139.8544 77.61436 138.7311 76.49102 137.3454 76.49102 135.9596 76.49102 134.8363 77.61436 134.8363 79.00008 134.8363 80.38579 135.9596 81.50913 137.3454 81.50913 138.7311 81.50913 139.8544 80.38579 139.8544 79.00008Z" fill="#156082"/>
<path transform="matrix(.00007874016,0,0,.00007874016,134.8363,75.49087)" stroke-width="6350" stroke-linecap="butt" stroke-linejoin="round" fill="none" stroke="#156082" d="M63730 31865C63730 49463.55 49463.55 63730 31865 63730 14266.45 63730 0 49463.55 0 31865 0 14266.45 14266.45 0 31865 0 49463.55 0 63730 14266.45 63730 31865Z"/>
<path transform="matrix(1,0,0,-1,0,157)" d="M144.2181 70.49094C144.2181 69.10523 143.0948 67.98189 141.7091 67.98189 140.3233 67.98189 139.2 69.10523 139.2 70.49094 139.2 71.87666 140.3233 73 141.7091 73 143.0948 73 144.2181 71.87666 144.2181 70.49094Z" fill="#156082"/>
<path transform="matrix(.00007874016,0,0,.00007874016,139.2,84)" stroke-width="6350" stroke-linecap="butt" stroke-linejoin="round" fill="none" stroke="#156082" d="M63730 31865C63730 49463.55 49463.55 63730 31865 63730 14266.45 63730 0 49463.55 0 31865 0 14266.45 14266.45 0 31865 0 49463.55 0 63730 14266.45 63730 31865Z"/>
<path transform="matrix(1,0,0,-1,0,157)" d="M148.5817 68.9637C148.5817 67.57799 147.4584 66.45464 146.0727 66.45464 144.687 66.45464 143.5636 67.57799 143.5636 68.9637 143.5636 70.34941 144.687 71.47275 146.0727 71.47275 147.4584 71.47275 148.5817 70.34941 148.5817 68.9637Z" fill="#156082"/>
<path transform="matrix(.00007874016,0,0,.00007874016,143.5636,85.52725)" stroke-width="6350" stroke-linecap="butt" stroke-linejoin="round" fill="none" stroke="#156082" d="M63730 31865C63730 49463.55 49463.55 63730 31865 63730 14266.45 63730 0 49463.55 0 31865 0 14266.45 14266.45 0 31865 0 49463.55 0 63730 14266.45 63730 31865Z"/>
<path transform="matrix(1,0,0,-1,0,157)" d="M152.9454 75.72732C152.9454 74.34161 151.822 73.21827 150.4363 73.21827 149.0506 73.21827 147.9272 74.34161 147.9272 75.72732 147.9272 77.11303 149.0506 78.23638 150.4363 78.23638 151.822 78.23638 152.9454 77.11303 152.9454 75.72732Z" fill="#156082"/>
<path transform="matrix(.00007874016,0,0,.00007874016,147.9272,78.76362)" stroke-width="6350" stroke-linecap="butt" stroke-linejoin="round" fill="none" stroke="#156082" d="M63730 31865C63730 49463.55 49463.55 63730 31865 63730 14266.45 63730 0 49463.55 0 31865 0 14266.45 14266.45 0 31865 0 49463.55 0 63730 14266.45 63730 31865Z"/>
<path transform="matrix(1,0,0,-1,0,157)" d="M157.0908 80.74551C157.0908 79.3598 155.9674 78.23646 154.5817 78.23646 153.196 78.23646 152.0727 79.3598 152.0727 80.74551 152.0727 82.13122 153.196 83.25457 154.5817 83.25457 155.9674 83.25457 157.0908 82.13122 157.0908 80.74551Z" fill="#156082"/>
<path transform="matrix(.00007874016,0,0,.00007874016,152.0727,73.74543)" stroke-width="6350" stroke-linecap="butt" stroke-linejoin="round" fill="none" stroke="#156082" d="M63730 31865C63730 49463.55 49463.55 63730 31865 63730 14266.45 63730 0 49463.55 0 31865 0 14266.45 14266.45 0 31865 0 49463.55 0 63730 14266.45 63730 31865Z"/>
<path transform="matrix(1,0,0,-1,0,157)" d="M161.4544 79.00008C161.4544 77.61436 160.3311 76.49102 158.9454 76.49102 157.5596 76.49102 156.4363 77.61436 156.4363 79.00008 156.4363 80.38579 157.5596 81.50913 158.9454 81.50913 160.3311 81.50913 161.4544 80.38579 161.4544 79.00008Z" fill="#156082"/>
<path transform="matrix(.00007874016,0,0,.00007874016,156.4363,75.49087)" stroke-width="6350" stroke-linecap="butt" stroke-linejoin="round" fill="none" stroke="#156082" d="M63730 31865C63730 49463.55 49463.55 63730 31865 63730 14266.45 63730 0 49463.55 0 31865 0 14266.45 14266.45 0 31865 0 49463.55 0 63730 14266.45 63730 31865Z"/>
<path transform="matrix(1,0,0,-1,0,157)" d="M165.8181 82.27284C165.8181 80.88712 164.6948 79.76378 163.3091 79.76378 161.9233 79.76378 160.8 80.88712 160.8 82.27284 160.8 83.65855 161.9233 84.78189 163.3091 84.78189 164.6948 84.78189 165.8181 83.65855 165.8181 82.27284Z" fill="#156082"/>
<path transform="matrix(.00007874016,0,0,.00007874016,160.8,72.21811)" stroke-width="6350" stroke-linecap="butt" stroke-linejoin="round" fill="none" stroke="#156082" d="M63730 31865C63730 49463.55 49463.55 63730 31865 63730 14266.45 63730 0 49463.55 0 31865 0 14266.45 14266.45 0 31865 0 49463.55 0 63730 14266.45 63730 31865Z"/>
<path transform="matrix(1,0,0,-1,0,157)" d="M170.1817 104.3091C170.1817 102.9234 169.0584 101.8001 167.6727 101.8001 166.287 101.8001 165.1636 102.9234 165.1636 104.3091 165.1636 105.6948 166.287 106.8182 167.6727 106.8182 169.0584 106.8182 170.1817 105.6948 170.1817 104.3091Z" fill="#156082"/>
<path transform="matrix(.00007874016,0,0,.00007874016,165.1636,50.1818)" stroke-width="6350" stroke-linecap="butt" stroke-linejoin="round" fill="none" stroke="#156082" d="M63730 31865C63730 49463.55 49463.55 63730 31865 63730 14266.45 63730 0 49463.55 0 31865 0 14266.45 14266.45 0 31865 0 49463.55 0 63730 14266.45 63730 31865Z"/>
<path transform="matrix(1,0,0,-1,0,157)" d="M174.5454 75.50913C174.5454 74.12342 173.422 73.00008 172.0363 73.00008 170.6506 73.00008 169.5272 74.12342 169.5272 75.50913 169.5272 76.89485 170.6506 78.01819 172.0363 78.01819 173.422 78.01819 174.5454 76.89485 174.5454 75.50913Z" fill="#156082"/>
<path transform="matrix(.00007874016,0,0,.00007874016,169.5272,78.98181)" stroke-width="6350" stroke-linecap="butt" stroke-linejoin="round" fill="none" stroke="#156082" d="M63730 31865C63730 49463.55 49463.55 63730 31865 63730 14266.45 63730 0 49463.55 0 31865 0 14266.45 14266.45 0 31865 0 49463.55 0 63730 14266.45 63730 31865Z"/>
<path transform="matrix(1,0,0,-1,0,157)" d="M178.6908 64.60008C178.6908 63.21436 177.5674 62.09102 176.1817 62.09102 174.796 62.09102 173.6727 63.21436 173.6727 64.60008 173.6727 65.98579 174.796 67.10913 176.1817 67.10913 177.5674 67.10913 178.6908 65.98579 178.6908 64.60008Z" fill="#156082"/>
<path transform="matrix(.00007874016,0,0,.00007874016,173.6727,89.89087)" stroke-width="6350" stroke-linecap="butt" stroke-linejoin="round" fill="none" stroke="#156082" d="M63730 31865C63730 49463.55 49463.55 63730 31865 63730 14266.45 63730 0 49463.55 0 31865 0 14266.45 14266.45 0 31865 0 49463.55 0 63730 14266.45 63730 31865Z"/>
<path transform="matrix(1,0,0,-1,0,157)" d="M183.0544 60.67284C183.0544 59.28712 181.9311 58.16378 180.5454 58.16378 179.1596 58.16378 178.0363 59.28712 178.0363 60.67284 178.0363 62.05855 179.1596 63.18189 180.5454 63.18189 181.9311 63.18189 183.0544 62.05855 183.0544 60.67284Z" fill="#156082"/>
<path transform="matrix(.00007874016,0,0,.00007874016,178.0363,93.818119)" stroke-width="6350" stroke-linecap="butt" stroke-linejoin="round" fill="none" stroke="#156082" d="M63730 31865C63730 49463.55 49463.55 63730 31865 63730 14266.45 63730 0 49463.55 0 31865 0 14266.45 14266.45 0 31865 0 49463.55 0 63730 14266.45 63730 31865Z"/>
<path transform="matrix(1,0,0,-1,0,157)" d="M187.4181 58.49094C187.4181 57.10523 186.2948 55.98189 184.9091 55.98189 183.5233 55.98189 182.4 57.10523 182.4 58.49094 182.4 59.87666 183.5233 61 184.9091 61 186.2948 61 187.4181 59.87666 187.4181 58.49094Z" fill="#156082"/>
<path transform="matrix(.00007874016,0,0,.00007874016,182.4,96)" stroke-width="6350" stroke-linecap="butt" stroke-linejoin="round" fill="none" stroke="#156082" d="M63730 31865C63730 49463.55 49463.55 63730 31865 63730 14266.45 63730 0 49463.55 0 31865 0 14266.45 14266.45 0 31865 0 49463.55 0 63730 14266.45 63730 31865Z"/>
<path transform="matrix(1,0,0,-1,0,157)" d="M191.7817 58.92732C191.7817 57.54161 190.6584 56.41827 189.2727 56.41827 187.887 56.41827 186.7636 57.54161 186.7636 58.92732 186.7636 60.31303 187.887 61.43638 189.2727 61.43638 190.6584 61.43638 191.7817 60.31303 191.7817 58.92732Z" fill="#156082"/>
<path transform="matrix(.00007874016,0,0,.00007874016,186.7636,95.56362)" stroke-width="6350" stroke-linecap="butt" stroke-linejoin="round" fill="none" stroke="#156082" d="M63730 31865C63730 49463.55 49463.55 63730 31865 63730 14266.45 63730 0 49463.55 0 31865 0 14266.45 14266.45 0 31865 0 49463.55 0 63730 14266.45 63730 31865Z"/>
<path transform="matrix(1,0,0,-1,0,157)" d="M196.1454 57.18189C196.1454 55.79617 195.022 54.67283 193.6363 54.67283 192.2506 54.67283 191.1272 55.79617 191.1272 57.18189 191.1272 58.5676 192.2506 59.69094 193.6363 59.69094 195.022 59.69094 196.1454 58.5676 196.1454 57.18189Z" fill="#156082"/>
<path transform="matrix(.00007874016,0,0,.00007874016,191.1272,97.30906)" stroke-width="6350" stroke-linecap="butt" stroke-linejoin="round" fill="none" stroke="#156082" d="M63730 31865C63730 49463.55 49463.55 63730 31865 63730 14266.45 63730 0 49463.55 0 31865 0 14266.45 14266.45 0 31865 0 49463.55 0 63730 14266.45 63730 31865Z"/>
<path transform="matrix(1,0,0,-1,0,157)" d="M200.2908 63.07284C200.2908 61.68712 199.1674 60.56378 197.7817 60.56378 196.396 60.56378 195.2727 61.68712 195.2727 63.07284 195.2727 64.45855 196.396 65.58189 197.7817 65.58189 199.1674 65.58189 200.2908 64.45855 200.2908 63.07284Z" fill="#156082"/>
<path transform="matrix(.00007874016,0,0,.00007874016,195.2727,91.41811)" stroke-width="6350" stroke-linecap="butt" stroke-linejoin="round" fill="none" stroke="#156082" d="M63730 31865C63730 49463.55 49463.55 63730 31865 63730 14266.45 63730 0 49463.55 0 31865 0 14266.45 14266.45 0 31865 0 49463.55 0 63730 14266.45 63730 31865Z"/>
<path transform="matrix(1,0,0,-1,0,157)" d="M204.6544 61.7637C204.6544 60.37799 203.5311 59.25464 202.1454 59.25464 200.7596 59.25464 199.6363 60.37799 199.6363 61.7637 199.6363 63.14941 200.7596 64.27275 202.1454 64.27275 203.5311 64.27275 204.6544 63.14941 204.6544 61.7637Z" fill="#156082"/>
<path transform="matrix(.00007874016,0,0,.00007874016,199.6363,92.72725)" stroke-width="6350" stroke-linecap="butt" stroke-linejoin="round" fill="none" stroke="#156082" d="M63730 31865C63730 49463.55 49463.55 63730 31865 63730 14266.45 63730 0 49463.55 0 31865 0 14266.45 14266.45 0 31865 0 49463.55 0 63730 14266.45 63730 31865Z"/>
<path transform="matrix(1,0,0,-1,0,157)" d="M209.0181 69.83646C209.0181 68.45075 207.8948 67.3274 206.5091 67.3274 205.1233 67.3274 204 68.45075 204 69.83646 204 71.22217 205.1233 72.34551 206.5091 72.34551 207.8948 72.34551 209.0181 71.22217 209.0181 69.83646Z" fill="#156082"/>
<path transform="matrix(.00007874016,0,0,.00007874016,204,84.65449)" stroke-width="6350" stroke-linecap="butt" stroke-linejoin="round" fill="none" stroke="#156082" d="M63730 31865C63730 49463.55 49463.55 63730 31865 63730 14266.45 63730 0 49463.55 0 31865 0 14266.45 14266.45 0 31865 0 49463.55 0 63730 14266.45 63730 31865Z"/>
<path transform="matrix(1,0,0,-1,0,157)" d="M213.3817 70.05465C213.3817 68.66893 212.2584 67.54559 210.8727 67.54559 209.487 67.54559 208.3636 68.66893 208.3636 70.05465 208.3636 71.44036 209.487 72.5637 210.8727 72.5637 212.2584 72.5637 213.3817 71.44036 213.3817 70.05465Z" fill="#156082"/>
<path transform="matrix(.00007874016,0,0,.00007874016,208.3636,84.4363)" stroke-width="6350" stroke-linecap="butt" stroke-linejoin="round" fill="none" stroke="#156082" d="M63730 31865C63730 49463.55 49463.55 63730 31865 63730 14266.45 63730 0 49463.55 0 31865 0 14266.45 14266.45 0 31865 0 49463.55 0 63730 14266.45 63730 31865Z"/>
<path transform="matrix(1,0,0,-1,0,157)" d="M217.7454 75.72732C217.7454 74.34161 216.622 73.21827 215.2363 73.21827 213.8506 73.21827 212.7272 74.34161 212.7272 75.72732 212.7272 77.11303 213.8506 78.23638 215.2363 78.23638 216.622 78.23638 217.7454 77.11303 217.7454 75.72732Z" fill="#156082"/>
<path transform="matrix(.00007874016,0,0,.00007874016,212.7272,78.76362)" stroke-width="6350" stroke-linecap="butt" stroke-linejoin="round" fill="none" stroke="#156082" d="M63730 31865C63730 49463.55 49463.55 63730 31865 63730 14266.45 63730 0 49463.55 0 31865 0 14266.45 14266.45 0 31865 0 49463.55 0 63730 14266.45 63730 31865Z"/>
<path transform="matrix(1,0,0,-1,0,157)" d="M221.8908 79.87284C221.8908 78.48712 220.7674 77.36378 219.3817 77.36378 217.996 77.36378 216.8727 78.48712 216.8727 79.87284 216.8727 81.25855 217.996 82.38189 219.3817 82.38189 220.7674 82.38189 221.8908 81.25855 221.8908 79.87284Z" fill="#156082"/>
<path transform="matrix(.00007874016,0,0,.00007874016,216.8727,74.61811)" stroke-width="6350" stroke-linecap="butt" stroke-linejoin="round" fill="none" stroke="#156082" d="M63730 31865C63730 49463.55 49463.55 63730 31865 63730 14266.45 63730 0 49463.55 0 31865 0 14266.45 14266.45 0 31865 0 49463.55 0 63730 14266.45 63730 31865Z"/>
<path transform="matrix(1,0,0,-1,0,157)" d="M226.2544 86.63646C226.2544 85.25075 225.1311 84.1274 223.7454 84.1274 222.3596 84.1274 221.2363 85.25075 221.2363 86.63646 221.2363 88.02217 222.3596 89.14551 223.7454 89.14551 225.1311 89.14551 226.2544 88.02217 226.2544 86.63646Z" fill="#156082"/>
<path transform="matrix(.00007874016,0,0,.00007874016,221.2363,67.85449)" stroke-width="6350" stroke-linecap="butt" stroke-linejoin="round" fill="none" stroke="#156082" d="M63730 31865C63730 49463.55 49463.55 63730 31865 63730 14266.45 63730 0 49463.55 0 31865 0 14266.45 14266.45 0 31865 0 49463.55 0 63730 14266.45 63730 31865Z"/>
<path transform="matrix(1,0,0,-1,0,157)" d="M230.6181 74.41827C230.6181 73.03256 229.4948 71.90922 228.1091 71.90922 226.7233 71.90922 225.6 73.03256 225.6 74.41827 225.6 75.80398 226.7233 76.92733 228.1091 76.92733 229.4948 76.92733 230.6181 75.80398 230.6181 74.41827Z" fill="#156082"/>
<path transform="matrix(.00007874016,0,0,.00007874016,225.6,80.07267)" stroke-width="6350" stroke-linecap="butt" stroke-linejoin="round" fill="none" stroke="#156082" d="M63730 31865C63730 49463.55 49463.55 63730 31865 63730 14266.45 63730 0 49463.55 0 31865 0 14266.45 14266.45 0 31865 0 49463.55 0 63730 14266.45 63730 31865Z"/>
<path transform="matrix(1,0,0,-1,0,157)" d="M234.9817 85.54551C234.9817 84.1598 233.8584 83.03646 232.4727 83.03646 231.087 83.03646 229.9636 84.1598 229.9636 85.54551 229.9636 86.93122 231.087 88.05457 232.4727 88.05457 233.8584 88.05457 234.9817 86.93122 234.9817 85.54551Z" fill="#156082"/>
<path transform="matrix(.00007874016,0,0,.00007874016,229.9636,68.94543)" stroke-width="6350" stroke-linecap="butt" stroke-linejoin="round" fill="none" stroke="#156082" d="M63730 31865C63730 49463.55 49463.55 63730 31865 63730 14266.45 63730 0 49463.55 0 31865 0 14266.45 14266.45 0 31865 0 49463.55 0 63730 14266.45 63730 31865Z"/>
<path transform="matrix(1,0,0,-1,0,157)" d="M239.1272 75.94551C239.1272 74.5598 238.0038 73.43646 236.6181 73.43646 235.2324 73.43646 234.1091 74.5598 234.1091 75.94551 234.1091 77.33122 235.2324 78.45457 236.6181 78.45457 238.0038 78.45457 239.1272 77.33122 239.1272 75.94551Z" fill="#156082"/>
<path transform="matrix(.00007874016,0,0,.00007874016,234.1091,78.54543)" stroke-width="6350" stroke-linecap="butt" stroke-linejoin="round" fill="none" stroke="#156082" d="M63730 31865C63730 49463.55 49463.55 63730 31865 63730 14266.45 63730 0 49463.55 0 31865 0 14266.45 14266.45 0 31865 0 49463.55 0 63730 14266.45 63730 31865Z"/>
<path transform="matrix(1,0,0,-1,0,157)" d="M243.4908 77.25465C243.4908 75.86893 242.3674 74.74559 240.9817 74.74559 239.596 74.74559 238.4727 75.86893 238.4727 77.25465 238.4727 78.64036 239.596 79.7637 240.9817 79.7637 242.3674 79.7637 243.4908 78.64036 243.4908 77.25465Z" fill="#156082"/>
<path transform="matrix(.00007874016,0,0,.00007874016,238.4727,77.2363)" stroke-width="6350" stroke-linecap="butt" stroke-linejoin="round" fill="none" stroke="#156082" d="M63730 31865C63730 49463.55 49463.55 63730 31865 63730 14266.45 63730 0 49463.55 0 31865 0 14266.45 14266.45 0 31865 0 49463.55 0 63730 14266.45 63730 31865Z"/>
<path transform="matrix(1,0,0,-1,0,157)" d="M247.8544 68.9637C247.8544 67.57799 246.7311 66.45464 245.3454 66.45464 243.9597 66.45464 242.8363 67.57799 242.8363 68.9637 242.8363 70.34941 243.9597 71.47275 245.3454 71.47275 246.7311 71.47275 247.8544 70.34941 247.8544 68.9637Z" fill="#156082"/>
<path transform="matrix(.00007874016,0,0,.00007874016,242.8363,85.52725)" stroke-width="6350" stroke-linecap="butt" stroke-linejoin="round" fill="none" stroke="#156082" d="M63730 31865C63730 49463.55 49463.55 63730 31865 63730 14266.45 63730 0 49463.55 0 31865 0 14266.45 14266.45 0 31865 0 49463.55 0 63730 14266.45 63730 31865Z"/>
<path transform="matrix(1,0,0,-1,0,157)" d="M252.2181 71.58189C252.2181 70.19617 251.0948 69.07283 249.7091 69.07283 248.3233 69.07283 247.2 70.19617 247.2 71.58189 247.2 72.9676 248.3233 74.09094 249.7091 74.09094 251.0948 74.09094 252.2181 72.9676 252.2181 71.58189Z" fill="#156082"/>
<path transform="matrix(.00007874016,0,0,.00007874016,247.2,82.90906)" stroke-width="6350" stroke-linecap="butt" stroke-linejoin="round" fill="none" stroke="#156082" d="M63730 31865C63730 49463.55 49463.55 63730 31865 63730 14266.45 63730 0 49463.55 0 31865 0 14266.45 14266.45 0 31865 0 49463.55 0 63730 14266.45 63730 31865Z"/>
<path transform="matrix(1,0,0,-1,0,157)" d="M256.5817 72.01827C256.5817 70.63256 255.4584 69.50922 254.0727 69.50922 252.687 69.50922 251.5636 70.63256 251.5636 72.01827 251.5636 73.40398 252.687 74.52733 254.0727 74.52733 255.4584 74.52733 256.5817 73.40398 256.5817 72.01827Z" fill="#156082"/>
<path transform="matrix(.00007874016,0,0,.00007874016,251.5636,82.47267)" stroke-width="6350" stroke-linecap="butt" stroke-linejoin="round" fill="none" stroke="#156082" d="M63730 31865C63730 49463.55 49463.55 63730 31865 63730 14266.45 63730 0 49463.55 0 31865 0 14266.45 14266.45 0 31865 0 49463.55 0 63730 14266.45 63730 31865Z"/>
<path transform="matrix(1,0,0,-1,0,157)" d="M260.7272 86.41827C260.7272 85.03256 259.6038 83.90922 258.2181 83.90922 256.8324 83.90922 255.7091 85.03256 255.7091 86.41827 255.7091 87.80398 256.8324 88.92733 258.2181 88.92733 259.6038 88.92733 260.7272 87.80398 260.7272 86.41827Z" fill="#156082"/>
<path transform="matrix(.00007874016,0,0,.00007874016,255.7091,68.07267)" stroke-width="6350" stroke-linecap="butt" stroke-linejoin="round" fill="none" stroke="#156082" d="M63730 31865C63730 49463.55 49463.55 63730 31865 63730 14266.45 63730 0 49463.55 0 31865 0 14266.45 14266.45 0 31865 0 49463.55 0 63730 14266.45 63730 31865Z"/>
<path transform="matrix(1,0,0,-1,0,157)" d="M265.0908 80.9637C265.0908 79.57799 263.9674 78.45464 262.5817 78.45464 261.196 78.45464 260.0727 79.57799 260.0727 80.9637 260.0727 82.34941 261.196 83.47275 262.5817 83.47275 263.9674 83.47275 265.0908 82.34941 265.0908 80.9637Z" fill="#156082"/>
<path transform="matrix(.00007874016,0,0,.00007874016,260.0727,73.52725)" stroke-width="6350" stroke-linecap="butt" stroke-linejoin="round" fill="none" stroke="#156082" d="M63730 31865C63730 49463.55 49463.55 63730 31865 63730 14266.45 63730 0 49463.55 0 31865 0 14266.45 14266.45 0 31865 0 49463.55 0 63730 14266.45 63730 31865Z"/>
<path transform="matrix(1,0,0,-1,0,157)" d="M269.4544 81.61827C269.4544 80.23256 268.3311 79.10922 266.9454 79.10922 265.5597 79.10922 264.4363 80.23256 264.4363 81.61827 264.4363 83.00398 265.5597 84.12733 266.9454 84.12733 268.3311 84.12733 269.4544 83.00398 269.4544 81.61827Z" fill="#156082"/>
<path transform="matrix(.00007874016,0,0,.00007874016,264.4363,72.87267)" stroke-width="6350" stroke-linecap="butt" stroke-linejoin="round" fill="none" stroke="#156082" d="M63730 31865C63730 49463.55 49463.55 63730 31865 63730 14266.45 63730 0 49463.55 0 31865 0 14266.45 14266.45 0 31865 0 49463.55 0 63730 14266.45 63730 31865Z"/>
<path transform="matrix(1,0,0,-1,0,157)" d="M273.8181 75.72732C273.8181 74.34161 272.6948 73.21827 271.3091 73.21827 269.9233 73.21827 268.8 74.34161 268.8 75.72732 268.8 77.11303 269.9233 78.23638 271.3091 78.23638 272.6948 78.23638 273.8181 77.11303 273.8181 75.72732Z" fill="#156082"/>
<path transform="matrix(.00007874016,0,0,.00007874016,268.8,78.76362)" stroke-width="6350" stroke-linecap="butt" stroke-linejoin="round" fill="none" stroke="#156082" d="M63730 31865C63730 49463.55 49463.55 63730 31865 63730 14266.45 63730 0 49463.55 0 31865 0 14266.45 14266.45 0 31865 0 49463.55 0 63730 14266.45 63730 31865Z"/>
<path transform="matrix(1,0,0,-1,0,157)" d="M278.1817 85.54551C278.1817 84.1598 277.0584 83.03646 275.6727 83.03646 274.287 83.03646 273.1636 84.1598 273.1636 85.54551 273.1636 86.93122 274.287 88.05457 275.6727 88.05457 277.0584 88.05457 278.1817 86.93122 278.1817 85.54551Z" fill="#156082"/>
<path transform="matrix(.00007874016,0,0,.00007874016,273.1636,68.94543)" stroke-width="6350" stroke-linecap="butt" stroke-linejoin="round" fill="none" stroke="#156082" d="M63730 31865C63730 49463.55 49463.55 63730 31865 63730 14266.45 63730 0 49463.55 0 31865 0 14266.45 14266.45 0 31865 0 49463.55 0 63730 14266.45 63730 31865Z"/>
<path transform="matrix(1,0,0,-1,0,157)" d="M282.3272 83.3637C282.3272 81.97799 281.2038 80.85464 279.8181 80.85464 278.4324 80.85464 277.3091 81.97799 277.3091 83.3637 277.3091 84.74941 278.4324 85.87275 279.8181 85.87275 281.2038 85.87275 282.3272 84.74941 282.3272 83.3637Z" fill="#156082"/>
<path transform="matrix(.00007874016,0,0,.00007874016,277.3091,71.12725)" stroke-width="6350" stroke-linecap="butt" stroke-linejoin="round" fill="none" stroke="#156082" d="M63730 31865C63730 49463.55 49463.55 63730 31865 63730 14266.45 63730 0 49463.55 0 31865 0 14266.45 14266.45 0 31865 0 49463.55 0 63730 14266.45 63730 31865Z"/>
<path transform="matrix(1,0,0,-1,0,157)" d="M286.6908 86.63646C286.6908 85.25075 285.5674 84.1274 284.1817 84.1274 282.796 84.1274 281.6727 85.25075 281.6727 86.63646 281.6727 88.02217 282.796 89.14551 284.1817 89.14551 285.5674 89.14551 286.6908 88.02217 286.6908 86.63646Z" fill="#156082"/>
<path transform="matrix(.00007874016,0,0,.00007874016,281.6727,67.85449)" stroke-width="6350" stroke-linecap="butt" stroke-linejoin="round" fill="none" stroke="#156082" d="M63730 31865C63730 49463.55 49463.55 63730 31865 63730 14266.45 63730 0 49463.55 0 31865 0 14266.45 14266.45 0 31865 0 49463.55 0 63730 14266.45 63730 31865Z"/>
<path transform="matrix(1,0,0,-1,0,157)" d="M291.0544 82.49094C291.0544 81.10523 289.9311 79.98189 288.5454 79.98189 287.1597 79.98189 286.0363 81.10523 286.0363 82.49094 286.0363 83.87666 287.1597 85 288.5454 85 289.9311 85 291.0544 83.87666 291.0544 82.49094Z" fill="#156082"/>
<path transform="matrix(.00007874016,0,0,.00007874016,286.0363,72)" stroke-width="6350" stroke-linecap="butt" stroke-linejoin="round" fill="none" stroke="#156082" d="M63730 31865C63730 49463.55 49463.55 63730 31865 63730 14266.45 63730 0 49463.55 0 31865 0 14266.45 14266.45 0 31865 0 49463.55 0 63730 14266.45 63730 31865Z"/>
<path transform="matrix(1,0,0,-1,0,157)" d="M295.4181 97.10913C295.4181 95.72342 294.2948 94.60008 292.9091 94.60008 291.5233 94.60008 290.4 95.72342 290.4 97.10913 290.4 98.49485 291.5233 99.61819 292.9091 99.61819 294.2948 99.61819 295.4181 98.49485 295.4181 97.10913Z" fill="#156082"/>
<path transform="matrix(.00007874016,0,0,.00007874016,290.4,57.381814)" stroke-width="6350" stroke-linecap="butt" stroke-linejoin="round" fill="none" stroke="#156082" d="M63730 31865C63730 49463.55 49463.55 63730 31865 63730 14266.45 63730 0 49463.55 0 31865 0 14266.45 14266.45 0 31865 0 49463.55 0 63730 14266.45 63730 31865Z"/>
<path transform="matrix(1,0,0,-1,0,157)" d="M299.7817 87.07284C299.7817 85.68712 298.6584 84.56378 297.2727 84.56378 295.887 84.56378 294.7636 85.68712 294.7636 87.07284 294.7636 88.45855 295.887 89.58189 297.2727 89.58189 298.6584 89.58189 299.7817 88.45855 299.7817 87.07284Z" fill="#156082"/>
<path transform="matrix(.00007874016,0,0,.00007874016,294.7636,67.41811)" stroke-width="6350" stroke-linecap="butt" stroke-linejoin="round" fill="none" stroke="#156082" d="M63730 31865C63730 49463.55 49463.55 63730 31865 63730 14266.45 63730 0 49463.55 0 31865 0 14266.45 14266.45 0 31865 0 49463.55 0 63730 14266.45 63730 31865Z"/>
<path transform="matrix(1,0,0,-1,0,157)" d="M303.9272 97.32732C303.9272 95.94161 302.8038 94.81827 301.4181 94.81827 300.0324 94.81827 298.9091 95.94161 298.9091 97.32732 298.9091 98.71303 300.0324 99.83638 301.4181 99.83638 302.8038 99.83638 303.9272 98.71303 303.9272 97.32732Z" fill="#156082"/>
<path transform="matrix(.00007874016,0,0,.00007874016,298.9091,57.16362)" stroke-width="6350" stroke-linecap="butt" stroke-linejoin="round" fill="none" stroke="#156082" d="M63730 31865C63730 49463.55 49463.55 63730 31865 63730 14266.45 63730 0 49463.55 0 31865 0 14266.45 14266.45 0 31865 0 49463.55 0 63730 14266.45 63730 31865Z"/>
<path transform="matrix(1,0,0,-1,0,157)" d="M308.2908 88.81827C308.2908 87.43256 307.1674 86.30922 305.7817 86.30922 304.396 86.30922 303.2727 87.43256 303.2727 88.81827 303.2727 90.20398 304.396 91.32733 305.7817 91.32733 307.1674 91.32733 308.2908 90.20398 308.2908 88.81827Z" fill="#156082"/>
<path transform="matrix(.00007874016,0,0,.00007874016,303.2727,65.67267)" stroke-width="6350" stroke-linecap="butt" stroke-linejoin="round" fill="none" stroke="#156082" d="M63730 31865C63730 49463.55 49463.55 63730 31865 63730 14266.45 63730 0 49463.55 0 31865 0 14266.45 14266.45 0 31865 0 49463.55 0 63730 14266.45 63730 31865Z"/>
<path transform="matrix(1,0,0,-1,0,157)" d="M312.6544 100.3819C312.6544 98.99618 311.5311 97.87284 310.1454 97.87284 308.7597 97.87284 307.6363 98.99618 307.6363 100.3819 307.6363 101.7676 308.7597 102.8909 310.1454 102.8909 311.5311 102.8909 312.6544 101.7676 312.6544 100.3819Z" fill="#156082"/>
<path transform="matrix(.00007874016,0,0,.00007874016,307.6363,54.1091)" stroke-width="6350" stroke-linecap="butt" stroke-linejoin="round" fill="none" stroke="#156082" d="M63730 31865C63730 49463.55 49463.55 63730 31865 63730 14266.45 63730 0 49463.55 0 31865 0 14266.45 14266.45 0 31865 0 49463.55 0 63730 14266.45 63730 31865Z"/>
<path transform="matrix(1,0,0,-1,0,157)" d="M317.0181 97.10913C317.0181 95.72342 315.8948 94.60008 314.5091 94.60008 313.1233 94.60008 312 95.72342 312 97.10913 312 98.49485 313.1233 99.61819 314.5091 99.61819 315.8948 99.61819 317.0181 98.49485 317.0181 97.10913Z" fill="#156082"/>
<path transform="matrix(.00007874016,0,0,.00007874016,312,57.381814)" stroke-width="6350" stroke-linecap="butt" stroke-linejoin="round" fill="none" stroke="#156082" d="M63730 31865C63730 49463.55 49463.55 63730 31865 63730 14266.45 63730 0 49463.55 0 31865 0 14266.45 14266.45 0 31865 0 49463.55 0 63730 14266.45 63730 31865Z"/>
<path transform="matrix(1,0,0,-1,0,157)" d="M321.1635 108.6728C321.1635 107.2871 320.0402 106.1638 318.6545 106.1638 317.2688 106.1638 316.1454 107.2871 316.1454 108.6728 316.1454 110.0585 317.2688 111.1819 318.6545 111.1819 320.0402 111.1819 321.1635 110.0585 321.1635 108.6728Z" fill="#156082"/>
<path transform="matrix(.00007874016,0,0,.00007874016,316.1454,45.8181)" stroke-width="6350" stroke-linecap="butt" stroke-linejoin="round" fill="none" stroke="#156082" d="M63730 31865C63730 49463.55 49463.55 63730 31865 63730 14266.45 63730 0 49463.55 0 31865 0 14266.45 14266.45 0 31865 0 49463.55 0 63730 14266.45 63730 31865Z"/>
<path transform="matrix(1,0,0,-1,0,157)" d="M325.5272 100.1637C325.5272 98.77799 324.4038 97.65465 323.0181 97.65465 321.6324 97.65465 320.5091 98.77799 320.5091 100.1637 320.5091 101.5494 321.6324 102.6728 323.0181 102.6728 324.4038 102.6728 325.5272 101.5494 325.5272 100.1637Z" fill="#156082"/>
<path transform="matrix(.00007874016,0,0,.00007874016,320.5091,54.3272)" stroke-width="6350" stroke-linecap="butt" stroke-linejoin="round" fill="none" stroke="#156082" d="M63730 31865C63730 49463.55 49463.55 63730 31865 63730 14266.45 63730 0 49463.55 0 31865 0 14266.45 14266.45 0 31865 0 49463.55 0 63730 14266.45 63730 31865Z"/>
<path transform="matrix(1,0,0,-1,0,157)" d="M329.8908 111.5091C329.8908 110.1234 328.7674 109.0001 327.3817 109.0001 325.996 109.0001 324.8727 110.1234 324.8727 111.5091 324.8727 112.8948 325.996 114.0182 327.3817 114.0182 328.7674 114.0182 329.8908 112.8948 329.8908 111.5091Z" fill="#156082"/>
<path transform="matrix(.00007874016,0,0,.00007874016,324.8727,42.981798)" stroke-width="6350" stroke-linecap="butt" stroke-linejoin="round" fill="none" stroke="#156082" d="M63730 31865C63730 49463.55 49463.55 63730 31865 63730 14266.45 63730 0 49463.55 0 31865 0 14266.45 14266.45 0 31865 0 49463.55 0 63730 14266.45 63730 31865Z"/>
<path transform="matrix(1,0,0,-1,0,157)" d="M334.2544 95.3637C334.2544 93.97799 333.1311 92.85464 331.7454 92.85464 330.3597 92.85464 329.2363 93.97799 329.2363 95.3637 329.2363 96.74941 330.3597 97.87275 331.7454 97.87275 333.1311 97.87275 334.2544 96.74941 334.2544 95.3637Z" fill="#156082"/>
<path transform="matrix(.00007874016,0,0,.00007874016,329.2363,59.12725)" stroke-width="6350" stroke-linecap="butt" stroke-linejoin="round" fill="none" stroke="#156082" d="M63730 31865C63730 49463.55 49463.55 63730 31865 63730 14266.45 63730 0 49463.55 0 31865 0 14266.45 14266.45 0 31865 0 49463.55 0 63730 14266.45 63730 31865Z"/>
<path transform="matrix(1,0,0,-1,0,157)" d="M338.6181 104.0909C338.6181 102.7052 337.4948 101.5819 336.1091 101.5819 334.7233 101.5819 333.6 102.7052 333.6 104.0909 333.6 105.4767 334.7233 106.6 336.1091 106.6 337.4948 106.6 338.6181 105.4767 338.6181 104.0909Z" fill="#156082"/>
<path transform="matrix(.00007874016,0,0,.00007874016,333.6,50.4)" stroke-width="6350" stroke-linecap="butt" stroke-linejoin="round" fill="none" stroke="#156082" d="M63730 31865C63730 49463.55 49463.55 63730 31865 63730 14266.45 63730 0 49463.55 0 31865 0 14266.45 14266.45 0 31865 0 49463.55 0 63730 14266.45 63730 31865Z"/>
<path transform="matrix(1,0,0,-1,0,157)" d="M342.7635 97.54551C342.7635 96.1598 341.6402 95.03646 340.2545 95.03646 338.8688 95.03646 337.7454 96.1598 337.7454 97.54551 337.7454 98.93122 338.8688 100.0546 340.2545 100.0546 341.6402 100.0546 342.7635 98.93122 342.7635 97.54551Z" fill="#156082"/>
<path transform="matrix(.00007874016,0,0,.00007874016,337.7454,56.945398)" stroke-width="6350" stroke-linecap="butt" stroke-linejoin="round" fill="none" stroke="#156082" d="M63730 31865C63730 49463.55 49463.55 63730 31865 63730 14266.45 63730 0 49463.55 0 31865 0 14266.45 14266.45 0 31865 0 49463.55 0 63730 14266.45 63730 31865Z"/>
<path transform="matrix(1,0,0,-1,0,157)" d="M347.1272 91.00008C347.1272 89.61436 346.0038 88.49102 344.6181 88.49102 343.2324 88.49102 342.1091 89.61436 342.1091 91.00008 342.1091 92.38579 343.2324 93.50913 344.6181 93.50913 346.0038 93.50913 347.1272 92.38579 347.1272 91.00008Z" fill="#156082"/>
<path transform="matrix(.00007874016,0,0,.00007874016,342.1091,63.490869)" stroke-width="6350" stroke-linecap="butt" stroke-linejoin="round" fill="none" stroke="#156082" d="M63730 31865C63730 49463.55 49463.55 63730 31865 63730 14266.45 63730 0 49463.55 0 31865 0 14266.45 14266.45 0 31865 0 49463.55 0 63730 14266.45 63730 31865Z"/>
<path transform="matrix(1,0,0,-1,0,157)" d="M351.4908 82.05465C351.4908 80.66893 350.3674 79.54559 348.9817 79.54559 347.596 79.54559 346.4727 80.66893 346.4727 82.05465 346.4727 83.44036 347.596 84.5637 348.9817 84.5637 350.3674 84.5637 351.4908 83.44036 351.4908 82.05465Z" fill="#156082"/>
<path transform="matrix(.00007874016,0,0,.00007874016,346.4727,72.4363)" stroke-width="6350" stroke-linecap="butt" stroke-linejoin="round" fill="none" stroke="#156082" d="M63730 31865C63730 49463.55 49463.55 63730 31865 63730 14266.45 63730 0 49463.55 0 31865 0 14266.45 14266.45 0 31865 0 49463.55 0 63730 14266.45 63730 31865Z"/>
<path transform="matrix(1,0,0,-1,0,157)" d="M355.8544 109.9819C355.8544 108.5962 354.7311 107.4728 353.3454 107.4728 351.9597 107.4728 350.8363 108.5962 350.8363 109.9819 350.8363 111.3676 351.9597 112.4909 353.3454 112.4909 354.7311 112.4909 355.8544 111.3676 355.8544 109.9819Z" fill="#156082"/>
<path transform="matrix(.00007874016,0,0,.00007874016,350.8363,44.5091)" stroke-width="6350" stroke-linecap="butt" stroke-linejoin="round" fill="none" stroke="#156082" d="M63730 31865C63730 49463.55 49463.55 63730 31865 63730 14266.45 63730 0 49463.55 0 31865 0 14266.45 14266.45 0 31865 0 49463.55 0 63730 14266.45 63730 31865Z"/>
<path transform="matrix(1,0,0,-1,0,157)" d="M360.2181 95.3637C360.2181 93.97799 359.0948 92.85464 357.7091 92.85464 356.3233 92.85464 355.2 93.97799 355.2 95.3637 355.2 96.74941 356.3233 97.87275 357.7091 97.87275 359.0948 97.87275 360.2181 96.74941 360.2181 95.3637Z" fill="#156082"/>
<path transform="matrix(.00007874016,0,0,.00007874016,355.2,59.12725)" stroke-width="6350" stroke-linecap="butt" stroke-linejoin="round" fill="none" stroke="#156082" d="M63730 31865C63730 49463.55 49463.55 63730 31865 63730 14266.45 63730 0 49463.55 0 31865 0 14266.45 14266.45 0 31865 0 49463.55 0 63730 14266.45 63730 31865Z"/>
<path transform="matrix(1,0,0,-1,0,157)" d="M364.3635 111.0728C364.3635 109.6871 363.2402 108.5638 361.8545 108.5638 360.4688 108.5638 359.3454 109.6871 359.3454 111.0728 359.3454 112.4585 360.4688 113.5819 361.8545 113.5819 363.2402 113.5819 364.3635 112.4585 364.3635 111.0728Z" fill="#156082"/>
<path transform="matrix(.00007874016,0,0,.00007874016,359.3454,43.4181)" stroke-width="6350" stroke-linecap="butt" stroke-linejoin="round" fill="none" stroke="#156082" d="M63730 31865C63730 49463.55 49463.55 63730 31865 63730 14266.45 63730 0 49463.55 0 31865 0 14266.45 14266.45 0 31865 0 49463.55 0 63730 14266.45 63730 31865Z"/>
<path transform="matrix(1,0,0,-1,0,157)" d="M368.7272 83.58189C368.7272 82.19617 367.6038 81.07283 366.2181 81.07283 364.8324 81.07283 363.7091 82.19617 363.7091 83.58189 363.7091 84.9676 364.8324 86.09094 366.2181 86.09094 367.6038 86.09094 368.7272 84.9676 368.7272 83.58189Z" fill="#156082"/>
<path transform="matrix(.00007874016,0,0,.00007874016,363.7091,70.90906)" stroke-width="6350" stroke-linecap="butt" stroke-linejoin="round" fill="none" stroke="#156082" d="M63730 31865C63730 49463.55 49463.55 63730 31865 63730 14266.45 63730 0 49463.55 0 31865 0 14266.45 14266.45 0 31865 0 49463.55 0 63730 14266.45 63730 31865Z"/>
<path transform="matrix(1,0,0,-1,0,157)" d="M373.0908 84.45465C373.0908 83.06893 371.9674 81.94559 370.5817 81.94559 369.196 81.94559 368.0727 83.06893 368.0727 84.45465 368.0727 85.84036 369.196 86.9637 370.5817 86.9637 371.9674 86.9637 373.0908 85.84036 373.0908 84.45465Z" fill="#156082"/>
<path transform="matrix(.00007874016,0,0,.00007874016,368.0727,70.0363)" stroke-width="6350" stroke-linecap="butt" stroke-linejoin="round" fill="none" stroke="#156082" d="M63730 31865C63730 49463.55 49463.55 63730 31865 63730 14266.45 63730 0 49463.55 0 31865 0 14266.45 14266.45 0 31865 0 49463.55 0 63730 14266.45 63730 31865Z"/>
<path transform="matrix(1,0,0,-1,0,157)" d="M377.4544 78.34551C377.4544 76.9598 376.3311 75.83646 374.9454 75.83646 373.5597 75.83646 372.4363 76.9598 372.4363 78.34551 372.4363 79.73122 373.5597 80.85457 374.9454 80.85457 376.3311 80.85457 377.4544 79.73122 377.4544 78.34551Z" fill="#156082"/>
<path transform="matrix(.00007874016,0,0,.00007874016,372.4363,76.14543)" stroke-width="6350" stroke-linecap="butt" stroke-linejoin="round" fill="none" stroke="#156082" d="M63730 31865C63730 49463.55 49463.55 63730 31865 63730 14266.45 63730 0 49463.55 0 31865 0 14266.45 14266.45 0 31865 0 49463.55 0 63730 14266.45 63730 31865Z"/>
<path transform="matrix(1,0,0,-1,0,157)" d="M381.8181 113.4728C381.8181 112.0871 380.6948 110.9638 379.3091 110.9638 377.9233 110.9638 376.8 112.0871 376.8 113.4728 376.8 114.8585 377.9233 115.9819 379.3091 115.9819 380.6948 115.9819 381.8181 114.8585 381.8181 113.4728Z" fill="#156082"/>
<path transform="matrix(.00007874016,0,0,.00007874016,376.8,41.018098)" stroke-width="6350" stroke-linecap="butt" stroke-linejoin="round" fill="none" stroke="#156082" d="M63730 31865C63730 49463.55 49463.55 63730 31865 63730 14266.45 63730 0 49463.55 0 31865 0 14266.45 14266.45 0 31865 0 49463.55 0 63730 14266.45 63730 31865Z"/>
<path transform="matrix(1,0,0,-1,0,157)" d="M385.9635 98.41827C385.9635 97.03256 384.8402 95.90922 383.4545 95.90922 382.0688 95.90922 380.9454 97.03256 380.9454 98.41827 380.9454 99.80398 382.0688 100.9273 383.4545 100.9273 384.8402 100.9273 385.9635 99.80398 385.9635 98.41827Z" fill="#156082"/>
<path transform="matrix(.00007874016,0,0,.00007874016,380.9454,56.0727)" stroke-width="6350" stroke-linecap="butt" stroke-linejoin="round" fill="none" stroke="#156082" d="M63730 31865C63730 49463.55 49463.55 63730 31865 63730 14266.45 63730 0 49463.55 0 31865 0 14266.45 14266.45 0 31865 0 49463.55 0 63730 14266.45 63730 31865Z"/>
<path transform="matrix(1,0,0,-1,0,157)" d="M390.3272 106.0546C390.3272 104.6689 389.2038 103.5456 387.8181 103.5456 386.4324 103.5456 385.3091 104.6689 385.3091 106.0546 385.3091 107.4404 386.4324 108.5637 387.8181 108.5637 389.2038 108.5637 390.3272 107.4404 390.3272 106.0546Z" fill="#156082"/>
<path transform="matrix(.00007874016,0,0,.00007874016,385.3091,48.436304)" stroke-width="6350" stroke-linecap="butt" stroke-linejoin="round" fill="none" stroke="#156082" d="M63730 31865C63730 49463.55 49463.55 63730 31865 63730 14266.45 63730 0 49463.55 0 31865 0 14266.45 14266.45 0 31865 0 49463.55 0 63730 14266.45 63730 31865Z"/>
<path transform="matrix(1,0,0,-1,0,157)" d="M394.6908 97.7637C394.6908 96.37799 393.5674 95.25464 392.1817 95.25464 390.796 95.25464 389.6727 96.37799 389.6727 97.7637 389.6727 99.14941 390.796 100.2728 392.1817 100.2728 393.5674 100.2728 394.6908 99.14941 394.6908 97.7637Z" fill="#156082"/>
<path transform="matrix(.00007874016,0,0,.00007874016,389.6727,56.727205)" stroke-width="6350" stroke-linecap="butt" stroke-linejoin="round" fill="none" stroke="#156082" d="M63730 31865C63730 49463.55 49463.55 63730 31865 63730 14266.45 63730 0 49463.55 0 31865 0 14266.45 14266.45 0 31865 0 49463.55 0 63730 14266.45 63730 31865Z"/>
<path transform="matrix(1,0,0,-1,0,157)" d="M399.0544 111.7273C399.0544 110.3416 397.9311 109.2183 396.5454 109.2183 395.1597 109.2183 394.0363 110.3416 394.0363 111.7273 394.0363 113.113 395.1597 114.2364 396.5454 114.2364 397.9311 114.2364 399.0544 113.113 399.0544 111.7273Z" fill="#156082"/>
<path transform="matrix(.00007874016,0,0,.00007874016,394.0363,42.763605)" stroke-width="6350" stroke-linecap="butt" stroke-linejoin="round" fill="none" stroke="#156082" d="M63730 31865C63730 49463.55 49463.55 63730 31865 63730 14266.45 63730 0 49463.55 0 31865 0 14266.45 14266.45 0 31865 0 49463.55 0 63730 14266.45 63730 31865Z"/>
<path transform="matrix(1,0,0,-1,0,157)" d="M403.1999 103.8728C403.1999 102.4871 402.0766 101.3638 400.6909 101.3638 399.3052 101.3638 398.1818 102.4871 398.1818 103.8728 398.1818 105.2585 399.3052 106.3819 400.6909 106.3819 402.0766 106.3819 403.1999 105.2585 403.1999 103.8728Z" fill="#156082"/>
<path transform="matrix(.00007874016,0,0,.00007874016,398.1818,50.618104)" stroke-width="6350" stroke-linecap="butt" stroke-linejoin="round" fill="none" stroke="#156082" d="M63730 31865C63730 49463.55 49463.55 63730 31865 63730 14266.45 63730 0 49463.55 0 31865 0 14266.45 14266.45 0 31865 0 49463.55 0 63730 14266.45 63730 31865Z"/>
<path transform="matrix(1,0,0,-1,0,157)" d="M407.5635 110.8546C407.5635 109.4689 406.4402 108.3456 405.0545 108.3456 403.6688 108.3456 402.5454 109.4689 402.5454 110.8546 402.5454 112.2404 403.6688 113.3637 405.0545 113.3637 406.4402 113.3637 407.5635 112.2404 407.5635 110.8546Z" fill="#156082"/>
<path transform="matrix(.00007874016,0,0,.00007874016,402.5454,43.6363)" stroke-width="6350" stroke-linecap="butt" stroke-linejoin="round" fill="none" stroke="#156082" d="M63730 31865C63730 49463.55 49463.55 63730 31865 63730 14266.45 63730 0 49463.55 0 31865 0 14266.45 14266.45 0 31865 0 49463.55 0 63730 14266.45 63730 31865Z"/>
<path transform="matrix(1,0,0,-1,0,157)" d="M411.9272 99.29094C411.9272 97.90523 410.8038 96.78189 409.4181 96.78189 408.0324 96.78189 406.9091 97.90523 406.9091 99.29094 406.9091 100.6767 408.0324 101.8 409.4181 101.8 410.8038 101.8 411.9272 100.6767 411.9272 99.29094Z" fill="#156082"/>
<path transform="matrix(.00007874016,0,0,.00007874016,406.9091,55.199998)" stroke-width="6350" stroke-linecap="butt" stroke-linejoin="round" fill="none" stroke="#156082" d="M63730 31865C63730 49463.55 49463.55 63730 31865 63730 14266.45 63730 0 49463.55 0 31865 0 14266.45 14266.45 0 31865 0 49463.55 0 63730 14266.45 63730 31865Z"/>
</g>
<g clip-path="url(#clip_7)">
<path transform="matrix(1,0,0,-1,0,157)" d="M36.21811 66.12732C36.21811 64.74161 35.09477 63.61827 33.70906 63.61827 32.32334 63.61827 31.2 64.74161 31.2 66.12732 31.2 67.51303 32.32334 68.63638 33.70906 68.63638 35.09477 68.63638 36.21811 67.51303 36.21811 66.12732Z" fill="#ea4a46"/>
<path transform="matrix(.00007874016,0,0,.00007874016,31.2,88.36362)" stroke-width="6350" stroke-linecap="butt" stroke-linejoin="round" fill="none" stroke="#ea4a46" d="M63730 31865C63730 49463.55 49463.55 63730 31865 63730 14266.45 63730 0 49463.55 0 31865 0 14266.45 14266.45 0 31865 0 49463.55 0 63730 14266.45 63730 31865Z"/>
<path transform="matrix(1,0,0,-1,0,157)" d="M44.94535 64.60008C44.94535 63.21436 43.82201 62.09102 42.4363 62.09102 41.05059 62.09102 39.92724 63.21436 39.92724 64.60008 39.92724 65.98579 41.05059 67.10913 42.4363 67.10913 43.82201 67.10913 44.94535 65.98579 44.94535 64.60008Z" fill="#ea4a46"/>
<path transform="matrix(.00007874016,0,0,.00007874016,39.92724,89.89087)" stroke-width="6350" stroke-linecap="butt" stroke-linejoin="round" fill="none" stroke="#ea4a46" d="M63730 31865C63730 49463.55 49463.55 63730 31865 63730 14266.45 63730 0 49463.55 0 31865 0 14266.45 14266.45 0 31865 0 49463.55 0 63730 14266.45 63730 31865Z"/>
<path transform="matrix(1,0,0,-1,0,157)" d="M70.90898 60.01827C70.90898 58.63256 69.78564 57.50922 68.39992 57.50922 67.01421 57.50922 65.89087 58.63256 65.89087 60.01827 65.89087 61.40398 67.01421 62.52733 68.39992 62.52733 69.78564 62.52733 70.90898 61.40398 70.90898 60.01827Z" fill="#ea4a46"/>
<path transform="matrix(.00007874016,0,0,.00007874016,65.89087,94.47267)" stroke-width="6350" stroke-linecap="butt" stroke-linejoin="round" fill="none" stroke="#ea4a46" d="M63730 31865C63730 49463.55 49463.55 63730 31865 63730 14266.45 63730 0 49463.55 0 31865 0 14266.45 14266.45 0 31865 0 49463.55 0 63730 14266.45 63730 31865Z"/>
<path transform="matrix(1,0,0,-1,0,157)" d="M114.109 65.69094C114.109 64.30523 112.9856 63.18189 111.5999 63.18189 110.2142 63.18189 109.0909 64.30523 109.0909 65.69094 109.0909 67.07666 110.2142 68.2 111.5999 68.2 112.9856 68.2 114.109 67.07666 114.109 65.69094Z" fill="#ea4a46"/>
<path transform="matrix(.00007874016,0,0,.00007874016,109.0909,88.8)" stroke-width="6350" stroke-linecap="butt" stroke-linejoin="round" fill="none" stroke="#ea4a46" d="M63730 31865C63730 49463.55 49463.55 63730 31865 63730 14266.45 63730 0 49463.55 0 31865 0 14266.45 14266.45 0 31865 0 49463.55 0 63730 14266.45 63730 31865Z"/>
<path transform="matrix(1,0,0,-1,0,157)" d="M122.6181 67.65465C122.6181 66.26893 121.4948 65.14559 120.1091 65.14559 118.7233 65.14559 117.6 66.26893 117.6 67.65465 117.6 69.04036 118.7233 70.1637 120.1091 70.1637 121.4948 70.1637 122.6181 69.04036 122.6181 67.65465Z" fill="#ea4a46"/>
<path transform="matrix(.00007874016,0,0,.00007874016,117.6,86.8363)" stroke-width="6350" stroke-linecap="butt" stroke-linejoin="round" fill="none" stroke="#ea4a46" d="M63730 31865C63730 49463.55 49463.55 63730 31865 63730 14266.45 63730 0 49463.55 0 31865 0 14266.45 14266.45 0 31865 0 49463.55 0 63730 14266.45 63730 31865Z"/>
<path transform="matrix(1,0,0,-1,0,157)" d="M139.8544 79.00008C139.8544 77.61436 138.7311 76.49102 137.3454 76.49102 135.9596 76.49102 134.8363 77.61436 134.8363 79.00008 134.8363 80.38579 135.9596 81.50913 137.3454 81.50913 138.7311 81.50913 139.8544 80.38579 139.8544 79.00008Z" fill="#ea4a46"/>
<path transform="matrix(.00007874016,0,0,.00007874016,134.8363,75.49087)" stroke-width="6350" stroke-linecap="butt" stroke-linejoin="round" fill="none" stroke="#ea4a46" d="M63730 31865C63730 49463.55 49463.55 63730 31865 63730 14266.45 63730 0 49463.55 0 31865 0 14266.45 14266.45 0 31865 0 49463.55 0 63730 14266.45 63730 31865Z"/>
<path transform="matrix(1,0,0,-1,0,157)" d="M157.0908 80.74551C157.0908 79.3598 155.9674 78.23646 154.5817 78.23646 153.196 78.23646 152.0727 79.3598 152.0727 80.74551 152.0727 82.13122 153.196 83.25457 154.5817 83.25457 155.9674 83.25457 157.0908 82.13122 157.0908 80.74551Z" fill="#ea4a46"/>
<path transform="matrix(.00007874016,0,0,.00007874016,152.0727,73.74543)" stroke-width="6350" stroke-linecap="butt" stroke-linejoin="round" fill="none" stroke="#ea4a46" d="M63730 31865C63730 49463.55 49463.55 63730 31865 63730 14266.45 63730 0 49463.55 0 31865 0 14266.45 14266.45 0 31865 0 49463.55 0 63730 14266.45 63730 31865Z"/>
<path transform="matrix(1,0,0,-1,0,157)" d="M170.1817 104.3091C170.1817 102.9234 169.0584 101.8001 167.6727 101.8001 166.287 101.8001 165.1636 102.9234 165.1636 104.3091 165.1636 105.6948 166.287 106.8182 167.6727 106.8182 169.0584 106.8182 170.1817 105.6948 170.1817 104.3091Z" fill="#ea4a46"/>
<path transform="matrix(.00007874016,0,0,.00007874016,165.1636,50.1818)" stroke-width="6350" stroke-linecap="butt" stroke-linejoin="round" fill="none" stroke="#ea4a46" d="M63730 31865C63730 49463.55 49463.55 63730 31865 63730 14266.45 63730 0 49463.55 0 31865 0 14266.45 14266.45 0 31865 0 49463.55 0 63730 14266.45 63730 31865Z"/>
<path transform="matrix(1,0,0,-1,0,157)" d="M191.7817 58.92732C191.7817 57.54161 190.6584 56.41827 189.2727 56.41827 187.887 56.41827 186.7636 57.54161 186.7636 58.92732 186.7636 60.31303 187.887 61.43638 189.2727 61.43638 190.6584 61.43638 191.7817 60.31303 191.7817 58.92732Z" fill="#ea4a46"/>
<path transform="matrix(.00007874016,0,0,.00007874016,186.7636,95.56362)" stroke-width="6350" stroke-linecap="butt" stroke-linejoin="round" fill="none" stroke="#ea4a46" d="M63730 31865C63730 49463.55 49463.55 63730 31865 63730 14266.45 63730 0 49463.55 0 31865 0 14266.45 14266.45 0 31865 0 49463.55 0 63730 14266.45 63730 31865Z"/>
<path transform="matrix(1,0,0,-1,0,157)" d="M200.2908 63.07284C200.2908 61.68712 199.1674 60.56378 197.7817 60.56378 196.396 60.56378 195.2727 61.68712 195.2727 63.07284 195.2727 64.45855 196.396 65.58189 197.7817 65.58189 199.1674 65.58189 200.2908 64.45855 200.2908 63.07284Z" fill="#ea4a46"/>
<path transform="matrix(.00007874016,0,0,.00007874016,195.2727,91.41811)" stroke-width="6350" stroke-linecap="butt" stroke-linejoin="round" fill="none" stroke="#ea4a46" d="M63730 31865C63730 49463.55 49463.55 63730 31865 63730 14266.45 63730 0 49463.55 0 31865 0 14266.45 14266.45 0 31865 0 49463.55 0 63730 14266.45 63730 31865Z"/>
<path transform="matrix(1,0,0,-1,0,157)" d="M226.2544 86.63646C226.2544 85.25075 225.1311 84.1274 223.7454 84.1274 222.3596 84.1274 221.2363 85.25075 221.2363 86.63646 221.2363 88.02217 222.3596 89.14551 223.7454 89.14551 225.1311 89.14551 226.2544 88.02217 226.2544 86.63646Z" fill="#ea4a46"/>
<path transform="matrix(.00007874016,0,0,.00007874016,221.2363,67.85449)" stroke-width="6350" stroke-linecap="butt" stroke-linejoin="round" fill="none" stroke="#ea4a46" d="M63730 31865C63730 49463.55 49463.55 63730 31865 63730 14266.45 63730 0 49463.55 0 31865 0 14266.45 14266.45 0 31865 0 49463.55 0 63730 14266.45 63730 31865Z"/>
<path transform="matrix(1,0,0,-1,0,157)" d="M234.9817 85.54551C234.9817 84.1598 233.8584 83.03646 232.4727 83.03646 231.087 83.03646 229.9636 84.1598 229.9636 85.54551 229.9636 86.93122 231.087 88.05457 232.4727 88.05457 233.8584 88.05457 234.9817 86.93122 234.9817 85.54551Z" fill="#ea4a46"/>
<path transform="matrix(.00007874016,0,0,.00007874016,229.9636,68.94543)" stroke-width="6350" stroke-linecap="butt" stroke-linejoin="round" fill="none" stroke="#ea4a46" d="M63730 31865C63730 49463.55 49463.55 63730 31865 63730 14266.45 63730 0 49463.55 0 31865 0 14266.45 14266.45 0 31865 0 49463.55 0 63730 14266.45 63730 31865Z"/>
<path transform="matrix(1,0,0,-1,0,157)" d="M243.4908 77.25465C243.4908 75.86893 242.3674 74.74559 240.9817 74.74559 239.596 74.74559 238.4727 75.86893 238.4727 77.25465 238.4727 78.64036 239.596 79.7637 240.9817 79.7637 242.3674 79.7637 243.4908 78.64036 243.4908 77.25465Z" fill="#ea4a46"/>
<path transform="matrix(.00007874016,0,0,.00007874016,238.4727,77.2363)" stroke-width="6350" stroke-linecap="butt" stroke-linejoin="round" fill="none" stroke="#ea4a46" d="M63730 31865C63730 49463.55 49463.55 63730 31865 63730 14266.45 63730 0 49463.55 0 31865 0 14266.45 14266.45 0 31865 0 49463.55 0 63730 14266.45 63730 31865Z"/>
<path transform="matrix(1,0,0,-1,0,157)" d="M260.7272 86.41827C260.7272 85.03256 259.6038 83.90922 258.2181 83.90922 256.8324 83.90922 255.7091 85.03256 255.7091 86.41827 255.7091 87.80398 256.8324 88.92733 258.2181 88.92733 259.6038 88.92733 260.7272 87.80398 260.7272 86.41827Z" fill="#ea4a46"/>
<path transform="matrix(.00007874016,0,0,.00007874016,255.7091,68.07267)" stroke-width="6350" stroke-linecap="butt" stroke-linejoin="round" fill="none" stroke="#ea4a46" d="M63730 31865C63730 49463.55 49463.55 63730 31865 63730 14266.45 63730 0 49463.55 0 31865 0 14266.45 14266.45 0 31865 0 49463.55 0 63730 14266.45 63730 31865Z"/>
<path transform="matrix(1,0,0,-1,0,157)" d="M269.4544 81.61827C269.4544 80.23256 268.3311 79.10922 266.9454 79.10922 265.5597 79.10922 264.4363 80.23256 264.4363 81.61827 264.4363 83.00398 265.5597 84.12733 266.9454 84.12733 268.3311 84.12733 269.4544 83.00398 269.4544 81.61827Z" fill="#ea4a46"/>
<path transform="matrix(.00007874016,0,0,.00007874016,264.4363,72.87267)" stroke-width="6350" stroke-linecap="butt" stroke-linejoin="round" fill="none" stroke="#ea4a46" d="M63730 31865C63730 49463.55 49463.55 63730 31865 63730 14266.45 63730 0 49463.55 0 31865 0 14266.45 14266.45 0 31865 0 49463.55 0 63730 14266.45 63730 31865Z"/>
<path transform="matrix(1,0,0,-1,0,157)" d="M278.1817 85.54551C278.1817 84.1598 277.0584 83.03646 275.6727 83.03646 274.287 83.03646 273.1636 84.1598 273.1636 85.54551 273.1636 86.93122 274.287 88.05457 275.6727 88.05457 277.0584 88.05457 278.1817 86.93122 278.1817 85.54551Z" fill="#ea4a46"/>
<path transform="matrix(.00007874016,0,0,.00007874016,273.1636,68.94543)" stroke-width="6350" stroke-linecap="butt" stroke-linejoin="round" fill="none" stroke="#ea4a46" d="M63730 31865C63730 49463.55 49463.55 63730 31865 63730 14266.45 63730 0 49463.55 0 31865 0 14266.45 14266.45 0 31865 0 49463.55 0 63730 14266.45 63730 31865Z"/>
<path transform="matrix(1,0,0,-1,0,157)" d="M286.6908 86.63646C286.6908 85.25075 285.5674 84.1274 284.1817 84.1274 282.796 84.1274 281.6727 85.25075 281.6727 86.63646 281.6727 88.02217 282.796 89.14551 284.1817 89.14551 285.5674 89.14551 286.6908 88.02217 286.6908 86.63646Z" fill="#ea4a46"/>
<path transform="matrix(.00007874016,0,0,.00007874016,281.6727,67.85449)" stroke-width="6350" stroke-linecap="butt" stroke-linejoin="round" fill="none" stroke="#ea4a46" d="M63730 31865C63730 49463.55 49463.55 63730 31865 63730 14266.45 63730 0 49463.55 0 31865 0 14266.45 14266.45 0 31865 0 49463.55 0 63730 14266.45 63730 31865Z"/>
<path transform="matrix(1,0,0,-1,0,157)" d="M295.4181 97.10913C295.4181 95.72342 294.2948 94.60008 292.9091 94.60008 291.5233 94.60008 290.4 95.72342 290.4 97.10913 290.4 98.49485 291.5233 99.61819 292.9091 99.61819 294.2948 99.61819 295.4181 98.49485 295.4181 97.10913Z" fill="#ea4a46"/>
<path transform="matrix(.00007874016,0,0,.00007874016,290.4,57.381814)" stroke-width="6350" stroke-linecap="butt" stroke-linejoin="round" fill="none" stroke="#ea4a46" d="M63730 31865C63730 49463.55 49463.55 63730 31865 63730 14266.45 63730 0 49463.55 0 31865 0 14266.45 14266.45 0 31865 0 49463.55 0 63730 14266.45 63730 31865Z"/>
<path transform="matrix(1,0,0,-1,0,157)" d="M303.9272 97.32732C303.9272 95.94161 302.8038 94.81827 301.4181 94.81827 300.0324 94.81827 298.9091 95.94161 298.9091 97.32732 298.9091 98.71303 300.0324 99.83638 301.4181 99.83638 302.8038 99.83638 303.9272 98.71303 303.9272 97.32732Z" fill="#ea4a46"/>
<path transform="matrix(.00007874016,0,0,.00007874016,298.9091,57.16362)" stroke-width="6350" stroke-linecap="butt" stroke-linejoin="round" fill="none" stroke="#ea4a46" d="M63730 31865C63730 49463.55 49463.55 63730 31865 63730 14266.45 63730 0 49463.55 0 31865 0 14266.45 14266.45 0 31865 0 49463.55 0 63730 14266.45 63730 31865Z"/>
<path transform="matrix(1,0,0,-1,0,157)" d="M312.6544 100.3819C312.6544 98.99618 311.5311 97.87284 310.1454 97.87284 308.7597 97.87284 307.6363 98.99618 307.6363 100.3819 307.6363 101.7676 308.7597 102.8909 310.1454 102.8909 311.5311 102.8909 312.6544 101.7676 312.6544 100.3819Z" fill="#ea4a46"/>
<path transform="matrix(.00007874016,0,0,.00007874016,307.6363,54.1091)" stroke-width="6350" stroke-linecap="butt" stroke-linejoin="round" fill="none" stroke="#ea4a46" d="M63730 31865C63730 49463.55 49463.55 63730 31865 63730 14266.45 63730 0 49463.55 0 31865 0 14266.45 14266.45 0 31865 0 49463.55 0 63730 14266.45 63730 31865Z"/>
<path transform="matrix(1,0,0,-1,0,157)" d="M321.1635 108.6728C321.1635 107.2871 320.0402 106.1638 318.6545 106.1638 317.2688 106.1638 316.1454 107.2871 316.1454 108.6728 316.1454 110.0585 317.2688 111.1819 318.6545 111.1819 320.0402 111.1819 321.1635 110.0585 321.1635 108.6728Z" fill="#ea4a46"/>
<path transform="matrix(.00007874016,0,0,.00007874016,316.1454,45.8181)" stroke-width="6350" stroke-linecap="butt" stroke-linejoin="round" fill="none" stroke="#ea4a46" d="M63730 31865C63730 49463.55 49463.55 63730 31865 63730 14266.45 63730 0 49463.55 0 31865 0 14266.45 14266.45 0 31865 0 49463.55 0 63730 14266.45 63730 31865Z"/>
<path transform="matrix(1,0,0,-1,0,157)" d="M329.8908 111.5091C329.8908 110.1234 328.7674 109.0001 327.3817 109.0001 325.996 109.0001 324.8727 110.1234 324.8727 111.5091 324.8727 112.8948 325.996 114.0182 327.3817 114.0182 328.7674 114.0182 329.8908 112.8948 329.8908 111.5091Z" fill="#ea4a46"/>
<path transform="matrix(.00007874016,0,0,.00007874016,324.8727,42.981798)" stroke-width="6350" stroke-linecap="butt" stroke-linejoin="round" fill="none" stroke="#ea4a46" d="M63730 31865C63730 49463.55 49463.55 63730 31865 63730 14266.45 63730 0 49463.55 0 31865 0 14266.45 14266.45 0 31865 0 49463.55 0 63730 14266.45 63730 31865Z"/>
<path transform="matrix(1,0,0,-1,0,157)" d="M338.6181 104.0909C338.6181 102.7052 337.4948 101.5819 336.1091 101.5819 334.7233 101.5819 333.6 102.7052 333.6 104.0909 333.6 105.4767 334.7233 106.6 336.1091 106.6 337.4948 106.6 338.6181 105.4767 338.6181 104.0909Z" fill="#ea4a46"/>
<path transform="matrix(.00007874016,0,0,.00007874016,333.6,50.4)" stroke-width="6350" stroke-linecap="butt" stroke-linejoin="round" fill="none" stroke="#ea4a46" d="M63730 31865C63730 49463.55 49463.55 63730 31865 63730 14266.45 63730 0 49463.55 0 31865 0 14266.45 14266.45 0 31865 0 49463.55 0 63730 14266.45 63730 31865Z"/>
<path transform="matrix(1,0,0,-1,0,157)" d="M355.8544 109.9819C355.8544 108.5962 354.7311 107.4728 353.3454 107.4728 351.9597 107.4728 350.8363 108.5962 350.8363 109.9819 350.8363 111.3676 351.9597 112.4909 353.3454 112.4909 354.7311 112.4909 355.8544 111.3676 355.8544 109.9819Z" fill="#ea4a46"/>
<path transform="matrix(.00007874016,0,0,.00007874016,350.8363,44.5091)" stroke-width="6350" stroke-linecap="butt" stroke-linejoin="round" fill="none" stroke="#ea4a46" d="M63730 31865C63730 49463.55 49463.55 63730 31865 63730 14266.45 63730 0 49463.55 0 31865 0 14266.45 14266.45 0 31865 0 49463.55 0 63730 14266.45 63730 31865Z"/>
<path transform="matrix(1,0,0,-1,0,157)" d="M364.3635 111.0728C364.3635 109.6871 363.2402 108.5638 361.8545 108.5638 360.4688 108.5638 359.3454 109.6871 359.3454 111.0728 359.3454 112.4585 360.4688 113.5819 361.8545 113.5819 363.2402 113.5819 364.3635 112.4585 364.3635 111.0728Z" fill="#ea4a46"/>
<path transform="matrix(.00007874016,0,0,.00007874016,359.3454,43.4181)" stroke-width="6350" stroke-linecap="butt" stroke-linejoin="round" fill="none" stroke="#ea4a46" d="M63730 31865C63730 49463.55 49463.55 63730 31865 63730 14266.45 63730 0 49463.55 0 31865 0 14266.45 14266.45 0 31865 0 49463.55 0 63730 14266.45 63730 31865Z"/>
<path transform="matrix(1,0,0,-1,0,157)" d="M373.0908 84.45465C373.0908 83.06893 371.9674 81.94559 370.5817 81.94559 369.196 81.94559 368.0727 83.06893 368.0727 84.45465 368.0727 85.84036 369.196 86.9637 370.5817 86.9637 371.9674 86.9637 373.0908 85.84036 373.0908 84.45465Z" fill="#ea4a46"/>
<path transform="matrix(.00007874016,0,0,.00007874016,368.0727,70.0363)" stroke-width="6350" stroke-linecap="butt" stroke-linejoin="round" fill="none" stroke="#ea4a46" d="M63730 31865C63730 49463.55 49463.55 63730 31865 63730 14266.45 63730 0 49463.55 0 31865 0 14266.45 14266.45 0 31865 0 49463.55 0 63730 14266.45 63730 31865Z"/>
<path transform="matrix(1,0,0,-1,0,157)" d="M381.8181 113.4728C381.8181 112.0871 380.6948 110.9638 379.3091 110.9638 377.9233 110.9638 376.8 112.0871 376.8 113.4728 376.8 114.8585 377.9233 115.9819 379.3091 115.9819 380.6948 115.9819 381.8181 114.8585 381.8181 113.4728Z" fill="#ea4a46"/>
<path transform="matrix(.00007874016,0,0,.00007874016,376.8,41.018098)" stroke-width="6350" stroke-linecap="butt" stroke-linejoin="round" fill="none" stroke="#ea4a46" d="M63730 31865C63730 49463.55 49463.55 63730 31865 63730 14266.45 63730 0 49463.55 0 31865 0 14266.45 14266.45 0 31865 0 49463.55 0 63730 14266.45 63730 31865Z"/>
<path transform="matrix(1,0,0,-1,0,157)" d="M390.3272 106.0546C390.3272 104.6689 389.2038 103.5456 387.8181 103.5456 386.4324 103.5456 385.3091 104.6689 385.3091 106.0546 385.3091 107.4404 386.4324 108.5637 387.8181 108.5637 389.2038 108.5637 390.3272 107.4404 390.3272 106.0546Z" fill="#ea4a46"/>
<path transform="matrix(.00007874016,0,0,.00007874016,385.3091,48.436304)" stroke-width="6350" stroke-linecap="butt" stroke-linejoin="round" fill="none" stroke="#ea4a46" d="M63730 31865C63730 49463.55 49463.55 63730 31865 63730 14266.45 63730 0 49463.55 0 31865 0 14266.45 14266.45 0 31865 0 49463.55 0 63730 14266.45 63730 31865Z"/>
<path transform="matrix(1,0,0,-1,0,157)" d="M399.0544 111.7273C399.0544 110.3416 397.9311 109.2183 396.5454 109.2183 395.1597 109.2183 394.0363 110.3416 394.0363 111.7273 394.0363 113.113 395.1597 114.2364 396.5454 114.2364 397.9311 114.2364 399.0544 113.113 399.0544 111.7273Z" fill="#ea4a46"/>
<path transform="matrix(.00007874016,0,0,.00007874016,394.0363,42.763605)" stroke-width="6350" stroke-linecap="butt" stroke-linejoin="round" fill="none" stroke="#ea4a46" d="M63730 31865C63730 49463.55 49463.55 63730 31865 63730 14266.45 63730 0 49463.55 0 31865 0 14266.45 14266.45 0 31865 0 49463.55 0 63730 14266.45 63730 31865Z"/>
<path transform="matrix(1,0,0,-1,0,157)" d="M407.5635 110.8546C407.5635 109.4689 406.4402 108.3456 405.0545 108.3456 403.6688 108.3456 402.5454 109.4689 402.5454 110.8546 402.5454 112.2404 403.6688 113.3637 405.0545 113.3637 406.4402 113.3637 407.5635 112.2404 407.5635 110.8546Z" fill="#ea4a46"/>
<path transform="matrix(.00007874016,0,0,.00007874016,402.5454,43.6363)" stroke-width="6350" stroke-linecap="butt" stroke-linejoin="round" fill="none" stroke="#ea4a46" d="M63730 31865C63730 49463.55 49463.55 63730 31865 63730 14266.45 63730 0 49463.55 0 31865 0 14266.45 14266.45 0 31865 0 49463.55 0 63730 14266.45 63730 31865Z"/>
</g>
<g clip-path="url(#clip_8)">
<text fill="#595959" xml:space="preserve" transform="matrix(.2181818 0 -0 .2181818 11.38 295.6364)" font-size="41" font-family="YuMincho"><tspan y="-719" x="0">0</tspan></text>
</g>
<g clip-path="url(#clip_9)">
<text fill="#595959" xml:space="preserve" transform="matrix(.2181818 0 -0 .2181818 11.38 257.0182)" font-size="41" font-family="YuMincho"><tspan y="-719" x="0">5</tspan></text>
</g>
<g clip-path="url(#clip_10)">
<text fill="#595959" xml:space="preserve" transform="matrix(.2181818 0 -0 .2181818 6.499999 218.4)" font-size="41" font-family="YuMincho"><tspan y="-719" x="0 22.000603">10</tspan></text>
</g>
<g clip-path="url(#clip_11)">
<text fill="#595959" xml:space="preserve" transform="matrix(.2181818 0 -0 .2181818 6.499999 179.78182)" font-size="41" font-family="YuMincho"><tspan y="-719" x="0 22.000603">15</tspan></text>
</g>
<g clip-path="url(#clip_12)">
<text fill="#595959" xml:space="preserve" transform="matrix(.2181818 0 -0 .2181818 22.59496 307.8545)" font-size="41" font-family="YuMincho"><tspan y="-719" x="0">0</tspan></text>
</g>
<g clip-path="url(#clip_13)">
<text fill="#595959" xml:space="preserve" transform="matrix(.2181818 0 -0 .2181818 63.33307 307.8545)" font-size="41" font-family="YuMincho"><tspan y="-719" x="0 22.000603">10</tspan></text>
</g>
<g clip-path="url(#clip_14)">
<text fill="#595959" xml:space="preserve" transform="matrix(.2181818 0 -0 .2181818 106.5112 307.8545)" font-size="41" font-family="YuMincho"><tspan y="-719" x="0 22.000603">20</tspan></text>
</g>
<g clip-path="url(#clip_15)">
<text fill="#595959" xml:space="preserve" transform="matrix(.2181818 0 -0 .2181818 149.6892 307.8545)" font-size="41" font-family="YuMincho"><tspan y="-719" x="0 22.000603">30</tspan></text>
</g>
<g clip-path="url(#clip_16)">
<text fill="#595959" xml:space="preserve" transform="matrix(.2181818 0 -0 .2181818 192.8673 307.8545)" font-size="41" font-family="YuMincho"><tspan y="-719" x="0 22.000603">40</tspan></text>
</g>
<g clip-path="url(#clip_17)">
<text fill="#595959" xml:space="preserve" transform="matrix(.2181818 0 -0 .2181818 236.0454 307.8545)" font-size="41" font-family="YuMincho"><tspan y="-719" x="0 22.000603">50</tspan></text>
</g>
<g clip-path="url(#clip_18)">
<text fill="#595959" xml:space="preserve" transform="matrix(.2181818 0 -0 .2181818 279.2235 307.8545)" font-size="41" font-family="YuMincho"><tspan y="-719" x="0 22.000603">60</tspan></text>
</g>
<g clip-path="url(#clip_19)">
<text fill="#595959" xml:space="preserve" transform="matrix(.2181818 0 -0 .2181818 322.4016 307.8545)" font-size="41" font-family="YuMincho"><tspan y="-719" x="0 22.000603">70</tspan></text>
</g>
<g clip-path="url(#clip_20)">
<text fill="#595959" xml:space="preserve" transform="matrix(.2181818 0 -0 .2181818 365.5797 307.8545)" font-size="41" font-family="YuMincho"><tspan y="-719" x="0 22.000603">80</tspan></text>
</g>
<g clip-path="url(#clip_21)">
<text fill="#595959" xml:space="preserve" transform="matrix(.22035283 0 -0 .21603216 92.64003 172.58182)" font-size="47.52708" font-family="YuMincho"><tspan y="-726.8773" x="0 31.405901 57.86898 80.86259 104.61662 118.34245 130.73752 177.30457 201.0586 224.575 239.20383 280.6855 304.4395 316.83457 346.52949 361.1583 374.88414 392.31706 416.6414 436.0705 448.46556 479.87147 503.6255 531.657 545.3828 569.1369 592.1305 606.75936 630.5134 659.1627 671.5578 706.76589 730.51998 749.94906 764.5779 788.332 816.98129 839.97488 864.29928 876.69436 904.20309 928.33737 940.7324 970.42739 989.8565 1013.61056 1055.0922">Local Maxima Filter Laplacian Variance by Frame</tspan></text>
<text fill="#595959" xml:space="preserve" transform="matrix(.22035283 0 -0 .21603216 92.64003 172.58182)" font-size="47.52708" font-family="YuMincho"><tspan y="-726.8773" x="0 31.405901 57.86898 80.86259 104.61662 118.34245 130.73752 177.30457 201.0586 224.575 239.20383 280.6855 304.4395 316.83457 346.52949 361.1583 374.88414 392.31706 416.6414 436.0705 448.46556 479.87147 503.6255 531.657 545.3828 569.1369 592.1305 606.75936 630.5134 659.1627 671.5578 706.76589 730.51998 749.94906 764.5779 788.332 816.98129 839.97488 864.29928 876.69436 904.20309 928.33737 940.7324 970.42739 989.8565 1013.61056 1055.0922">Local Maxima Filter Laplacian Variance by Frame</tspan></text>
</g>
</svg>
