<svg xmlns="http://www.w3.org/2000/svg" xmlns:xlink="http://www.w3.org/1999/xlink" xmlns:inkscape="http://www.inkscape.org/namespaces/inkscape" version="1.1" width="426" height="164" viewBox="0 0 426 164">
<defs>
<clipPath id="clip_0">
<path transform="matrix(1,0,0,-1,0,164)" d="M0 .1454541H425.8909V163.99996H0Z"/>
</clipPath>
<clipPath id="clip_1">
<path transform="matrix(1,0,0,-1,0,164)" d="M0 .8H425.0182V164H0Z"/>
</clipPath>
<clipPath id="clip_2">
<path transform="matrix(1,0,0,-1,0,164)" d="M0 .8H425.0182V164H0Z"/>
</clipPath>
<clipPath id="clip_3">
<path transform="matrix(1,0,0,-1,0,164)" d="M0 .8H425.0182V164H0Z"/>
</clipPath>
<clipPath id="clip_4">
<path transform="matrix(1,0,0,-1,0,164)" d="M0 .8H425.0182V164H0Z"/>
</clipPath>
<clipPath id="clip_5">
<path transform="matrix(1,0,0,-1,0,164)" d="M24.87273 23.92727H409.96366V143.92728H24.87273Z"/>
</clipPath>
<clipPath id="clip_6">
<path transform="matrix(1,0,0,-1,0,164)" d="M0 .8H425.0182V164H0Z"/>
</clipPath>
<clipPath id="clip_7">
<path transform="matrix(1,0,0,-1,0,164)" d="M0 .8H425.0182V164H0Z"/>
</clipPath>
<clipPath id="clip_8">
<path transform="matrix(1,0,0,-1,0,164)" d="M0 .8H425.0182V164H0Z"/>
</clipPath>
<clipPath id="clip_9">
<path transform="matrix(1,0,0,-1,0,164)" d="M0 .8H425.0182V164H0Z"/>
</clipPath>
<clipPath id="clip_10">
<path transform="matrix(1,0,0,-1,0,164)" d="M0 .8H425.0182V164H0Z"/>
</clipPath>
<clipPath id="clip_11">
<path transform="matrix(1,0,0,-1,0,164)" d="M0 .8H425.0182V164H0Z"/>
</clipPath>
<clipPath id="clip_12">
<path transform="matrix(1,0,0,-1,0,164)" d="M0 .8H425.0182V164H0Z"/>
</clipPath>
<clipPath id="clip_13">
<path transform="matrix(1,0,0,-1,0,164)" d="M0 .8H425.0182V164H0Z"/>
</clipPath>
<clipPath id="clip_14">
<path transform="matrix(1,0,0,-1,0,164)" d="M0 .8H425.0182V164H0Z"/>
</clipPath>
<clipPath id="clip_15">
<path transform="matrix(1,0,0,-1,0,164)" d="M0 .8H425.0182V164H0Z"/>
</clipPath>
<clipPath id="clip_16">
<path transform="matrix(1,0,0,-1,0,164)" d="M0 .8H425.0182V164H0Z"/>
</clipPath>
<clipPath id="clip_17">
<path transform="matrix(1,0,0,-1,0,164)" d="M0 .8H425.0182V164H0Z"/>
</clipPath>
<clipPath id="clip_18">
<path transform="matrix(1,0,0,-1,0,164)" d="M0 .8H425.0182V164H0Z"/>
</clipPath>
<clipPath id="clip_19">
<path transform="matrix(1,0,0,-1,0,164)" d="M0 .8H425.0182V164H0Z"/>
</clipPath>
<clipPath id="clip_20">
<path transform="matrix(1,0,0,-1,0,164)" d="M0 .8H425.0182V164H0Z"/>
</clipPath>
<clipPath id="clip_21">
<path transform="matrix(1,0,0,-1,0,164)" d="M0 .8H425.0182V164H0Z"/>
</clipPath>
</defs>
<g clip-path="url(#clip_0)">
<path transform="matrix(1,0,0,-1,0,164)" d="M0 164H425.8909V.1454541H0Z" fill="#ffffff"/>
</g>
<g clip-path="url(#clip_1)">
<path transform="matrix(.00007874016,0,0,.00007874016,24.98181,20.181794)" stroke-width="9525" stroke-linecap="butt" stroke-linejoin="round" fill="none" stroke="#d9d9d9" d="M0 1008653H4882342M0 504331H4882342M0 0H4882342"/>
</g>
<g clip-path="url(#clip_2)">
<path transform="matrix(.00007874016,0,0,.00007874016,24.98181,20.181794)" stroke-width="9525" stroke-linecap="butt" stroke-linejoin="round" fill="none" stroke="#d9d9d9" d="M548669 0V1512916M1097327 0V1512916M1645985 0V1512916M2194643 0V1512916M2743301 0V1512916M3291959 0V1512916M3837846 0V1512916M4386349 0V1512916"/>
</g>
<g clip-path="url(#clip_3)">
<path transform="matrix(.00007874016,0,0,-.00007874016,24.98181,139.30905)" stroke-width="9525" stroke-linecap="butt" stroke-linejoin="round" fill="none" stroke="#bfbfbf" d="M0 0 1 1512916"/>
</g>
<g clip-path="url(#clip_4)">
<path transform="matrix(.00007874016,0,0,.00007874016,24.98181,139.30905)" stroke-width="9525" stroke-linecap="butt" stroke-linejoin="round" fill="none" stroke="#bfbfbf" d="M0 0 4882342 1"/>
</g>
<g clip-path="url(#clip_5)">
<path transform="matrix(.00007874016,0,0,.00007874016,25.09095,40.581804)" stroke-width="6350" stroke-linecap="round" stroke-linejoin="round" fill="none" stroke="#156082" d="M0 658993.2C18274.82 689578.4 36550.63 750463.8 54826.45 750750.5 73101.27 751036.2 91377.09 661629.1 109652.9 660711.8 127927.7 659793.6 146204.5 741558.2 164480.3 745244.1 182755.2 748929 201031 688186.5 219306.8 682822.1 237581.6 677456.6 255857.4 700202.3 274133.2 713056.4 292408.1 725909.6 310683.9 736627.4 328959.7 759944.7 347234.5 783261.9 365510.3 841605.4 383786.2 852959.8 402061 864313.2 420336.8 833011.7 438612.6 828067.9 456887.4 823123.1 475164.2 837817.7 493440 823294 511714.9 808770.3 529990.7 739525 548266.5 740925.8 566541.3 742325.6 584817.1 813258.5 603092.9 831695.9 621367.7 850133.2 639643.6 829560.7 657919.4 851550 676194.2 873538.4 694470 943580 712745.8 963627 731020.7 983673 749297.5 969206.2 767573.3 971827.1 785848.1 974446.8 804123.9 981680.7 822399.8 979347.7 840674.6 977013.6 858950.4 969304.2 877226.2 957824.9 895501 946345.6 913776.8 919856.1 932052.6 910472.1 950327.4 901087 968603.2 914764.4 986879.1 901516.6 1005154 888267.9 1023430 870077.3 1041706 830983.4 1059980 791888.6 1078257 683563.4 1096533 666950.5 1114808 650337.6 1133084 735508.4 1151360 731305.9 1169634 727103.5 1187910 646491.9 1206186 641735.9 1224461 636978.9 1242736 693178.3 1261012 702766.2 1279287 712353.1 1297563 703526.5 1315839 699259.1 1329765 696006.9 1356738 703214.8 1370665 677159.9 1388940 642968.9 1407217 506219.8 1425493 494114.1 1443767 482008.3 1462043 582894.8 1480319 604525.4 1498594 626155.1 1516870 635403.2 1535146 623897.1 1553420 612389.8 1571696 561042.3 1589972 535484 1608247 509924.7 1626523 477338.3 1644798 470542.1 1663073 463744.8 1681350 497724 1699626 494704.6 1710461 492914.1 1743616 485289.6 1754452 452425.4 1772727 396992.4 1791003 147551.9 1809279 162106.6 1827554 176660.2 1845830 453222.8 1864105 539748.4 1879784 613986.4 1903252 653475.9 1918932 681260.4 1937206 713641.9 1955482 720449.2 1973758 734039.6 1992033 747629.1 2010310 758951.5 2028586 762801.2 2046860 766650 2065136 754383.4 2083412 757135.1 2101687 759885.8 2119963 788544.4 2138238 779308.2 2156513 770071.1 2174789 711987.4 2193065 701715.1 2211340 691442.8 2229615 732522.9 2247892 717674.5 2266166 702825.1 2284443 630243.6 2302719 612621.6 2320994 594998.6 2339270 624475.6 2357545 611941.2 2375820 599405.8 2394096 558809.2 2412372 537414.4 2430646 516018.5 2448922 507511.7 2467198 483568 2485473 459623.3 2503749 381908.2 2522025 393747.2 2540300 405586.1 2558575 552088.9 2576851 554601.8 2595126 557113.6 2613403 412247.5 2631678 408820.4 2649954 405392.3 2668229 516250.3 2686505 534035.2 2704780 551819.1 2723056 500280.8 2741331 515524.9 2759606 530768 2777882 612968.3 2796158 625497.7 2814433 638026.1 2832708 597609.3 2850984 590697.2 2864537 585570.5 2892258 608065.4 2905812 584019.8 2924087 551594.3 2942362 415255.9 2960638 396148.1 2978913 377040.3 2997189 458795 3015465 469373 3033740 479950.1 3052015 448369.8 3070291 459614.3 3088566 470857.8 3106842 545502.5 3125117 536834.9 3143392 528166.2 3161668 424492.1 3179944 407603.4 3198219 390713.8 3216496 437943.7 3234771 435501.7 3253046 433058.8 3271322 390775.7 3289598 392950.8 3307873 395125 3326148 471026.7 3344424 448550.7 3362699 426073.7 3380975 268149.7 3399251 258092.2 3417526 248034.7 3435801 388970.2 3454077 388205.9 3472352 387440.5 3490629 257052.1 3508905 253501.1 3527180 249949.1 3545456 373595.2 3563731 366897.9 3582006 360199.6 3600282 231604.6 3618558 213316.1 3636832 195026.6 3655108 274959.9 3673384 257164 3691659 239367 3709935 113040.2 3728210 106536.7 3746485 100032.2 3764761 224352.8 3783037 218142 3801312 211930.3 3819589 58753.19 3837864 69270.27 3856139 79787.35 3874415 265165.2 3892691 281244.6 3910966 297323.9 3929241 170648.3 3947517 165746.5 3965792 160843.6 3984068 223088.9 4002344 251831.5 4020619 280574.1 4038894 304432.9 4057170 338202.2 4075445 371970.6 4093721 495913.5 4111997 454442.7 4130271 412970.9 4148548 118279.7 4166824 89375.23 4185099 60469.73 4203375 283329.8 4221650 281010.8 4239925 278690.7 4258201 49792.79 4276477 75458.02 4294752 101122.3 4313027 377217.2 4331303 434998.2 4339789 461828.4 4377643 417032.4 4386130 422140.1 4399476 430171.3 4427609 547101.1 4440957 500985.2 4459232 437838.8 4477508 86521.64 4495784 43261.32 4514058 0 4532334 225245 4550610 241418.3 4568885 257590.6 4587161 139055.1 4605437 140296 4623711 141536 4641987 261058.7 4660263 248863 4678538 236666.3 4696814 80657.62 4715089 67121.09 4733364 53583.57 4751641 165901.3 4769917 167640.9 4788192 169379.4 4806467 67512.76 4824743 77555.24 4843018 87596.73 4861294 177778.3 4879570 227890.8"/>
</g>
<g clip-path="url(#clip_6)">
<path transform="matrix(1,0,0,-1,0,164)" d="M27.70898 71.38189C27.70898 69.99617 26.58563 68.87283 25.19992 68.87283 23.81421 68.87283 22.69087 69.99617 22.69087 71.38189 22.69087 72.7676 23.81421 73.89094 25.19992 73.89094 26.58563 73.89094 27.70898 72.7676 27.70898 71.38189Z" fill="#156082"/>
<path transform="matrix(.00007874016,0,0,.00007874016,22.69087,90.10906)" stroke-width="6350" stroke-linecap="butt" stroke-linejoin="round" fill="none" stroke="#156082" d="M63730 31865C63730 49463.55 49463.55 63730 31865 63730 14266.45 63730 0 49463.55 0 31865 0 14266.45 14266.45 0 31865 0 49463.55 0 63730 14266.45 63730 31865Z"/>
<path transform="matrix(1,0,0,-1,0,164)" d="M32.0726 64.18189C32.0726 62.79617 30.94926 61.67283 29.56354 61.67283 28.17783 61.67283 27.05449 62.79617 27.05449 64.18189 27.05449 65.5676 28.17783 66.69094 29.56354 66.69094 30.94926 66.69094 32.0726 65.5676 32.0726 64.18189Z" fill="#156082"/>
<path transform="matrix(.00007874016,0,0,.00007874016,27.05449,97.30906)" stroke-width="6350" stroke-linecap="butt" stroke-linejoin="round" fill="none" stroke="#156082" d="M63730 31865C63730 49463.55 49463.55 63730 31865 63730 14266.45 63730 0 49463.55 0 31865 0 14266.45 14266.45 0 31865 0 49463.55 0 63730 14266.45 63730 31865Z"/>
<path transform="matrix(1,0,0,-1,0,164)" d="M36.21811 71.38189C36.21811 69.99617 35.09477 68.87283 33.70906 68.87283 32.32334 68.87283 31.2 69.99617 31.2 71.38189 31.2 72.7676 32.32334 73.89094 33.70906 73.89094 35.09477 73.89094 36.21811 72.7676 36.21811 71.38189Z" fill="#156082"/>
<path transform="matrix(.00007874016,0,0,.00007874016,31.2,90.10906)" stroke-width="6350" stroke-linecap="butt" stroke-linejoin="round" fill="none" stroke="#156082" d="M63730 31865C63730 49463.55 49463.55 63730 31865 63730 14266.45 63730 0 49463.55 0 31865 0 14266.45 14266.45 0 31865 0 49463.55 0 63730 14266.45 63730 31865Z"/>
<path transform="matrix(1,0,0,-1,0,164)" d="M40.58173 64.61827C40.58173 63.23256 39.45839 62.10922 38.07268 62.10922 36.68697 62.10922 35.56362 63.23256 35.56362 64.61827 35.56362 66.00398 36.68697 67.12733 38.07268 67.12733 39.45839 67.12733 40.58173 66.00398 40.58173 64.61827Z" fill="#156082"/>
<path transform="matrix(.00007874016,0,0,.00007874016,35.56362,96.87267)" stroke-width="6350" stroke-linecap="butt" stroke-linejoin="round" fill="none" stroke="#156082" d="M63730 31865C63730 49463.55 49463.55 63730 31865 63730 14266.45 63730 0 49463.55 0 31865 0 14266.45 14266.45 0 31865 0 49463.55 0 63730 14266.45 63730 31865Z"/>
<path transform="matrix(1,0,0,-1,0,164)" d="M44.94535 69.63646C44.94535 68.25075 43.82201 67.1274 42.4363 67.1274 41.05059 67.1274 39.92724 68.25075 39.92724 69.63646 39.92724 71.02217 41.05059 72.14551 42.4363 72.14551 43.82201 72.14551 44.94535 71.02217 44.94535 69.63646Z" fill="#156082"/>
<path transform="matrix(.00007874016,0,0,.00007874016,39.92724,91.85449)" stroke-width="6350" stroke-linecap="butt" stroke-linejoin="round" fill="none" stroke="#156082" d="M63730 31865C63730 49463.55 49463.55 63730 31865 63730 14266.45 63730 0 49463.55 0 31865 0 14266.45 14266.45 0 31865 0 49463.55 0 63730 14266.45 63730 31865Z"/>
<path transform="matrix(1,0,0,-1,0,164)" d="M49.30898 67.23646C49.30898 65.85075 48.18563 64.7274 46.79992 64.7274 45.41421 64.7274 44.29087 65.85075 44.29087 67.23646 44.29087 68.62217 45.41421 69.74551 46.79992 69.74551 48.18563 69.74551 49.30898 68.62217 49.30898 67.23646Z" fill="#156082"/>
<path transform="matrix(.00007874016,0,0,.00007874016,44.29087,94.25449)" stroke-width="6350" stroke-linecap="butt" stroke-linejoin="round" fill="none" stroke="#156082" d="M63730 31865C63730 49463.55 49463.55 63730 31865 63730 14266.45 63730 0 49463.55 0 31865 0 14266.45 14266.45 0 31865 0 49463.55 0 63730 14266.45 63730 31865Z"/>
<path transform="matrix(1,0,0,-1,0,164)" d="M53.45441 63.52732C53.45441 62.14161 52.33107 61.01827 50.94536 61.01827 49.55964 61.01827 48.4363 62.14161 48.4363 63.52732 48.4363 64.91303 49.55964 66.03638 50.94536 66.03638 52.33107 66.03638 53.45441 64.91303 53.45441 63.52732Z" fill="#156082"/>
<path transform="matrix(.00007874016,0,0,.00007874016,48.4363,97.96362)" stroke-width="6350" stroke-linecap="butt" stroke-linejoin="round" fill="none" stroke="#156082" d="M63730 31865C63730 49463.55 49463.55 63730 31865 63730 14266.45 63730 0 49463.55 0 31865 0 14266.45 14266.45 0 31865 0 49463.55 0 63730 14266.45 63730 31865Z"/>
<path transform="matrix(1,0,0,-1,0,164)" d="M57.81811 56.10913C57.81811 54.72342 56.69477 53.60008 55.30906 53.60008 53.92334 53.60008 52.8 54.72342 52.8 56.10913 52.8 57.49485 53.92334 58.61819 55.30906 58.61819 56.69477 58.61819 57.81811 57.49485 57.81811 56.10913Z" fill="#156082"/>
<path transform="matrix(.00007874016,0,0,.00007874016,52.8,105.381809)" stroke-width="6350" stroke-linecap="butt" stroke-linejoin="round" fill="none" stroke="#156082" d="M63730 31865C63730 49463.55 49463.55 63730 31865 63730 14266.45 63730 0 49463.55 0 31865 0 14266.45 14266.45 0 31865 0 49463.55 0 63730 14266.45 63730 31865Z"/>
<path transform="matrix(1,0,0,-1,0,164)" d="M62.18173 58.07284C62.18173 56.68712 61.05839 55.56378 59.67268 55.56378 58.28697 55.56378 57.16362 56.68712 57.16362 58.07284 57.16362 59.45855 58.28697 60.58189 59.67268 60.58189 61.05839 60.58189 62.18173 59.45855 62.18173 58.07284Z" fill="#156082"/>
<path transform="matrix(.00007874016,0,0,.00007874016,57.16362,103.418109)" stroke-width="6350" stroke-linecap="butt" stroke-linejoin="round" fill="none" stroke="#156082" d="M63730 31865C63730 49463.55 49463.55 63730 31865 63730 14266.45 63730 0 49463.55 0 31865 0 14266.45 14266.45 0 31865 0 49463.55 0 63730 14266.45 63730 31865Z"/>
<path transform="matrix(1,0,0,-1,0,164)" d="M66.54536 58.50913C66.54536 57.12342 65.42201 56.00008 64.0363 56.00008 62.65059 56.00008 61.52725 57.12342 61.52725 58.50913 61.52725 59.89485 62.65059 61.01819 64.0363 61.01819 65.42201 61.01819 66.54536 59.89485 66.54536 58.50913Z" fill="#156082"/>
<path transform="matrix(.00007874016,0,0,.00007874016,61.52725,102.98181)" stroke-width="6350" stroke-linecap="butt" stroke-linejoin="round" fill="none" stroke="#156082" d="M63730 31865C63730 49463.55 49463.55 63730 31865 63730 14266.45 63730 0 49463.55 0 31865 0 14266.45 14266.45 0 31865 0 49463.55 0 63730 14266.45 63730 31865Z"/>
<path transform="matrix(1,0,0,-1,0,164)" d="M70.90898 65.05465C70.90898 63.66893 69.78564 62.54559 68.39992 62.54559 67.01421 62.54559 65.89087 63.66893 65.89087 65.05465 65.89087 66.44036 67.01421 67.5637 68.39992 67.5637 69.78564 67.5637 70.90898 66.44036 70.90898 65.05465Z" fill="#156082"/>
<path transform="matrix(.00007874016,0,0,.00007874016,65.89087,96.4363)" stroke-width="6350" stroke-linecap="butt" stroke-linejoin="round" fill="none" stroke="#156082" d="M63730 31865C63730 49463.55 49463.55 63730 31865 63730 14266.45 63730 0 49463.55 0 31865 0 14266.45 14266.45 0 31865 0 49463.55 0 63730 14266.45 63730 31865Z"/>
<path transform="matrix(1,0,0,-1,0,164)" d="M75.05441 57.85465C75.05441 56.46893 73.93107 55.34559 72.54535 55.34559 71.15964 55.34559 70.0363 56.46893 70.0363 57.85465 70.0363 59.24036 71.15964 60.3637 72.54535 60.3637 73.93107 60.3637 75.05441 59.24036 75.05441 57.85465Z" fill="#156082"/>
<path transform="matrix(.00007874016,0,0,.00007874016,70.0363,103.6363)" stroke-width="6350" stroke-linecap="butt" stroke-linejoin="round" fill="none" stroke="#156082" d="M63730 31865C63730 49463.55 49463.55 63730 31865 63730 14266.45 63730 0 49463.55 0 31865 0 14266.45 14266.45 0 31865 0 49463.55 0 63730 14266.45 63730 31865Z"/>
<path transform="matrix(1,0,0,-1,0,164)" d="M79.41811 56.32732C79.41811 54.94161 78.29477 53.81827 76.90906 53.81827 75.52334 53.81827 74.4 54.94161 74.4 56.32732 74.4 57.71303 75.52334 58.83638 76.90906 58.83638 78.29477 58.83638 79.41811 57.71303 79.41811 56.32732Z" fill="#156082"/>
<path transform="matrix(.00007874016,0,0,.00007874016,74.4,105.16362)" stroke-width="6350" stroke-linecap="butt" stroke-linejoin="round" fill="none" stroke="#156082" d="M63730 31865C63730 49463.55 49463.55 63730 31865 63730 14266.45 63730 0 49463.55 0 31865 0 14266.45 14266.45 0 31865 0 49463.55 0 63730 14266.45 63730 31865Z"/>
<path transform="matrix(1,0,0,-1,0,164)" d="M83.78173 47.38189C83.78173 45.99618 82.65839 44.87284 81.27268 44.87284 79.88697 44.87284 78.76362 45.99618 78.76362 47.38189 78.76362 48.76761 79.88697 49.89095 81.27268 49.89095 82.65839 49.89095 83.78173 48.76761 83.78173 47.38189Z" fill="#156082"/>
<path transform="matrix(.00007874016,0,0,.00007874016,78.76362,114.109058)" stroke-width="6350" stroke-linecap="butt" stroke-linejoin="round" fill="none" stroke="#156082" d="M63730 31865C63730 49463.55 49463.55 63730 31865 63730 14266.45 63730 0 49463.55 0 31865 0 14266.45 14266.45 0 31865 0 49463.55 0 63730 14266.45 63730 31865Z"/>
<path transform="matrix(1,0,0,-1,0,164)" d="M88.14536 46.72732C88.14536 45.34161 87.02201 44.21827 85.6363 44.21827 84.25059 44.21827 83.12725 45.34161 83.12725 46.72732 83.12725 48.11303 84.25059 49.23638 85.6363 49.23638 87.02201 49.23638 88.14536 48.11303 88.14536 46.72732Z" fill="#156082"/>
<path transform="matrix(.00007874016,0,0,.00007874016,83.12725,114.76362)" stroke-width="6350" stroke-linecap="butt" stroke-linejoin="round" fill="none" stroke="#156082" d="M63730 31865C63730 49463.55 49463.55 63730 31865 63730 14266.45 63730 0 49463.55 0 31865 0 14266.45 14266.45 0 31865 0 49463.55 0 63730 14266.45 63730 31865Z"/>
<path transform="matrix(1,0,0,-1,0,164)" d="M92.50898 46.29094C92.50898 44.90523 91.38564 43.78189 89.99992 43.78189 88.61421 43.78189 87.49087 44.90523 87.49087 46.29094 87.49087 47.67666 88.61421 48.8 89.99992 48.8 91.38564 48.8 92.50898 47.67666 92.50898 46.29094Z" fill="#156082"/>
<path transform="matrix(.00007874016,0,0,.00007874016,87.49087,115.2)" stroke-width="6350" stroke-linecap="butt" stroke-linejoin="round" fill="none" stroke="#156082" d="M63730 31865C63730 49463.55 49463.55 63730 31865 63730 14266.45 63730 0 49463.55 0 31865 0 14266.45 14266.45 0 31865 0 49463.55 0 63730 14266.45 63730 31865Z"/>
<path transform="matrix(1,0,0,-1,0,164)" d="M96.65441 47.81827C96.65441 46.43256 95.53107 45.30922 94.14535 45.30922 92.75964 45.30922 91.6363 46.43256 91.6363 47.81827 91.6363 49.20398 92.75964 50.32733 94.14535 50.32733 95.53107 50.32733 96.65441 49.20398 96.65441 47.81827Z" fill="#156082"/>
<path transform="matrix(.00007874016,0,0,.00007874016,91.6363,113.67267)" stroke-width="6350" stroke-linecap="butt" stroke-linejoin="round" fill="none" stroke="#156082" d="M63730 31865C63730 49463.55 49463.55 63730 31865 63730 14266.45 63730 0 49463.55 0 31865 0 14266.45 14266.45 0 31865 0 49463.55 0 63730 14266.45 63730 31865Z"/>
<path transform="matrix(1,0,0,-1,0,164)" d="M101.0181 51.52732C101.0181 50.14161 99.89477 49.01827 98.50906 49.01827 97.12334 49.01827 96 50.14161 96 51.52732 96 52.91303 97.12334 54.03638 98.50906 54.03638 99.89477 54.03638 101.0181 52.91303 101.0181 51.52732Z" fill="#156082"/>
<path transform="matrix(.00007874016,0,0,.00007874016,96,109.96362)" stroke-width="6350" stroke-linecap="butt" stroke-linejoin="round" fill="none" stroke="#156082" d="M63730 31865C63730 49463.55 49463.55 63730 31865 63730 14266.45 63730 0 49463.55 0 31865 0 14266.45 14266.45 0 31865 0 49463.55 0 63730 14266.45 63730 31865Z"/>
<path transform="matrix(1,0,0,-1,0,164)" d="M105.3817 52.40008C105.3817 51.01436 104.2584 49.89102 102.8727 49.89102 101.487 49.89102 100.3636 51.01436 100.3636 52.40008 100.3636 53.78579 101.487 54.90913 102.8727 54.90913 104.2584 54.90913 105.3817 53.78579 105.3817 52.40008Z" fill="#156082"/>
<path transform="matrix(.00007874016,0,0,.00007874016,100.3636,109.090869)" stroke-width="6350" stroke-linecap="butt" stroke-linejoin="round" fill="none" stroke="#156082" d="M63730 31865C63730 49463.55 49463.55 63730 31865 63730 14266.45 63730 0 49463.55 0 31865 0 14266.45 14266.45 0 31865 0 49463.55 0 63730 14266.45 63730 31865Z"/>
<path transform="matrix(1,0,0,-1,0,164)" d="M109.7454 57.85465C109.7454 56.46893 108.622 55.34559 107.2363 55.34559 105.8506 55.34559 104.7272 56.46893 104.7272 57.85465 104.7272 59.24036 105.8506 60.3637 107.2363 60.3637 108.622 60.3637 109.7454 59.24036 109.7454 57.85465Z" fill="#156082"/>
<path transform="matrix(.00007874016,0,0,.00007874016,104.7272,103.6363)" stroke-width="6350" stroke-linecap="butt" stroke-linejoin="round" fill="none" stroke="#156082" d="M63730 31865C63730 49463.55 49463.55 63730 31865 63730 14266.45 63730 0 49463.55 0 31865 0 14266.45 14266.45 0 31865 0 49463.55 0 63730 14266.45 63730 31865Z"/>
<path transform="matrix(1,0,0,-1,0,164)" d="M114.109 70.72732C114.109 69.34161 112.9856 68.21827 111.5999 68.21827 110.2142 68.21827 109.0909 69.34161 109.0909 70.72732 109.0909 72.11303 110.2142 73.23638 111.5999 73.23638 112.9856 73.23638 114.109 72.11303 114.109 70.72732Z" fill="#156082"/>
<path transform="matrix(.00007874016,0,0,.00007874016,109.0909,90.76362)" stroke-width="6350" stroke-linecap="butt" stroke-linejoin="round" fill="none" stroke="#156082" d="M63730 31865C63730 49463.55 49463.55 63730 31865 63730 14266.45 63730 0 49463.55 0 31865 0 14266.45 14266.45 0 31865 0 49463.55 0 63730 14266.45 63730 31865Z"/>
<path transform="matrix(1,0,0,-1,0,164)" d="M118.2544 65.70913C118.2544 64.32342 117.1311 63.20008 115.7454 63.20008 114.3596 63.20008 113.2363 64.32342 113.2363 65.70913 113.2363 67.09485 114.3596 68.21819 115.7454 68.21819 117.1311 68.21819 118.2544 67.09485 118.2544 65.70913Z" fill="#156082"/>
<path transform="matrix(.00007874016,0,0,.00007874016,113.2363,95.78181)" stroke-width="6350" stroke-linecap="butt" stroke-linejoin="round" fill="none" stroke="#156082" d="M63730 31865C63730 49463.55 49463.55 63730 31865 63730 14266.45 63730 0 49463.55 0 31865 0 14266.45 14266.45 0 31865 0 49463.55 0 63730 14266.45 63730 31865Z"/>
<path transform="matrix(1,0,0,-1,0,164)" d="M122.6181 72.90913C122.6181 71.52342 121.4948 70.40008 120.1091 70.40008 118.7233 70.40008 117.6 71.52342 117.6 72.90913 117.6 74.29485 118.7233 75.41819 120.1091 75.41819 121.4948 75.41819 122.6181 74.29485 122.6181 72.90913Z" fill="#156082"/>
<path transform="matrix(.00007874016,0,0,.00007874016,117.6,88.58181)" stroke-width="6350" stroke-linecap="butt" stroke-linejoin="round" fill="none" stroke="#156082" d="M63730 31865C63730 49463.55 49463.55 63730 31865 63730 14266.45 63730 0 49463.55 0 31865 0 14266.45 14266.45 0 31865 0 49463.55 0 63730 14266.45 63730 31865Z"/>
<path transform="matrix(1,0,0,-1,0,164)" d="M126.9817 67.89094C126.9817 66.50523 125.8584 65.38189 124.4727 65.38189 123.087 65.38189 121.9636 66.50523 121.9636 67.89094 121.9636 69.27666 123.087 70.4 124.4727 70.4 125.8584 70.4 126.9817 69.27666 126.9817 67.89094Z" fill="#156082"/>
<path transform="matrix(.00007874016,0,0,.00007874016,121.9636,93.6)" stroke-width="6350" stroke-linecap="butt" stroke-linejoin="round" fill="none" stroke="#156082" d="M63730 31865C63730 49463.55 49463.55 63730 31865 63730 14266.45 63730 0 49463.55 0 31865 0 14266.45 14266.45 0 31865 0 49463.55 0 63730 14266.45 63730 31865Z"/>
<path transform="matrix(1,0,0,-1,0,164)" d="M131.3454 68.32732C131.3454 66.94161 130.222 65.81827 128.8363 65.81827 127.4506 65.81827 126.3272 66.94161 126.3272 68.32732 126.3272 69.71303 127.4506 70.83638 128.8363 70.83638 130.222 70.83638 131.3454 69.71303 131.3454 68.32732Z" fill="#156082"/>
<path transform="matrix(.00007874016,0,0,.00007874016,126.3272,93.16362)" stroke-width="6350" stroke-linecap="butt" stroke-linejoin="round" fill="none" stroke="#156082" d="M63730 31865C63730 49463.55 49463.55 63730 31865 63730 14266.45 63730 0 49463.55 0 31865 0 14266.45 14266.45 0 31865 0 49463.55 0 63730 14266.45 63730 31865Z"/>
<path transform="matrix(1,0,0,-1,0,164)" d="M135.4908 70.07284C135.4908 68.68712 134.3674 67.56378 132.9817 67.56378 131.596 67.56378 130.4727 68.68712 130.4727 70.07284 130.4727 71.45855 131.596 72.58189 132.9817 72.58189 134.3674 72.58189 135.4908 71.45855 135.4908 70.07284Z" fill="#156082"/>
<path transform="matrix(.00007874016,0,0,.00007874016,130.4727,91.41811)" stroke-width="6350" stroke-linecap="butt" stroke-linejoin="round" fill="none" stroke="#156082" d="M63730 31865C63730 49463.55 49463.55 63730 31865 63730 14266.45 63730 0 49463.55 0 31865 0 14266.45 14266.45 0 31865 0 49463.55 0 63730 14266.45 63730 31865Z"/>
<path transform="matrix(1,0,0,-1,0,164)" d="M139.8544 84.47284C139.8544 83.08712 138.7311 81.96378 137.3454 81.96378 135.9596 81.96378 134.8363 83.08712 134.8363 84.47284 134.8363 85.85855 135.9596 86.98189 137.3454 86.98189 138.7311 86.98189 139.8544 85.85855 139.8544 84.47284Z" fill="#156082"/>
<path transform="matrix(.00007874016,0,0,.00007874016,134.8363,77.01811)" stroke-width="6350" stroke-linecap="butt" stroke-linejoin="round" fill="none" stroke="#156082" d="M63730 31865C63730 49463.55 49463.55 63730 31865 63730 14266.45 63730 0 49463.55 0 31865 0 14266.45 14266.45 0 31865 0 49463.55 0 63730 14266.45 63730 31865Z"/>
<path transform="matrix(1,0,0,-1,0,164)" d="M144.2181 75.74551C144.2181 74.3598 143.0948 73.23645 141.7091 73.23645 140.3233 73.23645 139.2 74.3598 139.2 75.74551 139.2 77.13122 140.3233 78.25457 141.7091 78.25457 143.0948 78.25457 144.2181 77.13122 144.2181 75.74551Z" fill="#156082"/>
<path transform="matrix(.00007874016,0,0,.00007874016,139.2,85.74543)" stroke-width="6350" stroke-linecap="butt" stroke-linejoin="round" fill="none" stroke="#156082" d="M63730 31865C63730 49463.55 49463.55 63730 31865 63730 14266.45 63730 0 49463.55 0 31865 0 14266.45 14266.45 0 31865 0 49463.55 0 63730 14266.45 63730 31865Z"/>
<path transform="matrix(1,0,0,-1,0,164)" d="M148.5817 74.21827C148.5817 72.83256 147.4584 71.70922 146.0727 71.70922 144.687 71.70922 143.5636 72.83256 143.5636 74.21827 143.5636 75.60398 144.687 76.72733 146.0727 76.72733 147.4584 76.72733 148.5817 75.60398 148.5817 74.21827Z" fill="#156082"/>
<path transform="matrix(.00007874016,0,0,.00007874016,143.5636,87.27267)" stroke-width="6350" stroke-linecap="butt" stroke-linejoin="round" fill="none" stroke="#156082" d="M63730 31865C63730 49463.55 49463.55 63730 31865 63730 14266.45 63730 0 49463.55 0 31865 0 14266.45 14266.45 0 31865 0 49463.55 0 63730 14266.45 63730 31865Z"/>
<path transform="matrix(1,0,0,-1,0,164)" d="M152.9454 81.20008C152.9454 79.81436 151.822 78.69102 150.4363 78.69102 149.0506 78.69102 147.9272 79.81436 147.9272 81.20008 147.9272 82.58579 149.0506 83.70913 150.4363 83.70913 151.822 83.70913 152.9454 82.58579 152.9454 81.20008Z" fill="#156082"/>
<path transform="matrix(.00007874016,0,0,.00007874016,147.9272,80.29087)" stroke-width="6350" stroke-linecap="butt" stroke-linejoin="round" fill="none" stroke="#156082" d="M63730 31865C63730 49463.55 49463.55 63730 31865 63730 14266.45 63730 0 49463.55 0 31865 0 14266.45 14266.45 0 31865 0 49463.55 0 63730 14266.45 63730 31865Z"/>
<path transform="matrix(1,0,0,-1,0,164)" d="M157.0908 86.21827C157.0908 84.83256 155.9674 83.70922 154.5817 83.70922 153.196 83.70922 152.0727 84.83256 152.0727 86.21827 152.0727 87.60398 153.196 88.72733 154.5817 88.72733 155.9674 88.72733 157.0908 87.60398 157.0908 86.21827Z" fill="#156082"/>
<path transform="matrix(.00007874016,0,0,.00007874016,152.0727,75.27267)" stroke-width="6350" stroke-linecap="butt" stroke-linejoin="round" fill="none" stroke="#156082" d="M63730 31865C63730 49463.55 49463.55 63730 31865 63730 14266.45 63730 0 49463.55 0 31865 0 14266.45 14266.45 0 31865 0 49463.55 0 63730 14266.45 63730 31865Z"/>
<path transform="matrix(1,0,0,-1,0,164)" d="M161.4544 84.47284C161.4544 83.08712 160.3311 81.96378 158.9454 81.96378 157.5596 81.96378 156.4363 83.08712 156.4363 84.47284 156.4363 85.85855 157.5596 86.98189 158.9454 86.98189 160.3311 86.98189 161.4544 85.85855 161.4544 84.47284Z" fill="#156082"/>
<path transform="matrix(.00007874016,0,0,.00007874016,156.4363,77.01811)" stroke-width="6350" stroke-linecap="butt" stroke-linejoin="round" fill="none" stroke="#156082" d="M63730 31865C63730 49463.55 49463.55 63730 31865 63730 14266.45 63730 0 49463.55 0 31865 0 14266.45 14266.45 0 31865 0 49463.55 0 63730 14266.45 63730 31865Z"/>
<path transform="matrix(1,0,0,-1,0,164)" d="M165.8181 87.74551C165.8181 86.3598 164.6948 85.23646 163.3091 85.23646 161.9233 85.23646 160.8 86.3598 160.8 87.74551 160.8 89.13122 161.9233 90.25457 163.3091 90.25457 164.6948 90.25457 165.8181 89.13122 165.8181 87.74551Z" fill="#156082"/>
<path transform="matrix(.00007874016,0,0,.00007874016,160.8,73.74543)" stroke-width="6350" stroke-linecap="butt" stroke-linejoin="round" fill="none" stroke="#156082" d="M63730 31865C63730 49463.55 49463.55 63730 31865 63730 14266.45 63730 0 49463.55 0 31865 0 14266.45 14266.45 0 31865 0 49463.55 0 63730 14266.45 63730 31865Z"/>
<path transform="matrix(1,0,0,-1,0,164)" d="M170.1817 110.6546C170.1817 109.2689 169.0584 108.1456 167.6727 108.1456 166.287 108.1456 165.1636 109.2689 165.1636 110.6546 165.1636 112.0404 166.287 113.1637 167.6727 113.1637 169.0584 113.1637 170.1817 112.0404 170.1817 110.6546Z" fill="#156082"/>
<path transform="matrix(.00007874016,0,0,.00007874016,165.1636,50.836305)" stroke-width="6350" stroke-linecap="butt" stroke-linejoin="round" fill="none" stroke="#156082" d="M63730 31865C63730 49463.55 49463.55 63730 31865 63730 14266.45 63730 0 49463.55 0 31865 0 14266.45 14266.45 0 31865 0 49463.55 0 63730 14266.45 63730 31865Z"/>
<path transform="matrix(1,0,0,-1,0,164)" d="M174.5454 80.7637C174.5454 79.37799 173.422 78.25464 172.0363 78.25464 170.6506 78.25464 169.5272 79.37799 169.5272 80.7637 169.5272 82.14941 170.6506 83.27275 172.0363 83.27275 173.422 83.27275 174.5454 82.14941 174.5454 80.7637Z" fill="#156082"/>
<path transform="matrix(.00007874016,0,0,.00007874016,169.5272,80.72725)" stroke-width="6350" stroke-linecap="butt" stroke-linejoin="round" fill="none" stroke="#156082" d="M63730 31865C63730 49463.55 49463.55 63730 31865 63730 14266.45 63730 0 49463.55 0 31865 0 14266.45 14266.45 0 31865 0 49463.55 0 63730 14266.45 63730 31865Z"/>
<path transform="matrix(1,0,0,-1,0,164)" d="M178.6908 69.63646C178.6908 68.25075 177.5674 67.1274 176.1817 67.1274 174.796 67.1274 173.6727 68.25075 173.6727 69.63646 173.6727 71.02217 174.796 72.14551 176.1817 72.14551 177.5674 72.14551 178.6908 71.02217 178.6908 69.63646Z" fill="#156082"/>
<path transform="matrix(.00007874016,0,0,.00007874016,173.6727,91.85449)" stroke-width="6350" stroke-linecap="butt" stroke-linejoin="round" fill="none" stroke="#156082" d="M63730 31865C63730 49463.55 49463.55 63730 31865 63730 14266.45 63730 0 49463.55 0 31865 0 14266.45 14266.45 0 31865 0 49463.55 0 63730 14266.45 63730 31865Z"/>
<path transform="matrix(1,0,0,-1,0,164)" d="M183.0544 65.49094C183.0544 64.10523 181.9311 62.98189 180.5454 62.98189 179.1596 62.98189 178.0363 64.10523 178.0363 65.49094 178.0363 66.87666 179.1596 68 180.5454 68 181.9311 68 183.0544 66.87666 183.0544 65.49094Z" fill="#156082"/>
<path transform="matrix(.00007874016,0,0,.00007874016,178.0363,96)" stroke-width="6350" stroke-linecap="butt" stroke-linejoin="round" fill="none" stroke="#156082" d="M63730 31865C63730 49463.55 49463.55 63730 31865 63730 14266.45 63730 0 49463.55 0 31865 0 14266.45 14266.45 0 31865 0 49463.55 0 63730 14266.45 63730 31865Z"/>
<path transform="matrix(1,0,0,-1,0,164)" d="M187.4181 63.30913C187.4181 61.92342 186.2948 60.80008 184.9091 60.80008 183.5233 60.80008 182.4 61.92342 182.4 63.30913 182.4 64.69485 183.5233 65.81819 184.9091 65.81819 186.2948 65.81819 187.4181 64.69485 187.4181 63.30913Z" fill="#156082"/>
<path transform="matrix(.00007874016,0,0,.00007874016,182.4,98.18181)" stroke-width="6350" stroke-linecap="butt" stroke-linejoin="round" fill="none" stroke="#156082" d="M63730 31865C63730 49463.55 49463.55 63730 31865 63730 14266.45 63730 0 49463.55 0 31865 0 14266.45 14266.45 0 31865 0 49463.55 0 63730 14266.45 63730 31865Z"/>
<path transform="matrix(1,0,0,-1,0,164)" d="M191.7817 63.74551C191.7817 62.3598 190.6584 61.23645 189.2727 61.23645 187.887 61.23645 186.7636 62.3598 186.7636 63.74551 186.7636 65.13122 187.887 66.25457 189.2727 66.25457 190.6584 66.25457 191.7817 65.13122 191.7817 63.74551Z" fill="#156082"/>
<path transform="matrix(.00007874016,0,0,.00007874016,186.7636,97.74543)" stroke-width="6350" stroke-linecap="butt" stroke-linejoin="round" fill="none" stroke="#156082" d="M63730 31865C63730 49463.55 49463.55 63730 31865 63730 14266.45 63730 0 49463.55 0 31865 0 14266.45 14266.45 0 31865 0 49463.55 0 63730 14266.45 63730 31865Z"/>
<path transform="matrix(1,0,0,-1,0,164)" d="M196.1454 62.00008C196.1454 60.61436 195.022 59.49102 193.6363 59.49102 192.2506 59.49102 191.1272 60.61436 191.1272 62.00008 191.1272 63.38579 192.2506 64.50913 193.6363 64.50913 195.022 64.50913 196.1454 63.38579 196.1454 62.00008Z" fill="#156082"/>
<path transform="matrix(.00007874016,0,0,.00007874016,191.1272,99.49087)" stroke-width="6350" stroke-linecap="butt" stroke-linejoin="round" fill="none" stroke="#156082" d="M63730 31865C63730 49463.55 49463.55 63730 31865 63730 14266.45 63730 0 49463.55 0 31865 0 14266.45 14266.45 0 31865 0 49463.55 0 63730 14266.45 63730 31865Z"/>
<path transform="matrix(1,0,0,-1,0,164)" d="M200.2908 68.10913C200.2908 66.72342 199.1674 65.60008 197.7817 65.60008 196.396 65.60008 195.2727 66.72342 195.2727 68.10913 195.2727 69.49485 196.396 70.61819 197.7817 70.61819 199.1674 70.61819 200.2908 69.49485 200.2908 68.10913Z" fill="#156082"/>
<path transform="matrix(.00007874016,0,0,.00007874016,195.2727,93.38181)" stroke-width="6350" stroke-linecap="butt" stroke-linejoin="round" fill="none" stroke="#156082" d="M63730 31865C63730 49463.55 49463.55 63730 31865 63730 14266.45 63730 0 49463.55 0 31865 0 14266.45 14266.45 0 31865 0 49463.55 0 63730 14266.45 63730 31865Z"/>
<path transform="matrix(1,0,0,-1,0,164)" d="M204.6544 66.80008C204.6544 65.41436 203.5311 64.29102 202.1454 64.29102 200.7596 64.29102 199.6363 65.41436 199.6363 66.80008 199.6363 68.18579 200.7596 69.30913 202.1454 69.30913 203.5311 69.30913 204.6544 68.18579 204.6544 66.80008Z" fill="#156082"/>
<path transform="matrix(.00007874016,0,0,.00007874016,199.6363,94.69087)" stroke-width="6350" stroke-linecap="butt" stroke-linejoin="round" fill="none" stroke="#156082" d="M63730 31865C63730 49463.55 49463.55 63730 31865 63730 14266.45 63730 0 49463.55 0 31865 0 14266.45 14266.45 0 31865 0 49463.55 0 63730 14266.45 63730 31865Z"/>
<path transform="matrix(1,0,0,-1,0,164)" d="M209.0181 75.09094C209.0181 73.70523 207.8948 72.58189 206.5091 72.58189 205.1233 72.58189 204 73.70523 204 75.09094 204 76.47666 205.1233 77.6 206.5091 77.6 207.8948 77.6 209.0181 76.47666 209.0181 75.09094Z" fill="#156082"/>
<path transform="matrix(.00007874016,0,0,.00007874016,204,86.4)" stroke-width="6350" stroke-linecap="butt" stroke-linejoin="round" fill="none" stroke="#156082" d="M63730 31865C63730 49463.55 49463.55 63730 31865 63730 14266.45 63730 0 49463.55 0 31865 0 14266.45 14266.45 0 31865 0 49463.55 0 63730 14266.45 63730 31865Z"/>
<path transform="matrix(1,0,0,-1,0,164)" d="M213.3817 75.09094C213.3817 73.70523 212.2584 72.58189 210.8727 72.58189 209.487 72.58189 208.3636 73.70523 208.3636 75.09094 208.3636 76.47666 209.487 77.6 210.8727 77.6 212.2584 77.6 213.3817 76.47666 213.3817 75.09094Z" fill="#156082"/>
<path transform="matrix(.00007874016,0,0,.00007874016,208.3636,86.4)" stroke-width="6350" stroke-linecap="butt" stroke-linejoin="round" fill="none" stroke="#156082" d="M63730 31865C63730 49463.55 49463.55 63730 31865 63730 14266.45 63730 0 49463.55 0 31865 0 14266.45 14266.45 0 31865 0 49463.55 0 63730 14266.45 63730 31865Z"/>
<path transform="matrix(1,0,0,-1,0,164)" d="M217.7454 80.98189C217.7454 79.59617 216.622 78.47283 215.2363 78.47283 213.8506 78.47283 212.7272 79.59617 212.7272 80.98189 212.7272 82.3676 213.8506 83.49094 215.2363 83.49094 216.622 83.49094 217.7454 82.3676 217.7454 80.98189Z" fill="#156082"/>
<path transform="matrix(.00007874016,0,0,.00007874016,212.7272,80.50906)" stroke-width="6350" stroke-linecap="butt" stroke-linejoin="round" fill="none" stroke="#156082" d="M63730 31865C63730 49463.55 49463.55 63730 31865 63730 14266.45 63730 0 49463.55 0 31865 0 14266.45 14266.45 0 31865 0 49463.55 0 63730 14266.45 63730 31865Z"/>
<path transform="matrix(1,0,0,-1,0,164)" d="M221.8908 85.34551C221.8908 83.9598 220.7674 82.83646 219.3817 82.83646 217.996 82.83646 216.8727 83.9598 216.8727 85.34551 216.8727 86.73122 217.996 87.85457 219.3817 87.85457 220.7674 87.85457 221.8908 86.73122 221.8908 85.34551Z" fill="#156082"/>
<path transform="matrix(.00007874016,0,0,.00007874016,216.8727,76.14543)" stroke-width="6350" stroke-linecap="butt" stroke-linejoin="round" fill="none" stroke="#156082" d="M63730 31865C63730 49463.55 49463.55 63730 31865 63730 14266.45 63730 0 49463.55 0 31865 0 14266.45 14266.45 0 31865 0 49463.55 0 63730 14266.45 63730 31865Z"/>
<path transform="matrix(1,0,0,-1,0,164)" d="M226.2544 92.32732C226.2544 90.94161 225.1311 89.81827 223.7454 89.81827 222.3596 89.81827 221.2363 90.94161 221.2363 92.32732 221.2363 93.71303 222.3596 94.83638 223.7454 94.83638 225.1311 94.83638 226.2544 93.71303 226.2544 92.32732Z" fill="#156082"/>
<path transform="matrix(.00007874016,0,0,.00007874016,221.2363,69.16362)" stroke-width="6350" stroke-linecap="butt" stroke-linejoin="round" fill="none" stroke="#156082" d="M63730 31865C63730 49463.55 49463.55 63730 31865 63730 14266.45 63730 0 49463.55 0 31865 0 14266.45 14266.45 0 31865 0 49463.55 0 63730 14266.45 63730 31865Z"/>
<path transform="matrix(1,0,0,-1,0,164)" d="M230.6181 79.67284C230.6181 78.28712 229.4948 77.16378 228.1091 77.16378 226.7233 77.16378 225.6 78.28712 225.6 79.67284 225.6 81.05855 226.7233 82.18189 228.1091 82.18189 229.4948 82.18189 230.6181 81.05855 230.6181 79.67284Z" fill="#156082"/>
<path transform="matrix(.00007874016,0,0,.00007874016,225.6,81.81811)" stroke-width="6350" stroke-linecap="butt" stroke-linejoin="round" fill="none" stroke="#156082" d="M63730 31865C63730 49463.55 49463.55 63730 31865 63730 14266.45 63730 0 49463.55 0 31865 0 14266.45 14266.45 0 31865 0 49463.55 0 63730 14266.45 63730 31865Z"/>
<path transform="matrix(1,0,0,-1,0,164)" d="M234.9817 91.23646C234.9817 89.85075 233.8584 88.7274 232.4727 88.7274 231.087 88.7274 229.9636 89.85075 229.9636 91.23646 229.9636 92.62217 231.087 93.74551 232.4727 93.74551 233.8584 93.74551 234.9817 92.62217 234.9817 91.23646Z" fill="#156082"/>
<path transform="matrix(.00007874016,0,0,.00007874016,229.9636,70.25449)" stroke-width="6350" stroke-linecap="butt" stroke-linejoin="round" fill="none" stroke="#156082" d="M63730 31865C63730 49463.55 49463.55 63730 31865 63730 14266.45 63730 0 49463.55 0 31865 0 14266.45 14266.45 0 31865 0 49463.55 0 63730 14266.45 63730 31865Z"/>
<path transform="matrix(1,0,0,-1,0,164)" d="M239.1272 81.20008C239.1272 79.81436 238.0038 78.69102 236.6181 78.69102 235.2324 78.69102 234.1091 79.81436 234.1091 81.20008 234.1091 82.58579 235.2324 83.70913 236.6181 83.70913 238.0038 83.70913 239.1272 82.58579 239.1272 81.20008Z" fill="#156082"/>
<path transform="matrix(.00007874016,0,0,.00007874016,234.1091,80.29087)" stroke-width="6350" stroke-linecap="butt" stroke-linejoin="round" fill="none" stroke="#156082" d="M63730 31865C63730 49463.55 49463.55 63730 31865 63730 14266.45 63730 0 49463.55 0 31865 0 14266.45 14266.45 0 31865 0 49463.55 0 63730 14266.45 63730 31865Z"/>
<path transform="matrix(1,0,0,-1,0,164)" d="M243.4908 82.72732C243.4908 81.34161 242.3674 80.21827 240.9817 80.21827 239.596 80.21827 238.4727 81.34161 238.4727 82.72732 238.4727 84.11303 239.596 85.23638 240.9817 85.23638 242.3674 85.23638 243.4908 84.11303 243.4908 82.72732Z" fill="#156082"/>
<path transform="matrix(.00007874016,0,0,.00007874016,238.4727,78.76362)" stroke-width="6350" stroke-linecap="butt" stroke-linejoin="round" fill="none" stroke="#156082" d="M63730 31865C63730 49463.55 49463.55 63730 31865 63730 14266.45 63730 0 49463.55 0 31865 0 14266.45 14266.45 0 31865 0 49463.55 0 63730 14266.45 63730 31865Z"/>
<path transform="matrix(1,0,0,-1,0,164)" d="M247.8544 74.00008C247.8544 72.61436 246.7311 71.49102 245.3454 71.49102 243.9597 71.49102 242.8363 72.61436 242.8363 74.00008 242.8363 75.38579 243.9597 76.50913 245.3454 76.50913 246.7311 76.50913 247.8544 75.38579 247.8544 74.00008Z" fill="#156082"/>
<path transform="matrix(.00007874016,0,0,.00007874016,242.8363,87.49087)" stroke-width="6350" stroke-linecap="butt" stroke-linejoin="round" fill="none" stroke="#156082" d="M63730 31865C63730 49463.55 49463.55 63730 31865 63730 14266.45 63730 0 49463.55 0 31865 0 14266.45 14266.45 0 31865 0 49463.55 0 63730 14266.45 63730 31865Z"/>
<path transform="matrix(1,0,0,-1,0,164)" d="M252.2181 76.83646C252.2181 75.45075 251.0948 74.3274 249.7091 74.3274 248.3233 74.3274 247.2 75.45075 247.2 76.83646 247.2 78.22217 248.3233 79.34551 249.7091 79.34551 251.0948 79.34551 252.2181 78.22217 252.2181 76.83646Z" fill="#156082"/>
<path transform="matrix(.00007874016,0,0,.00007874016,247.2,84.65449)" stroke-width="6350" stroke-linecap="butt" stroke-linejoin="round" fill="none" stroke="#156082" d="M63730 31865C63730 49463.55 49463.55 63730 31865 63730 14266.45 63730 0 49463.55 0 31865 0 14266.45 14266.45 0 31865 0 49463.55 0 63730 14266.45 63730 31865Z"/>
<path transform="matrix(1,0,0,-1,0,164)" d="M256.5817 77.27284C256.5817 75.88712 255.4584 74.76378 254.0727 74.76378 252.687 74.76378 251.5636 75.88712 251.5636 77.27284 251.5636 78.65855 252.687 79.78189 254.0727 79.78189 255.4584 79.78189 256.5817 78.65855 256.5817 77.27284Z" fill="#156082"/>
<path transform="matrix(.00007874016,0,0,.00007874016,251.5636,84.21811)" stroke-width="6350" stroke-linecap="butt" stroke-linejoin="round" fill="none" stroke="#156082" d="M63730 31865C63730 49463.55 49463.55 63730 31865 63730 14266.45 63730 0 49463.55 0 31865 0 14266.45 14266.45 0 31865 0 49463.55 0 63730 14266.45 63730 31865Z"/>
<path transform="matrix(1,0,0,-1,0,164)" d="M260.7272 92.10913C260.7272 90.72342 259.6038 89.60008 258.2181 89.60008 256.8324 89.60008 255.7091 90.72342 255.7091 92.10913 255.7091 93.49485 256.8324 94.61819 258.2181 94.61819 259.6038 94.61819 260.7272 93.49485 260.7272 92.10913Z" fill="#156082"/>
<path transform="matrix(.00007874016,0,0,.00007874016,255.7091,69.38181)" stroke-width="6350" stroke-linecap="butt" stroke-linejoin="round" fill="none" stroke="#156082" d="M63730 31865C63730 49463.55 49463.55 63730 31865 63730 14266.45 63730 0 49463.55 0 31865 0 14266.45 14266.45 0 31865 0 49463.55 0 63730 14266.45 63730 31865Z"/>
<path transform="matrix(1,0,0,-1,0,164)" d="M265.0908 86.43646C265.0908 85.05075 263.9674 83.9274 262.5817 83.9274 261.196 83.9274 260.0727 85.05075 260.0727 86.43646 260.0727 87.82217 261.196 88.94551 262.5817 88.94551 263.9674 88.94551 265.0908 87.82217 265.0908 86.43646Z" fill="#156082"/>
<path transform="matrix(.00007874016,0,0,.00007874016,260.0727,75.05449)" stroke-width="6350" stroke-linecap="butt" stroke-linejoin="round" fill="none" stroke="#156082" d="M63730 31865C63730 49463.55 49463.55 63730 31865 63730 14266.45 63730 0 49463.55 0 31865 0 14266.45 14266.45 0 31865 0 49463.55 0 63730 14266.45 63730 31865Z"/>
<path transform="matrix(1,0,0,-1,0,164)" d="M269.4544 87.09094C269.4544 85.70523 268.3311 84.58189 266.9454 84.58189 265.5597 84.58189 264.4363 85.70523 264.4363 87.09094 264.4363 88.47666 265.5597 89.6 266.9454 89.6 268.3311 89.6 269.4544 88.47666 269.4544 87.09094Z" fill="#156082"/>
<path transform="matrix(.00007874016,0,0,.00007874016,264.4363,74.4)" stroke-width="6350" stroke-linecap="butt" stroke-linejoin="round" fill="none" stroke="#156082" d="M63730 31865C63730 49463.55 49463.55 63730 31865 63730 14266.45 63730 0 49463.55 0 31865 0 14266.45 14266.45 0 31865 0 49463.55 0 63730 14266.45 63730 31865Z"/>
<path transform="matrix(1,0,0,-1,0,164)" d="M273.8181 80.98189C273.8181 79.59617 272.6948 78.47283 271.3091 78.47283 269.9233 78.47283 268.8 79.59617 268.8 80.98189 268.8 82.3676 269.9233 83.49094 271.3091 83.49094 272.6948 83.49094 273.8181 82.3676 273.8181 80.98189Z" fill="#156082"/>
<path transform="matrix(.00007874016,0,0,.00007874016,268.8,80.50906)" stroke-width="6350" stroke-linecap="butt" stroke-linejoin="round" fill="none" stroke="#156082" d="M63730 31865C63730 49463.55 49463.55 63730 31865 63730 14266.45 63730 0 49463.55 0 31865 0 14266.45 14266.45 0 31865 0 49463.55 0 63730 14266.45 63730 31865Z"/>
<path transform="matrix(1,0,0,-1,0,164)" d="M278.1817 91.23646C278.1817 89.85075 277.0584 88.7274 275.6727 88.7274 274.287 88.7274 273.1636 89.85075 273.1636 91.23646 273.1636 92.62217 274.287 93.74551 275.6727 93.74551 277.0584 93.74551 278.1817 92.62217 278.1817 91.23646Z" fill="#156082"/>
<path transform="matrix(.00007874016,0,0,.00007874016,273.1636,70.25449)" stroke-width="6350" stroke-linecap="butt" stroke-linejoin="round" fill="none" stroke="#156082" d="M63730 31865C63730 49463.55 49463.55 63730 31865 63730 14266.45 63730 0 49463.55 0 31865 0 14266.45 14266.45 0 31865 0 49463.55 0 63730 14266.45 63730 31865Z"/>
<path transform="matrix(1,0,0,-1,0,164)" d="M282.3272 89.05465C282.3272 87.66893 281.2038 86.54559 279.8181 86.54559 278.4324 86.54559 277.3091 87.66893 277.3091 89.05465 277.3091 90.44036 278.4324 91.5637 279.8181 91.5637 281.2038 91.5637 282.3272 90.44036 282.3272 89.05465Z" fill="#156082"/>
<path transform="matrix(.00007874016,0,0,.00007874016,277.3091,72.4363)" stroke-width="6350" stroke-linecap="butt" stroke-linejoin="round" fill="none" stroke="#156082" d="M63730 31865C63730 49463.55 49463.55 63730 31865 63730 14266.45 63730 0 49463.55 0 31865 0 14266.45 14266.45 0 31865 0 49463.55 0 63730 14266.45 63730 31865Z"/>
<path transform="matrix(1,0,0,-1,0,164)" d="M286.6908 92.32732C286.6908 90.94161 285.5674 89.81827 284.1817 89.81827 282.796 89.81827 281.6727 90.94161 281.6727 92.32732 281.6727 93.71303 282.796 94.83638 284.1817 94.83638 285.5674 94.83638 286.6908 93.71303 286.6908 92.32732Z" fill="#156082"/>
<path transform="matrix(.00007874016,0,0,.00007874016,281.6727,69.16362)" stroke-width="6350" stroke-linecap="butt" stroke-linejoin="round" fill="none" stroke="#156082" d="M63730 31865C63730 49463.55 49463.55 63730 31865 63730 14266.45 63730 0 49463.55 0 31865 0 14266.45 14266.45 0 31865 0 49463.55 0 63730 14266.45 63730 31865Z"/>
<path transform="matrix(1,0,0,-1,0,164)" d="M291.0544 87.9637C291.0544 86.57799 289.9311 85.45464 288.5454 85.45464 287.1597 85.45464 286.0363 86.57799 286.0363 87.9637 286.0363 89.34941 287.1597 90.47275 288.5454 90.47275 289.9311 90.47275 291.0544 89.34941 291.0544 87.9637Z" fill="#156082"/>
<path transform="matrix(.00007874016,0,0,.00007874016,286.0363,73.52725)" stroke-width="6350" stroke-linecap="butt" stroke-linejoin="round" fill="none" stroke="#156082" d="M63730 31865C63730 49463.55 49463.55 63730 31865 63730 14266.45 63730 0 49463.55 0 31865 0 14266.45 14266.45 0 31865 0 49463.55 0 63730 14266.45 63730 31865Z"/>
<path transform="matrix(1,0,0,-1,0,164)" d="M295.4181 103.0183C295.4181 101.6326 294.2948 100.5092 292.9091 100.5092 291.5233 100.5092 290.4 101.6326 290.4 103.0183 290.4 104.404 291.5233 105.5273 292.9091 105.5273 294.2948 105.5273 295.4181 104.404 295.4181 103.0183Z" fill="#156082"/>
<path transform="matrix(.00007874016,0,0,.00007874016,290.4,58.472703)" stroke-width="6350" stroke-linecap="butt" stroke-linejoin="round" fill="none" stroke="#156082" d="M63730 31865C63730 49463.55 49463.55 63730 31865 63730 14266.45 63730 0 49463.55 0 31865 0 14266.45 14266.45 0 31865 0 49463.55 0 63730 14266.45 63730 31865Z"/>
<path transform="matrix(1,0,0,-1,0,164)" d="M299.7817 92.7637C299.7817 91.37799 298.6584 90.25464 297.2727 90.25464 295.887 90.25464 294.7636 91.37799 294.7636 92.7637 294.7636 94.14941 295.887 95.27275 297.2727 95.27275 298.6584 95.27275 299.7817 94.14941 299.7817 92.7637Z" fill="#156082"/>
<path transform="matrix(.00007874016,0,0,.00007874016,294.7636,68.72725)" stroke-width="6350" stroke-linecap="butt" stroke-linejoin="round" fill="none" stroke="#156082" d="M63730 31865C63730 49463.55 49463.55 63730 31865 63730 14266.45 63730 0 49463.55 0 31865 0 14266.45 14266.45 0 31865 0 49463.55 0 63730 14266.45 63730 31865Z"/>
<path transform="matrix(1,0,0,-1,0,164)" d="M303.9272 103.4546C303.9272 102.0689 302.8038 100.9456 301.4181 100.9456 300.0324 100.9456 298.9091 102.0689 298.9091 103.4546 298.9091 104.8404 300.0324 105.9637 301.4181 105.9637 302.8038 105.9637 303.9272 104.8404 303.9272 103.4546Z" fill="#156082"/>
<path transform="matrix(.00007874016,0,0,.00007874016,298.9091,58.0363)" stroke-width="6350" stroke-linecap="butt" stroke-linejoin="round" fill="none" stroke="#156082" d="M63730 31865C63730 49463.55 49463.55 63730 31865 63730 14266.45 63730 0 49463.55 0 31865 0 14266.45 14266.45 0 31865 0 49463.55 0 63730 14266.45 63730 31865Z"/>
<path transform="matrix(1,0,0,-1,0,164)" d="M308.2908 94.50913C308.2908 93.12342 307.1674 92.00008 305.7817 92.00008 304.396 92.00008 303.2727 93.12342 303.2727 94.50913 303.2727 95.89485 304.396 97.01819 305.7817 97.01819 307.1674 97.01819 308.2908 95.89485 308.2908 94.50913Z" fill="#156082"/>
<path transform="matrix(.00007874016,0,0,.00007874016,303.2727,66.98181)" stroke-width="6350" stroke-linecap="butt" stroke-linejoin="round" fill="none" stroke="#156082" d="M63730 31865C63730 49463.55 49463.55 63730 31865 63730 14266.45 63730 0 49463.55 0 31865 0 14266.45 14266.45 0 31865 0 49463.55 0 63730 14266.45 63730 31865Z"/>
<path transform="matrix(1,0,0,-1,0,164)" d="M312.6544 106.5091C312.6544 105.1234 311.5311 104.0001 310.1454 104.0001 308.7597 104.0001 307.6363 105.1234 307.6363 106.5091 307.6363 107.8948 308.7597 109.0182 310.1454 109.0182 311.5311 109.0182 312.6544 107.8948 312.6544 106.5091Z" fill="#156082"/>
<path transform="matrix(.00007874016,0,0,.00007874016,307.6363,54.981798)" stroke-width="6350" stroke-linecap="butt" stroke-linejoin="round" fill="none" stroke="#156082" d="M63730 31865C63730 49463.55 49463.55 63730 31865 63730 14266.45 63730 0 49463.55 0 31865 0 14266.45 14266.45 0 31865 0 49463.55 0 63730 14266.45 63730 31865Z"/>
<path transform="matrix(1,0,0,-1,0,164)" d="M317.0181 103.0183C317.0181 101.6326 315.8948 100.5092 314.5091 100.5092 313.1233 100.5092 312 101.6326 312 103.0183 312 104.404 313.1233 105.5273 314.5091 105.5273 315.8948 105.5273 317.0181 104.404 317.0181 103.0183Z" fill="#156082"/>
<path transform="matrix(.00007874016,0,0,.00007874016,312,58.472703)" stroke-width="6350" stroke-linecap="butt" stroke-linejoin="round" fill="none" stroke="#156082" d="M63730 31865C63730 49463.55 49463.55 63730 31865 63730 14266.45 63730 0 49463.55 0 31865 0 14266.45 14266.45 0 31865 0 49463.55 0 63730 14266.45 63730 31865Z"/>
<path transform="matrix(1,0,0,-1,0,164)" d="M321.1635 115.0183C321.1635 113.6326 320.0402 112.5092 318.6545 112.5092 317.2688 112.5092 316.1454 113.6326 316.1454 115.0183 316.1454 116.404 317.2688 117.5273 318.6545 117.5273 320.0402 117.5273 321.1635 116.404 321.1635 115.0183Z" fill="#156082"/>
<path transform="matrix(.00007874016,0,0,.00007874016,316.1454,46.472703)" stroke-width="6350" stroke-linecap="butt" stroke-linejoin="round" fill="none" stroke="#156082" d="M63730 31865C63730 49463.55 49463.55 63730 31865 63730 14266.45 63730 0 49463.55 0 31865 0 14266.45 14266.45 0 31865 0 49463.55 0 63730 14266.45 63730 31865Z"/>
<path transform="matrix(1,0,0,-1,0,164)" d="M325.5272 106.2909C325.5272 104.9052 324.4038 103.7819 323.0181 103.7819 321.6324 103.7819 320.5091 104.9052 320.5091 106.2909 320.5091 107.6767 321.6324 108.8 323.0181 108.8 324.4038 108.8 325.5272 107.6767 325.5272 106.2909Z" fill="#156082"/>
<path transform="matrix(.00007874016,0,0,.00007874016,320.5091,55.199998)" stroke-width="6350" stroke-linecap="butt" stroke-linejoin="round" fill="none" stroke="#156082" d="M63730 31865C63730 49463.55 49463.55 63730 31865 63730 14266.45 63730 0 49463.55 0 31865 0 14266.45 14266.45 0 31865 0 49463.55 0 63730 14266.45 63730 31865Z"/>
<path transform="matrix(1,0,0,-1,0,164)" d="M329.8908 117.8546C329.8908 116.4689 328.7674 115.3456 327.3817 115.3456 325.996 115.3456 324.8727 116.4689 324.8727 117.8546 324.8727 119.2404 325.996 120.3637 327.3817 120.3637 328.7674 120.3637 329.8908 119.2404 329.8908 117.8546Z" fill="#156082"/>
<path transform="matrix(.00007874016,0,0,.00007874016,324.8727,43.6363)" stroke-width="6350" stroke-linecap="butt" stroke-linejoin="round" fill="none" stroke="#156082" d="M63730 31865C63730 49463.55 49463.55 63730 31865 63730 14266.45 63730 0 49463.55 0 31865 0 14266.45 14266.45 0 31865 0 49463.55 0 63730 14266.45 63730 31865Z"/>
<path transform="matrix(1,0,0,-1,0,164)" d="M334.2544 101.2728C334.2544 99.88712 333.1311 98.76378 331.7454 98.76378 330.3597 98.76378 329.2363 99.88712 329.2363 101.2728 329.2363 102.6585 330.3597 103.7819 331.7454 103.7819 333.1311 103.7819 334.2544 102.6585 334.2544 101.2728Z" fill="#156082"/>
<path transform="matrix(.00007874016,0,0,.00007874016,329.2363,60.2181)" stroke-width="6350" stroke-linecap="butt" stroke-linejoin="round" fill="none" stroke="#156082" d="M63730 31865C63730 49463.55 49463.55 63730 31865 63730 14266.45 63730 0 49463.55 0 31865 0 14266.45 14266.45 0 31865 0 49463.55 0 63730 14266.45 63730 31865Z"/>
<path transform="matrix(1,0,0,-1,0,164)" d="M338.6181 110.2183C338.6181 108.8326 337.4948 107.7092 336.1091 107.7092 334.7233 107.7092 333.6 108.8326 333.6 110.2183 333.6 111.604 334.7233 112.7273 336.1091 112.7273 337.4948 112.7273 338.6181 111.604 338.6181 110.2183Z" fill="#156082"/>
<path transform="matrix(.00007874016,0,0,.00007874016,333.6,51.272699)" stroke-width="6350" stroke-linecap="butt" stroke-linejoin="round" fill="none" stroke="#156082" d="M63730 31865C63730 49463.55 49463.55 63730 31865 63730 14266.45 63730 0 49463.55 0 31865 0 14266.45 14266.45 0 31865 0 49463.55 0 63730 14266.45 63730 31865Z"/>
<path transform="matrix(1,0,0,-1,0,164)" d="M342.7635 103.4546C342.7635 102.0689 341.6402 100.9456 340.2545 100.9456 338.8688 100.9456 337.7454 102.0689 337.7454 103.4546 337.7454 104.8404 338.8688 105.9637 340.2545 105.9637 341.6402 105.9637 342.7635 104.8404 342.7635 103.4546Z" fill="#156082"/>
<path transform="matrix(.00007874016,0,0,.00007874016,337.7454,58.0363)" stroke-width="6350" stroke-linecap="butt" stroke-linejoin="round" fill="none" stroke="#156082" d="M63730 31865C63730 49463.55 49463.55 63730 31865 63730 14266.45 63730 0 49463.55 0 31865 0 14266.45 14266.45 0 31865 0 49463.55 0 63730 14266.45 63730 31865Z"/>
<path transform="matrix(1,0,0,-1,0,164)" d="M347.1272 96.69094C347.1272 95.30523 346.0038 94.18189 344.6181 94.18189 343.2324 94.18189 342.1091 95.30523 342.1091 96.69094 342.1091 98.07666 343.2324 99.2 344.6181 99.2 346.0038 99.2 347.1272 98.07666 347.1272 96.69094Z" fill="#156082"/>
<path transform="matrix(.00007874016,0,0,.00007874016,342.1091,64.8)" stroke-width="6350" stroke-linecap="butt" stroke-linejoin="round" fill="none" stroke="#156082" d="M63730 31865C63730 49463.55 49463.55 63730 31865 63730 14266.45 63730 0 49463.55 0 31865 0 14266.45 14266.45 0 31865 0 49463.55 0 63730 14266.45 63730 31865Z"/>
<path transform="matrix(1,0,0,-1,0,164)" d="M351.4908 87.52732C351.4908 86.14161 350.3674 85.01827 348.9817 85.01827 347.596 85.01827 346.4727 86.14161 346.4727 87.52732 346.4727 88.91303 347.596 90.03638 348.9817 90.03638 350.3674 90.03638 351.4908 88.91303 351.4908 87.52732Z" fill="#156082"/>
<path transform="matrix(.00007874016,0,0,.00007874016,346.4727,73.96362)" stroke-width="6350" stroke-linecap="butt" stroke-linejoin="round" fill="none" stroke="#156082" d="M63730 31865C63730 49463.55 49463.55 63730 31865 63730 14266.45 63730 0 49463.55 0 31865 0 14266.45 14266.45 0 31865 0 49463.55 0 63730 14266.45 63730 31865Z"/>
<path transform="matrix(1,0,0,-1,0,164)" d="M355.8544 116.3273C355.8544 114.9416 354.7311 113.8183 353.3454 113.8183 351.9597 113.8183 350.8363 114.9416 350.8363 116.3273 350.8363 117.713 351.9597 118.8364 353.3454 118.8364 354.7311 118.8364 355.8544 117.713 355.8544 116.3273Z" fill="#156082"/>
<path transform="matrix(.00007874016,0,0,.00007874016,350.8363,45.163599)" stroke-width="6350" stroke-linecap="butt" stroke-linejoin="round" fill="none" stroke="#156082" d="M63730 31865C63730 49463.55 49463.55 63730 31865 63730 14266.45 63730 0 49463.55 0 31865 0 14266.45 14266.45 0 31865 0 49463.55 0 63730 14266.45 63730 31865Z"/>
<path transform="matrix(1,0,0,-1,0,164)" d="M360.2181 101.2728C360.2181 99.88712 359.0948 98.76378 357.7091 98.76378 356.3233 98.76378 355.2 99.88712 355.2 101.2728 355.2 102.6585 356.3233 103.7819 357.7091 103.7819 359.0948 103.7819 360.2181 102.6585 360.2181 101.2728Z" fill="#156082"/>
<path transform="matrix(.00007874016,0,0,.00007874016,355.2,60.2181)" stroke-width="6350" stroke-linecap="butt" stroke-linejoin="round" fill="none" stroke="#156082" d="M63730 31865C63730 49463.55 49463.55 63730 31865 63730 14266.45 63730 0 49463.55 0 31865 0 14266.45 14266.45 0 31865 0 49463.55 0 63730 14266.45 63730 31865Z"/>
<path transform="matrix(1,0,0,-1,0,164)" d="M364.3635 117.4183C364.3635 116.0326 363.2402 114.9092 361.8545 114.9092 360.4688 114.9092 359.3454 116.0326 359.3454 117.4183 359.3454 118.804 360.4688 119.9273 361.8545 119.9273 363.2402 119.9273 364.3635 118.804 364.3635 117.4183Z" fill="#156082"/>
<path transform="matrix(.00007874016,0,0,.00007874016,359.3454,44.0727)" stroke-width="6350" stroke-linecap="butt" stroke-linejoin="round" fill="none" stroke="#156082" d="M63730 31865C63730 49463.55 49463.55 63730 31865 63730 14266.45 63730 0 49463.55 0 31865 0 14266.45 14266.45 0 31865 0 49463.55 0 63730 14266.45 63730 31865Z"/>
<path transform="matrix(1,0,0,-1,0,164)" d="M368.7272 89.05465C368.7272 87.66893 367.6038 86.54559 366.2181 86.54559 364.8324 86.54559 363.7091 87.66893 363.7091 89.05465 363.7091 90.44036 364.8324 91.5637 366.2181 91.5637 367.6038 91.5637 368.7272 90.44036 368.7272 89.05465Z" fill="#156082"/>
<path transform="matrix(.00007874016,0,0,.00007874016,363.7091,72.4363)" stroke-width="6350" stroke-linecap="butt" stroke-linejoin="round" fill="none" stroke="#156082" d="M63730 31865C63730 49463.55 49463.55 63730 31865 63730 14266.45 63730 0 49463.55 0 31865 0 14266.45 14266.45 0 31865 0 49463.55 0 63730 14266.45 63730 31865Z"/>
<path transform="matrix(1,0,0,-1,0,164)" d="M373.0908 90.14551C373.0908 88.7598 371.9674 87.63646 370.5817 87.63646 369.196 87.63646 368.0727 88.7598 368.0727 90.14551 368.0727 91.53122 369.196 92.65457 370.5817 92.65457 371.9674 92.65457 373.0908 91.53122 373.0908 90.14551Z" fill="#156082"/>
<path transform="matrix(.00007874016,0,0,.00007874016,368.0727,71.34543)" stroke-width="6350" stroke-linecap="butt" stroke-linejoin="round" fill="none" stroke="#156082" d="M63730 31865C63730 49463.55 49463.55 63730 31865 63730 14266.45 63730 0 49463.55 0 31865 0 14266.45 14266.45 0 31865 0 49463.55 0 63730 14266.45 63730 31865Z"/>
<path transform="matrix(1,0,0,-1,0,164)" d="M377.4544 83.81827C377.4544 82.43256 376.3311 81.30922 374.9454 81.30922 373.5597 81.30922 372.4363 82.43256 372.4363 83.81827 372.4363 85.20398 373.5597 86.32733 374.9454 86.32733 376.3311 86.32733 377.4544 85.20398 377.4544 83.81827Z" fill="#156082"/>
<path transform="matrix(.00007874016,0,0,.00007874016,372.4363,77.67267)" stroke-width="6350" stroke-linecap="butt" stroke-linejoin="round" fill="none" stroke="#156082" d="M63730 31865C63730 49463.55 49463.55 63730 31865 63730 14266.45 63730 0 49463.55 0 31865 0 14266.45 14266.45 0 31865 0 49463.55 0 63730 14266.45 63730 31865Z"/>
<path transform="matrix(1,0,0,-1,0,164)" d="M381.8181 120.0365C381.8181 118.6507 380.6948 117.5274 379.3091 117.5274 377.9233 117.5274 376.8 118.6507 376.8 120.0365 376.8 121.4222 377.9233 122.5455 379.3091 122.5455 380.6948 122.5455 381.8181 121.4222 381.8181 120.0365Z" fill="#156082"/>
<path transform="matrix(.00007874016,0,0,.00007874016,376.8,41.4545)" stroke-width="6350" stroke-linecap="butt" stroke-linejoin="round" fill="none" stroke="#156082" d="M63730 31865C63730 49463.55 49463.55 63730 31865 63730 14266.45 63730 0 49463.55 0 31865 0 14266.45 14266.45 0 31865 0 49463.55 0 63730 14266.45 63730 31865Z"/>
<path transform="matrix(1,0,0,-1,0,164)" d="M385.9635 104.3273C385.9635 102.9416 384.8402 101.8183 383.4545 101.8183 382.0688 101.8183 380.9454 102.9416 380.9454 104.3273 380.9454 105.713 382.0688 106.8364 383.4545 106.8364 384.8402 106.8364 385.9635 105.713 385.9635 104.3273Z" fill="#156082"/>
<path transform="matrix(.00007874016,0,0,.00007874016,380.9454,57.163599)" stroke-width="6350" stroke-linecap="butt" stroke-linejoin="round" fill="none" stroke="#156082" d="M63730 31865C63730 49463.55 49463.55 63730 31865 63730 14266.45 63730 0 49463.55 0 31865 0 14266.45 14266.45 0 31865 0 49463.55 0 63730 14266.45 63730 31865Z"/>
<path transform="matrix(1,0,0,-1,0,164)" d="M390.3272 112.4001C390.3272 111.0144 389.2038 109.891 387.8181 109.891 386.4324 109.891 385.3091 111.0144 385.3091 112.4001 385.3091 113.7858 386.4324 114.9091 387.8181 114.9091 389.2038 114.9091 390.3272 113.7858 390.3272 112.4001Z" fill="#156082"/>
<path transform="matrix(.00007874016,0,0,.00007874016,385.3091,49.090898)" stroke-width="6350" stroke-linecap="butt" stroke-linejoin="round" fill="none" stroke="#156082" d="M63730 31865C63730 49463.55 49463.55 63730 31865 63730 14266.45 63730 0 49463.55 0 31865 0 14266.45 14266.45 0 31865 0 49463.55 0 63730 14266.45 63730 31865Z"/>
<path transform="matrix(1,0,0,-1,0,164)" d="M394.6908 103.6728C394.6908 102.2871 393.5674 101.1638 392.1817 101.1638 390.796 101.1638 389.6727 102.2871 389.6727 103.6728 389.6727 105.0585 390.796 106.1819 392.1817 106.1819 393.5674 106.1819 394.6908 105.0585 394.6908 103.6728Z" fill="#156082"/>
<path transform="matrix(.00007874016,0,0,.00007874016,389.6727,57.8181)" stroke-width="6350" stroke-linecap="butt" stroke-linejoin="round" fill="none" stroke="#156082" d="M63730 31865C63730 49463.55 49463.55 63730 31865 63730 14266.45 63730 0 49463.55 0 31865 0 14266.45 14266.45 0 31865 0 49463.55 0 63730 14266.45 63730 31865Z"/>
<path transform="matrix(1,0,0,-1,0,164)" d="M399.0544 118.0728C399.0544 116.6871 397.9311 115.5638 396.5454 115.5638 395.1597 115.5638 394.0363 116.6871 394.0363 118.0728 394.0363 119.4585 395.1597 120.5819 396.5454 120.5819 397.9311 120.5819 399.0544 119.4585 399.0544 118.0728Z" fill="#156082"/>
<path transform="matrix(.00007874016,0,0,.00007874016,394.0363,43.4181)" stroke-width="6350" stroke-linecap="butt" stroke-linejoin="round" fill="none" stroke="#156082" d="M63730 31865C63730 49463.55 49463.55 63730 31865 63730 14266.45 63730 0 49463.55 0 31865 0 14266.45 14266.45 0 31865 0 49463.55 0 63730 14266.45 63730 31865Z"/>
<path transform="matrix(1,0,0,-1,0,164)" d="M403.1999 110.2183C403.1999 108.8326 402.0766 107.7092 400.6909 107.7092 399.3052 107.7092 398.1818 108.8326 398.1818 110.2183 398.1818 111.604 399.3052 112.7273 400.6909 112.7273 402.0766 112.7273 403.1999 111.604 403.1999 110.2183Z" fill="#156082"/>
<path transform="matrix(.00007874016,0,0,.00007874016,398.1818,51.272699)" stroke-width="6350" stroke-linecap="butt" stroke-linejoin="round" fill="none" stroke="#156082" d="M63730 31865C63730 49463.55 49463.55 63730 31865 63730 14266.45 63730 0 49463.55 0 31865 0 14266.45 14266.45 0 31865 0 49463.55 0 63730 14266.45 63730 31865Z"/>
<path transform="matrix(1,0,0,-1,0,164)" d="M407.5635 117.2001C407.5635 115.8144 406.4402 114.691 405.0545 114.691 403.6688 114.691 402.5454 115.8144 402.5454 117.2001 402.5454 118.5858 403.6688 119.7091 405.0545 119.7091 406.4402 119.7091 407.5635 118.5858 407.5635 117.2001Z" fill="#156082"/>
<path transform="matrix(.00007874016,0,0,.00007874016,402.5454,44.2909)" stroke-width="6350" stroke-linecap="butt" stroke-linejoin="round" fill="none" stroke="#156082" d="M63730 31865C63730 49463.55 49463.55 63730 31865 63730 14266.45 63730 0 49463.55 0 31865 0 14266.45 14266.45 0 31865 0 49463.55 0 63730 14266.45 63730 31865Z"/>
<path transform="matrix(1,0,0,-1,0,164)" d="M411.9272 105.4183C411.9272 104.0326 410.8038 102.9092 409.4181 102.9092 408.0324 102.9092 406.9091 104.0326 406.9091 105.4183 406.9091 106.804 408.0324 107.9273 409.4181 107.9273 410.8038 107.9273 411.9272 106.804 411.9272 105.4183Z" fill="#156082"/>
<path transform="matrix(.00007874016,0,0,.00007874016,406.9091,56.0727)" stroke-width="6350" stroke-linecap="butt" stroke-linejoin="round" fill="none" stroke="#156082" d="M63730 31865C63730 49463.55 49463.55 63730 31865 63730 14266.45 63730 0 49463.55 0 31865 0 14266.45 14266.45 0 31865 0 49463.55 0 63730 14266.45 63730 31865Z"/>
</g>
<g clip-path="url(#clip_7)">
<path transform="matrix(1,0,0,-1,0,164)" d="M27.70898 71.38189C27.70898 69.99617 26.58563 68.87283 25.19992 68.87283 23.81421 68.87283 22.69087 69.99617 22.69087 71.38189 22.69087 72.7676 23.81421 73.89094 25.19992 73.89094 26.58563 73.89094 27.70898 72.7676 27.70898 71.38189Z" fill="#ea4a46"/>
<path transform="matrix(.00007874016,0,0,.00007874016,22.69087,90.10906)" stroke-width="6350" stroke-linecap="butt" stroke-linejoin="round" fill="none" stroke="#ea4a46" d="M63730 31865C63730 49463.55 49463.55 63730 31865 63730 14266.45 63730 0 49463.55 0 31865 0 14266.45 14266.45 0 31865 0 49463.55 0 63730 14266.45 63730 31865Z"/>
<path transform="matrix(1,0,0,-1,0,164)" d="M36.21811 71.38189C36.21811 69.99617 35.09477 68.87283 33.70906 68.87283 32.32334 68.87283 31.2 69.99617 31.2 71.38189 31.2 72.7676 32.32334 73.89094 33.70906 73.89094 35.09477 73.89094 36.21811 72.7676 36.21811 71.38189Z" fill="#ea4a46"/>
<path transform="matrix(.00007874016,0,0,.00007874016,31.2,90.10906)" stroke-width="6350" stroke-linecap="butt" stroke-linejoin="round" fill="none" stroke="#ea4a46" d="M63730 31865C63730 49463.55 49463.55 63730 31865 63730 14266.45 63730 0 49463.55 0 31865 0 14266.45 14266.45 0 31865 0 49463.55 0 63730 14266.45 63730 31865Z"/>
<path transform="matrix(1,0,0,-1,0,164)" d="M44.94535 69.63646C44.94535 68.25075 43.82201 67.1274 42.4363 67.1274 41.05059 67.1274 39.92724 68.25075 39.92724 69.63646 39.92724 71.02217 41.05059 72.14551 42.4363 72.14551 43.82201 72.14551 44.94535 71.02217 44.94535 69.63646Z" fill="#ea4a46"/>
<path transform="matrix(.00007874016,0,0,.00007874016,39.92724,91.85449)" stroke-width="6350" stroke-linecap="butt" stroke-linejoin="round" fill="none" stroke="#ea4a46" d="M63730 31865C63730 49463.55 49463.55 63730 31865 63730 14266.45 63730 0 49463.55 0 31865 0 14266.45 14266.45 0 31865 0 49463.55 0 63730 14266.45 63730 31865Z"/>
<path transform="matrix(1,0,0,-1,0,164)" d="M49.30898 67.23646C49.30898 65.85075 48.18563 64.7274 46.79992 64.7274 45.41421 64.7274 44.29087 65.85075 44.29087 67.23646 44.29087 68.62217 45.41421 69.74551 46.79992 69.74551 48.18563 69.74551 49.30898 68.62217 49.30898 67.23646Z" fill="#ea4a46"/>
<path transform="matrix(.00007874016,0,0,.00007874016,44.29087,94.25449)" stroke-width="6350" stroke-linecap="butt" stroke-linejoin="round" fill="none" stroke="#ea4a46" d="M63730 31865C63730 49463.55 49463.55 63730 31865 63730 14266.45 63730 0 49463.55 0 31865 0 14266.45 14266.45 0 31865 0 49463.55 0 63730 14266.45 63730 31865Z"/>
<path transform="matrix(1,0,0,-1,0,164)" d="M70.90898 65.05465C70.90898 63.66893 69.78564 62.54559 68.39992 62.54559 67.01421 62.54559 65.89087 63.66893 65.89087 65.05465 65.89087 66.44036 67.01421 67.5637 68.39992 67.5637 69.78564 67.5637 70.90898 66.44036 70.90898 65.05465Z" fill="#ea4a46"/>
<path transform="matrix(.00007874016,0,0,.00007874016,65.89087,96.4363)" stroke-width="6350" stroke-linecap="butt" stroke-linejoin="round" fill="none" stroke="#ea4a46" d="M63730 31865C63730 49463.55 49463.55 63730 31865 63730 14266.45 63730 0 49463.55 0 31865 0 14266.45 14266.45 0 31865 0 49463.55 0 63730 14266.45 63730 31865Z"/>
<path transform="matrix(1,0,0,-1,0,164)" d="M114.109 70.72732C114.109 69.34161 112.9856 68.21827 111.5999 68.21827 110.2142 68.21827 109.0909 69.34161 109.0909 70.72732 109.0909 72.11303 110.2142 73.23638 111.5999 73.23638 112.9856 73.23638 114.109 72.11303 114.109 70.72732Z" fill="#ea4a46"/>
<path transform="matrix(.00007874016,0,0,.00007874016,109.0909,90.76362)" stroke-width="6350" stroke-linecap="butt" stroke-linejoin="round" fill="none" stroke="#ea4a46" d="M63730 31865C63730 49463.55 49463.55 63730 31865 63730 14266.45 63730 0 49463.55 0 31865 0 14266.45 14266.45 0 31865 0 49463.55 0 63730 14266.45 63730 31865Z"/>
<path transform="matrix(1,0,0,-1,0,164)" d="M122.6181 72.90913C122.6181 71.52342 121.4948 70.40008 120.1091 70.40008 118.7233 70.40008 117.6 71.52342 117.6 72.90913 117.6 74.29485 118.7233 75.41819 120.1091 75.41819 121.4948 75.41819 122.6181 74.29485 122.6181 72.90913Z" fill="#ea4a46"/>
<path transform="matrix(.00007874016,0,0,.00007874016,117.6,88.58181)" stroke-width="6350" stroke-linecap="butt" stroke-linejoin="round" fill="none" stroke="#ea4a46" d="M63730 31865C63730 49463.55 49463.55 63730 31865 63730 14266.45 63730 0 49463.55 0 31865 0 14266.45 14266.45 0 31865 0 49463.55 0 63730 14266.45 63730 31865Z"/>
<path transform="matrix(1,0,0,-1,0,164)" d="M139.8544 84.47284C139.8544 83.08712 138.7311 81.96378 137.3454 81.96378 135.9596 81.96378 134.8363 83.08712 134.8363 84.47284 134.8363 85.85855 135.9596 86.98189 137.3454 86.98189 138.7311 86.98189 139.8544 85.85855 139.8544 84.47284Z" fill="#ea4a46"/>
<path transform="matrix(.00007874016,0,0,.00007874016,134.8363,77.01811)" stroke-width="6350" stroke-linecap="butt" stroke-linejoin="round" fill="none" stroke="#ea4a46" d="M63730 31865C63730 49463.55 49463.55 63730 31865 63730 14266.45 63730 0 49463.55 0 31865 0 14266.45 14266.45 0 31865 0 49463.55 0 63730 14266.45 63730 31865Z"/>
<path transform="matrix(1,0,0,-1,0,164)" d="M157.0908 86.21827C157.0908 84.83256 155.9674 83.70922 154.5817 83.70922 153.196 83.70922 152.0727 84.83256 152.0727 86.21827 152.0727 87.60398 153.196 88.72733 154.5817 88.72733 155.9674 88.72733 157.0908 87.60398 157.0908 86.21827Z" fill="#ea4a46"/>
<path transform="matrix(.00007874016,0,0,.00007874016,152.0727,75.27267)" stroke-width="6350" stroke-linecap="butt" stroke-linejoin="round" fill="none" stroke="#ea4a46" d="M63730 31865C63730 49463.55 49463.55 63730 31865 63730 14266.45 63730 0 49463.55 0 31865 0 14266.45 14266.45 0 31865 0 49463.55 0 63730 14266.45 63730 31865Z"/>
<path transform="matrix(1,0,0,-1,0,164)" d="M165.8181 87.74551C165.8181 86.3598 164.6948 85.23646 163.3091 85.23646 161.9233 85.23646 160.8 86.3598 160.8 87.74551 160.8 89.13122 161.9233 90.25457 163.3091 90.25457 164.6948 90.25457 165.8181 89.13122 165.8181 87.74551Z" fill="#ea4a46"/>
<path transform="matrix(.00007874016,0,0,.00007874016,160.8,73.74543)" stroke-width="6350" stroke-linecap="butt" stroke-linejoin="round" fill="none" stroke="#ea4a46" d="M63730 31865C63730 49463.55 49463.55 63730 31865 63730 14266.45 63730 0 49463.55 0 31865 0 14266.45 14266.45 0 31865 0 49463.55 0 63730 14266.45 63730 31865Z"/>
<path transform="matrix(1,0,0,-1,0,164)" d="M170.1817 110.6546C170.1817 109.2689 169.0584 108.1456 167.6727 108.1456 166.287 108.1456 165.1636 109.2689 165.1636 110.6546 165.1636 112.0404 166.287 113.1637 167.6727 113.1637 169.0584 113.1637 170.1817 112.0404 170.1817 110.6546Z" fill="#ea4a46"/>
<path transform="matrix(.00007874016,0,0,.00007874016,165.1636,50.836305)" stroke-width="6350" stroke-linecap="butt" stroke-linejoin="round" fill="none" stroke="#ea4a46" d="M63730 31865C63730 49463.55 49463.55 63730 31865 63730 14266.45 63730 0 49463.55 0 31865 0 14266.45 14266.45 0 31865 0 49463.55 0 63730 14266.45 63730 31865Z"/>
<path transform="matrix(1,0,0,-1,0,164)" d="M174.5454 80.7637C174.5454 79.37799 173.422 78.25464 172.0363 78.25464 170.6506 78.25464 169.5272 79.37799 169.5272 80.7637 169.5272 82.14941 170.6506 83.27275 172.0363 83.27275 173.422 83.27275 174.5454 82.14941 174.5454 80.7637Z" fill="#ea4a46"/>
<path transform="matrix(.00007874016,0,0,.00007874016,169.5272,80.72725)" stroke-width="6350" stroke-linecap="butt" stroke-linejoin="round" fill="none" stroke="#ea4a46" d="M63730 31865C63730 49463.55 49463.55 63730 31865 63730 14266.45 63730 0 49463.55 0 31865 0 14266.45 14266.45 0 31865 0 49463.55 0 63730 14266.45 63730 31865Z"/>
<path transform="matrix(1,0,0,-1,0,164)" d="M217.7454 80.98189C217.7454 79.59617 216.622 78.47283 215.2363 78.47283 213.8506 78.47283 212.7272 79.59617 212.7272 80.98189 212.7272 82.3676 213.8506 83.49094 215.2363 83.49094 216.622 83.49094 217.7454 82.3676 217.7454 80.98189Z" fill="#ea4a46"/>
<path transform="matrix(.00007874016,0,0,.00007874016,212.7272,80.50906)" stroke-width="6350" stroke-linecap="butt" stroke-linejoin="round" fill="none" stroke="#ea4a46" d="M63730 31865C63730 49463.55 49463.55 63730 31865 63730 14266.45 63730 0 49463.55 0 31865 0 14266.45 14266.45 0 31865 0 49463.55 0 63730 14266.45 63730 31865Z"/>
<path transform="matrix(1,0,0,-1,0,164)" d="M221.8908 85.34551C221.8908 83.9598 220.7674 82.83646 219.3817 82.83646 217.996 82.83646 216.8727 83.9598 216.8727 85.34551 216.8727 86.73122 217.996 87.85457 219.3817 87.85457 220.7674 87.85457 221.8908 86.73122 221.8908 85.34551Z" fill="#ea4a46"/>
<path transform="matrix(.00007874016,0,0,.00007874016,216.8727,76.14543)" stroke-width="6350" stroke-linecap="butt" stroke-linejoin="round" fill="none" stroke="#ea4a46" d="M63730 31865C63730 49463.55 49463.55 63730 31865 63730 14266.45 63730 0 49463.55 0 31865 0 14266.45 14266.45 0 31865 0 49463.55 0 63730 14266.45 63730 31865Z"/>
<path transform="matrix(1,0,0,-1,0,164)" d="M226.2544 92.32732C226.2544 90.94161 225.1311 89.81827 223.7454 89.81827 222.3596 89.81827 221.2363 90.94161 221.2363 92.32732 221.2363 93.71303 222.3596 94.83638 223.7454 94.83638 225.1311 94.83638 226.2544 93.71303 226.2544 92.32732Z" fill="#ea4a46"/>
<path transform="matrix(.00007874016,0,0,.00007874016,221.2363,69.16362)" stroke-width="6350" stroke-linecap="butt" stroke-linejoin="round" fill="none" stroke="#ea4a46" d="M63730 31865C63730 49463.55 49463.55 63730 31865 63730 14266.45 63730 0 49463.55 0 31865 0 14266.45 14266.45 0 31865 0 49463.55 0 63730 14266.45 63730 31865Z"/>
<path transform="matrix(1,0,0,-1,0,164)" d="M260.7272 92.10913C260.7272 90.72342 259.6038 89.60008 258.2181 89.60008 256.8324 89.60008 255.7091 90.72342 255.7091 92.10913 255.7091 93.49485 256.8324 94.61819 258.2181 94.61819 259.6038 94.61819 260.7272 93.49485 260.7272 92.10913Z" fill="#ea4a46"/>
<path transform="matrix(.00007874016,0,0,.00007874016,255.7091,69.38181)" stroke-width="6350" stroke-linecap="butt" stroke-linejoin="round" fill="none" stroke="#ea4a46" d="M63730 31865C63730 49463.55 49463.55 63730 31865 63730 14266.45 63730 0 49463.55 0 31865 0 14266.45 14266.45 0 31865 0 49463.55 0 63730 14266.45 63730 31865Z"/>
<path transform="matrix(1,0,0,-1,0,164)" d="M286.6908 92.32732C286.6908 90.94161 285.5674 89.81827 284.1817 89.81827 282.796 89.81827 281.6727 90.94161 281.6727 92.32732 281.6727 93.71303 282.796 94.83638 284.1817 94.83638 285.5674 94.83638 286.6908 93.71303 286.6908 92.32732Z" fill="#ea4a46"/>
<path transform="matrix(.00007874016,0,0,.00007874016,281.6727,69.16362)" stroke-width="6350" stroke-linecap="butt" stroke-linejoin="round" fill="none" stroke="#ea4a46" d="M63730 31865C63730 49463.55 49463.55 63730 31865 63730 14266.45 63730 0 49463.55 0 31865 0 14266.45 14266.45 0 31865 0 49463.55 0 63730 14266.45 63730 31865Z"/>
<path transform="matrix(1,0,0,-1,0,164)" d="M295.4181 103.0183C295.4181 101.6326 294.2948 100.5092 292.9091 100.5092 291.5233 100.5092 290.4 101.6326 290.4 103.0183 290.4 104.404 291.5233 105.5273 292.9091 105.5273 294.2948 105.5273 295.4181 104.404 295.4181 103.0183Z" fill="#ea4a46"/>
<path transform="matrix(.00007874016,0,0,.00007874016,290.4,58.472703)" stroke-width="6350" stroke-linecap="butt" stroke-linejoin="round" fill="none" stroke="#ea4a46" d="M63730 31865C63730 49463.55 49463.55 63730 31865 63730 14266.45 63730 0 49463.55 0 31865 0 14266.45 14266.45 0 31865 0 49463.55 0 63730 14266.45 63730 31865Z"/>
<path transform="matrix(1,0,0,-1,0,164)" d="M303.9272 103.4546C303.9272 102.0689 302.8038 100.9456 301.4181 100.9456 300.0324 100.9456 298.9091 102.0689 298.9091 103.4546 298.9091 104.8404 300.0324 105.9637 301.4181 105.9637 302.8038 105.9637 303.9272 104.8404 303.9272 103.4546Z" fill="#ea4a46"/>
<path transform="matrix(.00007874016,0,0,.00007874016,298.9091,58.0363)" stroke-width="6350" stroke-linecap="butt" stroke-linejoin="round" fill="none" stroke="#ea4a46" d="M63730 31865C63730 49463.55 49463.55 63730 31865 63730 14266.45 63730 0 49463.55 0 31865 0 14266.45 14266.45 0 31865 0 49463.55 0 63730 14266.45 63730 31865Z"/>
<path transform="matrix(1,0,0,-1,0,164)" d="M312.6544 106.5091C312.6544 105.1234 311.5311 104.0001 310.1454 104.0001 308.7597 104.0001 307.6363 105.1234 307.6363 106.5091 307.6363 107.8948 308.7597 109.0182 310.1454 109.0182 311.5311 109.0182 312.6544 107.8948 312.6544 106.5091Z" fill="#ea4a46"/>
<path transform="matrix(.00007874016,0,0,.00007874016,307.6363,54.981798)" stroke-width="6350" stroke-linecap="butt" stroke-linejoin="round" fill="none" stroke="#ea4a46" d="M63730 31865C63730 49463.55 49463.55 63730 31865 63730 14266.45 63730 0 49463.55 0 31865 0 14266.45 14266.45 0 31865 0 49463.55 0 63730 14266.45 63730 31865Z"/>
<path transform="matrix(1,0,0,-1,0,164)" d="M321.1635 115.0183C321.1635 113.6326 320.0402 112.5092 318.6545 112.5092 317.2688 112.5092 316.1454 113.6326 316.1454 115.0183 316.1454 116.404 317.2688 117.5273 318.6545 117.5273 320.0402 117.5273 321.1635 116.404 321.1635 115.0183Z" fill="#ea4a46"/>
<path transform="matrix(.00007874016,0,0,.00007874016,316.1454,46.472703)" stroke-width="6350" stroke-linecap="butt" stroke-linejoin="round" fill="none" stroke="#ea4a46" d="M63730 31865C63730 49463.55 49463.55 63730 31865 63730 14266.45 63730 0 49463.55 0 31865 0 14266.45 14266.45 0 31865 0 49463.55 0 63730 14266.45 63730 31865Z"/>
<path transform="matrix(1,0,0,-1,0,164)" d="M329.8908 117.8546C329.8908 116.4689 328.7674 115.3456 327.3817 115.3456 325.996 115.3456 324.8727 116.4689 324.8727 117.8546 324.8727 119.2404 325.996 120.3637 327.3817 120.3637 328.7674 120.3637 329.8908 119.2404 329.8908 117.8546Z" fill="#ea4a46"/>
<path transform="matrix(.00007874016,0,0,.00007874016,324.8727,43.6363)" stroke-width="6350" stroke-linecap="butt" stroke-linejoin="round" fill="none" stroke="#ea4a46" d="M63730 31865C63730 49463.55 49463.55 63730 31865 63730 14266.45 63730 0 49463.55 0 31865 0 14266.45 14266.45 0 31865 0 49463.55 0 63730 14266.45 63730 31865Z"/>
<path transform="matrix(1,0,0,-1,0,164)" d="M364.3635 117.4183C364.3635 116.0326 363.2402 114.9092 361.8545 114.9092 360.4688 114.9092 359.3454 116.0326 359.3454 117.4183 359.3454 118.804 360.4688 119.9273 361.8545 119.9273 363.2402 119.9273 364.3635 118.804 364.3635 117.4183Z" fill="#ea4a46"/>
<path transform="matrix(.00007874016,0,0,.00007874016,359.3454,44.0727)" stroke-width="6350" stroke-linecap="butt" stroke-linejoin="round" fill="none" stroke="#ea4a46" d="M63730 31865C63730 49463.55 49463.55 63730 31865 63730 14266.45 63730 0 49463.55 0 31865 0 14266.45 14266.45 0 31865 0 49463.55 0 63730 14266.45 63730 31865Z"/>
<path transform="matrix(1,0,0,-1,0,164)" d="M381.8181 120.0365C381.8181 118.6507 380.6948 117.5274 379.3091 117.5274 377.9233 117.5274 376.8 118.6507 376.8 120.0365 376.8 121.4222 377.9233 122.5455 379.3091 122.5455 380.6948 122.5455 381.8181 121.4222 381.8181 120.0365Z" fill="#ea4a46"/>
<path transform="matrix(.00007874016,0,0,.00007874016,376.8,41.4545)" stroke-width="6350" stroke-linecap="butt" stroke-linejoin="round" fill="none" stroke="#ea4a46" d="M63730 31865C63730 49463.55 49463.55 63730 31865 63730 14266.45 63730 0 49463.55 0 31865 0 14266.45 14266.45 0 31865 0 49463.55 0 63730 14266.45 63730 31865Z"/>
</g>
<g clip-path="url(#clip_8)">
<text fill="#595959" xml:space="preserve" transform="matrix(.2181818 0 -0 .2181818 11.38 305.8909)" font-size="41" font-family="YuMincho"><tspan y="-751" x="0">0</tspan></text>
</g>
<g clip-path="url(#clip_9)">
<text fill="#595959" xml:space="preserve" transform="matrix(.2181818 0 -0 .2181818 11.38 265.9636)" font-size="41" font-family="YuMincho"><tspan y="-751" x="0">5</tspan></text>
</g>
<g clip-path="url(#clip_10)">
<text fill="#595959" xml:space="preserve" transform="matrix(.2181818 0 -0 .2181818 6.499999 226.25455)" font-size="41" font-family="YuMincho"><tspan y="-751" x="0 22.000603">10</tspan></text>
</g>
<g clip-path="url(#clip_11)">
<text fill="#595959" xml:space="preserve" transform="matrix(.2181818 0 -0 .2181818 6.499999 186.54546)" font-size="41" font-family="YuMincho"><tspan y="-751" x="0 22.000603">15</tspan></text>
</g>
<g clip-path="url(#clip_12)">
<text fill="#595959" xml:space="preserve" transform="matrix(.2181818 0 -0 .2181818 22.59496 318.1091)" font-size="41" font-family="YuMincho"><tspan y="-751" x="0">0</tspan></text>
</g>
<g clip-path="url(#clip_13)">
<text fill="#595959" xml:space="preserve" transform="matrix(.2181818 0 -0 .2181818 63.33307 318.1091)" font-size="41" font-family="YuMincho"><tspan y="-751" x="0 22.000603">10</tspan></text>
</g>
<g clip-path="url(#clip_14)">
<text fill="#595959" xml:space="preserve" transform="matrix(.2181818 0 -0 .2181818 106.5112 318.1091)" font-size="41" font-family="YuMincho"><tspan y="-751" x="0 22.000603">20</tspan></text>
</g>
<g clip-path="url(#clip_15)">
<text fill="#595959" xml:space="preserve" transform="matrix(.2181818 0 -0 .2181818 149.6892 318.1091)" font-size="41" font-family="YuMincho"><tspan y="-751" x="0 22.000603">30</tspan></text>
</g>
<g clip-path="url(#clip_16)">
<text fill="#595959" xml:space="preserve" transform="matrix(.2181818 0 -0 .2181818 192.8673 318.1091)" font-size="41" font-family="YuMincho"><tspan y="-751" x="0 22.000603">40</tspan></text>
</g>
<g clip-path="url(#clip_17)">
<text fill="#595959" xml:space="preserve" transform="matrix(.2181818 0 -0 .2181818 236.0454 318.1091)" font-size="41" font-family="YuMincho"><tspan y="-751" x="0 22.000603">50</tspan></text>
</g>
<g clip-path="url(#clip_18)">
<text fill="#595959" xml:space="preserve" transform="matrix(.2181818 0 -0 .2181818 279.2235 318.1091)" font-size="41" font-family="YuMincho"><tspan y="-751" x="0 22.000603">60</tspan></text>
</g>
<g clip-path="url(#clip_19)">
<text fill="#595959" xml:space="preserve" transform="matrix(.2181818 0 -0 .2181818 322.4016 318.1091)" font-size="41" font-family="YuMincho"><tspan y="-751" x="0 22.000603">70</tspan></text>
</g>
<g clip-path="url(#clip_20)">
<text fill="#595959" xml:space="preserve" transform="matrix(.2181818 0 -0 .2181818 365.5797 318.1091)" font-size="41" font-family="YuMincho"><tspan y="-751" x="0 22.000603">80</tspan></text>
</g>
<g clip-path="url(#clip_21)">
<text fill="#595959" xml:space="preserve" transform="matrix(.22035283 0 -0 .21603216 67.52748 178.25455)" font-size="47.52708" font-family="YuMincho"><tspan y="-759.19577" x="0 46.562288 73.02062 97.05506 111.679149 140.32372 166.21173 178.60204 225.16434 248.96114 272.4728 287.09687 328.57374 356.4579 397.93476 410.32508 440.01524 454.6393 468.36039 485.78858 510.10823 529.53256 541.9228 573.324 597.12088 625.1475 638.8686 662.66549 685.6543 700.2784 724.0752 752.71987 765.1101 800.3134 824.1103 843.5346 858.1587 881.9555 910.60018 933.589 957.9086 970.2989 997.80288 1021.9324 1034.3226 1064.0128 1083.4373 1107.234 1148.7109">Moving Maximum Filter Laplacian Variance by Frame</tspan></text>
<text fill="#595959" xml:space="preserve" transform="matrix(.22035283 0 -0 .21603216 67.52748 178.25455)" font-size="47.52708" font-family="YuMincho"><tspan y="-759.19577" x="0 46.562288 73.02062 97.05506 111.679149 140.32372 166.21173 178.60204 225.16434 248.96114 272.4728 287.09687 328.57374 356.4579 397.93476 410.32508 440.01524 454.6393 468.36039 485.78858 510.10823 529.53256 541.9228 573.324 597.12088 625.1475 638.8686 662.66549 685.6543 700.2784 724.0752 752.71987 765.1101 800.3134 824.1103 843.5346 858.1587 881.9555 910.60018 933.589 957.9086 970.2989 997.80288 1021.9324 1034.3226 1064.0128 1083.4373 1107.234 1148.7109">Moving Maximum Filter Laplacian Variance by Frame</tspan></text>
</g>
</svg>
