<?xml version="1.0" encoding="UTF-8" standalone="no"?>
<svg width="297mm" height="210mm" viewBox="0 0 297 210" version="1.1" id="svg5" xmlns="http://www.w3.org/2000/svg" xmlns:svg="http://www.w3.org/2000/svg">
<g id="checkers">
<rect width="26" height="26" x="5.5" y="1"></rect>
<rect width="26" height="26" x="57.5" y="1"></rect>
<rect width="26" height="26" x="109.5" y="1"></rect>
<rect width="26" height="26" x="161.5" y="1"></rect>
<rect width="26" height="26" x="213.5" y="1"></rect>
<rect width="26" height="26" x="265.5" y="1"></rect>
<rect width="26" height="26" x="31.5" y="27"></rect>
<rect width="26" height="26" x="83.5" y="27"></rect>
<rect width="26" height="26" x="135.5" y="27"></rect>
<rect width="26" height="26" x="187.5" y="27"></rect>
<rect width="26" height="26" x="239.5" y="27"></rect>
<rect width="26" height="26" x="5.5" y="53"></rect>
<rect width="26" height="26" x="57.5" y="53"></rect>
<rect width="26" height="26" x="109.5" y="53"></rect>
<rect width="26" height="26" x="161.5" y="53"></rect>
<rect width="26" height="26" x="213.5" y="53"></rect>
<rect width="26" height="26" x="265.5" y="53"></rect>
<rect width="26" height="26" x="31.5" y="79"></rect>
<rect width="26" height="26" x="83.5" y="79"></rect>
<rect width="26" height="26" x="135.5" y="79"></rect>
<rect width="26" height="26" x="187.5" y="79"></rect>
<rect width="26" height="26" x="239.5" y="79"></rect>
<rect width="26" height="26" x="5.5" y="105"></rect>
<rect width="26" height="26" x="57.5" y="105"></rect>
<rect width="26" height="26" x="109.5" y="105"></rect>
<rect width="26" height="26" x="161.5" y="105"></rect>
<rect width="26" height="26" x="213.5" y="105"></rect>
<rect width="26" height="26" x="265.5" y="105"></rect>
<rect width="26" height="26" x="31.5" y="131"></rect>
<rect width="26" height="26" x="83.5" y="131"></rect>
<rect width="26" height="26" x="135.5" y="131"></rect>
<rect width="26" height="26" x="187.5" y="131"></rect>
<rect width="26" height="26" x="239.5" y="131"></rect>
<rect width="26" height="26" x="5.5" y="157"></rect>
<rect width="26" height="26" x="57.5" y="157"></rect>
<rect width="26" height="26" x="109.5" y="157"></rect>
<rect width="26" height="26" x="161.5" y="157"></rect>
<rect width="26" height="26" x="213.5" y="157"></rect>
<rect width="26" height="26" x="265.5" y="157"></rect>
<rect width="26" height="26" x="31.5" y="183"></rect>
<rect width="26" height="26" x="83.5" y="183"></rect>
<rect width="26" height="26" x="135.5" y="183"></rect>
<rect width="26" height="26" x="187.5" y="183"></rect>
<rect width="26" height="26" x="239.5" y="183"></rect>

</g>
</svg>
