<svg xmlns="http://www.w3.org/2000/svg" xmlns:xlink="http://www.w3.org/1999/xlink" xmlns:inkscape="http://www.inkscape.org/namespaces/inkscape" version="1.1" width="426" height="163" viewBox="0 0 426 163">
<defs>
<clipPath id="clip_0">
<path transform="matrix(1,0,0,-1,0,163)" d="M0 .01818141H425.8909V162.99999H0Z"/>
</clipPath>
<clipPath id="clip_1">
<path transform="matrix(1,0,0,-1,0,163)" d="M0 .8909087H425.0182V163.00002H0Z"/>
</clipPath>
<clipPath id="clip_2">
<path transform="matrix(1,0,0,-1,0,163)" d="M0 .8909087H425.0182V163.00002H0Z"/>
</clipPath>
<clipPath id="clip_3">
<path transform="matrix(1,0,0,-1,0,163)" d="M0 .8909087H425.0182V163.00002H0Z"/>
</clipPath>
<clipPath id="clip_4">
<path transform="matrix(1,0,0,-1,0,163)" d="M0 .8909087H425.0182V163.00002H0Z"/>
</clipPath>
<clipPath id="clip_5">
<path transform="matrix(1,0,0,-1,0,163)" d="M24.87273 24.23636H409.96366V137.69086H24.87273Z"/>
</clipPath>
<clipPath id="clip_6">
<path transform="matrix(1,0,0,-1,0,163)" d="M0 .8909087H425.0182V163.00002H0Z"/>
</clipPath>
<clipPath id="clip_7">
<path transform="matrix(1,0,0,-1,0,163)" d="M0 .8909087H425.0182V163.00002H0Z"/>
</clipPath>
<clipPath id="clip_8">
<path transform="matrix(1,0,0,-1,0,163)" d="M0 .8909087H425.0182V163.00002H0Z"/>
</clipPath>
<clipPath id="clip_9">
<path transform="matrix(1,0,0,-1,0,163)" d="M0 .8909087H425.0182V163.00002H0Z"/>
</clipPath>
<clipPath id="clip_10">
<path transform="matrix(1,0,0,-1,0,163)" d="M0 .8909087H425.0182V163.00002H0Z"/>
</clipPath>
<clipPath id="clip_11">
<path transform="matrix(1,0,0,-1,0,163)" d="M0 .8909087H425.0182V163.00002H0Z"/>
</clipPath>
<clipPath id="clip_12">
<path transform="matrix(1,0,0,-1,0,163)" d="M0 .8909087H425.0182V163.00002H0Z"/>
</clipPath>
<clipPath id="clip_13">
<path transform="matrix(1,0,0,-1,0,163)" d="M0 .8909087H425.0182V163.00002H0Z"/>
</clipPath>
<clipPath id="clip_14">
<path transform="matrix(1,0,0,-1,0,163)" d="M0 .8909087H425.0182V163.00002H0Z"/>
</clipPath>
<clipPath id="clip_15">
<path transform="matrix(1,0,0,-1,0,163)" d="M0 .8909087H425.0182V163.00002H0Z"/>
</clipPath>
<clipPath id="clip_16">
<path transform="matrix(1,0,0,-1,0,163)" d="M0 .8909087H425.0182V163.00002H0Z"/>
</clipPath>
<clipPath id="clip_17">
<path transform="matrix(1,0,0,-1,0,163)" d="M0 .8909087H425.0182V163.00002H0Z"/>
</clipPath>
<clipPath id="clip_18">
<path transform="matrix(1,0,0,-1,0,163)" d="M0 .8909087H425.0182V163.00002H0Z"/>
</clipPath>
<clipPath id="clip_19">
<path transform="matrix(1,0,0,-1,0,163)" d="M0 .8909087H425.0182V163.00002H0Z"/>
</clipPath>
<clipPath id="clip_20">
<path transform="matrix(1,0,0,-1,0,163)" d="M0 .8909087H425.0182V163.00002H0Z"/>
</clipPath>
<clipPath id="clip_21">
<path transform="matrix(1,0,0,-1,0,163)" d="M0 .8909087H425.0182V163.00002H0Z"/>
</clipPath>
</defs>
<g clip-path="url(#clip_0)">
<path transform="matrix(1,0,0,-1,0,163)" d="M0 163H425.8909V.01818141H0Z" fill="#ffffff"/>
</g>
<g clip-path="url(#clip_1)">
<path transform="matrix(.00007874016,0,0,.00007874016,24.98181,25.418198)" stroke-width="9525" stroke-linecap="butt" stroke-linejoin="round" fill="none" stroke="#d9d9d9" d="M0 956006H4882342M0 476623H4882342M0 0H4882342"/>
</g>
<g clip-path="url(#clip_2)">
<path transform="matrix(.00007874016,0,0,.00007874016,24.98181,25.418198)" stroke-width="9525" stroke-linecap="butt" stroke-linejoin="round" fill="none" stroke="#d9d9d9" d="M548669 0V1432560M1097327 0V1432560M1645985 0V1432560M2194643 0V1432560M2743301 0V1432560M3291959 0V1432560M3837846 0V1432560M4386349 0V1432560"/>
</g>
<g clip-path="url(#clip_3)">
<path transform="matrix(.00007874016,0,0,-.00007874016,24.98181,138.2182)" stroke-width="9525" stroke-linecap="butt" stroke-linejoin="round" fill="none" stroke="#bfbfbf" d="M0 0 1 1432560"/>
</g>
<g clip-path="url(#clip_4)">
<path transform="matrix(.00007874016,0,0,.00007874016,24.98181,138.2182)" stroke-width="9525" stroke-linecap="butt" stroke-linejoin="round" fill="none" stroke="#bfbfbf" d="M0 0 4882342 1"/>
</g>
<g clip-path="url(#clip_5)">
<path transform="matrix(.00007874016,0,0,.00007874016,25.09095,44.727205)" stroke-width="6350" stroke-linecap="round" stroke-linejoin="round" fill="none" stroke="#156082" d="M0 623723.6C18274.82 652672.2 36550.63 710297.4 54826.45 710569.3 73101.27 710840.2 91377.09 626217.4 109652.9 625349.8 127927.7 624481.2 146204.5 701870.3 164480.3 705358.7 182755.2 708846.1 201031 651353.7 219306.8 646277.1 237581.6 641199.5 255857.4 662727.5 274133.2 674893.9 292408.1 687059.2 310683.9 697202.5 328959.7 719272.2 347234.5 741341 365510.3 796561.4 383786.2 807308.4 402061 818054.4 420336.8 788428.2 438612.6 783749.3 456887.4 779069.5 475164.2 792976.1 493440 779230.4 511714.9 765483.8 529990.7 699945.2 548266.5 701270.6 566541.3 702596 584817.1 769731.8 603092.9 787182.8 621367.7 804632.6 639643.6 785161.7 657919.4 805974 676194.2 826785.4 694470 893078.6 712745.8 912052.8 731020.7 931026 749297.5 917334.4 767573.3 919814.2 785848.1 922294.1 804123.9 929139.9 822399.8 926931.9 840674.6 924722.9 858950.4 917425.3 877226.2 906561.4 895501 895696.4 913776.8 870625 932052.6 861743.1 950327.4 852860.2 968603.2 865805.2 986879.1 853266.1 1005154 840726.9 1023430 823509.9 1041706 786508.1 1059980 749505.2 1078257 646977.8 1096533 631254.1 1114808 615530.4 1133084 696143 1151360 692165.8 1169634 688187.7 1187910 611891.1 1206186 607389.2 1224461 602886.2 1242736 656078.6 1261012 665153.4 1279287 674227.1 1297563 665873.1 1315839 661833.9 1330263 658645.4 1356240 666460.8 1370665 640917.6 1388940 608556.6 1407217 479125.7 1425493 467668 1443767 456209.3 1462043 551697 1480319 572170.5 1498594 592643 1516870 601395.9 1535146 590505 1553420 579614.1 1571696 531015.6 1589972 506824.8 1608247 482633.1 1626523 451789.4 1644798 445357.3 1663073 438924.3 1681350 471085.4 1699626 468227.8 1710788 466481.6 1743289 460255.4 1754452 428211.3 1772727 375744.7 1791003 139655.2 1809279 153430.8 1827554 167205.4 1845830 428965 1864105 510860 1879865 581483.2 1903170 618367.1 1918932 644798.8 1937206 675447.6 1955482 681890.6 1973758 694753.6 1992033 707615.7 2010310 718331.7 2028586 721975 2046860 725617.3 2065136 714007.7 2083412 716612.5 2101687 719216.2 2119963 746340.7 2138238 737598.8 2156513 728855.8 2174789 673881.3 2193065 664158.8 2211340 654436.3 2229615 693317.3 2247892 679263.8 2266166 665209.3 2284443 596512.2 2302719 579833.9 2320994 563154.7 2339270 591053.8 2357545 579190.2 2375820 567325.8 2394096 528901.6 2412372 508651 2430646 488400.4 2448922 480349.1 2467198 457686.6 2485473 435023.2 2503749 361467.3 2522025 372673.1 2540300 383877.9 2558575 522541.5 2576851 524919.4 2595126 527296.3 2613403 390183.9 2631678 386939.5 2649954 383695 2668229 488619.3 2686505 505452.5 2704780 522284.7 2723056 473505.3 2741331 487933.6 2759606 502360.9 2777882 580161.8 2796158 592020.3 2814433 603877.8 2832708 565624.6 2850984 559081.6 2865100 554026.9 2891695 576466.5 2905812 552762.5 2924087 522072.8 2942362 393030.6 2960638 374946 2978913 356860.4 2997189 434239.5 3015465 444251.9 3033740 454263.2 3052015 424373.1 3070291 435015.2 3088566 445656.2 3106842 516307.4 3125117 508103.2 3143392 499898 3161668 401772.6 3179944 385788 3198219 369802.4 3216496 414503.7 3234771 412192.8 3253046 409880.8 3271322 369860.4 3289598 371919.4 3307873 373977.5 3326148 445816.1 3344424 424543 3362699 403268.9 3380975 253797.2 3399251 244278.7 3417526 234759.1 3435801 368152.2 3454077 367428.5 3472352 366703.8 3490629 243293.1 3508905 239932.7 3527180 236571.2 3545456 353598.9 3563731 347260.9 3582006 340921.8 3600282 219209.3 3618558 201899.3 3636832 184588.3 3655108 260244.2 3673384 243400.1 3691659 226555.9 3709935 106989.4 3728210 100834.2 3746485 94678.07 3764761 212345.5 3783037 206467.2 3801312 200587.9 3819589 55608.2 3837864 65562.58 3856139 75515.96 3874415 250972.5 3892691 266191.5 3910966 281410.4 3929241 161515.1 3947517 156876.2 3965792 152236.4 3984068 211149 4002344 238353.4 4020619 265556.8 4038894 288140.3 4057170 320101.5 4075445 352062.7 4093721 469371.2 4111997 430120.4 4130271 390868.6 4148548 111950.1 4166824 84591.75 4185099 57233.45 4203375 268165.6 4221650 265970.6 4239925 263774.6 4258201 47127.13 4276477 71418.86 4294752 95709.59 4313027 357027.3 4331303 411716 4340201 438341.6 4377231 394478 4386130 399546.6 4399667 407257 4427419 518445.4 4440957 474172 4459232 414404.7 4477508 81891 4495784 40946 4514058 0 4532334 213190.1 4550610 228497 4568885 243803.9 4587161 131612.9 4605437 132787.4 4623711 133960.8 4641987 247085.3 4660263 235542.7 4678538 223999.1 4696814 76340.58 4715089 63528.52 4733364 50715.47 4751641 157022.1 4769917 158668.4 4788192 160313.6 4806467 63899.35 4824743 73403.94 4843018 82907.53 4861294 168262.9 4879570 215692.9"/>
</g>
<g clip-path="url(#clip_6)">
<path transform="matrix(1,0,0,-1,0,163)" d="M27.70898 69.07284C27.70898 67.68712 26.58563 66.56378 25.19992 66.56378 23.81421 66.56378 22.69087 67.68712 22.69087 69.07284 22.69087 70.45855 23.81421 71.58189 25.19992 71.58189 26.58563 71.58189 27.70898 70.45855 27.70898 69.07284Z" fill="#156082"/>
<path transform="matrix(.00007874016,0,0,.00007874016,22.69087,91.41811)" stroke-width="6350" stroke-linecap="butt" stroke-linejoin="round" fill="none" stroke="#156082" d="M63730 31865C63730 49463.55 49463.55 63730 31865 63730 14266.45 63730 0 49463.55 0 31865 0 14266.45 14266.45 0 31865 0 49463.55 0 63730 14266.45 63730 31865Z"/>
<path transform="matrix(1,0,0,-1,0,163)" d="M32.0726 62.30913C32.0726 60.92342 30.94926 59.80008 29.56354 59.80008 28.17783 59.80008 27.05449 60.92342 27.05449 62.30913 27.05449 63.69485 28.17783 64.81819 29.56354 64.81819 30.94926 64.81819 32.0726 63.69485 32.0726 62.30913Z" fill="#156082"/>
<path transform="matrix(.00007874016,0,0,.00007874016,27.05449,98.18181)" stroke-width="6350" stroke-linecap="butt" stroke-linejoin="round" fill="none" stroke="#156082" d="M63730 31865C63730 49463.55 49463.55 63730 31865 63730 14266.45 63730 0 49463.55 0 31865 0 14266.45 14266.45 0 31865 0 49463.55 0 63730 14266.45 63730 31865Z"/>
<path transform="matrix(1,0,0,-1,0,163)" d="M36.21811 68.85465C36.21811 67.46893 35.09477 66.34559 33.70906 66.34559 32.32334 66.34559 31.2 67.46893 31.2 68.85465 31.2 70.24036 32.32334 71.3637 33.70906 71.3637 35.09477 71.3637 36.21811 70.24036 36.21811 68.85465Z" fill="#156082"/>
<path transform="matrix(.00007874016,0,0,.00007874016,31.2,91.6363)" stroke-width="6350" stroke-linecap="butt" stroke-linejoin="round" fill="none" stroke="#156082" d="M63730 31865C63730 49463.55 49463.55 63730 31865 63730 14266.45 63730 0 49463.55 0 31865 0 14266.45 14266.45 0 31865 0 49463.55 0 63730 14266.45 63730 31865Z"/>
<path transform="matrix(1,0,0,-1,0,163)" d="M40.58173 62.74551C40.58173 61.3598 39.45839 60.23645 38.07268 60.23645 36.68697 60.23645 35.56362 61.3598 35.56362 62.74551 35.56362 64.13122 36.68697 65.25457 38.07268 65.25457 39.45839 65.25457 40.58173 64.13122 40.58173 62.74551Z" fill="#156082"/>
<path transform="matrix(.00007874016,0,0,.00007874016,35.56362,97.74543)" stroke-width="6350" stroke-linecap="butt" stroke-linejoin="round" fill="none" stroke="#156082" d="M63730 31865C63730 49463.55 49463.55 63730 31865 63730 14266.45 63730 0 49463.55 0 31865 0 14266.45 14266.45 0 31865 0 49463.55 0 63730 14266.45 63730 31865Z"/>
<path transform="matrix(1,0,0,-1,0,163)" d="M44.94535 67.32732C44.94535 65.94161 43.82201 64.81827 42.4363 64.81827 41.05059 64.81827 39.92724 65.94161 39.92724 67.32732 39.92724 68.71303 41.05059 69.83638 42.4363 69.83638 43.82201 69.83638 44.94535 68.71303 44.94535 67.32732Z" fill="#156082"/>
<path transform="matrix(.00007874016,0,0,.00007874016,39.92724,93.16362)" stroke-width="6350" stroke-linecap="butt" stroke-linejoin="round" fill="none" stroke="#156082" d="M63730 31865C63730 49463.55 49463.55 63730 31865 63730 14266.45 63730 0 49463.55 0 31865 0 14266.45 14266.45 0 31865 0 49463.55 0 63730 14266.45 63730 31865Z"/>
<path transform="matrix(1,0,0,-1,0,163)" d="M49.30898 65.14551C49.30898 63.7598 48.18563 62.63645 46.79992 62.63645 45.41421 62.63645 44.29087 63.7598 44.29087 65.14551 44.29087 66.53122 45.41421 67.65457 46.79992 67.65457 48.18563 67.65457 49.30898 66.53122 49.30898 65.14551Z" fill="#156082"/>
<path transform="matrix(.00007874016,0,0,.00007874016,44.29087,95.34543)" stroke-width="6350" stroke-linecap="butt" stroke-linejoin="round" fill="none" stroke="#156082" d="M63730 31865C63730 49463.55 49463.55 63730 31865 63730 14266.45 63730 0 49463.55 0 31865 0 14266.45 14266.45 0 31865 0 49463.55 0 63730 14266.45 63730 31865Z"/>
<path transform="matrix(1,0,0,-1,0,163)" d="M53.45441 61.65465C53.45441 60.26893 52.33107 59.14559 50.94536 59.14559 49.55964 59.14559 48.4363 60.26893 48.4363 61.65465 48.4363 63.04036 49.55964 64.1637 50.94536 64.1637 52.33107 64.1637 53.45441 63.04036 53.45441 61.65465Z" fill="#156082"/>
<path transform="matrix(.00007874016,0,0,.00007874016,48.4363,98.8363)" stroke-width="6350" stroke-linecap="butt" stroke-linejoin="round" fill="none" stroke="#156082" d="M63730 31865C63730 49463.55 49463.55 63730 31865 63730 14266.45 63730 0 49463.55 0 31865 0 14266.45 14266.45 0 31865 0 49463.55 0 63730 14266.45 63730 31865Z"/>
<path transform="matrix(1,0,0,-1,0,163)" d="M57.81811 54.67284C57.81811 53.28712 56.69477 52.16378 55.30906 52.16378 53.92334 52.16378 52.8 53.28712 52.8 54.67284 52.8 56.05855 53.92334 57.18189 55.30906 57.18189 56.69477 57.18189 57.81811 56.05855 57.81811 54.67284Z" fill="#156082"/>
<path transform="matrix(.00007874016,0,0,.00007874016,52.8,105.818119)" stroke-width="6350" stroke-linecap="butt" stroke-linejoin="round" fill="none" stroke="#156082" d="M63730 31865C63730 49463.55 49463.55 63730 31865 63730 14266.45 63730 0 49463.55 0 31865 0 14266.45 14266.45 0 31865 0 49463.55 0 63730 14266.45 63730 31865Z"/>
<path transform="matrix(1,0,0,-1,0,163)" d="M62.18173 56.41827C62.18173 55.03256 61.05839 53.90922 59.67268 53.90922 58.28697 53.90922 57.16362 55.03256 57.16362 56.41827 57.16362 57.80398 58.28697 58.92733 59.67268 58.92733 61.05839 58.92733 62.18173 57.80398 62.18173 56.41827Z" fill="#156082"/>
<path transform="matrix(.00007874016,0,0,.00007874016,57.16362,104.07267)" stroke-width="6350" stroke-linecap="butt" stroke-linejoin="round" fill="none" stroke="#156082" d="M63730 31865C63730 49463.55 49463.55 63730 31865 63730 14266.45 63730 0 49463.55 0 31865 0 14266.45 14266.45 0 31865 0 49463.55 0 63730 14266.45 63730 31865Z"/>
<path transform="matrix(1,0,0,-1,0,163)" d="M66.54536 56.85465C66.54536 55.46893 65.42201 54.34559 64.0363 54.34559 62.65059 54.34559 61.52725 55.46893 61.52725 56.85465 61.52725 58.24036 62.65059 59.3637 64.0363 59.3637 65.42201 59.3637 66.54536 58.24036 66.54536 56.85465Z" fill="#156082"/>
<path transform="matrix(.00007874016,0,0,.00007874016,61.52725,103.6363)" stroke-width="6350" stroke-linecap="butt" stroke-linejoin="round" fill="none" stroke="#156082" d="M63730 31865C63730 49463.55 49463.55 63730 31865 63730 14266.45 63730 0 49463.55 0 31865 0 14266.45 14266.45 0 31865 0 49463.55 0 63730 14266.45 63730 31865Z"/>
<path transform="matrix(1,0,0,-1,0,163)" d="M70.90898 62.9637C70.90898 61.57799 69.78564 60.45464 68.39992 60.45464 67.01421 60.45464 65.89087 61.57799 65.89087 62.9637 65.89087 64.34941 67.01421 65.47275 68.39992 65.47275 69.78564 65.47275 70.90898 64.34941 70.90898 62.9637Z" fill="#156082"/>
<path transform="matrix(.00007874016,0,0,.00007874016,65.89087,97.52725)" stroke-width="6350" stroke-linecap="butt" stroke-linejoin="round" fill="none" stroke="#156082" d="M63730 31865C63730 49463.55 49463.55 63730 31865 63730 14266.45 63730 0 49463.55 0 31865 0 14266.45 14266.45 0 31865 0 49463.55 0 63730 14266.45 63730 31865Z"/>
<path transform="matrix(1,0,0,-1,0,163)" d="M75.05441 56.20008C75.05441 54.81436 73.93107 53.69102 72.54535 53.69102 71.15964 53.69102 70.0363 54.81436 70.0363 56.20008 70.0363 57.58579 71.15964 58.70913 72.54535 58.70913 73.93107 58.70913 75.05441 57.58579 75.05441 56.20008Z" fill="#156082"/>
<path transform="matrix(.00007874016,0,0,.00007874016,70.0363,104.29087)" stroke-width="6350" stroke-linecap="butt" stroke-linejoin="round" fill="none" stroke="#156082" d="M63730 31865C63730 49463.55 49463.55 63730 31865 63730 14266.45 63730 0 49463.55 0 31865 0 14266.45 14266.45 0 31865 0 49463.55 0 63730 14266.45 63730 31865Z"/>
<path transform="matrix(1,0,0,-1,0,163)" d="M79.41811 54.67284C79.41811 53.28712 78.29477 52.16378 76.90906 52.16378 75.52334 52.16378 74.4 53.28712 74.4 54.67284 74.4 56.05855 75.52334 57.18189 76.90906 57.18189 78.29477 57.18189 79.41811 56.05855 79.41811 54.67284Z" fill="#156082"/>
<path transform="matrix(.00007874016,0,0,.00007874016,74.4,105.818119)" stroke-width="6350" stroke-linecap="butt" stroke-linejoin="round" fill="none" stroke="#156082" d="M63730 31865C63730 49463.55 49463.55 63730 31865 63730 14266.45 63730 0 49463.55 0 31865 0 14266.45 14266.45 0 31865 0 49463.55 0 63730 14266.45 63730 31865Z"/>
<path transform="matrix(1,0,0,-1,0,163)" d="M83.78173 46.38189C83.78173 44.99618 82.65839 43.87284 81.27268 43.87284 79.88697 43.87284 78.76362 44.99618 78.76362 46.38189 78.76362 47.76761 79.88697 48.89095 81.27268 48.89095 82.65839 48.89095 83.78173 47.76761 83.78173 46.38189Z" fill="#156082"/>
<path transform="matrix(.00007874016,0,0,.00007874016,78.76362,114.109058)" stroke-width="6350" stroke-linecap="butt" stroke-linejoin="round" fill="none" stroke="#156082" d="M63730 31865C63730 49463.55 49463.55 63730 31865 63730 14266.45 63730 0 49463.55 0 31865 0 14266.45 14266.45 0 31865 0 49463.55 0 63730 14266.45 63730 31865Z"/>
<path transform="matrix(1,0,0,-1,0,163)" d="M88.14536 45.72732C88.14536 44.34161 87.02201 43.21827 85.6363 43.21827 84.25059 43.21827 83.12725 44.34161 83.12725 45.72732 83.12725 47.11303 84.25059 48.23638 85.6363 48.23638 87.02201 48.23638 88.14536 47.11303 88.14536 45.72732Z" fill="#156082"/>
<path transform="matrix(.00007874016,0,0,.00007874016,83.12725,114.76362)" stroke-width="6350" stroke-linecap="butt" stroke-linejoin="round" fill="none" stroke="#156082" d="M63730 31865C63730 49463.55 49463.55 63730 31865 63730 14266.45 63730 0 49463.55 0 31865 0 14266.45 14266.45 0 31865 0 49463.55 0 63730 14266.45 63730 31865Z"/>
<path transform="matrix(1,0,0,-1,0,163)" d="M92.50898 45.29094C92.50898 43.90523 91.38564 42.78189 89.99992 42.78189 88.61421 42.78189 87.49087 43.90523 87.49087 45.29094 87.49087 46.67666 88.61421 47.8 89.99992 47.8 91.38564 47.8 92.50898 46.67666 92.50898 45.29094Z" fill="#156082"/>
<path transform="matrix(.00007874016,0,0,.00007874016,87.49087,115.2)" stroke-width="6350" stroke-linecap="butt" stroke-linejoin="round" fill="none" stroke="#156082" d="M63730 31865C63730 49463.55 49463.55 63730 31865 63730 14266.45 63730 0 49463.55 0 31865 0 14266.45 14266.45 0 31865 0 49463.55 0 63730 14266.45 63730 31865Z"/>
<path transform="matrix(1,0,0,-1,0,163)" d="M96.65441 46.81827C96.65441 45.43256 95.53107 44.30922 94.14535 44.30922 92.75964 44.30922 91.6363 45.43256 91.6363 46.81827 91.6363 48.20398 92.75964 49.32733 94.14535 49.32733 95.53107 49.32733 96.65441 48.20398 96.65441 46.81827Z" fill="#156082"/>
<path transform="matrix(.00007874016,0,0,.00007874016,91.6363,113.67267)" stroke-width="6350" stroke-linecap="butt" stroke-linejoin="round" fill="none" stroke="#156082" d="M63730 31865C63730 49463.55 49463.55 63730 31865 63730 14266.45 63730 0 49463.55 0 31865 0 14266.45 14266.45 0 31865 0 49463.55 0 63730 14266.45 63730 31865Z"/>
<path transform="matrix(1,0,0,-1,0,163)" d="M101.0181 50.30913C101.0181 48.92342 99.89477 47.80008 98.50906 47.80008 97.12334 47.80008 96 48.92342 96 50.30913 96 51.69485 97.12334 52.81819 98.50906 52.81819 99.89477 52.81819 101.0181 51.69485 101.0181 50.30913Z" fill="#156082"/>
<path transform="matrix(.00007874016,0,0,.00007874016,96,110.18181)" stroke-width="6350" stroke-linecap="butt" stroke-linejoin="round" fill="none" stroke="#156082" d="M63730 31865C63730 49463.55 49463.55 63730 31865 63730 14266.45 63730 0 49463.55 0 31865 0 14266.45 14266.45 0 31865 0 49463.55 0 63730 14266.45 63730 31865Z"/>
<path transform="matrix(1,0,0,-1,0,163)" d="M105.3817 50.9637C105.3817 49.57799 104.2584 48.45464 102.8727 48.45464 101.487 48.45464 100.3636 49.57799 100.3636 50.9637 100.3636 52.34941 101.487 53.47275 102.8727 53.47275 104.2584 53.47275 105.3817 52.34941 105.3817 50.9637Z" fill="#156082"/>
<path transform="matrix(.00007874016,0,0,.00007874016,100.3636,109.52725)" stroke-width="6350" stroke-linecap="butt" stroke-linejoin="round" fill="none" stroke="#156082" d="M63730 31865C63730 49463.55 49463.55 63730 31865 63730 14266.45 63730 0 49463.55 0 31865 0 14266.45 14266.45 0 31865 0 49463.55 0 63730 14266.45 63730 31865Z"/>
<path transform="matrix(1,0,0,-1,0,163)" d="M109.7454 56.20008C109.7454 54.81436 108.622 53.69102 107.2363 53.69102 105.8506 53.69102 104.7272 54.81436 104.7272 56.20008 104.7272 57.58579 105.8506 58.70913 107.2363 58.70913 108.622 58.70913 109.7454 57.58579 109.7454 56.20008Z" fill="#156082"/>
<path transform="matrix(.00007874016,0,0,.00007874016,104.7272,104.29087)" stroke-width="6350" stroke-linecap="butt" stroke-linejoin="round" fill="none" stroke="#156082" d="M63730 31865C63730 49463.55 49463.55 63730 31865 63730 14266.45 63730 0 49463.55 0 31865 0 14266.45 14266.45 0 31865 0 49463.55 0 63730 14266.45 63730 31865Z"/>
<path transform="matrix(1,0,0,-1,0,163)" d="M114.109 68.41827C114.109 67.03256 112.9856 65.90922 111.5999 65.90922 110.2142 65.90922 109.0909 67.03256 109.0909 68.41827 109.0909 69.80398 110.2142 70.92733 111.5999 70.92733 112.9856 70.92733 114.109 69.80398 114.109 68.41827Z" fill="#156082"/>
<path transform="matrix(.00007874016,0,0,.00007874016,109.0909,92.07267)" stroke-width="6350" stroke-linecap="butt" stroke-linejoin="round" fill="none" stroke="#156082" d="M63730 31865C63730 49463.55 49463.55 63730 31865 63730 14266.45 63730 0 49463.55 0 31865 0 14266.45 14266.45 0 31865 0 49463.55 0 63730 14266.45 63730 31865Z"/>
<path transform="matrix(1,0,0,-1,0,163)" d="M118.2544 63.61827C118.2544 62.23256 117.1311 61.10922 115.7454 61.10922 114.3596 61.10922 113.2363 62.23256 113.2363 63.61827 113.2363 65.00398 114.3596 66.12733 115.7454 66.12733 117.1311 66.12733 118.2544 65.00398 118.2544 63.61827Z" fill="#156082"/>
<path transform="matrix(.00007874016,0,0,.00007874016,113.2363,96.87267)" stroke-width="6350" stroke-linecap="butt" stroke-linejoin="round" fill="none" stroke="#156082" d="M63730 31865C63730 49463.55 49463.55 63730 31865 63730 14266.45 63730 0 49463.55 0 31865 0 14266.45 14266.45 0 31865 0 49463.55 0 63730 14266.45 63730 31865Z"/>
<path transform="matrix(1,0,0,-1,0,163)" d="M122.6181 70.38189C122.6181 68.99617 121.4948 67.87283 120.1091 67.87283 118.7233 67.87283 117.6 68.99617 117.6 70.38189 117.6 71.7676 118.7233 72.89094 120.1091 72.89094 121.4948 72.89094 122.6181 71.7676 122.6181 70.38189Z" fill="#156082"/>
<path transform="matrix(.00007874016,0,0,.00007874016,117.6,90.10906)" stroke-width="6350" stroke-linecap="butt" stroke-linejoin="round" fill="none" stroke="#156082" d="M63730 31865C63730 49463.55 49463.55 63730 31865 63730 14266.45 63730 0 49463.55 0 31865 0 14266.45 14266.45 0 31865 0 49463.55 0 63730 14266.45 63730 31865Z"/>
<path transform="matrix(1,0,0,-1,0,163)" d="M126.9817 65.80008C126.9817 64.41436 125.8584 63.29102 124.4727 63.29102 123.087 63.29102 121.9636 64.41436 121.9636 65.80008 121.9636 67.18579 123.087 68.30913 124.4727 68.30913 125.8584 68.30913 126.9817 67.18579 126.9817 65.80008Z" fill="#156082"/>
<path transform="matrix(.00007874016,0,0,.00007874016,121.9636,94.69087)" stroke-width="6350" stroke-linecap="butt" stroke-linejoin="round" fill="none" stroke="#156082" d="M63730 31865C63730 49463.55 49463.55 63730 31865 63730 14266.45 63730 0 49463.55 0 31865 0 14266.45 14266.45 0 31865 0 49463.55 0 63730 14266.45 63730 31865Z"/>
<path transform="matrix(1,0,0,-1,0,163)" d="M131.3454 66.01827C131.3454 64.63256 130.222 63.50922 128.8363 63.50922 127.4506 63.50922 126.3272 64.63256 126.3272 66.01827 126.3272 67.40398 127.4506 68.52733 128.8363 68.52733 130.222 68.52733 131.3454 67.40398 131.3454 66.01827Z" fill="#156082"/>
<path transform="matrix(.00007874016,0,0,.00007874016,126.3272,94.47267)" stroke-width="6350" stroke-linecap="butt" stroke-linejoin="round" fill="none" stroke="#156082" d="M63730 31865C63730 49463.55 49463.55 63730 31865 63730 14266.45 63730 0 49463.55 0 31865 0 14266.45 14266.45 0 31865 0 49463.55 0 63730 14266.45 63730 31865Z"/>
<path transform="matrix(1,0,0,-1,0,163)" d="M135.4908 67.7637C135.4908 66.37799 134.3674 65.25464 132.9817 65.25464 131.596 65.25464 130.4727 66.37799 130.4727 67.7637 130.4727 69.14941 131.596 70.27275 132.9817 70.27275 134.3674 70.27275 135.4908 69.14941 135.4908 67.7637Z" fill="#156082"/>
<path transform="matrix(.00007874016,0,0,.00007874016,130.4727,92.72725)" stroke-width="6350" stroke-linecap="butt" stroke-linejoin="round" fill="none" stroke="#156082" d="M63730 31865C63730 49463.55 49463.55 63730 31865 63730 14266.45 63730 0 49463.55 0 31865 0 14266.45 14266.45 0 31865 0 49463.55 0 63730 14266.45 63730 31865Z"/>
<path transform="matrix(1,0,0,-1,0,163)" d="M139.8544 81.29094C139.8544 79.90523 138.7311 78.78189 137.3454 78.78189 135.9596 78.78189 134.8363 79.90523 134.8363 81.29094 134.8363 82.67666 135.9596 83.8 137.3454 83.8 138.7311 83.8 139.8544 82.67666 139.8544 81.29094Z" fill="#156082"/>
<path transform="matrix(.00007874016,0,0,.00007874016,134.8363,79.2)" stroke-width="6350" stroke-linecap="butt" stroke-linejoin="round" fill="none" stroke="#156082" d="M63730 31865C63730 49463.55 49463.55 63730 31865 63730 14266.45 63730 0 49463.55 0 31865 0 14266.45 14266.45 0 31865 0 49463.55 0 63730 14266.45 63730 31865Z"/>
<path transform="matrix(1,0,0,-1,0,163)" d="M144.2181 73.21827C144.2181 71.83256 143.0948 70.70922 141.7091 70.70922 140.3233 70.70922 139.2 71.83256 139.2 73.21827 139.2 74.60398 140.3233 75.72733 141.7091 75.72733 143.0948 75.72733 144.2181 74.60398 144.2181 73.21827Z" fill="#156082"/>
<path transform="matrix(.00007874016,0,0,.00007874016,139.2,87.27267)" stroke-width="6350" stroke-linecap="butt" stroke-linejoin="round" fill="none" stroke="#156082" d="M63730 31865C63730 49463.55 49463.55 63730 31865 63730 14266.45 63730 0 49463.55 0 31865 0 14266.45 14266.45 0 31865 0 49463.55 0 63730 14266.45 63730 31865Z"/>
<path transform="matrix(1,0,0,-1,0,163)" d="M148.5817 71.69094C148.5817 70.30523 147.4584 69.18189 146.0727 69.18189 144.687 69.18189 143.5636 70.30523 143.5636 71.69094 143.5636 73.07666 144.687 74.2 146.0727 74.2 147.4584 74.2 148.5817 73.07666 148.5817 71.69094Z" fill="#156082"/>
<path transform="matrix(.00007874016,0,0,.00007874016,143.5636,88.8)" stroke-width="6350" stroke-linecap="butt" stroke-linejoin="round" fill="none" stroke="#156082" d="M63730 31865C63730 49463.55 49463.55 63730 31865 63730 14266.45 63730 0 49463.55 0 31865 0 14266.45 14266.45 0 31865 0 49463.55 0 63730 14266.45 63730 31865Z"/>
<path transform="matrix(1,0,0,-1,0,163)" d="M152.9454 78.23646C152.9454 76.85075 151.822 75.7274 150.4363 75.7274 149.0506 75.7274 147.9272 76.85075 147.9272 78.23646 147.9272 79.62217 149.0506 80.74551 150.4363 80.74551 151.822 80.74551 152.9454 79.62217 152.9454 78.23646Z" fill="#156082"/>
<path transform="matrix(.00007874016,0,0,.00007874016,147.9272,82.25449)" stroke-width="6350" stroke-linecap="butt" stroke-linejoin="round" fill="none" stroke="#156082" d="M63730 31865C63730 49463.55 49463.55 63730 31865 63730 14266.45 63730 0 49463.55 0 31865 0 14266.45 14266.45 0 31865 0 49463.55 0 63730 14266.45 63730 31865Z"/>
<path transform="matrix(1,0,0,-1,0,163)" d="M157.0908 83.03646C157.0908 81.65075 155.9674 80.5274 154.5817 80.5274 153.196 80.5274 152.0727 81.65075 152.0727 83.03646 152.0727 84.42217 153.196 85.54551 154.5817 85.54551 155.9674 85.54551 157.0908 84.42217 157.0908 83.03646Z" fill="#156082"/>
<path transform="matrix(.00007874016,0,0,.00007874016,152.0727,77.45449)" stroke-width="6350" stroke-linecap="butt" stroke-linejoin="round" fill="none" stroke="#156082" d="M63730 31865C63730 49463.55 49463.55 63730 31865 63730 14266.45 63730 0 49463.55 0 31865 0 14266.45 14266.45 0 31865 0 49463.55 0 63730 14266.45 63730 31865Z"/>
<path transform="matrix(1,0,0,-1,0,163)" d="M161.4544 81.29094C161.4544 79.90523 160.3311 78.78189 158.9454 78.78189 157.5596 78.78189 156.4363 79.90523 156.4363 81.29094 156.4363 82.67666 157.5596 83.8 158.9454 83.8 160.3311 83.8 161.4544 82.67666 161.4544 81.29094Z" fill="#156082"/>
<path transform="matrix(.00007874016,0,0,.00007874016,156.4363,79.2)" stroke-width="6350" stroke-linecap="butt" stroke-linejoin="round" fill="none" stroke="#156082" d="M63730 31865C63730 49463.55 49463.55 63730 31865 63730 14266.45 63730 0 49463.55 0 31865 0 14266.45 14266.45 0 31865 0 49463.55 0 63730 14266.45 63730 31865Z"/>
<path transform="matrix(1,0,0,-1,0,163)" d="M165.8181 84.5637C165.8181 83.17799 164.6948 82.05464 163.3091 82.05464 161.9233 82.05464 160.8 83.17799 160.8 84.5637 160.8 85.94941 161.9233 87.07275 163.3091 87.07275 164.6948 87.07275 165.8181 85.94941 165.8181 84.5637Z" fill="#156082"/>
<path transform="matrix(.00007874016,0,0,.00007874016,160.8,75.92725)" stroke-width="6350" stroke-linecap="butt" stroke-linejoin="round" fill="none" stroke="#156082" d="M63730 31865C63730 49463.55 49463.55 63730 31865 63730 14266.45 63730 0 49463.55 0 31865 0 14266.45 14266.45 0 31865 0 49463.55 0 63730 14266.45 63730 31865Z"/>
<path transform="matrix(1,0,0,-1,0,163)" d="M170.1817 106.1637C170.1817 104.778 169.0584 103.6546 167.6727 103.6546 166.287 103.6546 165.1636 104.778 165.1636 106.1637 165.1636 107.5494 166.287 108.6728 167.6727 108.6728 169.0584 108.6728 170.1817 107.5494 170.1817 106.1637Z" fill="#156082"/>
<path transform="matrix(.00007874016,0,0,.00007874016,165.1636,54.3272)" stroke-width="6350" stroke-linecap="butt" stroke-linejoin="round" fill="none" stroke="#156082" d="M63730 31865C63730 49463.55 49463.55 63730 31865 63730 14266.45 63730 0 49463.55 0 31865 0 14266.45 14266.45 0 31865 0 49463.55 0 63730 14266.45 63730 31865Z"/>
<path transform="matrix(1,0,0,-1,0,163)" d="M174.5454 78.01827C174.5454 76.63256 173.422 75.50922 172.0363 75.50922 170.6506 75.50922 169.5272 76.63256 169.5272 78.01827 169.5272 79.40398 170.6506 80.52733 172.0363 80.52733 173.422 80.52733 174.5454 79.40398 174.5454 78.01827Z" fill="#156082"/>
<path transform="matrix(.00007874016,0,0,.00007874016,169.5272,82.47267)" stroke-width="6350" stroke-linecap="butt" stroke-linejoin="round" fill="none" stroke="#156082" d="M63730 31865C63730 49463.55 49463.55 63730 31865 63730 14266.45 63730 0 49463.55 0 31865 0 14266.45 14266.45 0 31865 0 49463.55 0 63730 14266.45 63730 31865Z"/>
<path transform="matrix(1,0,0,-1,0,163)" d="M178.6908 67.32732C178.6908 65.94161 177.5674 64.81827 176.1817 64.81827 174.796 64.81827 173.6727 65.94161 173.6727 67.32732 173.6727 68.71303 174.796 69.83638 176.1817 69.83638 177.5674 69.83638 178.6908 68.71303 178.6908 67.32732Z" fill="#156082"/>
<path transform="matrix(.00007874016,0,0,.00007874016,173.6727,93.16362)" stroke-width="6350" stroke-linecap="butt" stroke-linejoin="round" fill="none" stroke="#156082" d="M63730 31865C63730 49463.55 49463.55 63730 31865 63730 14266.45 63730 0 49463.55 0 31865 0 14266.45 14266.45 0 31865 0 49463.55 0 63730 14266.45 63730 31865Z"/>
<path transform="matrix(1,0,0,-1,0,163)" d="M183.0544 63.40008C183.0544 62.01436 181.9311 60.89102 180.5454 60.89102 179.1596 60.89102 178.0363 62.01436 178.0363 63.40008 178.0363 64.78579 179.1596 65.90913 180.5454 65.90913 181.9311 65.90913 183.0544 64.78579 183.0544 63.40008Z" fill="#156082"/>
<path transform="matrix(.00007874016,0,0,.00007874016,178.0363,97.09087)" stroke-width="6350" stroke-linecap="butt" stroke-linejoin="round" fill="none" stroke="#156082" d="M63730 31865C63730 49463.55 49463.55 63730 31865 63730 14266.45 63730 0 49463.55 0 31865 0 14266.45 14266.45 0 31865 0 49463.55 0 63730 14266.45 63730 31865Z"/>
<path transform="matrix(1,0,0,-1,0,163)" d="M187.4181 61.43646C187.4181 60.05075 186.2948 58.9274 184.9091 58.9274 183.5233 58.9274 182.4 60.05075 182.4 61.43646 182.4 62.82217 183.5233 63.94551 184.9091 63.94551 186.2948 63.94551 187.4181 62.82217 187.4181 61.43646Z" fill="#156082"/>
<path transform="matrix(.00007874016,0,0,.00007874016,182.4,99.05449)" stroke-width="6350" stroke-linecap="butt" stroke-linejoin="round" fill="none" stroke="#156082" d="M63730 31865C63730 49463.55 49463.55 63730 31865 63730 14266.45 63730 0 49463.55 0 31865 0 14266.45 14266.45 0 31865 0 49463.55 0 63730 14266.45 63730 31865Z"/>
<path transform="matrix(1,0,0,-1,0,163)" d="M191.7817 61.65465C191.7817 60.26893 190.6584 59.14559 189.2727 59.14559 187.887 59.14559 186.7636 60.26893 186.7636 61.65465 186.7636 63.04036 187.887 64.1637 189.2727 64.1637 190.6584 64.1637 191.7817 63.04036 191.7817 61.65465Z" fill="#156082"/>
<path transform="matrix(.00007874016,0,0,.00007874016,186.7636,98.8363)" stroke-width="6350" stroke-linecap="butt" stroke-linejoin="round" fill="none" stroke="#156082" d="M63730 31865C63730 49463.55 49463.55 63730 31865 63730 14266.45 63730 0 49463.55 0 31865 0 14266.45 14266.45 0 31865 0 49463.55 0 63730 14266.45 63730 31865Z"/>
<path transform="matrix(1,0,0,-1,0,163)" d="M196.1454 60.12732C196.1454 58.74161 195.022 57.61827 193.6363 57.61827 192.2506 57.61827 191.1272 58.74161 191.1272 60.12732 191.1272 61.51303 192.2506 62.63638 193.6363 62.63638 195.022 62.63638 196.1454 61.51303 196.1454 60.12732Z" fill="#156082"/>
<path transform="matrix(.00007874016,0,0,.00007874016,191.1272,100.36362)" stroke-width="6350" stroke-linecap="butt" stroke-linejoin="round" fill="none" stroke="#156082" d="M63730 31865C63730 49463.55 49463.55 63730 31865 63730 14266.45 63730 0 49463.55 0 31865 0 14266.45 14266.45 0 31865 0 49463.55 0 63730 14266.45 63730 31865Z"/>
<path transform="matrix(1,0,0,-1,0,163)" d="M200.2908 65.80008C200.2908 64.41436 199.1674 63.29102 197.7817 63.29102 196.396 63.29102 195.2727 64.41436 195.2727 65.80008 195.2727 67.18579 196.396 68.30913 197.7817 68.30913 199.1674 68.30913 200.2908 67.18579 200.2908 65.80008Z" fill="#156082"/>
<path transform="matrix(.00007874016,0,0,.00007874016,195.2727,94.69087)" stroke-width="6350" stroke-linecap="butt" stroke-linejoin="round" fill="none" stroke="#156082" d="M63730 31865C63730 49463.55 49463.55 63730 31865 63730 14266.45 63730 0 49463.55 0 31865 0 14266.45 14266.45 0 31865 0 49463.55 0 63730 14266.45 63730 31865Z"/>
<path transform="matrix(1,0,0,-1,0,163)" d="M204.6544 64.70913C204.6544 63.32342 203.5311 62.20008 202.1454 62.20008 200.7596 62.20008 199.6363 63.32342 199.6363 64.70913 199.6363 66.09485 200.7596 67.21819 202.1454 67.21819 203.5311 67.21819 204.6544 66.09485 204.6544 64.70913Z" fill="#156082"/>
<path transform="matrix(.00007874016,0,0,.00007874016,199.6363,95.78181)" stroke-width="6350" stroke-linecap="butt" stroke-linejoin="round" fill="none" stroke="#156082" d="M63730 31865C63730 49463.55 49463.55 63730 31865 63730 14266.45 63730 0 49463.55 0 31865 0 14266.45 14266.45 0 31865 0 49463.55 0 63730 14266.45 63730 31865Z"/>
<path transform="matrix(1,0,0,-1,0,163)" d="M209.0181 72.5637C209.0181 71.17799 207.8948 70.05464 206.5091 70.05464 205.1233 70.05464 204 71.17799 204 72.5637 204 73.94941 205.1233 75.07275 206.5091 75.07275 207.8948 75.07275 209.0181 73.94941 209.0181 72.5637Z" fill="#156082"/>
<path transform="matrix(.00007874016,0,0,.00007874016,204,87.92725)" stroke-width="6350" stroke-linecap="butt" stroke-linejoin="round" fill="none" stroke="#156082" d="M63730 31865C63730 49463.55 49463.55 63730 31865 63730 14266.45 63730 0 49463.55 0 31865 0 14266.45 14266.45 0 31865 0 49463.55 0 63730 14266.45 63730 31865Z"/>
<path transform="matrix(1,0,0,-1,0,163)" d="M213.3817 72.5637C213.3817 71.17799 212.2584 70.05464 210.8727 70.05464 209.487 70.05464 208.3636 71.17799 208.3636 72.5637 208.3636 73.94941 209.487 75.07275 210.8727 75.07275 212.2584 75.07275 213.3817 73.94941 213.3817 72.5637Z" fill="#156082"/>
<path transform="matrix(.00007874016,0,0,.00007874016,208.3636,87.92725)" stroke-width="6350" stroke-linecap="butt" stroke-linejoin="round" fill="none" stroke="#156082" d="M63730 31865C63730 49463.55 49463.55 63730 31865 63730 14266.45 63730 0 49463.55 0 31865 0 14266.45 14266.45 0 31865 0 49463.55 0 63730 14266.45 63730 31865Z"/>
<path transform="matrix(1,0,0,-1,0,163)" d="M217.7454 78.23646C217.7454 76.85075 216.622 75.7274 215.2363 75.7274 213.8506 75.7274 212.7272 76.85075 212.7272 78.23646 212.7272 79.62217 213.8506 80.74551 215.2363 80.74551 216.622 80.74551 217.7454 79.62217 217.7454 78.23646Z" fill="#156082"/>
<path transform="matrix(.00007874016,0,0,.00007874016,212.7272,82.25449)" stroke-width="6350" stroke-linecap="butt" stroke-linejoin="round" fill="none" stroke="#156082" d="M63730 31865C63730 49463.55 49463.55 63730 31865 63730 14266.45 63730 0 49463.55 0 31865 0 14266.45 14266.45 0 31865 0 49463.55 0 63730 14266.45 63730 31865Z"/>
<path transform="matrix(1,0,0,-1,0,163)" d="M221.8908 82.1637C221.8908 80.77799 220.7674 79.65464 219.3817 79.65464 217.996 79.65464 216.8727 80.77799 216.8727 82.1637 216.8727 83.54941 217.996 84.67275 219.3817 84.67275 220.7674 84.67275 221.8908 83.54941 221.8908 82.1637Z" fill="#156082"/>
<path transform="matrix(.00007874016,0,0,.00007874016,216.8727,78.32725)" stroke-width="6350" stroke-linecap="butt" stroke-linejoin="round" fill="none" stroke="#156082" d="M63730 31865C63730 49463.55 49463.55 63730 31865 63730 14266.45 63730 0 49463.55 0 31865 0 14266.45 14266.45 0 31865 0 49463.55 0 63730 14266.45 63730 31865Z"/>
<path transform="matrix(1,0,0,-1,0,163)" d="M226.2544 88.92732C226.2544 87.54161 225.1311 86.41827 223.7454 86.41827 222.3596 86.41827 221.2363 87.54161 221.2363 88.92732 221.2363 90.31303 222.3596 91.43638 223.7454 91.43638 225.1311 91.43638 226.2544 90.31303 226.2544 88.92732Z" fill="#156082"/>
<path transform="matrix(.00007874016,0,0,.00007874016,221.2363,71.56362)" stroke-width="6350" stroke-linecap="butt" stroke-linejoin="round" fill="none" stroke="#156082" d="M63730 31865C63730 49463.55 49463.55 63730 31865 63730 14266.45 63730 0 49463.55 0 31865 0 14266.45 14266.45 0 31865 0 49463.55 0 63730 14266.45 63730 31865Z"/>
<path transform="matrix(1,0,0,-1,0,163)" d="M230.6181 76.92732C230.6181 75.54161 229.4948 74.41827 228.1091 74.41827 226.7233 74.41827 225.6 75.54161 225.6 76.92732 225.6 78.31303 226.7233 79.43638 228.1091 79.43638 229.4948 79.43638 230.6181 78.31303 230.6181 76.92732Z" fill="#156082"/>
<path transform="matrix(.00007874016,0,0,.00007874016,225.6,83.56362)" stroke-width="6350" stroke-linecap="butt" stroke-linejoin="round" fill="none" stroke="#156082" d="M63730 31865C63730 49463.55 49463.55 63730 31865 63730 14266.45 63730 0 49463.55 0 31865 0 14266.45 14266.45 0 31865 0 49463.55 0 63730 14266.45 63730 31865Z"/>
<path transform="matrix(1,0,0,-1,0,163)" d="M234.9817 87.83646C234.9817 86.45075 233.8584 85.3274 232.4727 85.3274 231.087 85.3274 229.9636 86.45075 229.9636 87.83646 229.9636 89.22217 231.087 90.34551 232.4727 90.34551 233.8584 90.34551 234.9817 89.22217 234.9817 87.83646Z" fill="#156082"/>
<path transform="matrix(.00007874016,0,0,.00007874016,229.9636,72.65449)" stroke-width="6350" stroke-linecap="butt" stroke-linejoin="round" fill="none" stroke="#156082" d="M63730 31865C63730 49463.55 49463.55 63730 31865 63730 14266.45 63730 0 49463.55 0 31865 0 14266.45 14266.45 0 31865 0 49463.55 0 63730 14266.45 63730 31865Z"/>
<path transform="matrix(1,0,0,-1,0,163)" d="M239.1272 78.45465C239.1272 77.06893 238.0038 75.94559 236.6181 75.94559 235.2324 75.94559 234.1091 77.06893 234.1091 78.45465 234.1091 79.84036 235.2324 80.9637 236.6181 80.9637 238.0038 80.9637 239.1272 79.84036 239.1272 78.45465Z" fill="#156082"/>
<path transform="matrix(.00007874016,0,0,.00007874016,234.1091,82.0363)" stroke-width="6350" stroke-linecap="butt" stroke-linejoin="round" fill="none" stroke="#156082" d="M63730 31865C63730 49463.55 49463.55 63730 31865 63730 14266.45 63730 0 49463.55 0 31865 0 14266.45 14266.45 0 31865 0 49463.55 0 63730 14266.45 63730 31865Z"/>
<path transform="matrix(1,0,0,-1,0,163)" d="M243.4908 79.7637C243.4908 78.37799 242.3674 77.25464 240.9817 77.25464 239.596 77.25464 238.4727 78.37799 238.4727 79.7637 238.4727 81.14941 239.596 82.27275 240.9817 82.27275 242.3674 82.27275 243.4908 81.14941 243.4908 79.7637Z" fill="#156082"/>
<path transform="matrix(.00007874016,0,0,.00007874016,238.4727,80.72725)" stroke-width="6350" stroke-linecap="butt" stroke-linejoin="round" fill="none" stroke="#156082" d="M63730 31865C63730 49463.55 49463.55 63730 31865 63730 14266.45 63730 0 49463.55 0 31865 0 14266.45 14266.45 0 31865 0 49463.55 0 63730 14266.45 63730 31865Z"/>
<path transform="matrix(1,0,0,-1,0,163)" d="M247.8544 71.47284C247.8544 70.08712 246.7311 68.96378 245.3454 68.96378 243.9597 68.96378 242.8363 70.08712 242.8363 71.47284 242.8363 72.85855 243.9597 73.98189 245.3454 73.98189 246.7311 73.98189 247.8544 72.85855 247.8544 71.47284Z" fill="#156082"/>
<path transform="matrix(.00007874016,0,0,.00007874016,242.8363,89.01811)" stroke-width="6350" stroke-linecap="butt" stroke-linejoin="round" fill="none" stroke="#156082" d="M63730 31865C63730 49463.55 49463.55 63730 31865 63730 14266.45 63730 0 49463.55 0 31865 0 14266.45 14266.45 0 31865 0 49463.55 0 63730 14266.45 63730 31865Z"/>
<path transform="matrix(1,0,0,-1,0,163)" d="M252.2181 74.09094C252.2181 72.70523 251.0948 71.58189 249.7091 71.58189 248.3233 71.58189 247.2 72.70523 247.2 74.09094 247.2 75.47666 248.3233 76.6 249.7091 76.6 251.0948 76.6 252.2181 75.47666 252.2181 74.09094Z" fill="#156082"/>
<path transform="matrix(.00007874016,0,0,.00007874016,247.2,86.4)" stroke-width="6350" stroke-linecap="butt" stroke-linejoin="round" fill="none" stroke="#156082" d="M63730 31865C63730 49463.55 49463.55 63730 31865 63730 14266.45 63730 0 49463.55 0 31865 0 14266.45 14266.45 0 31865 0 49463.55 0 63730 14266.45 63730 31865Z"/>
<path transform="matrix(1,0,0,-1,0,163)" d="M256.5817 74.74551C256.5817 73.3598 255.4584 72.23645 254.0727 72.23645 252.687 72.23645 251.5636 73.3598 251.5636 74.74551 251.5636 76.13122 252.687 77.25457 254.0727 77.25457 255.4584 77.25457 256.5817 76.13122 256.5817 74.74551Z" fill="#156082"/>
<path transform="matrix(.00007874016,0,0,.00007874016,251.5636,85.74543)" stroke-width="6350" stroke-linecap="butt" stroke-linejoin="round" fill="none" stroke="#156082" d="M63730 31865C63730 49463.55 49463.55 63730 31865 63730 14266.45 63730 0 49463.55 0 31865 0 14266.45 14266.45 0 31865 0 49463.55 0 63730 14266.45 63730 31865Z"/>
<path transform="matrix(1,0,0,-1,0,163)" d="M260.7272 88.70913C260.7272 87.32342 259.6038 86.20008 258.2181 86.20008 256.8324 86.20008 255.7091 87.32342 255.7091 88.70913 255.7091 90.09485 256.8324 91.21819 258.2181 91.21819 259.6038 91.21819 260.7272 90.09485 260.7272 88.70913Z" fill="#156082"/>
<path transform="matrix(.00007874016,0,0,.00007874016,255.7091,71.78181)" stroke-width="6350" stroke-linecap="butt" stroke-linejoin="round" fill="none" stroke="#156082" d="M63730 31865C63730 49463.55 49463.55 63730 31865 63730 14266.45 63730 0 49463.55 0 31865 0 14266.45 14266.45 0 31865 0 49463.55 0 63730 14266.45 63730 31865Z"/>
<path transform="matrix(1,0,0,-1,0,163)" d="M265.0908 83.25465C265.0908 81.86893 263.9674 80.74559 262.5817 80.74559 261.196 80.74559 260.0727 81.86893 260.0727 83.25465 260.0727 84.64036 261.196 85.7637 262.5817 85.7637 263.9674 85.7637 265.0908 84.64036 265.0908 83.25465Z" fill="#156082"/>
<path transform="matrix(.00007874016,0,0,.00007874016,260.0727,77.2363)" stroke-width="6350" stroke-linecap="butt" stroke-linejoin="round" fill="none" stroke="#156082" d="M63730 31865C63730 49463.55 49463.55 63730 31865 63730 14266.45 63730 0 49463.55 0 31865 0 14266.45 14266.45 0 31865 0 49463.55 0 63730 14266.45 63730 31865Z"/>
<path transform="matrix(1,0,0,-1,0,163)" d="M269.4544 83.90913C269.4544 82.52342 268.3311 81.40008 266.9454 81.40008 265.5597 81.40008 264.4363 82.52342 264.4363 83.90913 264.4363 85.29485 265.5597 86.41819 266.9454 86.41819 268.3311 86.41819 269.4544 85.29485 269.4544 83.90913Z" fill="#156082"/>
<path transform="matrix(.00007874016,0,0,.00007874016,264.4363,76.58181)" stroke-width="6350" stroke-linecap="butt" stroke-linejoin="round" fill="none" stroke="#156082" d="M63730 31865C63730 49463.55 49463.55 63730 31865 63730 14266.45 63730 0 49463.55 0 31865 0 14266.45 14266.45 0 31865 0 49463.55 0 63730 14266.45 63730 31865Z"/>
<path transform="matrix(1,0,0,-1,0,163)" d="M273.8181 78.23646C273.8181 76.85075 272.6948 75.7274 271.3091 75.7274 269.9233 75.7274 268.8 76.85075 268.8 78.23646 268.8 79.62217 269.9233 80.74551 271.3091 80.74551 272.6948 80.74551 273.8181 79.62217 273.8181 78.23646Z" fill="#156082"/>
<path transform="matrix(.00007874016,0,0,.00007874016,268.8,82.25449)" stroke-width="6350" stroke-linecap="butt" stroke-linejoin="round" fill="none" stroke="#156082" d="M63730 31865C63730 49463.55 49463.55 63730 31865 63730 14266.45 63730 0 49463.55 0 31865 0 14266.45 14266.45 0 31865 0 49463.55 0 63730 14266.45 63730 31865Z"/>
<path transform="matrix(1,0,0,-1,0,163)" d="M278.1817 87.83646C278.1817 86.45075 277.0584 85.3274 275.6727 85.3274 274.287 85.3274 273.1636 86.45075 273.1636 87.83646 273.1636 89.22217 274.287 90.34551 275.6727 90.34551 277.0584 90.34551 278.1817 89.22217 278.1817 87.83646Z" fill="#156082"/>
<path transform="matrix(.00007874016,0,0,.00007874016,273.1636,72.65449)" stroke-width="6350" stroke-linecap="butt" stroke-linejoin="round" fill="none" stroke="#156082" d="M63730 31865C63730 49463.55 49463.55 63730 31865 63730 14266.45 63730 0 49463.55 0 31865 0 14266.45 14266.45 0 31865 0 49463.55 0 63730 14266.45 63730 31865Z"/>
<path transform="matrix(1,0,0,-1,0,163)" d="M282.3272 85.65465C282.3272 84.26893 281.2038 83.14559 279.8181 83.14559 278.4324 83.14559 277.3091 84.26893 277.3091 85.65465 277.3091 87.04036 278.4324 88.1637 279.8181 88.1637 281.2038 88.1637 282.3272 87.04036 282.3272 85.65465Z" fill="#156082"/>
<path transform="matrix(.00007874016,0,0,.00007874016,277.3091,74.8363)" stroke-width="6350" stroke-linecap="butt" stroke-linejoin="round" fill="none" stroke="#156082" d="M63730 31865C63730 49463.55 49463.55 63730 31865 63730 14266.45 63730 0 49463.55 0 31865 0 14266.45 14266.45 0 31865 0 49463.55 0 63730 14266.45 63730 31865Z"/>
<path transform="matrix(1,0,0,-1,0,163)" d="M286.6908 88.92732C286.6908 87.54161 285.5674 86.41827 284.1817 86.41827 282.796 86.41827 281.6727 87.54161 281.6727 88.92732 281.6727 90.31303 282.796 91.43638 284.1817 91.43638 285.5674 91.43638 286.6908 90.31303 286.6908 88.92732Z" fill="#156082"/>
<path transform="matrix(.00007874016,0,0,.00007874016,281.6727,71.56362)" stroke-width="6350" stroke-linecap="butt" stroke-linejoin="round" fill="none" stroke="#156082" d="M63730 31865C63730 49463.55 49463.55 63730 31865 63730 14266.45 63730 0 49463.55 0 31865 0 14266.45 14266.45 0 31865 0 49463.55 0 63730 14266.45 63730 31865Z"/>
<path transform="matrix(1,0,0,-1,0,163)" d="M291.0544 84.78189C291.0544 83.39617 289.9311 82.27283 288.5454 82.27283 287.1597 82.27283 286.0363 83.39617 286.0363 84.78189 286.0363 86.1676 287.1597 87.29094 288.5454 87.29094 289.9311 87.29094 291.0544 86.1676 291.0544 84.78189Z" fill="#156082"/>
<path transform="matrix(.00007874016,0,0,.00007874016,286.0363,75.70906)" stroke-width="6350" stroke-linecap="butt" stroke-linejoin="round" fill="none" stroke="#156082" d="M63730 31865C63730 49463.55 49463.55 63730 31865 63730 14266.45 63730 0 49463.55 0 31865 0 14266.45 14266.45 0 31865 0 49463.55 0 63730 14266.45 63730 31865Z"/>
<path transform="matrix(1,0,0,-1,0,163)" d="M295.4181 98.9637C295.4181 97.57799 294.2948 96.45464 292.9091 96.45464 291.5233 96.45464 290.4 97.57799 290.4 98.9637 290.4 100.3494 291.5233 101.4728 292.9091 101.4728 294.2948 101.4728 295.4181 100.3494 295.4181 98.9637Z" fill="#156082"/>
<path transform="matrix(.00007874016,0,0,.00007874016,290.4,61.5272)" stroke-width="6350" stroke-linecap="butt" stroke-linejoin="round" fill="none" stroke="#156082" d="M63730 31865C63730 49463.55 49463.55 63730 31865 63730 14266.45 63730 0 49463.55 0 31865 0 14266.45 14266.45 0 31865 0 49463.55 0 63730 14266.45 63730 31865Z"/>
<path transform="matrix(1,0,0,-1,0,163)" d="M299.7817 89.3637C299.7817 87.97799 298.6584 86.85464 297.2727 86.85464 295.887 86.85464 294.7636 87.97799 294.7636 89.3637 294.7636 90.74941 295.887 91.87275 297.2727 91.87275 298.6584 91.87275 299.7817 90.74941 299.7817 89.3637Z" fill="#156082"/>
<path transform="matrix(.00007874016,0,0,.00007874016,294.7636,71.12725)" stroke-width="6350" stroke-linecap="butt" stroke-linejoin="round" fill="none" stroke="#156082" d="M63730 31865C63730 49463.55 49463.55 63730 31865 63730 14266.45 63730 0 49463.55 0 31865 0 14266.45 14266.45 0 31865 0 49463.55 0 63730 14266.45 63730 31865Z"/>
<path transform="matrix(1,0,0,-1,0,163)" d="M303.9272 99.40008C303.9272 98.01436 302.8038 96.89102 301.4181 96.89102 300.0324 96.89102 298.9091 98.01436 298.9091 99.40008 298.9091 100.7858 300.0324 101.9091 301.4181 101.9091 302.8038 101.9091 303.9272 100.7858 303.9272 99.40008Z" fill="#156082"/>
<path transform="matrix(.00007874016,0,0,.00007874016,298.9091,61.090898)" stroke-width="6350" stroke-linecap="butt" stroke-linejoin="round" fill="none" stroke="#156082" d="M63730 31865C63730 49463.55 49463.55 63730 31865 63730 14266.45 63730 0 49463.55 0 31865 0 14266.45 14266.45 0 31865 0 49463.55 0 63730 14266.45 63730 31865Z"/>
<path transform="matrix(1,0,0,-1,0,163)" d="M308.2908 90.89094C308.2908 89.50523 307.1674 88.38189 305.7817 88.38189 304.396 88.38189 303.2727 89.50523 303.2727 90.89094 303.2727 92.27666 304.396 93.4 305.7817 93.4 307.1674 93.4 308.2908 92.27666 308.2908 90.89094Z" fill="#156082"/>
<path transform="matrix(.00007874016,0,0,.00007874016,303.2727,69.6)" stroke-width="6350" stroke-linecap="butt" stroke-linejoin="round" fill="none" stroke="#156082" d="M63730 31865C63730 49463.55 49463.55 63730 31865 63730 14266.45 63730 0 49463.55 0 31865 0 14266.45 14266.45 0 31865 0 49463.55 0 63730 14266.45 63730 31865Z"/>
<path transform="matrix(1,0,0,-1,0,163)" d="M312.6544 102.2365C312.6544 100.8507 311.5311 99.7274 310.1454 99.7274 308.7597 99.7274 307.6363 100.8507 307.6363 102.2365 307.6363 103.6222 308.7597 104.7455 310.1454 104.7455 311.5311 104.7455 312.6544 103.6222 312.6544 102.2365Z" fill="#156082"/>
<path transform="matrix(.00007874016,0,0,.00007874016,307.6363,58.2545)" stroke-width="6350" stroke-linecap="butt" stroke-linejoin="round" fill="none" stroke="#156082" d="M63730 31865C63730 49463.55 49463.55 63730 31865 63730 14266.45 63730 0 49463.55 0 31865 0 14266.45 14266.45 0 31865 0 49463.55 0 63730 14266.45 63730 31865Z"/>
<path transform="matrix(1,0,0,-1,0,163)" d="M317.0181 98.9637C317.0181 97.57799 315.8948 96.45464 314.5091 96.45464 313.1233 96.45464 312 97.57799 312 98.9637 312 100.3494 313.1233 101.4728 314.5091 101.4728 315.8948 101.4728 317.0181 100.3494 317.0181 98.9637Z" fill="#156082"/>
<path transform="matrix(.00007874016,0,0,.00007874016,312,61.5272)" stroke-width="6350" stroke-linecap="butt" stroke-linejoin="round" fill="none" stroke="#156082" d="M63730 31865C63730 49463.55 49463.55 63730 31865 63730 14266.45 63730 0 49463.55 0 31865 0 14266.45 14266.45 0 31865 0 49463.55 0 63730 14266.45 63730 31865Z"/>
<path transform="matrix(1,0,0,-1,0,163)" d="M321.1635 110.3091C321.1635 108.9234 320.0402 107.8001 318.6545 107.8001 317.2688 107.8001 316.1454 108.9234 316.1454 110.3091 316.1454 111.6948 317.2688 112.8182 318.6545 112.8182 320.0402 112.8182 321.1635 111.6948 321.1635 110.3091Z" fill="#156082"/>
<path transform="matrix(.00007874016,0,0,.00007874016,316.1454,50.1818)" stroke-width="6350" stroke-linecap="butt" stroke-linejoin="round" fill="none" stroke="#156082" d="M63730 31865C63730 49463.55 49463.55 63730 31865 63730 14266.45 63730 0 49463.55 0 31865 0 14266.45 14266.45 0 31865 0 49463.55 0 63730 14266.45 63730 31865Z"/>
<path transform="matrix(1,0,0,-1,0,163)" d="M325.5272 102.0183C325.5272 100.6326 324.4038 99.50922 323.0181 99.50922 321.6324 99.50922 320.5091 100.6326 320.5091 102.0183 320.5091 103.404 321.6324 104.5273 323.0181 104.5273 324.4038 104.5273 325.5272 103.404 325.5272 102.0183Z" fill="#156082"/>
<path transform="matrix(.00007874016,0,0,.00007874016,320.5091,58.472703)" stroke-width="6350" stroke-linecap="butt" stroke-linejoin="round" fill="none" stroke="#156082" d="M63730 31865C63730 49463.55 49463.55 63730 31865 63730 14266.45 63730 0 49463.55 0 31865 0 14266.45 14266.45 0 31865 0 49463.55 0 63730 14266.45 63730 31865Z"/>
<path transform="matrix(1,0,0,-1,0,163)" d="M329.8908 113.1455C329.8908 111.7598 328.7674 110.6365 327.3817 110.6365 325.996 110.6365 324.8727 111.7598 324.8727 113.1455 324.8727 114.5312 325.996 115.6546 327.3817 115.6546 328.7674 115.6546 329.8908 114.5312 329.8908 113.1455Z" fill="#156082"/>
<path transform="matrix(.00007874016,0,0,.00007874016,324.8727,47.345399)" stroke-width="6350" stroke-linecap="butt" stroke-linejoin="round" fill="none" stroke="#156082" d="M63730 31865C63730 49463.55 49463.55 63730 31865 63730 14266.45 63730 0 49463.55 0 31865 0 14266.45 14266.45 0 31865 0 49463.55 0 63730 14266.45 63730 31865Z"/>
<path transform="matrix(1,0,0,-1,0,163)" d="M334.2544 97.21827C334.2544 95.83256 333.1311 94.70922 331.7454 94.70922 330.3597 94.70922 329.2363 95.83256 329.2363 97.21827 329.2363 98.60398 330.3597 99.72733 331.7454 99.72733 333.1311 99.72733 334.2544 98.60398 334.2544 97.21827Z" fill="#156082"/>
<path transform="matrix(.00007874016,0,0,.00007874016,329.2363,63.272668)" stroke-width="6350" stroke-linecap="butt" stroke-linejoin="round" fill="none" stroke="#156082" d="M63730 31865C63730 49463.55 49463.55 63730 31865 63730 14266.45 63730 0 49463.55 0 31865 0 14266.45 14266.45 0 31865 0 49463.55 0 63730 14266.45 63730 31865Z"/>
<path transform="matrix(1,0,0,-1,0,163)" d="M338.6181 105.9455C338.6181 104.5598 337.4948 103.4365 336.1091 103.4365 334.7233 103.4365 333.6 104.5598 333.6 105.9455 333.6 107.3312 334.7233 108.4546 336.1091 108.4546 337.4948 108.4546 338.6181 107.3312 338.6181 105.9455Z" fill="#156082"/>
<path transform="matrix(.00007874016,0,0,.00007874016,333.6,54.545404)" stroke-width="6350" stroke-linecap="butt" stroke-linejoin="round" fill="none" stroke="#156082" d="M63730 31865C63730 49463.55 49463.55 63730 31865 63730 14266.45 63730 0 49463.55 0 31865 0 14266.45 14266.45 0 31865 0 49463.55 0 63730 14266.45 63730 31865Z"/>
<path transform="matrix(1,0,0,-1,0,163)" d="M342.7635 99.40008C342.7635 98.01436 341.6402 96.89102 340.2545 96.89102 338.8688 96.89102 337.7454 98.01436 337.7454 99.40008 337.7454 100.7858 338.8688 101.9091 340.2545 101.9091 341.6402 101.9091 342.7635 100.7858 342.7635 99.40008Z" fill="#156082"/>
<path transform="matrix(.00007874016,0,0,.00007874016,337.7454,61.090898)" stroke-width="6350" stroke-linecap="butt" stroke-linejoin="round" fill="none" stroke="#156082" d="M63730 31865C63730 49463.55 49463.55 63730 31865 63730 14266.45 63730 0 49463.55 0 31865 0 14266.45 14266.45 0 31865 0 49463.55 0 63730 14266.45 63730 31865Z"/>
<path transform="matrix(1,0,0,-1,0,163)" d="M347.1272 93.07284C347.1272 91.68712 346.0038 90.56378 344.6181 90.56378 343.2324 90.56378 342.1091 91.68712 342.1091 93.07284 342.1091 94.45855 343.2324 95.58189 344.6181 95.58189 346.0038 95.58189 347.1272 94.45855 347.1272 93.07284Z" fill="#156082"/>
<path transform="matrix(.00007874016,0,0,.00007874016,342.1091,67.41811)" stroke-width="6350" stroke-linecap="butt" stroke-linejoin="round" fill="none" stroke="#156082" d="M63730 31865C63730 49463.55 49463.55 63730 31865 63730 14266.45 63730 0 49463.55 0 31865 0 14266.45 14266.45 0 31865 0 49463.55 0 63730 14266.45 63730 31865Z"/>
<path transform="matrix(1,0,0,-1,0,163)" d="M351.4908 84.34551C351.4908 82.9598 350.3674 81.83646 348.9817 81.83646 347.596 81.83646 346.4727 82.9598 346.4727 84.34551 346.4727 85.73122 347.596 86.85457 348.9817 86.85457 350.3674 86.85457 351.4908 85.73122 351.4908 84.34551Z" fill="#156082"/>
<path transform="matrix(.00007874016,0,0,.00007874016,346.4727,76.14543)" stroke-width="6350" stroke-linecap="butt" stroke-linejoin="round" fill="none" stroke="#156082" d="M63730 31865C63730 49463.55 49463.55 63730 31865 63730 14266.45 63730 0 49463.55 0 31865 0 14266.45 14266.45 0 31865 0 49463.55 0 63730 14266.45 63730 31865Z"/>
<path transform="matrix(1,0,0,-1,0,163)" d="M355.8544 111.6183C355.8544 110.2326 354.7311 109.1092 353.3454 109.1092 351.9597 109.1092 350.8363 110.2326 350.8363 111.6183 350.8363 113.004 351.9597 114.1273 353.3454 114.1273 354.7311 114.1273 355.8544 113.004 355.8544 111.6183Z" fill="#156082"/>
<path transform="matrix(.00007874016,0,0,.00007874016,350.8363,48.872705)" stroke-width="6350" stroke-linecap="butt" stroke-linejoin="round" fill="none" stroke="#156082" d="M63730 31865C63730 49463.55 49463.55 63730 31865 63730 14266.45 63730 0 49463.55 0 31865 0 14266.45 14266.45 0 31865 0 49463.55 0 63730 14266.45 63730 31865Z"/>
<path transform="matrix(1,0,0,-1,0,163)" d="M360.2181 97.21827C360.2181 95.83256 359.0948 94.70922 357.7091 94.70922 356.3233 94.70922 355.2 95.83256 355.2 97.21827 355.2 98.60398 356.3233 99.72733 357.7091 99.72733 359.0948 99.72733 360.2181 98.60398 360.2181 97.21827Z" fill="#156082"/>
<path transform="matrix(.00007874016,0,0,.00007874016,355.2,63.272668)" stroke-width="6350" stroke-linecap="butt" stroke-linejoin="round" fill="none" stroke="#156082" d="M63730 31865C63730 49463.55 49463.55 63730 31865 63730 14266.45 63730 0 49463.55 0 31865 0 14266.45 14266.45 0 31865 0 49463.55 0 63730 14266.45 63730 31865Z"/>
<path transform="matrix(1,0,0,-1,0,163)" d="M364.3635 112.4909C364.3635 111.1052 363.2402 109.9819 361.8545 109.9819 360.4688 109.9819 359.3454 111.1052 359.3454 112.4909 359.3454 113.8767 360.4688 115 361.8545 115 363.2402 115 364.3635 113.8767 364.3635 112.4909Z" fill="#156082"/>
<path transform="matrix(.00007874016,0,0,.00007874016,359.3454,48)" stroke-width="6350" stroke-linecap="butt" stroke-linejoin="round" fill="none" stroke="#156082" d="M63730 31865C63730 49463.55 49463.55 63730 31865 63730 14266.45 63730 0 49463.55 0 31865 0 14266.45 14266.45 0 31865 0 49463.55 0 63730 14266.45 63730 31865Z"/>
<path transform="matrix(1,0,0,-1,0,163)" d="M368.7272 85.87284C368.7272 84.48712 367.6038 83.36378 366.2181 83.36378 364.8324 83.36378 363.7091 84.48712 363.7091 85.87284 363.7091 87.25855 364.8324 88.38189 366.2181 88.38189 367.6038 88.38189 368.7272 87.25855 368.7272 85.87284Z" fill="#156082"/>
<path transform="matrix(.00007874016,0,0,.00007874016,363.7091,74.61811)" stroke-width="6350" stroke-linecap="butt" stroke-linejoin="round" fill="none" stroke="#156082" d="M63730 31865C63730 49463.55 49463.55 63730 31865 63730 14266.45 63730 0 49463.55 0 31865 0 14266.45 14266.45 0 31865 0 49463.55 0 63730 14266.45 63730 31865Z"/>
<path transform="matrix(1,0,0,-1,0,163)" d="M373.0908 86.74551C373.0908 85.3598 371.9674 84.23646 370.5817 84.23646 369.196 84.23646 368.0727 85.3598 368.0727 86.74551 368.0727 88.13122 369.196 89.25457 370.5817 89.25457 371.9674 89.25457 373.0908 88.13122 373.0908 86.74551Z" fill="#156082"/>
<path transform="matrix(.00007874016,0,0,.00007874016,368.0727,73.74543)" stroke-width="6350" stroke-linecap="butt" stroke-linejoin="round" fill="none" stroke="#156082" d="M63730 31865C63730 49463.55 49463.55 63730 31865 63730 14266.45 63730 0 49463.55 0 31865 0 14266.45 14266.45 0 31865 0 49463.55 0 63730 14266.45 63730 31865Z"/>
<path transform="matrix(1,0,0,-1,0,163)" d="M377.4544 80.85465C377.4544 79.46893 376.3311 78.34559 374.9454 78.34559 373.5597 78.34559 372.4363 79.46893 372.4363 80.85465 372.4363 82.24036 373.5597 83.3637 374.9454 83.3637 376.3311 83.3637 377.4544 82.24036 377.4544 80.85465Z" fill="#156082"/>
<path transform="matrix(.00007874016,0,0,.00007874016,372.4363,79.6363)" stroke-width="6350" stroke-linecap="butt" stroke-linejoin="round" fill="none" stroke="#156082" d="M63730 31865C63730 49463.55 49463.55 63730 31865 63730 14266.45 63730 0 49463.55 0 31865 0 14266.45 14266.45 0 31865 0 49463.55 0 63730 14266.45 63730 31865Z"/>
<path transform="matrix(1,0,0,-1,0,163)" d="M381.8181 114.8909C381.8181 113.5052 380.6948 112.3819 379.3091 112.3819 377.9233 112.3819 376.8 113.5052 376.8 114.8909 376.8 116.2767 377.9233 117.4 379.3091 117.4 380.6948 117.4 381.8181 116.2767 381.8181 114.8909Z" fill="#156082"/>
<path transform="matrix(.00007874016,0,0,.00007874016,376.8,45.6)" stroke-width="6350" stroke-linecap="butt" stroke-linejoin="round" fill="none" stroke="#156082" d="M63730 31865C63730 49463.55 49463.55 63730 31865 63730 14266.45 63730 0 49463.55 0 31865 0 14266.45 14266.45 0 31865 0 49463.55 0 63730 14266.45 63730 31865Z"/>
<path transform="matrix(1,0,0,-1,0,163)" d="M385.9635 100.2728C385.9635 98.88712 384.8402 97.76378 383.4545 97.76378 382.0688 97.76378 380.9454 98.88712 380.9454 100.2728 380.9454 101.6585 382.0688 102.7819 383.4545 102.7819 384.8402 102.7819 385.9635 101.6585 385.9635 100.2728Z" fill="#156082"/>
<path transform="matrix(.00007874016,0,0,.00007874016,380.9454,60.2181)" stroke-width="6350" stroke-linecap="butt" stroke-linejoin="round" fill="none" stroke="#156082" d="M63730 31865C63730 49463.55 49463.55 63730 31865 63730 14266.45 63730 0 49463.55 0 31865 0 14266.45 14266.45 0 31865 0 49463.55 0 63730 14266.45 63730 31865Z"/>
<path transform="matrix(1,0,0,-1,0,163)" d="M390.3272 107.6909C390.3272 106.3052 389.2038 105.1819 387.8181 105.1819 386.4324 105.1819 385.3091 106.3052 385.3091 107.6909 385.3091 109.0767 386.4324 110.2 387.8181 110.2 389.2038 110.2 390.3272 109.0767 390.3272 107.6909Z" fill="#156082"/>
<path transform="matrix(.00007874016,0,0,.00007874016,385.3091,52.800004)" stroke-width="6350" stroke-linecap="butt" stroke-linejoin="round" fill="none" stroke="#156082" d="M63730 31865C63730 49463.55 49463.55 63730 31865 63730 14266.45 63730 0 49463.55 0 31865 0 14266.45 14266.45 0 31865 0 49463.55 0 63730 14266.45 63730 31865Z"/>
<path transform="matrix(1,0,0,-1,0,163)" d="M394.6908 99.61827C394.6908 98.23256 393.5674 97.10922 392.1817 97.10922 390.796 97.10922 389.6727 98.23256 389.6727 99.61827 389.6727 101.004 390.796 102.1273 392.1817 102.1273 393.5674 102.1273 394.6908 101.004 394.6908 99.61827Z" fill="#156082"/>
<path transform="matrix(.00007874016,0,0,.00007874016,389.6727,60.872705)" stroke-width="6350" stroke-linecap="butt" stroke-linejoin="round" fill="none" stroke="#156082" d="M63730 31865C63730 49463.55 49463.55 63730 31865 63730 14266.45 63730 0 49463.55 0 31865 0 14266.45 14266.45 0 31865 0 49463.55 0 63730 14266.45 63730 31865Z"/>
<path transform="matrix(1,0,0,-1,0,163)" d="M399.0544 113.1455C399.0544 111.7598 397.9311 110.6365 396.5454 110.6365 395.1597 110.6365 394.0363 111.7598 394.0363 113.1455 394.0363 114.5312 395.1597 115.6546 396.5454 115.6546 397.9311 115.6546 399.0544 114.5312 399.0544 113.1455Z" fill="#156082"/>
<path transform="matrix(.00007874016,0,0,.00007874016,394.0363,47.345399)" stroke-width="6350" stroke-linecap="butt" stroke-linejoin="round" fill="none" stroke="#156082" d="M63730 31865C63730 49463.55 49463.55 63730 31865 63730 14266.45 63730 0 49463.55 0 31865 0 14266.45 14266.45 0 31865 0 49463.55 0 63730 14266.45 63730 31865Z"/>
<path transform="matrix(1,0,0,-1,0,163)" d="M403.1999 105.7273C403.1999 104.3416 402.0766 103.2183 400.6909 103.2183 399.3052 103.2183 398.1818 104.3416 398.1818 105.7273 398.1818 107.113 399.3052 108.2364 400.6909 108.2364 402.0766 108.2364 403.1999 107.113 403.1999 105.7273Z" fill="#156082"/>
<path transform="matrix(.00007874016,0,0,.00007874016,398.1818,54.763605)" stroke-width="6350" stroke-linecap="butt" stroke-linejoin="round" fill="none" stroke="#156082" d="M63730 31865C63730 49463.55 49463.55 63730 31865 63730 14266.45 63730 0 49463.55 0 31865 0 14266.45 14266.45 0 31865 0 49463.55 0 63730 14266.45 63730 31865Z"/>
<path transform="matrix(1,0,0,-1,0,163)" d="M407.5635 112.4909C407.5635 111.1052 406.4402 109.9819 405.0545 109.9819 403.6688 109.9819 402.5454 111.1052 402.5454 112.4909 402.5454 113.8767 403.6688 115 405.0545 115 406.4402 115 407.5635 113.8767 407.5635 112.4909Z" fill="#156082"/>
<path transform="matrix(.00007874016,0,0,.00007874016,402.5454,48)" stroke-width="6350" stroke-linecap="butt" stroke-linejoin="round" fill="none" stroke="#156082" d="M63730 31865C63730 49463.55 49463.55 63730 31865 63730 14266.45 63730 0 49463.55 0 31865 0 14266.45 14266.45 0 31865 0 49463.55 0 63730 14266.45 63730 31865Z"/>
<path transform="matrix(1,0,0,-1,0,163)" d="M411.9272 101.1455C411.9272 99.7598 410.8038 98.63646 409.4181 98.63646 408.0324 98.63646 406.9091 99.7598 406.9091 101.1455 406.9091 102.5312 408.0324 103.6546 409.4181 103.6546 410.8038 103.6546 411.9272 102.5312 411.9272 101.1455Z" fill="#156082"/>
<path transform="matrix(.00007874016,0,0,.00007874016,406.9091,59.345399)" stroke-width="6350" stroke-linecap="butt" stroke-linejoin="round" fill="none" stroke="#156082" d="M63730 31865C63730 49463.55 49463.55 63730 31865 63730 14266.45 63730 0 49463.55 0 31865 0 14266.45 14266.45 0 31865 0 49463.55 0 63730 14266.45 63730 31865Z"/>
</g>
<g clip-path="url(#clip_7)">
<path transform="matrix(1,0,0,-1,0,163)" d="M114.109 68.41827C114.109 67.03256 112.9856 65.90922 111.5999 65.90922 110.2142 65.90922 109.0909 67.03256 109.0909 68.41827 109.0909 69.80398 110.2142 70.92733 111.5999 70.92733 112.9856 70.92733 114.109 69.80398 114.109 68.41827Z" fill="#ea4a46"/>
<path transform="matrix(.00007874016,0,0,.00007874016,109.0909,92.07267)" stroke-width="6350" stroke-linecap="butt" stroke-linejoin="round" fill="none" stroke="#ea4a46" d="M63730 31865C63730 49463.55 49463.55 63730 31865 63730 14266.45 63730 0 49463.55 0 31865 0 14266.45 14266.45 0 31865 0 49463.55 0 63730 14266.45 63730 31865Z"/>
<path transform="matrix(1,0,0,-1,0,163)" d="M170.1817 106.1637C170.1817 104.778 169.0584 103.6546 167.6727 103.6546 166.287 103.6546 165.1636 104.778 165.1636 106.1637 165.1636 107.5494 166.287 108.6728 167.6727 108.6728 169.0584 108.6728 170.1817 107.5494 170.1817 106.1637Z" fill="#ea4a46"/>
<path transform="matrix(.00007874016,0,0,.00007874016,165.1636,54.3272)" stroke-width="6350" stroke-linecap="butt" stroke-linejoin="round" fill="none" stroke="#ea4a46" d="M63730 31865C63730 49463.55 49463.55 63730 31865 63730 14266.45 63730 0 49463.55 0 31865 0 14266.45 14266.45 0 31865 0 49463.55 0 63730 14266.45 63730 31865Z"/>
<path transform="matrix(1,0,0,-1,0,163)" d="M234.9817 87.83646C234.9817 86.45075 233.8584 85.3274 232.4727 85.3274 231.087 85.3274 229.9636 86.45075 229.9636 87.83646 229.9636 89.22217 231.087 90.34551 232.4727 90.34551 233.8584 90.34551 234.9817 89.22217 234.9817 87.83646Z" fill="#ea4a46"/>
<path transform="matrix(.00007874016,0,0,.00007874016,229.9636,72.65449)" stroke-width="6350" stroke-linecap="butt" stroke-linejoin="round" fill="none" stroke="#ea4a46" d="M63730 31865C63730 49463.55 49463.55 63730 31865 63730 14266.45 63730 0 49463.55 0 31865 0 14266.45 14266.45 0 31865 0 49463.55 0 63730 14266.45 63730 31865Z"/>
<path transform="matrix(1,0,0,-1,0,163)" d="M295.4181 98.9637C295.4181 97.57799 294.2948 96.45464 292.9091 96.45464 291.5233 96.45464 290.4 97.57799 290.4 98.9637 290.4 100.3494 291.5233 101.4728 292.9091 101.4728 294.2948 101.4728 295.4181 100.3494 295.4181 98.9637Z" fill="#ea4a46"/>
<path transform="matrix(.00007874016,0,0,.00007874016,290.4,61.5272)" stroke-width="6350" stroke-linecap="butt" stroke-linejoin="round" fill="none" stroke="#ea4a46" d="M63730 31865C63730 49463.55 49463.55 63730 31865 63730 14266.45 63730 0 49463.55 0 31865 0 14266.45 14266.45 0 31865 0 49463.55 0 63730 14266.45 63730 31865Z"/>
<path transform="matrix(1,0,0,-1,0,163)" d="M329.8908 113.1455C329.8908 111.7598 328.7674 110.6365 327.3817 110.6365 325.996 110.6365 324.8727 111.7598 324.8727 113.1455 324.8727 114.5312 325.996 115.6546 327.3817 115.6546 328.7674 115.6546 329.8908 114.5312 329.8908 113.1455Z" fill="#ea4a46"/>
<path transform="matrix(.00007874016,0,0,.00007874016,324.8727,47.345399)" stroke-width="6350" stroke-linecap="butt" stroke-linejoin="round" fill="none" stroke="#ea4a46" d="M63730 31865C63730 49463.55 49463.55 63730 31865 63730 14266.45 63730 0 49463.55 0 31865 0 14266.45 14266.45 0 31865 0 49463.55 0 63730 14266.45 63730 31865Z"/>
<path transform="matrix(1,0,0,-1,0,163)" d="M364.3635 112.4909C364.3635 111.1052 363.2402 109.9819 361.8545 109.9819 360.4688 109.9819 359.3454 111.1052 359.3454 112.4909 359.3454 113.8767 360.4688 115 361.8545 115 363.2402 115 364.3635 113.8767 364.3635 112.4909Z" fill="#ea4a46"/>
<path transform="matrix(.00007874016,0,0,.00007874016,359.3454,48)" stroke-width="6350" stroke-linecap="butt" stroke-linejoin="round" fill="none" stroke="#ea4a46" d="M63730 31865C63730 49463.55 49463.55 63730 31865 63730 14266.45 63730 0 49463.55 0 31865 0 14266.45 14266.45 0 31865 0 49463.55 0 63730 14266.45 63730 31865Z"/>
<path transform="matrix(1,0,0,-1,0,163)" d="M399.0544 113.1455C399.0544 111.7598 397.9311 110.6365 396.5454 110.6365 395.1597 110.6365 394.0363 111.7598 394.0363 113.1455 394.0363 114.5312 395.1597 115.6546 396.5454 115.6546 397.9311 115.6546 399.0544 114.5312 399.0544 113.1455Z" fill="#ea4a46"/>
<path transform="matrix(.00007874016,0,0,.00007874016,394.0363,47.345399)" stroke-width="6350" stroke-linecap="butt" stroke-linejoin="round" fill="none" stroke="#ea4a46" d="M63730 31865C63730 49463.55 49463.55 63730 31865 63730 14266.45 63730 0 49463.55 0 31865 0 14266.45 14266.45 0 31865 0 49463.55 0 63730 14266.45 63730 31865Z"/>
</g>
<g clip-path="url(#clip_8)">
<text fill="#595959" xml:space="preserve" transform="matrix(.2181818 0 -0 .2181818 11.38 303.7091)" font-size="41" font-family="YuMincho"><tspan y="-747" x="0">0</tspan></text>
</g>
<g clip-path="url(#clip_9)">
<text fill="#595959" xml:space="preserve" transform="matrix(.2181818 0 -0 .2181818 11.38 266.1818)" font-size="41" font-family="YuMincho"><tspan y="-747" x="0">5</tspan></text>
</g>
<g clip-path="url(#clip_10)">
<text fill="#595959" xml:space="preserve" transform="matrix(.2181818 0 -0 .2181818 6.499999 228.65454)" font-size="41" font-family="YuMincho"><tspan y="-747" x="0 22.000603">10</tspan></text>
</g>
<g clip-path="url(#clip_11)">
<text fill="#595959" xml:space="preserve" transform="matrix(.2181818 0 -0 .2181818 6.499999 190.90909)" font-size="41" font-family="YuMincho"><tspan y="-747" x="0 22.000603">15</tspan></text>
</g>
<g clip-path="url(#clip_12)">
<text fill="#595959" xml:space="preserve" transform="matrix(.2181818 0 -0 .2181818 22.59496 316.1454)" font-size="41" font-family="YuMincho"><tspan y="-747" x="0">0</tspan></text>
</g>
<g clip-path="url(#clip_13)">
<text fill="#595959" xml:space="preserve" transform="matrix(.2181818 0 -0 .2181818 63.33307 316.1454)" font-size="41" font-family="YuMincho"><tspan y="-747" x="0 22.000603">10</tspan></text>
</g>
<g clip-path="url(#clip_14)">
<text fill="#595959" xml:space="preserve" transform="matrix(.2181818 0 -0 .2181818 106.5112 316.1454)" font-size="41" font-family="YuMincho"><tspan y="-747" x="0 22.000603">20</tspan></text>
</g>
<g clip-path="url(#clip_15)">
<text fill="#595959" xml:space="preserve" transform="matrix(.2181818 0 -0 .2181818 149.6892 316.1454)" font-size="41" font-family="YuMincho"><tspan y="-747" x="0 22.000603">30</tspan></text>
</g>
<g clip-path="url(#clip_16)">
<text fill="#595959" xml:space="preserve" transform="matrix(.2181818 0 -0 .2181818 192.8673 316.1454)" font-size="41" font-family="YuMincho"><tspan y="-747" x="0 22.000603">40</tspan></text>
</g>
<g clip-path="url(#clip_17)">
<text fill="#595959" xml:space="preserve" transform="matrix(.2181818 0 -0 .2181818 236.0454 316.1454)" font-size="41" font-family="YuMincho"><tspan y="-747" x="0 22.000603">50</tspan></text>
</g>
<g clip-path="url(#clip_18)">
<text fill="#595959" xml:space="preserve" transform="matrix(.2181818 0 -0 .2181818 279.2235 316.1454)" font-size="41" font-family="YuMincho"><tspan y="-747" x="0 22.000603">60</tspan></text>
</g>
<g clip-path="url(#clip_19)">
<text fill="#595959" xml:space="preserve" transform="matrix(.2181818 0 -0 .2181818 322.4016 316.1454)" font-size="41" font-family="YuMincho"><tspan y="-747" x="0 22.000603">70</tspan></text>
</g>
<g clip-path="url(#clip_20)">
<text fill="#595959" xml:space="preserve" transform="matrix(.2181818 0 -0 .2181818 365.5797 316.1454)" font-size="41" font-family="YuMincho"><tspan y="-747" x="0 22.000603">80</tspan></text>
</g>
<g clip-path="url(#clip_21)">
<text fill="#595959" xml:space="preserve" transform="matrix(.22035283 0 -0 .21603216 115.7675 176.94545)" font-size="47.52708" font-family="YuMincho"><tspan y="-755.15597" x="0 40.64041 64.97903 87.98689 111.755199 135.90372 148.31304 177.97469 192.6178 206.35787 223.80506 248.14366 267.587 279.9963 311.41648 335.18476 363.18296 376.92304 400.6913 423.69917 438.34226 462.11054 490.7266 503.1359 538.3582 562.1266 581.56997 596.2131 619.9814 648.5974 671.6053 695.944 708.3533 735.8287 759.97726 772.38656 802.0483 821.49166 845.25997 886.75588">Decay Filter Laplacian Variance by Frame</tspan></text>
<text fill="#595959" xml:space="preserve" transform="matrix(.22035283 0 -0 .21603216 115.7675 176.94545)" font-size="47.52708" font-family="YuMincho"><tspan y="-755.15597" x="0 40.64041 64.97903 87.98689 111.755199 135.90372 148.31304 177.97469 192.6178 206.35787 223.80506 248.14366 267.587 279.9963 311.41648 335.18476 363.18296 376.92304 400.6913 423.69917 438.34226 462.11054 490.7266 503.1359 538.3582 562.1266 581.56997 596.2131 619.9814 648.5974 671.6053 695.944 708.3533 735.8287 759.97726 772.38656 802.0483 821.49166 845.25997 886.75588">Decay Filter Laplacian Variance by Frame</tspan></text>
</g>
</svg>
