<svg xmlns="http://www.w3.org/2000/svg" xmlns:xlink="http://www.w3.org/1999/xlink" xmlns:inkscape="http://www.inkscape.org/namespaces/inkscape" version="1.1" width="425" height="283" viewBox="0 0 425 283">
<defs>
<clipPath id="clip_0">
<path transform="matrix(1,0,0,-1,0,283)" d="M0 0H425V283H0Z"/>
</clipPath>
<clipPath id="clip_1">
<path transform="matrix(1,0,0,-1,0,283)" d="M0 283H425V.08505635H0Z" clip-rule="evenodd"/>
</clipPath>
<clipPath id="clip_2">
<path transform="matrix(1,0,0,-1,0,283)" d="M0 .000005245209H425V283H0Z"/>
</clipPath>
<clipPath id="clip_3">
<path transform="matrix(1,0,0,-1,0,283)" d="M6.810897 278.6462H418.1891V4.625978H6.810897Z" clip-rule="evenodd"/>
</clipPath>
<clipPath id="clip_4">
<path transform="matrix(1,0,0,-1,0,283)" d="M0 .000005245209H425V283H0Z"/>
</clipPath>
<clipPath id="clip_5">
<path transform="matrix(1,0,0,-1,0,283)" d="M206.5836 87.94955H263.2219V74.81684H206.5836Z" clip-rule="evenodd"/>
</clipPath>
<clipPath id="clip_6">
<path transform="matrix(1,0,0,-1,0,283)" d="M0 .000005245209H425V283H0Z"/>
</clipPath>
<clipPath id="clip_7">
<path transform="matrix(1,0,0,-1,0,283)" d="M6.810897 278.6462H418.1891V4.625978H6.810897Z" clip-rule="evenodd"/>
</clipPath>
<clipPath id="clip_8">
<path transform="matrix(1,0,0,-1,0,283)" d="M0 .000005245209H425V283H0Z"/>
</clipPath>
<clipPath id="clip_9">
<path transform="matrix(1,0,0,-1,0,283)" d="M206.5836 73.80663H263.2219V60.6739H206.5836Z" clip-rule="evenodd"/>
</clipPath>
<clipPath id="clip_10">
<path transform="matrix(1,0,0,-1,0,283)" d="M0 .000005245209H425V283H0Z"/>
</clipPath>
<clipPath id="clip_11">
<path transform="matrix(1,0,0,-1,0,283)" d="M6.810897 278.6462H418.1891V4.625978H6.810897Z" clip-rule="evenodd"/>
</clipPath>
<clipPath id="clip_12">
<path transform="matrix(1,0,0,-1,0,283)" d="M0 .000005245209H425V283H0Z"/>
</clipPath>
<clipPath id="clip_13">
<path transform="matrix(1,0,0,-1,0,283)" d="M130.7286 188.9705H187.367V175.8378H130.7286Z" clip-rule="evenodd"/>
</clipPath>
<clipPath id="clip_14">
<path transform="matrix(1,0,0,-1,0,283)" d="M0 .000005245209H425V283H0Z"/>
</clipPath>
<clipPath id="clip_15">
<path transform="matrix(1,0,0,-1,0,283)" d="M6.810897 278.6462H418.1891V4.625978H6.810897Z" clip-rule="evenodd"/>
</clipPath>
<clipPath id="clip_16">
<path transform="matrix(1,0,0,-1,0,283)" d="M0 .000005245209H425V283H0Z"/>
</clipPath>
<clipPath id="clip_17">
<path transform="matrix(1,0,0,-1,0,283)" d="M130.7286 174.8276H187.367V161.6948H130.7286Z" clip-rule="evenodd"/>
</clipPath>
<clipPath id="clip_18">
<path transform="matrix(1,0,0,-1,0,283)" d="M0 .000005245209H425V283H0Z"/>
</clipPath>
<clipPath id="clip_19">
<path transform="matrix(1,0,0,-1,0,283)" d="M6.810897 278.6462H418.1891V4.625978H6.810897Z" clip-rule="evenodd"/>
</clipPath>
<clipPath id="clip_20">
<path transform="matrix(1,0,0,-1,0,283)" d="M0 .000005245209H425V283H0Z"/>
</clipPath>
<clipPath id="clip_21">
<path transform="matrix(1,0,0,-1,0,283)" d="M206.5836 162.7051H263.2219V149.5723H206.5836Z" clip-rule="evenodd"/>
</clipPath>
<clipPath id="clip_22">
<path transform="matrix(1,0,0,-1,0,283)" d="M0 .000005245209H425V283H0Z"/>
</clipPath>
<clipPath id="clip_23">
<path transform="matrix(1,0,0,-1,0,283)" d="M206.5836 149.5723H263.2219V130.3784H206.5836Z" clip-rule="evenodd"/>
</clipPath>
<clipPath id="clip_24">
<path transform="matrix(1,0,0,-1,0,283)" d="M0 .000005245209H425V283H0Z"/>
</clipPath>
<clipPath id="clip_25">
<path transform="matrix(1,0,0,-1,0,283)" d="M206.5836 130.3784H263.2219V117.2456H206.5836Z" clip-rule="evenodd"/>
</clipPath>
<clipPath id="clip_26">
<path transform="matrix(1,0,0,-1,0,283)" d="M0 .000005245209H425V283H0Z"/>
</clipPath>
<clipPath id="clip_27">
<path transform="matrix(1,0,0,-1,0,283)" d="M6.810897 278.6462H418.1891V4.625978H6.810897Z" clip-rule="evenodd"/>
</clipPath>
<clipPath id="clip_28">
<path transform="matrix(1,0,0,-1,0,283)" d="M0 .000005245209H425V283H0Z"/>
</clipPath>
<clipPath id="clip_29">
<path transform="matrix(1,0,0,-1,0,283)" d="M206.5836 113.2048H263.2219V100.0721H206.5836Z" clip-rule="evenodd"/>
</clipPath>
<clipPath id="clip_30">
<path transform="matrix(1,0,0,-1,0,283)" d="M0 .000005245209H425V283H0Z"/>
</clipPath>
<clipPath id="clip_31">
<path transform="matrix(1,0,0,-1,0,283)" d="M6.810897 278.6462H418.1891V4.625978H6.810897Z" clip-rule="evenodd"/>
</clipPath>
<clipPath id="clip_32">
<path transform="matrix(1,0,0,-1,0,283)" d="M0 .000005245209H425V283H0Z"/>
</clipPath>
<clipPath id="clip_33">
<path transform="matrix(1,0,0,-1,0,283)" d="M282.4385 257.6647H339.0769V244.532H282.4385Z" clip-rule="evenodd"/>
</clipPath>
<clipPath id="clip_34">
<path transform="matrix(1,0,0,-1,0,283)" d="M0 .000005245209H425V283H0Z"/>
</clipPath>
<clipPath id="clip_35">
<path transform="matrix(1,0,0,-1,0,283)" d="M282.4385 244.532H339.0769V231.3993H282.4385Z" clip-rule="evenodd"/>
</clipPath>
<clipPath id="clip_36">
<path transform="matrix(1,0,0,-1,0,283)" d="M0 .000005245209H425V283H0Z"/>
</clipPath>
<clipPath id="clip_37">
<path transform="matrix(1,0,0,-1,0,283)" d="M282.4385 231.3993H339.0769V218.2666H282.4385Z" clip-rule="evenodd"/>
</clipPath>
<clipPath id="clip_38">
<path transform="matrix(1,0,0,-1,0,283)" d="M0 .000005245209H425V283H0Z"/>
</clipPath>
<clipPath id="clip_39">
<path transform="matrix(1,0,0,-1,0,283)" d="M6.810897 278.6462H418.1891V4.625978H6.810897Z" clip-rule="evenodd"/>
</clipPath>
<clipPath id="clip_40">
<path transform="matrix(1,0,0,-1,0,283)" d="M0 .000005245209H425V283H0Z"/>
</clipPath>
<clipPath id="clip_41">
<path transform="matrix(1,0,0,-1,0,283)" d="M282.4385 214.2257H339.0769V201.093H282.4385Z" clip-rule="evenodd"/>
</clipPath>
<clipPath id="clip_42">
<path transform="matrix(1,0,0,-1,0,283)" d="M0 .000005245209H425V283H0Z"/>
</clipPath>
<clipPath id="clip_43">
<path transform="matrix(1,0,0,-1,0,283)" d="M6.810897 278.6462H418.1891V4.625978H6.810897Z" clip-rule="evenodd"/>
</clipPath>
<clipPath id="clip_44">
<path transform="matrix(1,0,0,-1,0,283)" d="M0 .000005245209H425V283H0Z"/>
</clipPath>
<clipPath id="clip_45">
<path transform="matrix(1,0,0,-1,0,283)" d="M130.7286 257.6647H187.367V244.532H130.7286Z" clip-rule="evenodd"/>
</clipPath>
<clipPath id="clip_46">
<path transform="matrix(1,0,0,-1,0,283)" d="M0 .000005245209H425V283H0Z"/>
</clipPath>
<clipPath id="clip_47">
<path transform="matrix(1,0,0,-1,0,283)" d="M130.7286 244.532H187.367V231.3993H130.7286Z" clip-rule="evenodd"/>
</clipPath>
<clipPath id="clip_48">
<path transform="matrix(1,0,0,-1,0,283)" d="M0 .000005245209H425V283H0Z"/>
</clipPath>
<clipPath id="clip_49">
<path transform="matrix(1,0,0,-1,0,283)" d="M130.7286 231.3993H187.367V218.2666H130.7286Z" clip-rule="evenodd"/>
</clipPath>
<clipPath id="clip_50">
<path transform="matrix(1,0,0,-1,0,283)" d="M0 .000005245209H425V283H0Z"/>
</clipPath>
<clipPath id="clip_51">
<path transform="matrix(1,0,0,-1,0,283)" d="M6.810897 278.6462H418.1891V4.625978H6.810897Z" clip-rule="evenodd"/>
</clipPath>
<clipPath id="clip_52">
<path transform="matrix(1,0,0,-1,0,283)" d="M0 .000005245209H425V283H0Z"/>
</clipPath>
<clipPath id="clip_53">
<path transform="matrix(1,0,0,-1,0,283)" d="M130.7286 214.2257H187.367V201.093H130.7286Z" clip-rule="evenodd"/>
</clipPath>
<clipPath id="clip_54">
<path transform="matrix(1,0,0,-1,0,283)" d="M0 .000005245209H425V283H0Z"/>
</clipPath>
<clipPath id="clip_55">
<path transform="matrix(1,0,0,-1,0,283)" d="M6.810897 278.6462H418.1891V4.625978H6.810897Z" clip-rule="evenodd"/>
</clipPath>
<clipPath id="clip_56">
<path transform="matrix(1,0,0,-1,0,283)" d="M0 .000005245209H425V283H0Z"/>
</clipPath>
<clipPath id="clip_57">
<path transform="matrix(1,0,0,-1,0,283)" d="M9.360685 269.7873H65.99905V256.6545H9.360685Z" clip-rule="evenodd"/>
</clipPath>
<clipPath id="clip_58">
<path transform="matrix(1,0,0,-1,0,283)" d="M0 .000005245209H425V283H0Z"/>
</clipPath>
<clipPath id="clip_59">
<path transform="matrix(1,0,0,-1,0,283)" d="M6.810897 278.6462H418.1891V4.625978H6.810897Z" clip-rule="evenodd"/>
</clipPath>
<clipPath id="clip_60">
<path transform="matrix(1,0,0,-1,0,283)" d="M0 .000005245209H425V283H0Z"/>
</clipPath>
<clipPath id="clip_61">
<path transform="matrix(1,0,0,-1,0,283)" d="M358.2935 257.6647H414.9318V244.532H358.2935Z" clip-rule="evenodd"/>
</clipPath>
<clipPath id="clip_62">
<path transform="matrix(1,0,0,-1,0,283)" d="M0 .000005245209H425V283H0Z"/>
</clipPath>
<clipPath id="clip_63">
<path transform="matrix(1,0,0,-1,0,283)" d="M358.2935 244.532H414.9318V231.3993H358.2935Z" clip-rule="evenodd"/>
</clipPath>
<clipPath id="clip_64">
<path transform="matrix(1,0,0,-1,0,283)" d="M0 .000005245209H425V283H0Z"/>
</clipPath>
<clipPath id="clip_65">
<path transform="matrix(1,0,0,-1,0,283)" d="M358.2935 231.3993H414.9318V218.2666H358.2935Z" clip-rule="evenodd"/>
</clipPath>
<clipPath id="clip_66">
<path transform="matrix(1,0,0,-1,0,283)" d="M0 .000005245209H425V283H0Z"/>
</clipPath>
<clipPath id="clip_67">
<path transform="matrix(1,0,0,-1,0,283)" d="M6.810897 278.6462H418.1891V4.625978H6.810897Z" clip-rule="evenodd"/>
</clipPath>
<clipPath id="clip_68">
<path transform="matrix(1,0,0,-1,0,283)" d="M0 .000005245209H425V283H0Z"/>
</clipPath>
<clipPath id="clip_69">
<path transform="matrix(1,0,0,-1,0,283)" d="M358.2935 214.2257H414.9318V201.093H358.2935Z" clip-rule="evenodd"/>
</clipPath>
<clipPath id="clip_70">
<path transform="matrix(1,0,0,-1,0,283)" d="M0 .000005245209H425V283H0Z"/>
</clipPath>
<clipPath id="clip_71">
<path transform="matrix(1,0,0,-1,0,283)" d="M6.810897 278.6462H418.1891V4.625978H6.810897Z" clip-rule="evenodd"/>
</clipPath>
<clipPath id="clip_72">
<path transform="matrix(1,0,0,-1,0,283)" d="M0 .000005245209H425V283H0Z"/>
</clipPath>
<clipPath id="clip_73">
<path transform="matrix(1,0,0,-1,0,283)" d="M282.4385 162.7051H339.0769V149.5723H282.4385Z" clip-rule="evenodd"/>
</clipPath>
<clipPath id="clip_74">
<path transform="matrix(1,0,0,-1,0,283)" d="M0 .000005245209H425V283H0Z"/>
</clipPath>
<clipPath id="clip_75">
<path transform="matrix(1,0,0,-1,0,283)" d="M282.4385 149.5723H339.0769V136.4396H282.4385Z" clip-rule="evenodd"/>
</clipPath>
<clipPath id="clip_76">
<path transform="matrix(1,0,0,-1,0,283)" d="M0 .000005245209H425V283H0Z"/>
</clipPath>
<clipPath id="clip_77">
<path transform="matrix(1,0,0,-1,0,283)" d="M282.4385 136.4396H339.0769V123.3069H282.4385Z" clip-rule="evenodd"/>
</clipPath>
<clipPath id="clip_78">
<path transform="matrix(1,0,0,-1,0,283)" d="M0 .000005245209H425V283H0Z"/>
</clipPath>
<clipPath id="clip_79">
<path transform="matrix(1,0,0,-1,0,283)" d="M6.810897 278.6462H418.1891V4.625978H6.810897Z" clip-rule="evenodd"/>
</clipPath>
<clipPath id="clip_80">
<path transform="matrix(1,0,0,-1,0,283)" d="M0 .000005245209H425V283H0Z"/>
</clipPath>
<clipPath id="clip_81">
<path transform="matrix(1,0,0,-1,0,283)" d="M282.4385 119.2661H339.0769V106.1333H282.4385Z" clip-rule="evenodd"/>
</clipPath>
<clipPath id="clip_82">
<path transform="matrix(1,0,0,-1,0,283)" d="M0 .000005245209H425V283H0Z"/>
</clipPath>
<clipPath id="clip_83">
<path transform="matrix(1,0,0,-1,0,283)" d="M6.810897 278.6462H418.1891V4.625978H6.810897Z" clip-rule="evenodd"/>
</clipPath>
<clipPath id="clip_84">
<path transform="matrix(1,0,0,-1,0,283)" d="M0 .000005245209H425V283H0Z"/>
</clipPath>
<clipPath id="clip_85">
<path transform="matrix(1,0,0,-1,0,283)" d="M358.2935 162.7051H414.9318V149.5723H358.2935Z" clip-rule="evenodd"/>
</clipPath>
<clipPath id="clip_86">
<path transform="matrix(1,0,0,-1,0,283)" d="M0 .000005245209H425V283H0Z"/>
</clipPath>
<clipPath id="clip_87">
<path transform="matrix(1,0,0,-1,0,283)" d="M358.2935 149.5723H414.9318V136.4396H358.2935Z" clip-rule="evenodd"/>
</clipPath>
<clipPath id="clip_88">
<path transform="matrix(1,0,0,-1,0,283)" d="M0 .000005245209H425V283H0Z"/>
</clipPath>
<clipPath id="clip_89">
<path transform="matrix(1,0,0,-1,0,283)" d="M358.2935 136.4396H414.9318V123.3069H358.2935Z" clip-rule="evenodd"/>
</clipPath>
<clipPath id="clip_90">
<path transform="matrix(1,0,0,-1,0,283)" d="M0 .000005245209H425V283H0Z"/>
</clipPath>
<clipPath id="clip_91">
<path transform="matrix(1,0,0,-1,0,283)" d="M6.810897 278.6462H418.1891V4.625978H6.810897Z" clip-rule="evenodd"/>
</clipPath>
<clipPath id="clip_92">
<path transform="matrix(1,0,0,-1,0,283)" d="M0 .000005245209H425V283H0Z"/>
</clipPath>
<clipPath id="clip_93">
<path transform="matrix(1,0,0,-1,0,283)" d="M358.2935 119.2661H414.9318V106.1333H358.2935Z" clip-rule="evenodd"/>
</clipPath>
<clipPath id="clip_94">
<path transform="matrix(1,0,0,-1,0,283)" d="M0 .000005245209H425V283H0Z"/>
</clipPath>
<clipPath id="clip_95">
<path transform="matrix(1,0,0,-1,0,283)" d="M6.810897 278.6462H418.1891V4.625978H6.810897Z" clip-rule="evenodd"/>
</clipPath>
<clipPath id="clip_96">
<path transform="matrix(1,0,0,-1,0,283)" d="M0 .000005245209H425V283H0Z"/>
</clipPath>
<clipPath id="clip_97">
<path transform="matrix(1,0,0,-1,0,283)" d="M282.4385 61.68413H339.0769V48.5514H282.4385Z" clip-rule="evenodd"/>
</clipPath>
<clipPath id="clip_98">
<path transform="matrix(1,0,0,-1,0,283)" d="M0 .000005245209H425V283H0Z"/>
</clipPath>
<clipPath id="clip_99">
<path transform="matrix(1,0,0,-1,0,283)" d="M282.4385 48.55139H339.0769V35.41868H282.4385Z" clip-rule="evenodd"/>
</clipPath>
<clipPath id="clip_100">
<path transform="matrix(1,0,0,-1,0,283)" d="M0 .000005245209H425V283H0Z"/>
</clipPath>
<clipPath id="clip_101">
<path transform="matrix(1,0,0,-1,0,283)" d="M282.4385 35.41868H339.0769V22.28595H282.4385Z" clip-rule="evenodd"/>
</clipPath>
<clipPath id="clip_102">
<path transform="matrix(1,0,0,-1,0,283)" d="M0 .000005245209H425V283H0Z"/>
</clipPath>
<clipPath id="clip_103">
<path transform="matrix(1,0,0,-1,0,283)" d="M6.810897 278.6462H418.1891V4.625978H6.810897Z" clip-rule="evenodd"/>
</clipPath>
<clipPath id="clip_104">
<path transform="matrix(1,0,0,-1,0,283)" d="M0 .000005245209H425V283H0Z"/>
</clipPath>
<clipPath id="clip_105">
<path transform="matrix(1,0,0,-1,0,283)" d="M282.4385 18.24512H339.0769V5.112388H282.4385Z" clip-rule="evenodd"/>
</clipPath>
<clipPath id="clip_106">
<path transform="matrix(1,0,0,-1,0,283)" d="M0 .000005245209H425V283H0Z"/>
</clipPath>
<clipPath id="clip_107">
<path transform="matrix(1,0,0,-1,0,283)" d="M6.810897 278.6462H418.1891V4.625978H6.810897Z" clip-rule="evenodd"/>
</clipPath>
<clipPath id="clip_108">
<path transform="matrix(1,0,0,-1,0,283)" d="M0 .000005245209H425V283H0Z"/>
</clipPath>
<clipPath id="clip_109">
<path transform="matrix(1,0,0,-1,0,283)" d="M358.2935 61.68413H414.9318V48.5514H358.2935Z" clip-rule="evenodd"/>
</clipPath>
<clipPath id="clip_110">
<path transform="matrix(1,0,0,-1,0,283)" d="M0 .000005245209H425V283H0Z"/>
</clipPath>
<clipPath id="clip_111">
<path transform="matrix(1,0,0,-1,0,283)" d="M358.2935 48.55139H414.9318V35.41868H358.2935Z" clip-rule="evenodd"/>
</clipPath>
<clipPath id="clip_112">
<path transform="matrix(1,0,0,-1,0,283)" d="M0 .000005245209H425V283H0Z"/>
</clipPath>
<clipPath id="clip_113">
<path transform="matrix(1,0,0,-1,0,283)" d="M358.2935 35.41868H414.9318V22.28595H358.2935Z" clip-rule="evenodd"/>
</clipPath>
<clipPath id="clip_114">
<path transform="matrix(1,0,0,-1,0,283)" d="M0 .000005245209H425V283H0Z"/>
</clipPath>
<clipPath id="clip_115">
<path transform="matrix(1,0,0,-1,0,283)" d="M6.810897 278.6462H418.1891V4.625978H6.810897Z" clip-rule="evenodd"/>
</clipPath>
<clipPath id="clip_116">
<path transform="matrix(1,0,0,-1,0,283)" d="M0 .000005245209H425V283H0Z"/>
</clipPath>
<clipPath id="clip_117">
<path transform="matrix(1,0,0,-1,0,283)" d="M358.2935 18.24512H414.9318V5.112388H358.2935Z" clip-rule="evenodd"/>
</clipPath>
<clipPath id="clip_118">
<path transform="matrix(1,0,0,-1,0,283)" d="M0 .000005245209H425V283H0Z"/>
</clipPath>
<clipPath id="clip_119">
<path transform="matrix(1,0,0,-1,0,283)" d="M6.810897 278.6462H418.1891V4.625978H6.810897Z" clip-rule="evenodd"/>
</clipPath>
<clipPath id="clip_120">
<path transform="matrix(1,0,0,-1,0,283)" d="M0 .000005245209H425V283H0Z"/>
</clipPath>
<clipPath id="clip_121">
<path transform="matrix(1,0,0,-1,0,283)" d="M206.5836 249.078H263.2219V235.9452H206.5836Z" clip-rule="evenodd"/>
</clipPath>
<clipPath id="clip_122">
<path transform="matrix(1,0,0,-1,0,283)" d="M0 .000005245209H425V283H0Z"/>
</clipPath>
<clipPath id="clip_123">
<path transform="matrix(1,0,0,-1,0,283)" d="M6.810897 278.6462H418.1891V4.625978H6.810897Z" clip-rule="evenodd"/>
</clipPath>
<clipPath id="clip_124">
<path transform="matrix(1,0,0,-1,0,283)" d="M0 .000005245209H425V283H0Z"/>
</clipPath>
<clipPath id="clip_125">
<path transform="matrix(1,0,0,-1,0,283)" d="M206.5836 234.935H263.2219V221.8023H206.5836Z" clip-rule="evenodd"/>
</clipPath>
<clipPath id="clip_126">
<path transform="matrix(1,0,0,-1,0,283)" d="M0 .000005245209H425V283H0Z"/>
</clipPath>
<clipPath id="clip_127">
<path transform="matrix(1,0,0,-1,0,283)" d="M6.810897 278.6462H418.1891V4.625978H6.810897Z" clip-rule="evenodd"/>
</clipPath>
<clipPath id="clip_128">
<path transform="matrix(1,0,0,-1,0,283)" d="M0 .000005245209H425V283H0Z"/>
</clipPath>
<clipPath id="clip_129">
<path transform="matrix(1,0,0,-1,0,283)" d="M206.5836 220.7921H263.2219V207.6594H206.5836Z" clip-rule="evenodd"/>
</clipPath>
<clipPath id="clip_130">
<path transform="matrix(1,0,0,-1,0,283)" d="M0 .000005245209H425V283H0Z"/>
</clipPath>
<clipPath id="clip_131">
<path transform="matrix(1,0,0,-1,0,283)" d="M6.810897 278.6462H418.1891V4.625978H6.810897Z" clip-rule="evenodd"/>
</clipPath>
<clipPath id="clip_132">
<path transform="matrix(1,0,0,-1,0,283)" d="M0 .000005245209H425V283H0Z"/>
</clipPath>
</defs>
<g clip-path="url(#clip_0)">
<path transform="matrix(1,0,0,-1,0,283)" d="M0 283H425V0H0Z" fill="#ffffff"/>
</g>
<g clip-path="url(#clip_1)">
<g clip-path="url(#clip_2)">
<path transform="matrix(1,0,0,-1,0,283)" d="M0 283H425V.00001703688H0Z" fill="#ffffff"/>
</g>
</g>
<g clip-path="url(#clip_3)">
<g clip-path="url(#clip_4)">
<path transform="matrix(1,0,0,-1,0,283)" d="M204.8136 91.23274H265.4976V77.08981H204.8136Z" fill="#ffffff"/>
<path transform="matrix(.5056997,0,0,.5051047,2.53374,-10.274597)" stroke-width="1" stroke-linecap="butt" stroke-miterlimit="4" stroke-linejoin="miter" fill="none" stroke="#000000" d="M400 400H520V428H400Z"/>
</g>
</g>
<g clip-path="url(#clip_5)">
<g clip-path="url(#clip_6)">
<text xml:space="preserve" transform="matrix(.2724359 0 0 .2721154 2.28089 -10.527191)" font-size="22.27" font-family="ArialMT"><tspan y="779.6094" x="753.6094 765.996 778.38259">nex</tspan></text>
<text xml:space="preserve" transform="matrix(.2724359 0 0 .2721154 2.28089 -10.527191)" font-size="22.27" font-family="ArialMT"><tspan y="779.6094" x="789.5154">t</tspan></text>
<text xml:space="preserve" transform="matrix(.2724359 0 0 .2721154 2.28089 -10.527191)" font-size="22.27" font-family="ArialMT"><tspan y="779.6094" x="795.7027">[</tspan></text>
<text xml:space="preserve" transform="matrix(.2724359 0 0 .2721154 2.28089 -10.527191)" font-size="22.27" font-family="ArialMT"><tspan y="779.6094" x="801.89 814.2766">0]</tspan></text>
</g>
</g>
<g clip-path="url(#clip_7)">
<g clip-path="url(#clip_8)">
<path transform="matrix(1,0,0,-1,0,283)" d="M204.8136 77.08981H265.4976V62.94687H204.8136Z" fill="#ffffff"/>
<path transform="matrix(.5056997,0,0,.5051047,2.53374,-10.274597)" stroke-width="1" stroke-linecap="butt" stroke-miterlimit="4" stroke-linejoin="miter" fill="none" stroke="#000000" d="M400 428H520V456H400Z"/>
</g>
</g>
<g clip-path="url(#clip_9)">
<g clip-path="url(#clip_10)">
<text xml:space="preserve" transform="matrix(.2724359 0 0 .2721154 2.28089 -10.527191)" font-size="22.27" font-family="ArialMT"><tspan y="831.5781" x="753.6094 765.996 778.38259">nex</tspan></text>
<text xml:space="preserve" transform="matrix(.2724359 0 0 .2721154 2.28089 -10.527191)" font-size="22.27" font-family="ArialMT"><tspan y="831.5781" x="789.5154">t</tspan></text>
<text xml:space="preserve" transform="matrix(.2724359 0 0 .2721154 2.28089 -10.527191)" font-size="22.27" font-family="ArialMT"><tspan y="831.5781" x="795.7027">[</tspan></text>
<text xml:space="preserve" transform="matrix(.2724359 0 0 .2721154 2.28089 -10.527191)" font-size="22.27" font-family="ArialMT"><tspan y="831.5781" x="801.89 814.2766">1]</tspan></text>
</g>
</g>
<g clip-path="url(#clip_11)">
<g clip-path="url(#clip_12)">
<path transform="matrix(.5056997,0,0,.5051047,2.53374,-10.274597)" stroke-width="1" stroke-linecap="butt" stroke-miterlimit="10" stroke-linejoin="miter" fill="none" stroke="#000000" d="M370 243H390 389.92"/>
<path transform="matrix(1,0,0,-1,0,283)" d="M202.366 170.4079 198.7452 168.8118 199.7162 170.5342 198.9172 172.3425 202.366 170.4079Z"/>
<path transform="matrix(.5056997,0,0,.5051047,2.53374,-10.274597)" stroke-width="1" stroke-linecap="butt" stroke-miterlimit="10" stroke-linejoin="miter" fill="none" stroke="#000000" d="M395.16 243.25 388 246.41 389.92 243 388.34 239.42 395.16 243.25Z"/>
<path transform="matrix(.5056997,0,0,.5051047,2.53374,-10.274597)" stroke-width="1" stroke-linecap="butt" stroke-miterlimit="10" stroke-linejoin="miter" fill="none" stroke="#000000" d="M400 365H380V414H393.63"/>
<path transform="matrix(1,0,0,-1,0,283)" d="M204.2472 84.16127 200.7073 82.39341 201.5923 84.16127 200.7073 85.92914 204.2472 84.16127Z"/>
<path transform="matrix(.5056997,0,0,.5051047,2.53374,-10.274597)" stroke-width="1" stroke-linecap="butt" stroke-miterlimit="10" stroke-linejoin="miter" fill="none" stroke="#000000" d="M398.88 414 391.88 417.5 393.63 414 391.88 410.5 398.88 414Z"/>
<path transform="matrix(.5056997,0,0,.5051047,2.53374,-10.274597)" stroke-width="1" stroke-linecap="butt" stroke-miterlimit="10" stroke-linejoin="miter" fill="none" stroke="#000000" d="M520 415H530V242.6L542.91 242.62"/>
<path transform="matrix(1,0,0,-1,0,283)" d="M279.7381 170.7211 276.1982 168.9583 277.0831 170.7261 276.2032 172.494 279.7381 170.7211Z"/>
<path transform="matrix(.5056997,0,0,.5051047,2.53374,-10.274597)" stroke-width="1" stroke-linecap="butt" stroke-miterlimit="10" stroke-linejoin="miter" fill="none" stroke="#000000" d="M548.16 242.63 541.16 246.12 542.91 242.62 541.17 239.12 548.16 242.63Z"/>
<path transform="matrix(1,0,0,-1,0,283)" d="M265.2454 70.27089 268.2796 70.26672 268.2782 69.25651 265.244 69.26068M271.3138 70.26254 274.348 70.25836 274.3466 69.24815 271.3124 69.25233"/>
<path transform="matrix(1,0,0,-1,0,283)" d="M279.283 69.74558 275.2374 67.73022 276.2488 69.75063 275.2424 71.77105 279.283 69.74558Z"/>
<path transform="matrix(.5056997,0,0,.5051047,2.28089,-10.527191)" stroke-width="2" stroke-linecap="butt" stroke-miterlimit="10" stroke-linejoin="miter" fill="none" stroke="#000000" d="M547.76 443.04 539.76 447.03 541.76 443.03 539.77 439.03 547.76 443.04Z"/>
<path transform="matrix(1,0,0,-1,0,283)" d="M128.9587 192.2537H189.6426V178.1108H128.9587Z" fill="#ffffff"/>
<path transform="matrix(.5056997,0,0,.5051047,2.53374,-10.274597)" stroke-width="1" stroke-linecap="butt" stroke-miterlimit="4" stroke-linejoin="miter" fill="none" stroke="#000000" d="M250 200H370V228H250Z"/>
</g>
</g>
<g clip-path="url(#clip_13)">
<g clip-path="url(#clip_14)">
<text xml:space="preserve" transform="matrix(.2724359 0 0 .2721154 2.28089 -10.527191)" font-size="22.27" font-family="ArialMT"><tspan y="408.3594" x="475.1875 487.57408 499.96064">nex</tspan></text>
<text xml:space="preserve" transform="matrix(.2724359 0 0 .2721154 2.28089 -10.527191)" font-size="22.27" font-family="ArialMT"><tspan y="408.3594" x="511.0935">t</tspan></text>
<text xml:space="preserve" transform="matrix(.2724359 0 0 .2721154 2.28089 -10.527191)" font-size="22.27" font-family="ArialMT"><tspan y="408.3594" x="517.2808">[</tspan></text>
<text xml:space="preserve" transform="matrix(.2724359 0 0 .2721154 2.28089 -10.527191)" font-size="22.27" font-family="ArialMT"><tspan y="408.3594" x="523.4682 535.8548">0]</tspan></text>
</g>
</g>
<g clip-path="url(#clip_15)">
<g clip-path="url(#clip_16)">
<path transform="matrix(.5056997,0,0,.5051047,2.53374,-10.274597)" stroke-width="1" stroke-linecap="butt" stroke-miterlimit="10" stroke-linejoin="miter" fill="none" stroke="#000000" d="M250 165H230V215H243.63"/>
<path transform="matrix(1,0,0,-1,0,283)" d="M128.3923 184.6771 124.8524 182.9092 125.7374 184.6771 124.8524 186.445 128.3923 184.6771Z"/>
<path transform="matrix(.5056997,0,0,.5051047,2.53374,-10.274597)" stroke-width="1" stroke-linecap="butt" stroke-miterlimit="10" stroke-linejoin="miter" fill="none" stroke="#000000" d="M248.88 215 241.88 218.5 243.63 215 241.88 211.5 248.88 215Z"/>
<path transform="matrix(1,0,0,-1,0,283)" d="M189.3898 185.4348H192.424V184.4246H189.3898V185.4348ZM193.9411 185.9399V188.9705H194.9525V185.9399H193.9411ZM193.9411 192.0011V195.0318H194.9525V192.0011H193.9411ZM193.9411 198.0624V201.093H194.9525V198.0624H193.9411ZM193.9411 204.1236V207.1543H194.9525V204.1236H193.9411ZM193.9411 210.1849V213.2155H194.9525V210.1849H193.9411ZM193.9411 216.2462V219.2768H194.9525V216.2462H193.9411ZM193.9411 222.3074V225.338H194.9525V222.3074H193.9411ZM193.9411 228.3687V231.3993H194.9525V228.3687H193.9411ZM193.9411 234.4299V237.4606H194.9525V234.4299H193.9411ZM193.9411 240.4912V243.5218H194.9525V240.4912H193.9411ZM193.9411 246.5524V249.5831H194.9525V246.5524H193.9411ZM193.9411 252.6137V255.6443H194.9525V252.6137H193.9411ZM193.9411 258.675V261.7056H194.9525V258.675H193.9411ZM193.9411 264.7362V267.0092L195.7111 267.009 195.711 265.9988 194.4467 265.999 194.4468 266.5041H194.9525V264.7362H193.9411ZM198.7453 267.0086 201.7795 267.0083 201.7794 265.9981 198.7452 265.9984 198.7453 267.0086ZM204.8137 267.0079 207.8479 267.0075 207.8478 265.9973 204.8136 265.9977 204.8137 267.0079ZM210.8821 267.0071 213.9163 267.0068 213.9161 265.9966 210.882 265.9969 210.8821 267.0071ZM216.9505 267.0064 219.9847 267.006 219.9845 265.9958 216.9503 265.9962 216.9505 267.0064ZM223.0189 267.0056 226.0531 267.0053 226.0529 265.9951 223.0187 265.9954 223.0189 267.0056ZM229.0873 267.0049 232.1215 267.0045 232.1213 265.9943 229.0871 265.9947 229.0873 267.0049ZM235.1557 267.0041 238.1899 267.0038 238.1897 265.9936 235.1555 265.9939 235.1557 267.0041ZM241.2241 267.0034 244.2583 267.003 244.2581 265.9928 241.2239 265.9932 241.2241 267.0034ZM247.2924 267.0026 250.3266 267.0023 250.3265 265.992 247.2923 265.9924 247.2924 267.0026ZM253.3608 267.0019 256.395 267.0015 256.3949 265.9913 253.3607 265.9917 253.3608 267.0019ZM259.4292 267.0011 262.4634 267.0008 262.4633 265.9905 259.4291 265.9909 259.4292 267.0011ZM265.4976 267.0004 268.5318 267 268.5317 265.9898 265.4975 265.9902 265.4976 267.0004ZM271.566 266.9996 274.6002 266.9992 274.6001 265.989 271.5659 265.9894 271.566 266.9996Z"/>
<path transform="matrix(1,0,0,-1,0,283)" d="M278.9795 266.494 274.9339 264.4736 275.9453 266.494 274.9339 268.5144 278.9795 266.494Z"/>
<path transform="matrix(.5056997,0,0,.5051047,2.28089,-10.527191)" stroke-width="2" stroke-linecap="butt" stroke-miterlimit="10" stroke-linejoin="miter" fill="none" stroke="#000000" d="M547.16 53.52 539.16 57.52 541.16 53.52 539.16 49.52 547.16 53.52Z"/>
<path transform="matrix(1,0,0,-1,0,283)" d="M128.9587 178.1108H189.6426V163.9678H128.9587Z" fill="#ffffff"/>
<path transform="matrix(.5056997,0,0,.5051047,2.53374,-10.274597)" stroke-width="1" stroke-linecap="butt" stroke-miterlimit="4" stroke-linejoin="miter" fill="none" stroke="#000000" d="M250 228H370V256H250Z"/>
</g>
</g>
<g clip-path="url(#clip_17)">
<g clip-path="url(#clip_18)">
<text xml:space="preserve" transform="matrix(.2724359 0 0 .2721154 2.28089 -10.527191)" font-size="22.27" font-family="ArialMT"><tspan y="460.3281" x="475.1875 487.57408 499.96064">nex</tspan></text>
<text xml:space="preserve" transform="matrix(.2724359 0 0 .2721154 2.28089 -10.527191)" font-size="22.27" font-family="ArialMT"><tspan y="460.3281" x="511.0935">t</tspan></text>
<text xml:space="preserve" transform="matrix(.2724359 0 0 .2721154 2.28089 -10.527191)" font-size="22.27" font-family="ArialMT"><tspan y="460.3281" x="517.2808">[</tspan></text>
<text xml:space="preserve" transform="matrix(.2724359 0 0 .2721154 2.28089 -10.527191)" font-size="22.27" font-family="ArialMT"><tspan y="460.3281" x="523.4682 535.8548">1]</tspan></text>
</g>
</g>
<g clip-path="url(#clip_19)">
<g clip-path="url(#clip_20)">
<path transform="matrix(1,0,0,-1,0,283)" d="M204.8136 164.978V178.1108H265.4976V164.978" fill="#ffffff"/>
<path transform="matrix(.5056997,0,0,.5051047,2.53374,-10.274597)" stroke-width="1" stroke-linecap="butt" stroke-miterlimit="10" stroke-linejoin="miter" fill="none" stroke="#000000" d="M400 254V228H520V254"/>
<path transform="matrix(.5056997,0,0,.5051047,2.53374,-10.274597)" stroke-width="1" stroke-linecap="butt" stroke-miterlimit="10" stroke-linejoin="miter" fill="none" stroke="#000000" d="M400 254V378H520V254"/>
<path transform="matrix(.5056997,0,0,.5051047,2.53374,-10.274597)" stroke-width="1" stroke-linecap="butt" stroke-miterlimit="10" stroke-linejoin="miter" fill="none" stroke="#000000" d="M400 254H520"/>
<text xml:space="preserve" transform="matrix(.2724359 0 0 .2721154 2.28089 -10.527191)" font-size="22.27" font-family="Arial" font-style="italic"><tspan y="456.625" x="827.2188">N</tspan></text>
<text xml:space="preserve" transform="matrix(.2724359 0 0 .2721154 2.28089 -10.527191)" font-size="22.27" font-family="Arial" font-style="italic"><tspan y="456.625" x="843.3014 855.688 868.0746">ode</tspan></text>
</g>
</g>
<g clip-path="url(#clip_21)">
<g clip-path="url(#clip_22)">
<text xml:space="preserve" transform="matrix(.2724359 0 0 .2721154 2.28089 -10.527191)" font-size="22.27" font-family="ArialMT"><tspan y="504.875" x="753.6094">N</tspan></text>
<text xml:space="preserve" transform="matrix(.2724359 0 0 .2721154 2.28089 -10.527191)" font-size="22.27" font-family="ArialMT"><tspan y="504.875" x="769.6921">U</tspan></text>
<text xml:space="preserve" transform="matrix(.2724359 0 0 .2721154 2.28089 -10.527191)" font-size="22.27" font-family="ArialMT"><tspan y="504.875" x="785.7747 798.1613">LL</tspan></text>
</g>
</g>
<g clip-path="url(#clip_23)">
<g clip-path="url(#clip_24)">
<text xml:space="preserve" transform="matrix(.2724359 0 0 .2721154 2.28089 -10.527191)" font-size="22.27" font-family="ArialMT"><tspan y="553.1406" x="753.6094">(</tspan></text>
<text xml:space="preserve" transform="matrix(.2724359 0 0 .2721154 2.28089 -10.527191)" font-size="22.27" font-family="ArialMT"><tspan y="553.1406" x="761.0255">i</tspan></text>
<text xml:space="preserve" transform="matrix(.2724359 0 0 .2721154 2.28089 -10.527191)" font-size="22.27" font-family="ArialMT"><tspan y="553.1406" x="765.9731 778.3597">ni</tspan></text>
<text xml:space="preserve" transform="matrix(.2724359 0 0 .2721154 2.28089 -10.527191)" font-size="22.27" font-family="ArialMT"><tspan y="553.1406" x="783.3063">t</tspan></text>
<text xml:space="preserve" transform="matrix(.2724359 0 0 .2721154 2.28089 -10.527191)" font-size="22.27" font-family="ArialMT"><tspan y="553.1406" x="789.4936"> </tspan></text>
<text xml:space="preserve" transform="matrix(.2724359 0 0 .2721154 2.28089 -10.527191)" font-size="22.27" font-family="ArialMT"><tspan y="553.1406" x="795.681 808.0676 820.4542">dec</tspan></text>
<text xml:space="preserve" transform="matrix(.2724359 0 0 .2721154 2.28089 -10.527191)" font-size="22.27" font-family="ArialMT"><tspan y="553.1406" x="831.587">l</tspan></text>
<text xml:space="preserve" transform="matrix(.2724359 0 0 .2721154 2.28089 -10.527191)" font-size="22.27" font-family="ArialMT"><tspan y="553.1406" x="836.5347 848.9213">ar</tspan></text>
<text xml:space="preserve" transform="matrix(.2724359 0 0 .2721154 2.28089 -10.527191)" font-size="22.27" font-family="ArialMT"><tspan y="553.1406" x="856.3362 868.7228">at</tspan></text>
<text xml:space="preserve" transform="matrix(.2724359 0 0 .2721154 2.28089 -10.527191)" font-size="22.27" font-family="ArialMT"><tspan y="553.1406" x="874.9091 887.2957">or</tspan></text>
<text xml:space="preserve" transform="matrix(.2724359 0 0 .2721154 2.28089 -10.527191)" font-size="22.27" font-family="ArialMT"><tspan y="553.1406" x="894.7107"> </tspan></text>
<text xml:space="preserve" transform="matrix(.2724359 0 0 .2721154 2.28089 -10.527191)" font-size="22.27" font-family="ArialMT"><tspan y="553.1406" x="900.898">l</tspan></text>
<text xml:space="preserve" transform="matrix(.2724359 0 0 .2721154 2.28089 -10.527191)" font-size="22.27" font-family="ArialMT"><tspan y="553.1406" x="905.8457">i</tspan></text>
<text xml:space="preserve" transform="matrix(.2724359 0 0 .2721154 2.28089 -10.527191)" font-size="22.27" font-family="ArialMT"><tspan y="553.1406" x="910.7933">s</tspan></text>
<text xml:space="preserve" transform="matrix(.2724359 0 0 .2721154 2.28089 -10.527191)" font-size="22.27" font-family="ArialMT"><tspan y="553.1406" x="921.9283">t</tspan></text>
<text xml:space="preserve" transform="matrix(.2724359 0 0 .2721154 2.28089 -10.527191)" font-size="22.27" font-family="ArialMT"><tspan y="579.125" x="753.6094">s</tspan></text>
<text xml:space="preserve" transform="matrix(.2724359 0 0 .2721154 2.28089 -10.527191)" font-size="22.27" font-family="ArialMT"><tspan y="579.125" x="764.7444 777.131">uf</tspan></text>
<text xml:space="preserve" transform="matrix(.2724359 0 0 .2721154 2.28089 -10.527191)" font-size="22.27" font-family="ArialMT"><tspan y="579.125" x="782.9149">f</tspan></text>
<text xml:space="preserve" transform="matrix(.2724359 0 0 .2721154 2.28089 -10.527191)" font-size="22.27" font-family="ArialMT"><tspan y="579.125" x="789.1022">i</tspan></text>
<text xml:space="preserve" transform="matrix(.2724359 0 0 .2721154 2.28089 -10.527191)" font-size="22.27" font-family="ArialMT"><tspan y="579.125" x="794.0499">x</tspan></text>
<text xml:space="preserve" transform="matrix(.2724359 0 0 .2721154 2.28089 -10.527191)" font-size="22.27" font-family="ArialMT"><tspan y="579.125" x="805.1848">)</tspan></text>
</g>
</g>
<g clip-path="url(#clip_25)">
<g clip-path="url(#clip_26)">
<text xml:space="preserve" transform="matrix(.2724359 0 0 .2721154 2.28089 -10.527191)" font-size="22.27" font-family="ArialMT"><tspan y="623.6875" x="753.6094">2</tspan></text>
</g>
</g>
<g clip-path="url(#clip_27)">
<g clip-path="url(#clip_28)">
<path transform="matrix(.5056997,0,0,.5051047,2.53374,-10.274597)" stroke-width="1" stroke-linecap="butt" stroke-miterlimit="10" stroke-linejoin="miter" fill="none" stroke="#000000" d="M400 348H520"/>
</g>
</g>
<g clip-path="url(#clip_29)">
<g clip-path="url(#clip_30)">
<text xml:space="preserve" transform="matrix(.2724359 0 0 .2721154 2.28089 -10.527191)" font-size="22.27" font-family="ArialMT"><tspan y="686.7969" x="753.6094">N</tspan></text>
<text xml:space="preserve" transform="matrix(.2724359 0 0 .2721154 2.28089 -10.527191)" font-size="22.27" font-family="ArialMT"><tspan y="686.7969" x="769.6921 782.0787 794.4653 806.85189 815.51937 824.1868">ode** </tspan></text>
<text xml:space="preserve" transform="matrix(.2724359 0 0 .2721154 2.28089 -10.527191)" font-size="22.27" font-family="ArialMT"><tspan y="686.7969" x="830.3691 842.7557 855.1423">nex</tspan></text>
<text xml:space="preserve" transform="matrix(.2724359 0 0 .2721154 2.28089 -10.527191)" font-size="22.27" font-family="ArialMT"><tspan y="686.7969" x="866.2751">t</tspan></text>
</g>
</g>
<g clip-path="url(#clip_31)">
<g clip-path="url(#clip_32)">
<path transform="matrix(1,0,0,-1,0,283)" d="M98.61668 278.1215H295.8396V5.364935H98.61668Z" fill="#ffffff" fill-opacity=".8"/>
<path transform="matrix(1,0,0,-1,0,283)" d="M280.6686 259.9377V273.0704H341.3525V259.9377" fill="#ffffff"/>
<path transform="matrix(.5056997,0,0,.5051047,2.53374,-10.274597)" stroke-width="1" stroke-linecap="butt" stroke-miterlimit="10" stroke-linejoin="miter" fill="none" stroke="#000000" d="M550 66V40H670V66"/>
<path transform="matrix(.5056997,0,0,.5051047,2.53374,-10.274597)" stroke-width="1" stroke-linecap="butt" stroke-miterlimit="10" stroke-linejoin="miter" fill="none" stroke="#000000" d="M550 66V178H670V66"/>
<path transform="matrix(.5056997,0,0,.5051047,2.53374,-10.274597)" stroke-width="1" stroke-linecap="butt" stroke-miterlimit="10" stroke-linejoin="miter" fill="none" stroke="#000000" d="M550 66H670"/>
<text xml:space="preserve" transform="matrix(.2724359 0 0 .2721154 2.28089 -10.527191)" font-size="22.27" font-family="Arial" font-style="italic"><tspan y="107.6563" x="1105.656">N</tspan></text>
<text xml:space="preserve" transform="matrix(.2724359 0 0 .2721154 2.28089 -10.527191)" font-size="22.27" font-family="Arial" font-style="italic"><tspan y="107.6563" x="1121.739 1134.1256 1146.5122">ode</tspan></text>
</g>
</g>
<g clip-path="url(#clip_33)">
<g clip-path="url(#clip_34)">
<text xml:space="preserve" transform="matrix(.2724359 0 0 .2721154 2.28089 -10.527191)" font-size="22.27" font-family="ArialMT"><tspan y="155.9219" x="1032.047">T</tspan></text>
<text xml:space="preserve" transform="matrix(.2724359 0 0 .2721154 2.28089 -10.527191)" font-size="22.27" font-family="ArialMT"><tspan y="155.9219" x="1043.182 1055.5686">ok</tspan></text>
<text xml:space="preserve" transform="matrix(.2724359 0 0 .2721154 2.28089 -10.527191)" font-size="22.27" font-family="ArialMT"><tspan y="155.9219" x="1066.702 1079.0886 1091.4752 1100.1427">en* </tspan></text>
<text xml:space="preserve" transform="matrix(.2724359 0 0 .2721154 2.28089 -10.527191)" font-size="22.27" font-family="ArialMT"><tspan y="155.9219" x="1106.327">t</tspan></text>
<text xml:space="preserve" transform="matrix(.2724359 0 0 .2721154 2.28089 -10.527191)" font-size="22.27" font-family="ArialMT"><tspan y="155.9219" x="1112.515 1124.9016">ok</tspan></text>
<text xml:space="preserve" transform="matrix(.2724359 0 0 .2721154 2.28089 -10.527191)" font-size="22.27" font-family="ArialMT"><tspan y="155.9219" x="1136.035 1148.4216">en</tspan></text>
</g>
</g>
<g clip-path="url(#clip_35)">
<g clip-path="url(#clip_36)">
<text xml:space="preserve" transform="matrix(.2724359 0 0 .2721154 2.28089 -10.527191)" font-size="22.27" font-family="ArialMT"><tspan y="204.1719" x="1032.047">(</tspan></text>
<text xml:space="preserve" transform="matrix(.2724359 0 0 .2721154 2.28089 -10.527191)" font-size="22.27" font-family="ArialMT"><tspan y="204.1719" x="1039.463">s</tspan></text>
<text xml:space="preserve" transform="matrix(.2724359 0 0 .2721154 2.28089 -10.527191)" font-size="22.27" font-family="ArialMT"><tspan y="204.1719" x="1050.598">y</tspan></text>
<text xml:space="preserve" transform="matrix(.2724359 0 0 .2721154 2.28089 -10.527191)" font-size="22.27" font-family="ArialMT"><tspan y="204.1719" x="1061.733">m</tspan></text>
<text xml:space="preserve" transform="matrix(.2724359 0 0 .2721154 2.28089 -10.527191)" font-size="22.27" font-family="ArialMT"><tspan y="204.1719" x="1080.284 1092.6707 1105.0573">bol</tspan></text>
<text xml:space="preserve" transform="matrix(.2724359 0 0 .2721154 2.28089 -10.527191)" font-size="22.27" font-family="ArialMT"><tspan y="204.1719" x="1110.003">)</tspan></text>
</g>
</g>
<g clip-path="url(#clip_37)">
<g clip-path="url(#clip_38)">
<text xml:space="preserve" transform="matrix(.2724359 0 0 .2721154 2.28089 -10.527191)" font-size="22.27" font-family="ArialMT"><tspan y="252.4375" x="1032.047">0</tspan></text>
</g>
</g>
<g clip-path="url(#clip_39)">
<g clip-path="url(#clip_40)">
<path transform="matrix(.5056997,0,0,.5051047,2.53374,-10.274597)" stroke-width="1" stroke-linecap="butt" stroke-miterlimit="10" stroke-linejoin="miter" fill="none" stroke="#000000" d="M550 148H670"/>
</g>
</g>
<g clip-path="url(#clip_41)">
<g clip-path="url(#clip_42)">
<text xml:space="preserve" transform="matrix(.2724359 0 0 .2721154 2.28089 -10.527191)" font-size="22.27" font-family="ArialMT"><tspan y="315.5469" x="1032.047">N</tspan></text>
<text xml:space="preserve" transform="matrix(.2724359 0 0 .2721154 2.28089 -10.527191)" font-size="22.27" font-family="ArialMT"><tspan y="315.5469" x="1048.13">U</tspan></text>
<text xml:space="preserve" transform="matrix(.2724359 0 0 .2721154 2.28089 -10.527191)" font-size="22.27" font-family="ArialMT"><tspan y="315.5469" x="1064.212 1076.5986">LL</tspan></text>
</g>
</g>
<g clip-path="url(#clip_43)">
<g clip-path="url(#clip_44)">
<path transform="matrix(.5056997,0,0,.5051047,2.53374,-10.274597)" stroke-width="1" stroke-linecap="butt" stroke-miterlimit="10" stroke-linejoin="miter" fill="none" stroke="#000000" d="M670 79H680V54.1L693.63 54.08"/>
<path transform="matrix(1,0,0,-1,0,283)" d="M355.9571 265.9586 352.4223 264.1856 353.3022 265.9586 352.4172 267.7214 355.9571 265.9586Z"/>
<path transform="matrix(.5056997,0,0,.5051047,2.53374,-10.274597)" stroke-width="1" stroke-linecap="butt" stroke-miterlimit="10" stroke-linejoin="miter" fill="none" stroke="#000000" d="M698.88 54.08 691.89 57.59 693.63 54.08 691.88 50.59 698.88 54.08Z"/>
<path transform="matrix(1,0,0,-1,0,283)" d="M128.9587 259.9377V273.0704H189.6426V259.9377" fill="#ffffff"/>
<path transform="matrix(.5056997,0,0,.5051047,2.53374,-10.274597)" stroke-width="1" stroke-linecap="butt" stroke-miterlimit="10" stroke-linejoin="miter" fill="none" stroke="#000000" d="M250 66V40H370V66"/>
<path transform="matrix(.5056997,0,0,.5051047,2.53374,-10.274597)" stroke-width="1" stroke-linecap="butt" stroke-miterlimit="10" stroke-linejoin="miter" fill="none" stroke="#000000" d="M250 66V178H370V66"/>
<path transform="matrix(.5056997,0,0,.5051047,2.53374,-10.274597)" stroke-width="1" stroke-linecap="butt" stroke-miterlimit="10" stroke-linejoin="miter" fill="none" stroke="#000000" d="M250 66H370"/>
<text xml:space="preserve" transform="matrix(.2724359 0 0 .2721154 2.28089 -10.527191)" font-size="22.27" font-family="Arial" font-style="italic"><tspan y="107.6563" x="548.7969">N</tspan></text>
<text xml:space="preserve" transform="matrix(.2724359 0 0 .2721154 2.28089 -10.527191)" font-size="22.27" font-family="Arial" font-style="italic"><tspan y="107.6563" x="564.8796 577.2662 589.6528">ode</tspan></text>
</g>
</g>
<g clip-path="url(#clip_45)">
<g clip-path="url(#clip_46)">
<text xml:space="preserve" transform="matrix(.2724359 0 0 .2721154 2.28089 -10.527191)" font-size="22.27" font-family="ArialMT"><tspan y="155.9219" x="475.1875">N</tspan></text>
<text xml:space="preserve" transform="matrix(.2724359 0 0 .2721154 2.28089 -10.527191)" font-size="22.27" font-family="ArialMT"><tspan y="155.9219" x="491.2702">U</tspan></text>
<text xml:space="preserve" transform="matrix(.2724359 0 0 .2721154 2.28089 -10.527191)" font-size="22.27" font-family="ArialMT"><tspan y="155.9219" x="507.3528 519.7394">LL</tspan></text>
</g>
</g>
<g clip-path="url(#clip_47)">
<g clip-path="url(#clip_48)">
<text xml:space="preserve" transform="matrix(.2724359 0 0 .2721154 2.28089 -10.527191)" font-size="22.27" font-family="ArialMT"><tspan y="204.1719" x="475.1875">(</tspan></text>
<text xml:space="preserve" transform="matrix(.2724359 0 0 .2721154 2.28089 -10.527191)" font-size="22.27" font-family="ArialMT"><tspan y="204.1719" x="482.6036">i</tspan></text>
<text xml:space="preserve" transform="matrix(.2724359 0 0 .2721154 2.28089 -10.527191)" font-size="22.27" font-family="ArialMT"><tspan y="204.1719" x="487.5513 499.93788">ni</tspan></text>
<text xml:space="preserve" transform="matrix(.2724359 0 0 .2721154 2.28089 -10.527191)" font-size="22.27" font-family="ArialMT"><tspan y="204.1719" x="504.8844">t</tspan></text>
<text xml:space="preserve" transform="matrix(.2724359 0 0 .2721154 2.28089 -10.527191)" font-size="22.27" font-family="ArialMT"><tspan y="204.1719" x="511.0718"> </tspan></text>
<text xml:space="preserve" transform="matrix(.2724359 0 0 .2721154 2.28089 -10.527191)" font-size="22.27" font-family="ArialMT"><tspan y="204.1719" x="517.2591 529.6457 542.0323">dec</tspan></text>
<text xml:space="preserve" transform="matrix(.2724359 0 0 .2721154 2.28089 -10.527191)" font-size="22.27" font-family="ArialMT"><tspan y="204.1719" x="553.1651">l</tspan></text>
<text xml:space="preserve" transform="matrix(.2724359 0 0 .2721154 2.28089 -10.527191)" font-size="22.27" font-family="ArialMT"><tspan y="204.1719" x="558.1128 570.4994">ar</tspan></text>
<text xml:space="preserve" transform="matrix(.2724359 0 0 .2721154 2.28089 -10.527191)" font-size="22.27" font-family="ArialMT"><tspan y="204.1719" x="577.9144 590.301">at</tspan></text>
<text xml:space="preserve" transform="matrix(.2724359 0 0 .2721154 2.28089 -10.527191)" font-size="22.27" font-family="ArialMT"><tspan y="204.1719" x="596.4872 608.8738">or</tspan></text>
<text xml:space="preserve" transform="matrix(.2724359 0 0 .2721154 2.28089 -10.527191)" font-size="22.27" font-family="ArialMT"><tspan y="204.1719" x="616.2888"> </tspan></text>
<text xml:space="preserve" transform="matrix(.2724359 0 0 .2721154 2.28089 -10.527191)" font-size="22.27" font-family="ArialMT"><tspan y="204.1719" x="622.4761">l</tspan></text>
<text xml:space="preserve" transform="matrix(.2724359 0 0 .2721154 2.28089 -10.527191)" font-size="22.27" font-family="ArialMT"><tspan y="204.1719" x="627.4238">i</tspan></text>
<text xml:space="preserve" transform="matrix(.2724359 0 0 .2721154 2.28089 -10.527191)" font-size="22.27" font-family="ArialMT"><tspan y="204.1719" x="632.3715">s</tspan></text>
<text xml:space="preserve" transform="matrix(.2724359 0 0 .2721154 2.28089 -10.527191)" font-size="22.27" font-family="ArialMT"><tspan y="204.1719" x="643.5065">t</tspan></text>
<text xml:space="preserve" transform="matrix(.2724359 0 0 .2721154 2.28089 -10.527191)" font-size="22.27" font-family="ArialMT"><tspan y="204.1719" x="649.6938">)</tspan></text>
</g>
</g>
<g clip-path="url(#clip_49)">
<g clip-path="url(#clip_50)">
<text xml:space="preserve" transform="matrix(.2724359 0 0 .2721154 2.28089 -10.527191)" font-size="22.27" font-family="ArialMT"><tspan y="252.4375" x="475.1875">2</tspan></text>
</g>
</g>
<g clip-path="url(#clip_51)">
<g clip-path="url(#clip_52)">
<path transform="matrix(.5056997,0,0,.5051047,2.53374,-10.274597)" stroke-width="1" stroke-linecap="butt" stroke-miterlimit="10" stroke-linejoin="miter" fill="none" stroke="#000000" d="M250 148H370"/>
</g>
</g>
<g clip-path="url(#clip_53)">
<g clip-path="url(#clip_54)">
<text xml:space="preserve" transform="matrix(.2724359 0 0 .2721154 2.28089 -10.527191)" font-size="22.27" font-family="ArialMT"><tspan y="315.5469" x="475.1875">N</tspan></text>
<text xml:space="preserve" transform="matrix(.2724359 0 0 .2721154 2.28089 -10.527191)" font-size="22.27" font-family="ArialMT"><tspan y="315.5469" x="491.2702 503.65678 516.04336 528.42996 537.0974 545.7649">ode** </tspan></text>
<text xml:space="preserve" transform="matrix(.2724359 0 0 .2721154 2.28089 -10.527191)" font-size="22.27" font-family="ArialMT"><tspan y="315.5469" x="551.9472 564.3338 576.7204">nex</tspan></text>
<text xml:space="preserve" transform="matrix(.2724359 0 0 .2721154 2.28089 -10.527191)" font-size="22.27" font-family="ArialMT"><tspan y="315.5469" x="587.8532">t</tspan></text>
</g>
</g>
<g clip-path="url(#clip_55)">
<g clip-path="url(#clip_56)">
<path transform="matrix(1,0,0,-1,0,283)" d="M7.590737 273.0704H68.2747V258.9275H7.590737Z" fill="#ffffff"/>
<path transform="matrix(.5056997,0,0,.5051047,2.53374,-10.274597)" stroke-width="1" stroke-linecap="butt" stroke-miterlimit="4" stroke-linejoin="miter" fill="none" stroke="#000000" d="M10 40H130V68H10Z"/>
</g>
</g>
<g clip-path="url(#clip_57)">
<g clip-path="url(#clip_58)">
<text xml:space="preserve" transform="matrix(.2724359 0 0 .2721154 2.28089 -10.527191)" font-size="22.27" font-family="ArialMT"><tspan y="111.3594" x="29.6875">N</tspan></text>
<text xml:space="preserve" transform="matrix(.2724359 0 0 .2721154 2.28089 -10.527191)" font-size="22.27" font-family="ArialMT"><tspan y="111.3594" x="45.77017 58.156744 70.54332 82.92989 91.59738">ode* </tspan></text>
<text xml:space="preserve" transform="matrix(.2724359 0 0 .2721154 2.28089 -10.527191)" font-size="22.27" font-family="ArialMT"><tspan y="111.3594" x="97.78062 110.16719 122.553768 134.94034">head</tspan></text>
</g>
</g>
<g clip-path="url(#clip_59)">
<g clip-path="url(#clip_60)">
<path transform="matrix(1,0,0,-1,0,283)" d="M68.02185 266.2515H71.05605V265.2413H68.02185V266.2515ZM74.09025 266.2515H77.12444V265.2413H74.09025V266.2515ZM80.15864 266.2515H83.19284V265.2413H80.15864V266.2515ZM86.22704 266.2515H88.24984L89.26059 266.2528 89.26188 265.2426 88.24984 265.2413H86.22704V266.2515ZM92.29479 266.2566 95.32898 266.2605 95.33026 265.2502 92.29608 265.2464 92.29479 266.2566ZM98.36318 266.2643 101.3974 266.2681 101.3987 265.2579 98.36446 265.2541 98.36318 266.2643ZM104.4316 266.2719 107.4658 266.2758 107.4671 265.2656 104.4329 265.2617 104.4316 266.2719ZM110.5 266.2796 113.5342 266.2834 113.5354 265.2732 110.5012 265.2694 110.5 266.2796ZM116.5684 266.2872 119.6025 266.2911 119.6038 265.2809 116.5696 265.277 116.5684 266.2872ZM122.6367 266.2949 124.2955 266.297 124.2968 265.2868 122.638 265.2847 122.6367 266.2949Z"/>
<path transform="matrix(1,0,0,-1,0,283)" d="M127.3303 265.7919 123.2898 263.7664 124.2961 265.7919 123.2847 267.8073 127.3303 265.7919Z"/>
<path transform="matrix(.5056997,0,0,.5051047,2.28089,-10.527191)" stroke-width="2" stroke-linecap="butt" stroke-miterlimit="10" stroke-linejoin="miter" fill="none" stroke="#000000" d="M247.28 54.91 239.29 58.92 241.28 54.91 239.28 50.92 247.28 54.91Z"/>
<path transform="matrix(1,0,0,-1,0,283)" d="M356.5235 259.9377V273.0704H417.2075V259.9377" fill="#ffffff"/>
<path transform="matrix(.5056997,0,0,.5051047,2.53374,-10.274597)" stroke-width="1" stroke-linecap="butt" stroke-miterlimit="10" stroke-linejoin="miter" fill="none" stroke="#000000" d="M700 66V40H820V66"/>
<path transform="matrix(.5056997,0,0,.5051047,2.53374,-10.274597)" stroke-width="1" stroke-linecap="butt" stroke-miterlimit="10" stroke-linejoin="miter" fill="none" stroke="#000000" d="M700 66V178H820V66"/>
<path transform="matrix(.5056997,0,0,.5051047,2.53374,-10.274597)" stroke-width="1" stroke-linecap="butt" stroke-miterlimit="10" stroke-linejoin="miter" fill="none" stroke="#000000" d="M700 66H820"/>
<text xml:space="preserve" transform="matrix(.2724359 0 0 .2721154 2.28089 -10.527191)" font-size="22.27" font-family="Arial" font-style="italic"><tspan y="107.6563" x="1380.781">T</tspan></text>
<text xml:space="preserve" transform="matrix(.2724359 0 0 .2721154 2.28089 -10.527191)" font-size="22.27" font-family="Arial" font-style="italic"><tspan y="107.6563" x="1392.34 1404.7266">ok</tspan></text>
<text xml:space="preserve" transform="matrix(.2724359 0 0 .2721154 2.28089 -10.527191)" font-size="22.27" font-family="Arial" font-style="italic"><tspan y="107.6563" x="1415.861 1428.2476">en</tspan></text>
</g>
</g>
<g clip-path="url(#clip_61)">
<g clip-path="url(#clip_62)">
<text xml:space="preserve" transform="matrix(.2724359 0 0 .2721154 2.28089 -10.527191)" font-size="22.27" font-family="ArialMT"><tspan y="155.9219" x="1310.484">"</tspan></text>
<text xml:space="preserve" transform="matrix(.2724359 0 0 .2721154 2.28089 -10.527191)" font-size="22.27" font-family="ArialMT"><tspan y="155.9219" x="1318.39">x</tspan></text>
<text xml:space="preserve" transform="matrix(.2724359 0 0 .2721154 2.28089 -10.527191)" font-size="22.27" font-family="ArialMT"><tspan y="155.9219" x="1329.525">"</tspan></text>
</g>
</g>
<g clip-path="url(#clip_63)">
<g clip-path="url(#clip_64)">
<text xml:space="preserve" transform="matrix(.2724359 0 0 .2721154 2.28089 -10.527191)" font-size="22.27" font-family="ArialMT"><tspan y="204.1719" x="1310.484 1322.8706 1335.2572">52 </tspan></text>
<text xml:space="preserve" transform="matrix(.2724359 0 0 .2721154 2.28089 -10.527191)" font-size="22.27" font-family="ArialMT"><tspan y="204.1719" x="1341.443">(</tspan></text>
<text xml:space="preserve" transform="matrix(.2724359 0 0 .2721154 2.28089 -10.527191)" font-size="22.27" font-family="ArialMT"><tspan y="204.1719" x="1348.859 1361.2456">us</tspan></text>
<text xml:space="preserve" transform="matrix(.2724359 0 0 .2721154 2.28089 -10.527191)" font-size="22.27" font-family="ArialMT"><tspan y="204.1719" x="1372.379 1384.7656">er</tspan></text>
<text xml:space="preserve" transform="matrix(.2724359 0 0 .2721154 2.28089 -10.527191)" font-size="22.27" font-family="ArialMT"><tspan y="204.1719" x="1392.181"> </tspan></text>
<text xml:space="preserve" transform="matrix(.2724359 0 0 .2721154 2.28089 -10.527191)" font-size="22.27" font-family="ArialMT"><tspan y="204.1719" x="1398.368 1410.7546 1423.1412">def</tspan></text>
<text xml:space="preserve" transform="matrix(.2724359 0 0 .2721154 2.28089 -10.527191)" font-size="22.27" font-family="ArialMT"><tspan y="204.1719" x="1429.327">i</tspan></text>
<text xml:space="preserve" transform="matrix(.2724359 0 0 .2721154 2.28089 -10.527191)" font-size="22.27" font-family="ArialMT"><tspan y="204.1719" x="1434.274 1446.6607 1459.0473 1471.4338">ned)</tspan></text>
</g>
</g>
<g clip-path="url(#clip_65)">
<g clip-path="url(#clip_66)">
<text xml:space="preserve" transform="matrix(.2724359 0 0 .2721154 2.28089 -10.527191)" font-size="22.27" font-family="ArialMT"><tspan y="252.4375" x="1310.484">0</tspan></text>
</g>
</g>
<g clip-path="url(#clip_67)">
<g clip-path="url(#clip_68)">
<path transform="matrix(.5056997,0,0,.5051047,2.53374,-10.274597)" stroke-width="1" stroke-linecap="butt" stroke-miterlimit="10" stroke-linejoin="miter" fill="none" stroke="#000000" d="M700 148H820"/>
</g>
</g>
<g clip-path="url(#clip_69)">
<g clip-path="url(#clip_70)">
<text xml:space="preserve" transform="matrix(.2724359 0 0 .2721154 2.28089 -10.527191)" font-size="22.27" font-family="ArialMT"><tspan y="315.5469" x="1310.484">T</tspan></text>
<text xml:space="preserve" transform="matrix(.2724359 0 0 .2721154 2.28089 -10.527191)" font-size="22.27" font-family="ArialMT"><tspan y="315.5469" x="1321.619 1334.0056">ok</tspan></text>
<text xml:space="preserve" transform="matrix(.2724359 0 0 .2721154 2.28089 -10.527191)" font-size="22.27" font-family="ArialMT"><tspan y="315.5469" x="1345.14 1357.5266 1369.9132 1378.5807">en* </tspan></text>
<text xml:space="preserve" transform="matrix(.2724359 0 0 .2721154 2.28089 -10.527191)" font-size="22.27" font-family="ArialMT"><tspan y="315.5469" x="1384.765 1397.1516 1409.5382">nex</tspan></text>
<text xml:space="preserve" transform="matrix(.2724359 0 0 .2721154 2.28089 -10.527191)" font-size="22.27" font-family="ArialMT"><tspan y="315.5469" x="1420.671">t</tspan></text>
</g>
</g>
<g clip-path="url(#clip_71)">
<g clip-path="url(#clip_72)">
<path transform="matrix(1,0,0,-1,0,283)" d="M280.6686 164.978V178.1108H341.3525V164.978" fill="#ffffff"/>
<path transform="matrix(.5056997,0,0,.5051047,2.53374,-10.274597)" stroke-width="1" stroke-linecap="butt" stroke-miterlimit="10" stroke-linejoin="miter" fill="none" stroke="#000000" d="M550 254V228H670V254"/>
<path transform="matrix(.5056997,0,0,.5051047,2.53374,-10.274597)" stroke-width="1" stroke-linecap="butt" stroke-miterlimit="10" stroke-linejoin="miter" fill="none" stroke="#000000" d="M550 254V366H670V254"/>
<path transform="matrix(.5056997,0,0,.5051047,2.53374,-10.274597)" stroke-width="1" stroke-linecap="butt" stroke-miterlimit="10" stroke-linejoin="miter" fill="none" stroke="#000000" d="M550 254H670"/>
<text xml:space="preserve" transform="matrix(.2724359 0 0 .2721154 2.28089 -10.527191)" font-size="22.27" font-family="Arial" font-style="italic"><tspan y="456.625" x="1105.656">N</tspan></text>
<text xml:space="preserve" transform="matrix(.2724359 0 0 .2721154 2.28089 -10.527191)" font-size="22.27" font-family="Arial" font-style="italic"><tspan y="456.625" x="1121.739 1134.1256 1146.5122">ode</tspan></text>
</g>
</g>
<g clip-path="url(#clip_73)">
<g clip-path="url(#clip_74)">
<text xml:space="preserve" transform="matrix(.2724359 0 0 .2721154 2.28089 -10.527191)" font-size="22.27" font-family="ArialMT"><tspan y="504.875" x="1032.047">T</tspan></text>
<text xml:space="preserve" transform="matrix(.2724359 0 0 .2721154 2.28089 -10.527191)" font-size="22.27" font-family="ArialMT"><tspan y="504.875" x="1043.182 1055.5686">ok</tspan></text>
<text xml:space="preserve" transform="matrix(.2724359 0 0 .2721154 2.28089 -10.527191)" font-size="22.27" font-family="ArialMT"><tspan y="504.875" x="1066.702 1079.0886 1091.4752 1100.1427">en* </tspan></text>
<text xml:space="preserve" transform="matrix(.2724359 0 0 .2721154 2.28089 -10.527191)" font-size="22.27" font-family="ArialMT"><tspan y="504.875" x="1106.327">t</tspan></text>
<text xml:space="preserve" transform="matrix(.2724359 0 0 .2721154 2.28089 -10.527191)" font-size="22.27" font-family="ArialMT"><tspan y="504.875" x="1112.515 1124.9016">ok</tspan></text>
<text xml:space="preserve" transform="matrix(.2724359 0 0 .2721154 2.28089 -10.527191)" font-size="22.27" font-family="ArialMT"><tspan y="504.875" x="1136.035 1148.4216">en</tspan></text>
</g>
</g>
<g clip-path="url(#clip_75)">
<g clip-path="url(#clip_76)">
<text xml:space="preserve" transform="matrix(.2724359 0 0 .2721154 2.28089 -10.527191)" font-size="22.27" font-family="ArialMT"><tspan y="553.1406" x="1032.047">(</tspan></text>
<text xml:space="preserve" transform="matrix(.2724359 0 0 .2721154 2.28089 -10.527191)" font-size="22.27" font-family="ArialMT"><tspan y="553.1406" x="1039.463">s</tspan></text>
<text xml:space="preserve" transform="matrix(.2724359 0 0 .2721154 2.28089 -10.527191)" font-size="22.27" font-family="ArialMT"><tspan y="553.1406" x="1050.598">y</tspan></text>
<text xml:space="preserve" transform="matrix(.2724359 0 0 .2721154 2.28089 -10.527191)" font-size="22.27" font-family="ArialMT"><tspan y="553.1406" x="1061.733">m</tspan></text>
<text xml:space="preserve" transform="matrix(.2724359 0 0 .2721154 2.28089 -10.527191)" font-size="22.27" font-family="ArialMT"><tspan y="553.1406" x="1080.284 1092.6707 1105.0573">bol</tspan></text>
<text xml:space="preserve" transform="matrix(.2724359 0 0 .2721154 2.28089 -10.527191)" font-size="22.27" font-family="ArialMT"><tspan y="553.1406" x="1110.003">)</tspan></text>
</g>
</g>
<g clip-path="url(#clip_77)">
<g clip-path="url(#clip_78)">
<text xml:space="preserve" transform="matrix(.2724359 0 0 .2721154 2.28089 -10.527191)" font-size="22.27" font-family="ArialMT"><tspan y="601.4062" x="1032.047">0</tspan></text>
</g>
</g>
<g clip-path="url(#clip_79)">
<g clip-path="url(#clip_80)">
<path transform="matrix(.5056997,0,0,.5051047,2.53374,-10.274597)" stroke-width="1" stroke-linecap="butt" stroke-miterlimit="10" stroke-linejoin="miter" fill="none" stroke="#000000" d="M550 336H670"/>
</g>
</g>
<g clip-path="url(#clip_81)">
<g clip-path="url(#clip_82)">
<text xml:space="preserve" transform="matrix(.2724359 0 0 .2721154 2.28089 -10.527191)" font-size="22.27" font-family="ArialMT"><tspan y="664.5156" x="1032.047">N</tspan></text>
<text xml:space="preserve" transform="matrix(.2724359 0 0 .2721154 2.28089 -10.527191)" font-size="22.27" font-family="ArialMT"><tspan y="664.5156" x="1048.13">U</tspan></text>
<text xml:space="preserve" transform="matrix(.2724359 0 0 .2721154 2.28089 -10.527191)" font-size="22.27" font-family="ArialMT"><tspan y="664.5156" x="1064.212 1076.5986">LL</tspan></text>
</g>
</g>
<g clip-path="url(#clip_83)">
<g clip-path="url(#clip_84)">
<path transform="matrix(.5056997,0,0,.5051047,2.53374,-10.274597)" stroke-width="1" stroke-linecap="butt" stroke-miterlimit="10" stroke-linejoin="miter" fill="none" stroke="#000000" d="M670 267H680V242.1L693.63 242.08"/>
<path transform="matrix(1,0,0,-1,0,283)" d="M355.9571 170.9989 352.4223 169.226 353.3022 170.9989 352.4172 172.7617 355.9571 170.9989Z"/>
<path transform="matrix(.5056997,0,0,.5051047,2.53374,-10.274597)" stroke-width="1" stroke-linecap="butt" stroke-miterlimit="10" stroke-linejoin="miter" fill="none" stroke="#000000" d="M698.88 242.08 691.89 245.59 693.63 242.08 691.88 238.59 698.88 242.08Z"/>
<path transform="matrix(1,0,0,-1,0,283)" d="M356.5235 164.978V178.1108H417.2075V164.978" fill="#ffffff"/>
<path transform="matrix(.5056997,0,0,.5051047,2.53374,-10.274597)" stroke-width="1" stroke-linecap="butt" stroke-miterlimit="10" stroke-linejoin="miter" fill="none" stroke="#000000" d="M700 254V228H820V254"/>
<path transform="matrix(.5056997,0,0,.5051047,2.53374,-10.274597)" stroke-width="1" stroke-linecap="butt" stroke-miterlimit="10" stroke-linejoin="miter" fill="none" stroke="#000000" d="M700 254V366H820V254"/>
<path transform="matrix(.5056997,0,0,.5051047,2.53374,-10.274597)" stroke-width="1" stroke-linecap="butt" stroke-miterlimit="10" stroke-linejoin="miter" fill="none" stroke="#000000" d="M700 254H820"/>
<text xml:space="preserve" transform="matrix(.2724359 0 0 .2721154 2.28089 -10.527191)" font-size="22.27" font-family="Arial" font-style="italic"><tspan y="456.625" x="1380.781">T</tspan></text>
<text xml:space="preserve" transform="matrix(.2724359 0 0 .2721154 2.28089 -10.527191)" font-size="22.27" font-family="Arial" font-style="italic"><tspan y="456.625" x="1392.34 1404.7266">ok</tspan></text>
<text xml:space="preserve" transform="matrix(.2724359 0 0 .2721154 2.28089 -10.527191)" font-size="22.27" font-family="Arial" font-style="italic"><tspan y="456.625" x="1415.861 1428.2476">en</tspan></text>
</g>
</g>
<g clip-path="url(#clip_85)">
<g clip-path="url(#clip_86)">
<text xml:space="preserve" transform="matrix(.2724359 0 0 .2721154 2.28089 -10.527191)" font-size="22.27" font-family="ArialMT"><tspan y="504.875" x="1310.484">"</tspan></text>
<text xml:space="preserve" transform="matrix(.2724359 0 0 .2721154 2.28089 -10.527191)" font-size="22.27" font-family="ArialMT"><tspan y="504.875" x="1318.39">,</tspan></text>
<text xml:space="preserve" transform="matrix(.2724359 0 0 .2721154 2.28089 -10.527191)" font-size="22.27" font-family="ArialMT"><tspan y="504.875" x="1324.577">"</tspan></text>
</g>
</g>
<g clip-path="url(#clip_87)">
<g clip-path="url(#clip_88)">
<text xml:space="preserve" transform="matrix(.2724359 0 0 .2721154 2.28089 -10.527191)" font-size="22.27" font-family="ArialMT"><tspan y="553.1406" x="1310.484 1322.8706 1335.2572">25 </tspan></text>
<text xml:space="preserve" transform="matrix(.2724359 0 0 .2721154 2.28089 -10.527191)" font-size="22.27" font-family="ArialMT"><tspan y="553.1406" x="1341.443">(</tspan></text>
<text xml:space="preserve" transform="matrix(.2724359 0 0 .2721154 2.28089 -10.527191)" font-size="22.27" font-family="ArialMT"><tspan y="553.1406" x="1348.859">c</tspan></text>
<text xml:space="preserve" transform="matrix(.2724359 0 0 .2721154 2.28089 -10.527191)" font-size="22.27" font-family="ArialMT"><tspan y="553.1406" x="1359.994 1372.3806">om</tspan></text>
<text xml:space="preserve" transform="matrix(.2724359 0 0 .2721154 2.28089 -10.527191)" font-size="22.27" font-family="ArialMT"><tspan y="553.1406" x="1390.93">m</tspan></text>
<text xml:space="preserve" transform="matrix(.2724359 0 0 .2721154 2.28089 -10.527191)" font-size="22.27" font-family="ArialMT"><tspan y="553.1406" x="1409.481 1421.8676">a)</tspan></text>
</g>
</g>
<g clip-path="url(#clip_89)">
<g clip-path="url(#clip_90)">
<text xml:space="preserve" transform="matrix(.2724359 0 0 .2721154 2.28089 -10.527191)" font-size="22.27" font-family="ArialMT"><tspan y="601.4062" x="1310.484">0</tspan></text>
</g>
</g>
<g clip-path="url(#clip_91)">
<g clip-path="url(#clip_92)">
<path transform="matrix(.5056997,0,0,.5051047,2.53374,-10.274597)" stroke-width="1" stroke-linecap="butt" stroke-miterlimit="10" stroke-linejoin="miter" fill="none" stroke="#000000" d="M700 336H820"/>
</g>
</g>
<g clip-path="url(#clip_93)">
<g clip-path="url(#clip_94)">
<text xml:space="preserve" transform="matrix(.2724359 0 0 .2721154 2.28089 -10.527191)" font-size="22.27" font-family="ArialMT"><tspan y="664.5156" x="1310.484">T</tspan></text>
<text xml:space="preserve" transform="matrix(.2724359 0 0 .2721154 2.28089 -10.527191)" font-size="22.27" font-family="ArialMT"><tspan y="664.5156" x="1321.619 1334.0056">ok</tspan></text>
<text xml:space="preserve" transform="matrix(.2724359 0 0 .2721154 2.28089 -10.527191)" font-size="22.27" font-family="ArialMT"><tspan y="664.5156" x="1345.14 1357.5266 1369.9132 1378.5807">en* </tspan></text>
<text xml:space="preserve" transform="matrix(.2724359 0 0 .2721154 2.28089 -10.527191)" font-size="22.27" font-family="ArialMT"><tspan y="664.5156" x="1384.765 1397.1516 1409.5382">nex</tspan></text>
<text xml:space="preserve" transform="matrix(.2724359 0 0 .2721154 2.28089 -10.527191)" font-size="22.27" font-family="ArialMT"><tspan y="664.5156" x="1420.671">t</tspan></text>
</g>
</g>
<g clip-path="url(#clip_95)">
<g clip-path="url(#clip_96)">
<path transform="matrix(1,0,0,-1,0,283)" d="M280.6686 63.95708V77.08981H341.3525V63.95708" fill="#ffffff"/>
<path transform="matrix(.5056997,0,0,.5051047,2.53374,-10.274597)" stroke-width="1" stroke-linecap="butt" stroke-miterlimit="10" stroke-linejoin="miter" fill="none" stroke="#000000" d="M550 454V428H670V454"/>
<path transform="matrix(.5056997,0,0,.5051047,2.53374,-10.274597)" stroke-width="1" stroke-linecap="butt" stroke-miterlimit="10" stroke-linejoin="miter" fill="none" stroke="#000000" d="M550 454V566H670V454"/>
<path transform="matrix(.5056997,0,0,.5051047,2.53374,-10.274597)" stroke-width="1" stroke-linecap="butt" stroke-miterlimit="10" stroke-linejoin="miter" fill="none" stroke="#000000" d="M550 454H670"/>
<text xml:space="preserve" transform="matrix(.2724359 0 0 .2721154 2.28089 -10.527191)" font-size="22.27" font-family="Arial" font-style="italic"><tspan y="827.8594" x="1105.656">N</tspan></text>
<text xml:space="preserve" transform="matrix(.2724359 0 0 .2721154 2.28089 -10.527191)" font-size="22.27" font-family="Arial" font-style="italic"><tspan y="827.8594" x="1121.739 1134.1256 1146.5122">ode</tspan></text>
</g>
</g>
<g clip-path="url(#clip_97)">
<g clip-path="url(#clip_98)">
<text xml:space="preserve" transform="matrix(.2724359 0 0 .2721154 2.28089 -10.527191)" font-size="22.27" font-family="ArialMT"><tspan y="876.125" x="1032.047">T</tspan></text>
<text xml:space="preserve" transform="matrix(.2724359 0 0 .2721154 2.28089 -10.527191)" font-size="22.27" font-family="ArialMT"><tspan y="876.125" x="1043.182 1055.5686">ok</tspan></text>
<text xml:space="preserve" transform="matrix(.2724359 0 0 .2721154 2.28089 -10.527191)" font-size="22.27" font-family="ArialMT"><tspan y="876.125" x="1066.702 1079.0886 1091.4752 1100.1427">en* </tspan></text>
<text xml:space="preserve" transform="matrix(.2724359 0 0 .2721154 2.28089 -10.527191)" font-size="22.27" font-family="ArialMT"><tspan y="876.125" x="1106.327">t</tspan></text>
<text xml:space="preserve" transform="matrix(.2724359 0 0 .2721154 2.28089 -10.527191)" font-size="22.27" font-family="ArialMT"><tspan y="876.125" x="1112.515 1124.9016">ok</tspan></text>
<text xml:space="preserve" transform="matrix(.2724359 0 0 .2721154 2.28089 -10.527191)" font-size="22.27" font-family="ArialMT"><tspan y="876.125" x="1136.035 1148.4216">en</tspan></text>
</g>
</g>
<g clip-path="url(#clip_99)">
<g clip-path="url(#clip_100)">
<text xml:space="preserve" transform="matrix(.2724359 0 0 .2721154 2.28089 -10.527191)" font-size="22.27" font-family="ArialMT"><tspan y="924.3906" x="1032.047">(</tspan></text>
<text xml:space="preserve" transform="matrix(.2724359 0 0 .2721154 2.28089 -10.527191)" font-size="22.27" font-family="ArialMT"><tspan y="924.3906" x="1039.463">s</tspan></text>
<text xml:space="preserve" transform="matrix(.2724359 0 0 .2721154 2.28089 -10.527191)" font-size="22.27" font-family="ArialMT"><tspan y="924.3906" x="1050.598">y</tspan></text>
<text xml:space="preserve" transform="matrix(.2724359 0 0 .2721154 2.28089 -10.527191)" font-size="22.27" font-family="ArialMT"><tspan y="924.3906" x="1061.733">m</tspan></text>
<text xml:space="preserve" transform="matrix(.2724359 0 0 .2721154 2.28089 -10.527191)" font-size="22.27" font-family="ArialMT"><tspan y="924.3906" x="1080.284 1092.6707 1105.0573">bol</tspan></text>
<text xml:space="preserve" transform="matrix(.2724359 0 0 .2721154 2.28089 -10.527191)" font-size="22.27" font-family="ArialMT"><tspan y="924.3906" x="1110.003">)</tspan></text>
</g>
</g>
<g clip-path="url(#clip_101)">
<g clip-path="url(#clip_102)">
<text xml:space="preserve" transform="matrix(.2724359 0 0 .2721154 2.28089 -10.527191)" font-size="22.27" font-family="ArialMT"><tspan y="972.6563" x="1032.047">0</tspan></text>
</g>
</g>
<g clip-path="url(#clip_103)">
<g clip-path="url(#clip_104)">
<path transform="matrix(.5056997,0,0,.5051047,2.53374,-10.274597)" stroke-width="1" stroke-linecap="butt" stroke-miterlimit="10" stroke-linejoin="miter" fill="none" stroke="#000000" d="M550 536H670"/>
</g>
</g>
<g clip-path="url(#clip_105)">
<g clip-path="url(#clip_106)">
<text xml:space="preserve" transform="matrix(.2724359 0 0 .2721154 2.28089 -10.527191)" font-size="22.27" font-family="ArialMT"><tspan y="1035.766" x="1032.047">N</tspan></text>
<text xml:space="preserve" transform="matrix(.2724359 0 0 .2721154 2.28089 -10.527191)" font-size="22.27" font-family="ArialMT"><tspan y="1035.766" x="1048.13">U</tspan></text>
<text xml:space="preserve" transform="matrix(.2724359 0 0 .2721154 2.28089 -10.527191)" font-size="22.27" font-family="ArialMT"><tspan y="1035.766" x="1064.212 1076.5986">LL</tspan></text>
</g>
</g>
<g clip-path="url(#clip_107)">
<g clip-path="url(#clip_108)">
<path transform="matrix(.5056997,0,0,.5051047,2.53374,-10.274597)" stroke-width="1" stroke-linecap="butt" stroke-miterlimit="10" stroke-linejoin="miter" fill="none" stroke="#000000" d="M670 467H680V442.1L693.63 442.08"/>
<path transform="matrix(1,0,0,-1,0,283)" d="M355.9571 69.97794 352.4223 68.20501 353.3022 69.97794 352.4172 71.74075 355.9571 69.97794Z"/>
<path transform="matrix(.5056997,0,0,.5051047,2.53374,-10.274597)" stroke-width="1" stroke-linecap="butt" stroke-miterlimit="10" stroke-linejoin="miter" fill="none" stroke="#000000" d="M698.88 442.08 691.89 445.59 693.63 442.08 691.88 438.59 698.88 442.08Z"/>
<path transform="matrix(1,0,0,-1,0,283)" d="M356.5235 63.95708V77.08981H417.2075V63.95708" fill="#ffffff"/>
<path transform="matrix(.5056997,0,0,.5051047,2.53374,-10.274597)" stroke-width="1" stroke-linecap="butt" stroke-miterlimit="10" stroke-linejoin="miter" fill="none" stroke="#000000" d="M700 454V428H820V454"/>
<path transform="matrix(.5056997,0,0,.5051047,2.53374,-10.274597)" stroke-width="1" stroke-linecap="butt" stroke-miterlimit="10" stroke-linejoin="miter" fill="none" stroke="#000000" d="M700 454V566H820V454"/>
<path transform="matrix(.5056997,0,0,.5051047,2.53374,-10.274597)" stroke-width="1" stroke-linecap="butt" stroke-miterlimit="10" stroke-linejoin="miter" fill="none" stroke="#000000" d="M700 454H820"/>
<text xml:space="preserve" transform="matrix(.2724359 0 0 .2721154 2.28089 -10.527191)" font-size="22.27" font-family="Arial" font-style="italic"><tspan y="827.8594" x="1380.781">T</tspan></text>
<text xml:space="preserve" transform="matrix(.2724359 0 0 .2721154 2.28089 -10.527191)" font-size="22.27" font-family="Arial" font-style="italic"><tspan y="827.8594" x="1392.34 1404.7266">ok</tspan></text>
<text xml:space="preserve" transform="matrix(.2724359 0 0 .2721154 2.28089 -10.527191)" font-size="22.27" font-family="Arial" font-style="italic"><tspan y="827.8594" x="1415.861 1428.2476">en</tspan></text>
</g>
</g>
<g clip-path="url(#clip_109)">
<g clip-path="url(#clip_110)">
<text xml:space="preserve" transform="matrix(.2724359 0 0 .2721154 2.28089 -10.527191)" font-size="22.27" font-family="ArialMT"><tspan y="876.125" x="1310.484">"</tspan></text>
<text xml:space="preserve" transform="matrix(.2724359 0 0 .2721154 2.28089 -10.527191)" font-size="22.27" font-family="ArialMT"><tspan y="876.125" x="1318.39">y</tspan></text>
<text xml:space="preserve" transform="matrix(.2724359 0 0 .2721154 2.28089 -10.527191)" font-size="22.27" font-family="ArialMT"><tspan y="876.125" x="1329.525">"</tspan></text>
</g>
</g>
<g clip-path="url(#clip_111)">
<g clip-path="url(#clip_112)">
<text xml:space="preserve" transform="matrix(.2724359 0 0 .2721154 2.28089 -10.527191)" font-size="22.27" font-family="ArialMT"><tspan y="924.3906" x="1310.484 1322.8706 1335.2572">52 </tspan></text>
<text xml:space="preserve" transform="matrix(.2724359 0 0 .2721154 2.28089 -10.527191)" font-size="22.27" font-family="ArialMT"><tspan y="924.3906" x="1341.443">(</tspan></text>
<text xml:space="preserve" transform="matrix(.2724359 0 0 .2721154 2.28089 -10.527191)" font-size="22.27" font-family="ArialMT"><tspan y="924.3906" x="1348.859 1361.2456">us</tspan></text>
<text xml:space="preserve" transform="matrix(.2724359 0 0 .2721154 2.28089 -10.527191)" font-size="22.27" font-family="ArialMT"><tspan y="924.3906" x="1372.379 1384.7656">er</tspan></text>
<text xml:space="preserve" transform="matrix(.2724359 0 0 .2721154 2.28089 -10.527191)" font-size="22.27" font-family="ArialMT"><tspan y="924.3906" x="1392.181"> </tspan></text>
<text xml:space="preserve" transform="matrix(.2724359 0 0 .2721154 2.28089 -10.527191)" font-size="22.27" font-family="ArialMT"><tspan y="924.3906" x="1398.368 1410.7546 1423.1412">def</tspan></text>
<text xml:space="preserve" transform="matrix(.2724359 0 0 .2721154 2.28089 -10.527191)" font-size="22.27" font-family="ArialMT"><tspan y="924.3906" x="1429.327">i</tspan></text>
<text xml:space="preserve" transform="matrix(.2724359 0 0 .2721154 2.28089 -10.527191)" font-size="22.27" font-family="ArialMT"><tspan y="924.3906" x="1434.274 1446.6607 1459.0473 1471.4338">ned)</tspan></text>
</g>
</g>
<g clip-path="url(#clip_113)">
<g clip-path="url(#clip_114)">
<text xml:space="preserve" transform="matrix(.2724359 0 0 .2721154 2.28089 -10.527191)" font-size="22.27" font-family="ArialMT"><tspan y="972.6563" x="1310.484">0</tspan></text>
</g>
</g>
<g clip-path="url(#clip_115)">
<g clip-path="url(#clip_116)">
<path transform="matrix(.5056997,0,0,.5051047,2.53374,-10.274597)" stroke-width="1" stroke-linecap="butt" stroke-miterlimit="10" stroke-linejoin="miter" fill="none" stroke="#000000" d="M700 536H820"/>
</g>
</g>
<g clip-path="url(#clip_117)">
<g clip-path="url(#clip_118)">
<text xml:space="preserve" transform="matrix(.2724359 0 0 .2721154 2.28089 -10.527191)" font-size="22.27" font-family="ArialMT"><tspan y="1035.766" x="1310.484">T</tspan></text>
<text xml:space="preserve" transform="matrix(.2724359 0 0 .2721154 2.28089 -10.527191)" font-size="22.27" font-family="ArialMT"><tspan y="1035.766" x="1321.619 1334.0056">ok</tspan></text>
<text xml:space="preserve" transform="matrix(.2724359 0 0 .2721154 2.28089 -10.527191)" font-size="22.27" font-family="ArialMT"><tspan y="1035.766" x="1345.14 1357.5266 1369.9132 1378.5807">en* </tspan></text>
<text xml:space="preserve" transform="matrix(.2724359 0 0 .2721154 2.28089 -10.527191)" font-size="22.27" font-family="ArialMT"><tspan y="1035.766" x="1384.765 1397.1516 1409.5382">nex</tspan></text>
<text xml:space="preserve" transform="matrix(.2724359 0 0 .2721154 2.28089 -10.527191)" font-size="22.27" font-family="ArialMT"><tspan y="1035.766" x="1420.671">t</tspan></text>
</g>
</g>
<g clip-path="url(#clip_119)">
<g clip-path="url(#clip_120)">
<path transform="matrix(1,0,0,-1,0,283)" d="M204.8136 252.3611H265.4976V238.2182H204.8136Z" fill="#ffffff"/>
<path transform="matrix(.5056997,0,0,.5051047,2.53374,-10.274597)" stroke-width="1" stroke-linecap="butt" stroke-miterlimit="4" stroke-linejoin="miter" fill="none" stroke="#000000" d="M400 81H520V109H400Z"/>
</g>
</g>
<g clip-path="url(#clip_121)">
<g clip-path="url(#clip_122)">
<text xml:space="preserve" transform="matrix(.2724359 0 0 .2721154 2.28089 -10.527191)" font-size="22.27" font-family="ArialMT"><tspan y="187.4688" x="753.6094 765.996 778.38259">nex</tspan></text>
<text xml:space="preserve" transform="matrix(.2724359 0 0 .2721154 2.28089 -10.527191)" font-size="22.27" font-family="ArialMT"><tspan y="187.4688" x="789.5154">t</tspan></text>
<text xml:space="preserve" transform="matrix(.2724359 0 0 .2721154 2.28089 -10.527191)" font-size="22.27" font-family="ArialMT"><tspan y="187.4688" x="795.7027">[</tspan></text>
<text xml:space="preserve" transform="matrix(.2724359 0 0 .2721154 2.28089 -10.527191)" font-size="22.27" font-family="ArialMT"><tspan y="187.4688" x="801.89 814.2766">0]</tspan></text>
</g>
</g>
<g clip-path="url(#clip_123)">
<g clip-path="url(#clip_124)">
<path transform="matrix(1,0,0,-1,0,283)" d="M204.8136 238.2182H265.4976V224.0753H204.8136Z" fill="#ffffff"/>
<path transform="matrix(.5056997,0,0,.5051047,2.53374,-10.274597)" stroke-width="1" stroke-linecap="butt" stroke-miterlimit="4" stroke-linejoin="miter" fill="none" stroke="#000000" d="M400 109H520V137H400Z"/>
</g>
</g>
<g clip-path="url(#clip_125)">
<g clip-path="url(#clip_126)">
<text xml:space="preserve" transform="matrix(.2724359 0 0 .2721154 2.28089 -10.527191)" font-size="22.27" font-family="ArialMT"><tspan y="239.4375" x="753.6094 765.996 778.38259">nex</tspan></text>
<text xml:space="preserve" transform="matrix(.2724359 0 0 .2721154 2.28089 -10.527191)" font-size="22.27" font-family="ArialMT"><tspan y="239.4375" x="789.5154">t</tspan></text>
<text xml:space="preserve" transform="matrix(.2724359 0 0 .2721154 2.28089 -10.527191)" font-size="22.27" font-family="ArialMT"><tspan y="239.4375" x="795.7027">[</tspan></text>
<text xml:space="preserve" transform="matrix(.2724359 0 0 .2721154 2.28089 -10.527191)" font-size="22.27" font-family="ArialMT"><tspan y="239.4375" x="801.89 814.2766">1]</tspan></text>
</g>
</g>
<g clip-path="url(#clip_127)">
<g clip-path="url(#clip_128)">
<path transform="matrix(1,0,0,-1,0,283)" d="M204.8136 224.0753H265.4976V209.9323H204.8136Z" fill="#ffffff"/>
<path transform="matrix(.5056997,0,0,.5051047,2.53374,-10.274597)" stroke-width="1" stroke-linecap="butt" stroke-miterlimit="4" stroke-linejoin="miter" fill="none" stroke="#000000" d="M400 137H520V165H400Z"/>
</g>
</g>
<g clip-path="url(#clip_129)">
<g clip-path="url(#clip_130)">
<text xml:space="preserve" transform="matrix(.2724359 0 0 .2721154 2.28089 -10.527191)" font-size="22.27" font-family="ArialMT"><tspan y="291.4219" x="753.6094 765.996 778.38259">nex</tspan></text>
<text xml:space="preserve" transform="matrix(.2724359 0 0 .2721154 2.28089 -10.527191)" font-size="22.27" font-family="ArialMT"><tspan y="291.4219" x="789.5154">t</tspan></text>
<text xml:space="preserve" transform="matrix(.2724359 0 0 .2721154 2.28089 -10.527191)" font-size="22.27" font-family="ArialMT"><tspan y="291.4219" x="795.7027">[</tspan></text>
<text xml:space="preserve" transform="matrix(.2724359 0 0 .2721154 2.28089 -10.527191)" font-size="22.27" font-family="ArialMT"><tspan y="291.4219" x="801.89 814.2766">2]</tspan></text>
</g>
</g>
<g clip-path="url(#clip_131)">
<g clip-path="url(#clip_132)">
<path transform="matrix(.5056997,0,0,.5051047,2.28089,-10.527191)" stroke-width="2" stroke-linecap="butt" stroke-miterlimit="10" stroke-linejoin="miter" fill="none" stroke="#000000" d="M370 165H380V96H391.76"/>
<path transform="matrix(1,0,0,-1,0,283)" d="M203.428 245.0371 199.3824 243.0167 200.3938 245.0371 199.3824 247.0575 203.428 245.0371Z"/>
<path transform="matrix(.5056997,0,0,.5051047,2.28089,-10.527191)" stroke-width="2" stroke-linecap="butt" stroke-miterlimit="10" stroke-linejoin="miter" fill="none" stroke="#000000" d="M397.76 96 389.76 100 391.76 96 389.76 92 397.76 96Z"/>
<path transform="matrix(1,0,0,-1,0,283)" d="M265.2447 245.5422H268.2789V244.532H265.2447V245.5422ZM269.796 246.0473V249.078H270.8074V246.0473H269.796ZM269.796 252.1086V255.1392H270.8074V252.1086H269.796ZM269.796 258.1699V261.2005H270.8074V258.1699H269.796ZM269.796 264.2311V266.9074L271.1607 266.9094 271.1621 265.8992 270.3024 265.898 270.3017 266.4031H270.8074V264.2311H269.796ZM274.1949 266.9137 277.2291 266.9179 277.2305 265.9077 274.1963 265.9034 274.1949 266.9137Z"/>
<path transform="matrix(1,0,0,-1,0,283)" d="M280.4966 266.4182 276.4561 264.3927 277.4624 266.4132 276.451 268.4336 280.4966 266.4182Z"/>
<path transform="matrix(.5056997,0,0,.5051047,2.28089,-10.527191)" stroke-width="2" stroke-linecap="butt" stroke-miterlimit="10" stroke-linejoin="miter" fill="none" stroke="#000000" d="M550.16 53.67 542.17 57.68 544.16 53.68 542.16 49.68 550.16 53.67Z"/>
<path transform="matrix(.5056997,0,0,.5051047,2.28089,-10.527191)" stroke-width="2" stroke-linecap="butt" stroke-miterlimit="10" stroke-linejoin="miter" fill="none" stroke="#000000" d="M520 124H540V243.2H540.92"/>
<path transform="matrix(1,0,0,-1,0,283)" d="M278.8582 170.6958 274.8176 168.6653 275.824 170.6857 274.8126 172.7061 278.8582 170.6958Z"/>
<path transform="matrix(.5056997,0,0,.5051047,2.28089,-10.527191)" stroke-width="2" stroke-linecap="butt" stroke-miterlimit="10" stroke-linejoin="miter" fill="none" stroke="#000000" d="M546.92 243.18 538.93 247.2 540.92 243.2 538.92 239.2 546.92 243.18Z"/>
<path transform="matrix(1,0,0,-1,0,283)" d="M265.2447 217.2564H268.2789V216.2462H265.2447V217.2564ZM270.8074 215.7411V212.7104H269.796V215.7411H270.8074ZM270.8074 209.6798V206.6492H269.796V209.6798H270.8074ZM270.8074 203.6185V200.5879H269.796V203.6185H270.8074ZM270.8074 197.5573V194.5267H269.796V197.5573H270.8074ZM270.8074 191.496V188.4654H269.796V191.496H270.8074ZM270.8074 185.4348V182.4041H269.796V185.4348H270.8074ZM270.8074 179.3735V176.3429H269.796V179.3735H270.8074ZM270.8074 173.3123V170.2816H269.796V173.3123H270.8074ZM270.8074 167.251V164.2204H269.796V167.251H270.8074ZM270.8074 161.1897V158.1591H269.796V161.1897H270.8074ZM270.8074 155.1285V152.0979H269.796V155.1285H270.8074ZM270.8074 149.0672V146.0366H269.796V149.0672H270.8074ZM270.8074 143.006V139.9753H269.796V143.006H270.8074ZM270.8074 136.9447V133.9141H269.796V136.9447H270.8074ZM270.8074 130.8835V127.8528H269.796V130.8835H270.8074ZM270.8074 124.8222V121.7916H269.796V124.8222H270.8074ZM270.8074 118.7609V115.7303H269.796V118.7609H270.8074ZM270.8074 112.6997V109.6691H269.796V112.6997H270.8074ZM270.8074 106.6384V103.6078H269.796V106.6384H270.8074ZM270.8074 100.5772V97.54655H269.796V100.5772H270.8074ZM270.8074 94.51592V91.48529H269.796V94.51592H270.8074ZM270.8074 88.45466V85.42403H269.796V88.45466H270.8074ZM270.8074 82.39341V79.36278H269.796V82.39341H270.8074ZM270.8074 76.33215V73.30152H269.796V76.33215H270.8074ZM270.8074 70.27089V69.66476H270.3017L270.3013 70.16987 272.7287 70.17179 272.7295 69.16158 269.796 69.15925V70.27089H270.8074ZM275.7629 70.1742 276.6731 70.17492 276.6739 69.16471 275.7637 69.16399 275.7629 70.1742Z"/>
<path transform="matrix(1,0,0,-1,0,283)" d="M279.7077 69.67487 275.6672 67.6494 276.6735 69.66982 275.6621 71.69024 279.7077 69.67487Z"/>
<path transform="matrix(.5056997,0,0,.5051047,2.28089,-10.527191)" stroke-width="2" stroke-linecap="butt" stroke-miterlimit="10" stroke-linejoin="miter" fill="none" stroke="#000000" d="M548.6 443.18 540.61 447.19 542.6 443.19 540.6 439.19 548.6 443.18Z"/>
</g>
</g>
</svg>
