<svg version="1.1" xmlns="http://www.w3.org/2000/svg" xmlns:xlink="http://www.w3.org/1999/xlink" width="800" height="800"><defs/><g transform="scale(2,2)"><g id="background-7ab1020e"><rect fill="white" stroke="none" x="0" y="0" width="400" height="400" class="dcg-svg-background"/></g><g id="graphpaper-7ab1020e"><g id="grid-7ab1020e"><g><path fill="none" stroke="rgb(0,0,0)" class="dcg-svg-minor-gridline" paint-order="fill stroke markers" d=" M 22.5 0 L 22.5 400" stroke-opacity="0.2" stroke-miterlimit="10" stroke-dasharray=""/><path fill="none" stroke="rgb(0,0,0)" class="dcg-svg-minor-gridline" paint-order="fill stroke markers" d=" M 49.5 0 L 49.5 400" stroke-opacity="0.2" stroke-miterlimit="10" stroke-dasharray=""/><path fill="none" stroke="rgb(0,0,0)" class="dcg-svg-minor-gridline" paint-order="fill stroke markers" d=" M 76.5 0 L 76.5 400" stroke-opacity="0.2" stroke-miterlimit="10" stroke-dasharray=""/><path fill="none" stroke="rgb(0,0,0)" class="dcg-svg-minor-gridline" paint-order="fill stroke markers" d=" M 104.5 0 L 104.5 400" stroke-opacity="0.2" stroke-miterlimit="10" stroke-dasharray=""/><path fill="none" stroke="rgb(0,0,0)" class="dcg-svg-minor-gridline" paint-order="fill stroke markers" d=" M 131.5 0 L 131.5 400" stroke-opacity="0.2" stroke-miterlimit="10" stroke-dasharray=""/><path fill="none" stroke="rgb(0,0,0)" class="dcg-svg-minor-gridline" paint-order="fill stroke markers" d=" M 185.5 0 L 185.5 400" stroke-opacity="0.2" stroke-miterlimit="10" stroke-dasharray=""/><path fill="none" stroke="rgb(0,0,0)" class="dcg-svg-minor-gridline" paint-order="fill stroke markers" d=" M 213.5 0 L 213.5 400" stroke-opacity="0.2" stroke-miterlimit="10" stroke-dasharray=""/><path fill="none" stroke="rgb(0,0,0)" class="dcg-svg-minor-gridline" paint-order="fill stroke markers" d=" M 240.5 0 L 240.5 400" stroke-opacity="0.2" stroke-miterlimit="10" stroke-dasharray=""/><path fill="none" stroke="rgb(0,0,0)" class="dcg-svg-minor-gridline" paint-order="fill stroke markers" d=" M 267.5 0 L 267.5 400" stroke-opacity="0.2" stroke-miterlimit="10" stroke-dasharray=""/><path fill="none" stroke="rgb(0,0,0)" class="dcg-svg-minor-gridline" paint-order="fill stroke markers" d=" M 295.5 0 L 295.5 400" stroke-opacity="0.2" stroke-miterlimit="10" stroke-dasharray=""/><path fill="none" stroke="rgb(0,0,0)" class="dcg-svg-minor-gridline" paint-order="fill stroke markers" d=" M 322.5 0 L 322.5 400" stroke-opacity="0.2" stroke-miterlimit="10" stroke-dasharray=""/><path fill="none" stroke="rgb(0,0,0)" class="dcg-svg-minor-gridline" paint-order="fill stroke markers" d=" M 349.5 0 L 349.5 400" stroke-opacity="0.2" stroke-miterlimit="10" stroke-dasharray=""/><path fill="none" stroke="rgb(0,0,0)" class="dcg-svg-minor-gridline" paint-order="fill stroke markers" d=" M 377.5 0 L 377.5 400" stroke-opacity="0.2" stroke-miterlimit="10" stroke-dasharray=""/><path fill="none" stroke="rgb(0,0,0)" class="dcg-svg-minor-gridline" paint-order="fill stroke markers" d=" M 0 387.5 L 400 387.5" stroke-opacity="0.2" stroke-miterlimit="10" stroke-dasharray=""/><path fill="none" stroke="rgb(0,0,0)" class="dcg-svg-minor-gridline" paint-order="fill stroke markers" d=" M 0 360.5 L 400 360.5" stroke-opacity="0.2" stroke-miterlimit="10" stroke-dasharray=""/><path fill="none" stroke="rgb(0,0,0)" class="dcg-svg-minor-gridline" paint-order="fill stroke markers" d=" M 0 332.5 L 400 332.5" stroke-opacity="0.2" stroke-miterlimit="10" stroke-dasharray=""/><path fill="none" stroke="rgb(0,0,0)" class="dcg-svg-minor-gridline" paint-order="fill stroke markers" d=" M 0 278.5 L 400 278.5" stroke-opacity="0.2" stroke-miterlimit="10" stroke-dasharray=""/><path fill="none" stroke="rgb(0,0,0)" class="dcg-svg-minor-gridline" paint-order="fill stroke markers" d=" M 0 250.5 L 400 250.5" stroke-opacity="0.2" stroke-miterlimit="10" stroke-dasharray=""/><path fill="none" stroke="rgb(0,0,0)" class="dcg-svg-minor-gridline" paint-order="fill stroke markers" d=" M 0 223.5 L 400 223.5" stroke-opacity="0.2" stroke-miterlimit="10" stroke-dasharray=""/><path fill="none" stroke="rgb(0,0,0)" class="dcg-svg-minor-gridline" paint-order="fill stroke markers" d=" M 0 196.5 L 400 196.5" stroke-opacity="0.2" stroke-miterlimit="10" stroke-dasharray=""/><path fill="none" stroke="rgb(0,0,0)" class="dcg-svg-minor-gridline" paint-order="fill stroke markers" d=" M 0 169.5 L 400 169.5" stroke-opacity="0.2" stroke-miterlimit="10" stroke-dasharray=""/><path fill="none" stroke="rgb(0,0,0)" class="dcg-svg-minor-gridline" paint-order="fill stroke markers" d=" M 0 141.5 L 400 141.5" stroke-opacity="0.2" stroke-miterlimit="10" stroke-dasharray=""/><path fill="none" stroke="rgb(0,0,0)" class="dcg-svg-minor-gridline" paint-order="fill stroke markers" d=" M 0 114.5 L 400 114.5" stroke-opacity="0.2" stroke-miterlimit="10" stroke-dasharray=""/><path fill="none" stroke="rgb(0,0,0)" class="dcg-svg-minor-gridline" paint-order="fill stroke markers" d=" M 0 87.5 L 400 87.5" stroke-opacity="0.2" stroke-miterlimit="10" stroke-dasharray=""/><path fill="none" stroke="rgb(0,0,0)" class="dcg-svg-minor-gridline" paint-order="fill stroke markers" d=" M 0 59.5 L 400 59.5" stroke-opacity="0.2" stroke-miterlimit="10" stroke-dasharray=""/><path fill="none" stroke="rgb(0,0,0)" class="dcg-svg-minor-gridline" paint-order="fill stroke markers" d=" M 0 32.5 L 400 32.5" stroke-opacity="0.2" stroke-miterlimit="10" stroke-dasharray=""/><path fill="none" stroke="rgb(0,0,0)" class="dcg-svg-minor-gridline" paint-order="fill stroke markers" d=" M 0 5.5 L 400 5.5" stroke-opacity="0.2" stroke-miterlimit="10" stroke-dasharray=""/><path fill="none" stroke="rgb(0,0,0)" class="dcg-svg-major-gridline" paint-order="fill stroke markers" d=" M 49.5 0 L 49.5 400" stroke-opacity="0.2500000000000001" stroke-miterlimit="10" stroke-dasharray=""/><path fill="none" stroke="rgb(0,0,0)" class="dcg-svg-major-gridline" paint-order="fill stroke markers" d=" M 267.5 0 L 267.5 400" stroke-opacity="0.2500000000000001" stroke-miterlimit="10" stroke-dasharray=""/><path fill="none" stroke="rgb(0,0,0)" class="dcg-svg-major-gridline" paint-order="fill stroke markers" d=" M 377.5 0 L 377.5 400" stroke-opacity="0.2500000000000001" stroke-miterlimit="10" stroke-dasharray=""/><path fill="none" stroke="rgb(0,0,0)" class="dcg-svg-major-gridline" paint-order="fill stroke markers" d=" M 0 196.5 L 400 196.5" stroke-opacity="0.2500000000000001" stroke-miterlimit="10" stroke-dasharray=""/><path fill="none" stroke="rgb(0,0,0)" class="dcg-svg-major-gridline" paint-order="fill stroke markers" d=" M 0 87.5 L 400 87.5" stroke-opacity="0.2500000000000001" stroke-miterlimit="10" stroke-dasharray=""/></g></g><g id="axis-7ab1020e"><g id="yaxis-7ab1020e"><title>Y axis</title><g><path fill="none" stroke="rgb(0,0,0)" class="dcg-svg-axis-line" paint-order="fill stroke markers" d=" M 159 0 L 159 400" stroke-opacity="0.9" stroke-miterlimit="10" stroke-width="1.5" stroke-dasharray=""/></g></g><g id="xaxis-7ab1020e"><title>X axis</title><g><path fill="none" stroke="rgb(0,0,0)" class="dcg-svg-axis-line" paint-order="fill stroke markers" d=" M 0 306 L 400 306" stroke-opacity="0.9" stroke-miterlimit="10" stroke-width="1.5" stroke-dasharray=""/></g></g><g><g class="dcg-svg-axis-value"><text fill="none" stroke="#ffffff" font-family="Arial" font-size="14px" font-style="normal" font-weight="normal" text-decoration="normal" x="149.8002205813273" y="321.3965259553948" text-anchor="middle" stroke-miterlimit="2" stroke-width="3" stroke-dasharray="">0</text><text fill="#000000" stroke="none" font-family="Arial" font-size="14px" font-style="normal" font-weight="normal" text-decoration="normal" x="149.8002205813273" y="321.3965259553948" text-anchor="middle">0</text></g><g class="dcg-svg-axis-value"><text fill="none" stroke="#ffffff" font-family="Arial" font-size="14px" font-style="normal" font-weight="normal" text-decoration="normal" x="47.15779638549374" y="321.3965259553948" text-anchor="middle" stroke-miterlimit="2" stroke-width="3" stroke-dasharray="">-2</text><text fill="#000000" stroke="none" font-family="Arial" font-size="14px" font-style="normal" font-weight="normal" text-decoration="normal" x="47.15779638549374" y="321.3965259553948" text-anchor="middle">-2</text></g><g class="dcg-svg-axis-value"><text fill="none" stroke="#ffffff" font-family="Arial" font-size="14px" font-style="normal" font-weight="normal" text-decoration="normal" x="267.89772290216087" y="321.3965259553948" text-anchor="middle" stroke-miterlimit="2" stroke-width="3" stroke-dasharray="">2</text><text fill="#000000" stroke="none" font-family="Arial" font-size="14px" font-style="normal" font-weight="normal" text-decoration="normal" x="267.89772290216087" y="321.3965259553948" text-anchor="middle">2</text></g><g class="dcg-svg-axis-value"><text fill="none" stroke="#ffffff" font-family="Arial" font-size="14px" font-style="normal" font-weight="normal" text-decoration="normal" x="377.1021588167444" y="321.3965259553948" text-anchor="middle" stroke-miterlimit="2" stroke-width="3" stroke-dasharray="">4</text><text fill="#000000" stroke="none" font-family="Arial" font-size="14px" font-style="normal" font-weight="normal" text-decoration="normal" x="377.1021588167444" y="321.3965259553948" text-anchor="middle">4</text></g><g class="dcg-svg-axis-value"><text fill="none" stroke="#ffffff" font-family="Arial" font-size="14px" font-style="normal" font-weight="normal" text-decoration="normal" x="149.8002205813273" y="200.19209004081162" text-anchor="middle" stroke-miterlimit="2" stroke-width="3" stroke-dasharray="">2</text><text fill="#000000" stroke="none" font-family="Arial" font-size="14px" font-style="normal" font-weight="normal" text-decoration="normal" x="149.8002205813273" y="200.19209004081162" text-anchor="middle">2</text></g><g class="dcg-svg-axis-value"><text fill="none" stroke="#ffffff" font-family="Arial" font-size="14px" font-style="normal" font-weight="normal" text-decoration="normal" x="149.8002205813273" y="90.98765412622846" text-anchor="middle" stroke-miterlimit="2" stroke-width="3" stroke-dasharray="">4</text><text fill="#000000" stroke="none" font-family="Arial" font-size="14px" font-style="normal" font-weight="normal" text-decoration="normal" x="149.8002205813273" y="90.98765412622846" text-anchor="middle">4</text></g></g></g></g><g id="expressions-7ab1020e"><g id="sketch-7ab1020e"><title>式1</title><path fill="#c74440" stroke="none" paint-order="stroke fill markers" d="" fill-opacity="0.4"/><g><path fill="none" stroke="#c74440" class="dcg-svg-curve" paint-order="fill stroke markers" d=" M 90.73043587125684 -5.5 L 90.73043587125684 -5.5 L 92.87109375 34.967548613336646 L 95.11718749999999 73.8119247528519 L 97.36328125 109.21643832533721 L 99.51171875 140.02218708665978 L 101.66015625 167.98672906440098 L 103.7109375 192.162817927987 L 105.76171875 214.00539061717865 L 107.71484374999999 232.748805196881 L 109.66796875 249.5871837020743 L 111.5234375 263.9101233755771 L 113.37890625 276.68781181781605 L 115.13671874999999 287.44203106235693 L 116.89453125 296.9514634574197 L 118.55468749999999 304.84998656732904 L 120.21484374999999 311.7531952135313 L 121.77734375 317.3896208129551 L 123.33984375 322.23658377482514 L 124.8046875 326.1021842758578 L 126.26953125 329.3470522868415 L 127.734375 332.00552924428393 L 129.19921875 334.1112777788076 L 130.6640625 335.6972817151505 L 131.93359375 336.67639010405725 L 133.203125 337.3100047355821 L 134.375 337.60573355766314 L 135.546875 337.6399469445408 L 136.81640625 337.39969146816713 L 138.0859375 336.88966919237856 L 139.453125 336.06023341525065 L 141.015625 334.7852396502797 L 142.7734375 332.97373332686817 L 144.82421875 330.41501294883994 L 147.16796875 326.9902824582358 L 149.90234375 322.4501175632054 L 153.125 316.54546816618927 L 157.8125 307.3494086691631 L 165.4296875 292.41067383831086 L 168.9453125 286.1008665918922 L 171.97265625 281.1950806578463 L 174.70703125 277.2892564040359 L 177.24609375 274.1809545419511 L 179.4921875 271.89477829909157 L 181.4453125 270.28956134209835 L 183.30078125 269.1146671741389 L 184.9609375 268.3661694353528 L 186.5234375 267.93266757889626 L 188.08593749999997 267.76991695206374 L 189.55078125 267.86941925791837 L 191.015625 268.2180110130348 L 192.578125 268.8692693358087 L 194.140625 269.8132768657485 L 195.80078124999997 271.1409896986165 L 197.55859375 272.91484595497064 L 199.4140625 275.20047222042615 L 201.46484375 278.22165166852 L 203.515625 281.76150180131214 L 205.6640625 286.02224696864903 L 207.8125 290.8410127102245 L 210.05859375 296.46416214168255 L 212.40234374999997 302.95310736410727 L 214.94140624999997 310.6735288946783 L 217.578125 319.41567138251594 L 220.41015625 329.57705832454013 L 223.4375 341.25103640795146 L 226.7578125 354.9128275952103 L 230.56640625 371.51532437859237 L 235.15625 392.5205165702958 L 237.9013414910119 405.5 L 300.6607507419008 405.5 L 300.68359375 405.25090900559786 L 302.5390625 382.8526584169284 L 304.4921875 356.8306787119509 L 306.4453125 328.18891714064756 L 308.49609375 295.1683100702248 L 310.546875 258.99411180168613 L 312.6953125 217.56264384388234 L 314.84375 172.35302072687622 L 317.08984375 120.86761414421093 L 319.3359375 64.8760639886103 L 321.6796875 1.4315313373239746 L 321.915831206147 -5.5" stroke-linecap="round" stroke-linejoin="round" stroke-miterlimit="10" stroke-width="2.5" stroke-dasharray=""/></g></g><g id="sketch-7ab1020e"><title>式2</title><path fill="#000000" stroke="none" paint-order="stroke fill markers" d="" fill-opacity="0.4"/><g><path fill="none" stroke="#000000" class="dcg-svg-curve" paint-order="fill stroke markers" d=" M 90.73852649934241 -5.5 L 90.73852649934241 -5.5 L 92.67578124999999 31.42175544670164 L 94.921875 70.5592262015625 L 97.0703125 104.63365957378346 L 99.12109375 134.09324332594943 L 101.07421875 159.36579304961862 L 102.9296875 180.85875216532224 L 104.6875 198.95919192256545 L 106.34765625 214.0338113998265 L 107.91015625 226.4289375045572 L 109.37499999999999 236.4705249731826 L 110.7421875 244.46415637110158 L 112.01171875 250.69504209268592 L 113.18359375 255.42802036128126 L 114.25781249999999 258.90755722920636 L 115.23437499999997 261.35774657775363 L 116.11328125 262.9823101171889 L 116.9921875 264.0568250389066 L 117.67578124999999 264.51227834107976 L 118.2696696603477 264.63785116956194 L 118.84765625 264.5189129315098 L 119.53125 264.0711999848383 L 120.3125 263.1520846252535 L 121.19140625 261.5985894845432 L 122.0703125 259.4950457261151 L 123.046875 256.51265613424255 L 124.12109375 252.44769899865963 L 125.29296875 247.07608043807397 L 126.46484375 240.72659766821275 L 127.734375 232.74449873692373 L 129.1015625 222.86494542086115 L 130.56640625 210.8027273256533 L 132.12890625 196.25226188590142 L 133.7890625 178.88759436518026 L 135.546875 158.36239785603817 L 137.40234375 134.30997327999688 L 139.35546875 106.3432493875514 L 141.40625 74.05478275816989 L 143.5546875 37.01675780029484 L 145.80078125 -5.219013248658655 L 145.81452935318651 -5.5" stroke-linecap="round" stroke-linejoin="round" stroke-miterlimit="10" stroke-width="2.5" stroke-dasharray=""/></g></g><g id="sketch-7ab1020e"><title>式5</title></g><g id="sketch-7ab1020e"><title>式6</title><path fill="#2d70b3" stroke="none" class="dcg-svg-point" paint-order="stroke fill markers" d=" M 122.01962696725548 303.56605980225675 A 3.75 3.75 0 1 1 122.01962509225564 303.56230980288177 Z"/></g><g id="sketch-7ab1020e"><title>式7</title><path fill="#2d70b3" stroke="none" class="dcg-svg-point" paint-order="stroke fill markers" d=" M 134.51807465767956 335.79119679629105 A 3.75 3.75 0 1 1 134.51807278267972 335.7874467969161 Z"/></g><g id="sketch-7ab1020e"><title>式8</title><path fill="#2d70b3" stroke="none" class="dcg-svg-point" paint-order="stroke fill markers" d=" M 138.45085400827145 337.6408469295943 A 3.75 3.75 0 1 1 138.4508521332716 337.63709693021934 Z"/></g><g id="sketch-7ab1020e"><title>式9</title><path fill="#2d70b3" stroke="none" class="dcg-svg-point" paint-order="stroke fill markers" d=" M 138.86217251614374 337.65679077723786 A 3.75 3.75 0 1 1 138.8621706411439 337.6530407778629 Z"/></g></g><g id="labels-7ab1020e"/><path fill="#2d70b3" stroke="none" class="dcg-svg-point" paint-order="stroke fill markers" d=" M 96.92062543882716 40.35279200605521 A 3.75 3.75 0 1 1 96.92062356382732 40.34904200668021 Z"/><g id="labels-7ab1020e"/></g></svg>