<svg version="1.1" xmlns="http://www.w3.org/2000/svg" xmlns:xlink="http://www.w3.org/1999/xlink" width="800" height="800"><defs/><g transform="scale(2,2)"><g id="background-1fb77075"><rect fill="white" stroke="none" x="0" y="0" width="400" height="400" class="dcg-svg-background"/></g><g id="graphpaper-1fb77075"><g id="grid-1fb77075"><g><path fill="none" stroke="rgb(0,0,0)" class="dcg-svg-minor-gridline" paint-order="fill stroke markers" d=" M 15.5 0 L 15.5 400" stroke-opacity="0.3" stroke-miterlimit="10" stroke-dasharray=""/><path fill="none" stroke="rgb(0,0,0)" class="dcg-svg-minor-gridline" paint-order="fill stroke markers" d=" M 46.5 0 L 46.5 400" stroke-opacity="0.3" stroke-miterlimit="10" stroke-dasharray=""/><path fill="none" stroke="rgb(0,0,0)" class="dcg-svg-minor-gridline" paint-order="fill stroke markers" d=" M 76.5 0 L 76.5 400" stroke-opacity="0.3" stroke-miterlimit="10" stroke-dasharray=""/><path fill="none" stroke="rgb(0,0,0)" class="dcg-svg-minor-gridline" paint-order="fill stroke markers" d=" M 107.5 0 L 107.5 400" stroke-opacity="0.3" stroke-miterlimit="10" stroke-dasharray=""/><path fill="none" stroke="rgb(0,0,0)" class="dcg-svg-minor-gridline" paint-order="fill stroke markers" d=" M 138.5 0 L 138.5 400" stroke-opacity="0.3" stroke-miterlimit="10" stroke-dasharray=""/><path fill="none" stroke="rgb(0,0,0)" class="dcg-svg-minor-gridline" paint-order="fill stroke markers" d=" M 168.5 0 L 168.5 400" stroke-opacity="0.3" stroke-miterlimit="10" stroke-dasharray=""/><path fill="none" stroke="rgb(0,0,0)" class="dcg-svg-minor-gridline" paint-order="fill stroke markers" d=" M 229.5 0 L 229.5 400" stroke-opacity="0.3" stroke-miterlimit="10" stroke-dasharray=""/><path fill="none" stroke="rgb(0,0,0)" class="dcg-svg-minor-gridline" paint-order="fill stroke markers" d=" M 260.5 0 L 260.5 400" stroke-opacity="0.3" stroke-miterlimit="10" stroke-dasharray=""/><path fill="none" stroke="rgb(0,0,0)" class="dcg-svg-minor-gridline" paint-order="fill stroke markers" d=" M 290.5 0 L 290.5 400" stroke-opacity="0.3" stroke-miterlimit="10" stroke-dasharray=""/><path fill="none" stroke="rgb(0,0,0)" class="dcg-svg-minor-gridline" paint-order="fill stroke markers" d=" M 321.5 0 L 321.5 400" stroke-opacity="0.3" stroke-miterlimit="10" stroke-dasharray=""/><path fill="none" stroke="rgb(0,0,0)" class="dcg-svg-minor-gridline" paint-order="fill stroke markers" d=" M 352.5 0 L 352.5 400" stroke-opacity="0.3" stroke-miterlimit="10" stroke-dasharray=""/><path fill="none" stroke="rgb(0,0,0)" class="dcg-svg-minor-gridline" paint-order="fill stroke markers" d=" M 382.5 0 L 382.5 400" stroke-opacity="0.3" stroke-miterlimit="10" stroke-dasharray=""/><path fill="none" stroke="rgb(0,0,0)" class="dcg-svg-minor-gridline" paint-order="fill stroke markers" d=" M 0 382.5 L 400 382.5" stroke-opacity="0.3" stroke-miterlimit="10" stroke-dasharray=""/><path fill="none" stroke="rgb(0,0,0)" class="dcg-svg-minor-gridline" paint-order="fill stroke markers" d=" M 0 351.5 L 400 351.5" stroke-opacity="0.3" stroke-miterlimit="10" stroke-dasharray=""/><path fill="none" stroke="rgb(0,0,0)" class="dcg-svg-minor-gridline" paint-order="fill stroke markers" d=" M 0 321.5 L 400 321.5" stroke-opacity="0.3" stroke-miterlimit="10" stroke-dasharray=""/><path fill="none" stroke="rgb(0,0,0)" class="dcg-svg-minor-gridline" paint-order="fill stroke markers" d=" M 0 290.5 L 400 290.5" stroke-opacity="0.3" stroke-miterlimit="10" stroke-dasharray=""/><path fill="none" stroke="rgb(0,0,0)" class="dcg-svg-minor-gridline" paint-order="fill stroke markers" d=" M 0 260.5 L 400 260.5" stroke-opacity="0.3" stroke-miterlimit="10" stroke-dasharray=""/><path fill="none" stroke="rgb(0,0,0)" class="dcg-svg-minor-gridline" paint-order="fill stroke markers" d=" M 0 199.5 L 400 199.5" stroke-opacity="0.3" stroke-miterlimit="10" stroke-dasharray=""/><path fill="none" stroke="rgb(0,0,0)" class="dcg-svg-minor-gridline" paint-order="fill stroke markers" d=" M 0 168.5 L 400 168.5" stroke-opacity="0.3" stroke-miterlimit="10" stroke-dasharray=""/><path fill="none" stroke="rgb(0,0,0)" class="dcg-svg-minor-gridline" paint-order="fill stroke markers" d=" M 0 137.5 L 400 137.5" stroke-opacity="0.3" stroke-miterlimit="10" stroke-dasharray=""/><path fill="none" stroke="rgb(0,0,0)" class="dcg-svg-minor-gridline" paint-order="fill stroke markers" d=" M 0 107.5 L 400 107.5" stroke-opacity="0.3" stroke-miterlimit="10" stroke-dasharray=""/><path fill="none" stroke="rgb(0,0,0)" class="dcg-svg-minor-gridline" paint-order="fill stroke markers" d=" M 0 76.5 L 400 76.5" stroke-opacity="0.3" stroke-miterlimit="10" stroke-dasharray=""/><path fill="none" stroke="rgb(0,0,0)" class="dcg-svg-minor-gridline" paint-order="fill stroke markers" d=" M 0 46.5 L 400 46.5" stroke-opacity="0.3" stroke-miterlimit="10" stroke-dasharray=""/><path fill="none" stroke="rgb(0,0,0)" class="dcg-svg-minor-gridline" paint-order="fill stroke markers" d=" M 0 15.5 L 400 15.5" stroke-opacity="0.3" stroke-miterlimit="10" stroke-dasharray=""/><path fill="none" stroke="rgb(0,0,0)" class="dcg-svg-major-gridline" paint-order="fill stroke markers" d=" M 46.5 0 L 46.5 400" stroke-opacity="0.4285714285714285" stroke-miterlimit="10" stroke-dasharray=""/><path fill="none" stroke="rgb(0,0,0)" class="dcg-svg-major-gridline" paint-order="fill stroke markers" d=" M 352.5 0 L 352.5 400" stroke-opacity="0.4285714285714285" stroke-miterlimit="10" stroke-dasharray=""/><path fill="none" stroke="rgb(0,0,0)" class="dcg-svg-major-gridline" paint-order="fill stroke markers" d=" M 0 382.5 L 400 382.5" stroke-opacity="0.4285714285714285" stroke-miterlimit="10" stroke-dasharray=""/><path fill="none" stroke="rgb(0,0,0)" class="dcg-svg-major-gridline" paint-order="fill stroke markers" d=" M 0 76.5 L 400 76.5" stroke-opacity="0.4285714285714285" stroke-miterlimit="10" stroke-dasharray=""/></g></g><g id="axis-1fb77075"><g id="yaxis-1fb77075"><title>Y axis</title><g><path fill="none" stroke="rgb(0,0,0)" class="dcg-svg-axis-line" paint-order="fill stroke markers" d=" M 199 0 L 199 400" stroke-opacity="0.9" stroke-miterlimit="10" stroke-width="2" stroke-dasharray=""/></g></g><g id="xaxis-1fb77075"><title>X axis</title><g><path fill="none" stroke="rgb(0,0,0)" class="dcg-svg-axis-line" paint-order="fill stroke markers" d=" M 0 230 L 400 230" stroke-opacity="0.9" stroke-miterlimit="10" stroke-width="2" stroke-dasharray=""/></g></g><g><g class="dcg-svg-axis-value"><text fill="none" stroke="#ffffff" font-family="Arial" font-size="17px" font-style="normal" font-weight="normal" text-decoration="normal" x="189.45379038653385" y="247.73929934532703" text-anchor="middle" stroke-miterlimit="2" stroke-width="3" stroke-dasharray="">0</text><text fill="#000000" stroke="none" font-family="Arial" font-size="17px" font-style="normal" font-weight="normal" text-decoration="normal" x="189.45379038653385" y="247.73929934532703" text-anchor="middle">0</text></g><g class="dcg-svg-axis-value"><text fill="none" stroke="#ffffff" font-family="Arial" font-size="17px" font-style="normal" font-weight="normal" text-decoration="normal" x="43.48745114109539" y="247.73929934532703" text-anchor="middle" stroke-miterlimit="2" stroke-width="3" stroke-dasharray="">-5</text><text fill="#000000" stroke="none" font-family="Arial" font-size="17px" font-style="normal" font-weight="normal" text-decoration="normal" x="43.48745114109539" y="247.73929934532703" text-anchor="middle">-5</text></g><g class="dcg-svg-axis-value"><text fill="none" stroke="#ffffff" font-family="Arial" font-size="17px" font-style="normal" font-weight="normal" text-decoration="normal" x="352.0441530694723" y="247.73929934532703" text-anchor="middle" stroke-miterlimit="2" stroke-width="3" stroke-dasharray="">5</text><text fill="#000000" stroke="none" font-family="Arial" font-size="17px" font-style="normal" font-weight="normal" text-decoration="normal" x="352.0441530694723" y="247.73929934532703" text-anchor="middle">5</text></g><g class="dcg-svg-axis-value"><text fill="none" stroke="#ffffff" font-family="Arial" font-size="17px" font-style="normal" font-weight="normal" text-decoration="normal" x="186.62322398028385" y="387.1023671063906" text-anchor="middle" stroke-miterlimit="2" stroke-width="3" stroke-dasharray="">-5</text><text fill="#000000" stroke="none" font-family="Arial" font-size="17px" font-style="normal" font-weight="normal" text-decoration="normal" x="186.62322398028385" y="387.1023671063906" text-anchor="middle">-5</text></g><g class="dcg-svg-axis-value"><text fill="none" stroke="#ffffff" font-family="Arial" font-size="17px" font-style="normal" font-weight="normal" text-decoration="normal" x="189.45379038653385" y="81.37623158426351" text-anchor="middle" stroke-miterlimit="2" stroke-width="3" stroke-dasharray="">5</text><text fill="#000000" stroke="none" font-family="Arial" font-size="17px" font-style="normal" font-weight="normal" text-decoration="normal" x="189.45379038653385" y="81.37623158426351" text-anchor="middle">5</text></g></g></g></g><g id="expressions-1fb77075"><g id="sketch-1fb77075"><title>式1</title><path fill="#2d70b3" stroke="none" paint-order="stroke fill markers" d="" fill-opacity="0.4"/><g><path fill="none" stroke="#2d70b3" class="dcg-svg-curve" paint-order="fill stroke markers" d=" M 2.842170943040401e-14 321.182960982522 L 2.842170943040401e-14 321.182960982522 L 8.49609375 302.38697824795264 L 14.550781250000028 289.56156583279454 L 19.72656250000003 279.16320279578315 L 24.31640625 270.49004500943516 L 28.61328125 262.9162492417443 L 32.6171875 256.39090028826104 L 36.42578125 250.70255479690792 L 40.13671875000003 245.67886365764437 L 43.65234375000003 241.4151278262018 L 46.97265625000003 237.84640416008406 L 50.09765625000003 234.9033703770871 L 53.12500000000003 232.4416625123043 L 55.95703125000003 230.4871672445452 L 58.69140625000003 228.91871932564766 L 61.42578125000003 227.660422373303 L 64.06250000000003 226.73629136861985 L 66.69921875 226.0900515004927 L 69.3359375 225.71406720089846 L 71.97265625000001 225.59913346200852 L 74.70703125000001 225.74420383554207 L 77.53906250000001 226.16375736383216 L 80.46875000000001 226.86836886705723 L 83.59375000000001 227.9003172569362 L 86.91406250000001 229.2840981139762 L 90.52734375000001 231.08615008934072 L 94.53125000000001 233.3869499941217 L 99.31640625000001 236.46265527434628 L 105.6640625 240.89206555208773 L 119.33593750000003 250.51514071325033 L 124.31640625 253.63202636837292 L 128.515625 255.95516085231142 L 132.32421875000003 257.765314601548 L 135.83984375 259.1490429900354 L 139.16015625 260.1772290103353 L 142.38281250000003 260.89762882799374 L 145.41015625000003 261.3125628623729 L 148.4375 261.4648816292997 L 151.3671875 261.3566875877478 L 154.296875 260.9943152622585 L 157.32421875 260.35270597608167 L 160.3515625 259.4422668247999 L 163.4765625 258.2264301418111 L 166.69921875 256.68867613793464 L 170.1171875 254.75777764607847 L 173.73046875000003 252.40294354964553 L 177.63671875 249.52727171958784 L 181.93359375 246.01725775724674 L 186.9140625 241.5755554614815 L 193.1640625 235.59588356493586 L 213.96484375 215.36642639089044 L 218.84765625 211.19590292611045 L 223.14453125 207.88410125617762 L 227.05078125 205.21670202618822 L 230.6640625 203.07507931561042 L 234.08203125 201.36109179648864 L 237.3046875 200.03874116006705 L 240.4296875 199.0393789592591 L 243.45703125 198.34344440213778 L 246.484375 197.9187414044807 L 249.41406250000003 197.76637027172833 L 252.44140625000003 197.87373655673719 L 255.46875 198.24491236301304 L 258.59375 198.8959766928475 L 261.81640625 199.8395525125085 L 265.234375 201.123558592471 L 268.84765625 202.77146455606075 L 272.75390625 204.85070717803643 L 277.1484375 207.5006552035852 L 282.421875 211.009759622368 L 290.52734375 216.7786716147195 L 299.4140625 223.01476222171473 L 304.4921875 226.2429595619169 L 308.69140625 228.59717541271507 L 312.40234375 230.37257152838976 L 315.72265625 231.6745599470675 L 318.84765625 232.62074973182285 L 321.77734375 233.2378296996652 L 324.609375 233.56678759921212 L 327.34375 233.61936860468344 L 329.98046875 233.41111941233044 L 332.6171875 232.93831064416904 L 335.25390625 232.1922989890222 L 337.890625 231.16602931875823 L 340.52734375 229.85407838534152 L 343.26171875 228.1877846446071 L 346.09375 226.1314247201612 L 349.0234375 223.64990123540701 L 352.05078125 220.7095014760792 L 355.2734375 217.16514988546817 L 358.69140625 212.94999508687238 L 362.3046875 208.00105123795527 L 366.11328125 202.26219550356728 L 370.1171875 195.68754380822327 L 374.31640625 188.24509560701182 L 378.80859375 179.72981163818287 L 383.7890625 169.71512097799535 L 389.453125 157.7368854124208 L 396.484375 142.2559382369986 L 400 134.36171656768536" stroke-linecap="round" stroke-linejoin="round" stroke-miterlimit="10" stroke-width="3.5" stroke-dasharray=""/></g></g><g id="sketch-1fb77075"><title>式3</title><path fill="#c74440" stroke="none" paint-order="stroke fill markers" d="" fill-opacity="0.4"/><g><path fill="none" stroke="#c74440" class="dcg-svg-curve" paint-order="fill stroke markers" d=" M 227.20416404033585 -6.5 L 227.20416404033585 -6.5 L 227.83203125 85.14593875322495 L 228.41796875 146.59295662261493 L 228.90625 180.82032253931337 L 229.296875 197.0890727035365 L 229.58984375 202.8079897290755 L 229.74488950928418 203.58611797259297 L 229.8828125 202.97036801666954 L 230.078125 199.9916606390741 L 230.37109375 190.8931696654161 L 230.76171875 170.1183987049635 L 231.25 130.25871754399435 L 231.8359375 62.05338753868608 L 232.27120607532615 -6.5" stroke-linecap="round" stroke-linejoin="round" stroke-miterlimit="10" stroke-width="3.5" stroke-dasharray=""/></g></g><g id="sketch-1fb77075"><title>式4</title><path fill="#348543" stroke="none" paint-order="stroke fill markers" d="" fill-opacity="0.4"/><g><path fill="none" stroke="#348543" class="dcg-svg-curve" paint-order="fill stroke markers" d=" M 0.7549584416308474 -6.5 L 0.7549584416308474 -6.5 L 1.171875 36.12063123338169 L 2.2460937500000284 126.78175368028087 L 3.22265625 193.20258018840076 L 4.101562500000028 239.89436364729022 L 4.882812500000028 270.9561713456926 L 5.46875 287.7895122297825 L 5.95703125 297.58014948112054 L 6.34765625 302.6372720739807 L 6.640625000000028 304.81051074113475 L 6.835937500000028 305.48795547317053 L 7.031250000000028 305.5482478240357 L 7.2265625 304.9913753989138 L 7.51953125 302.9989177259646 L 7.91015625 298.1825617264159 L 8.3984375 288.6921624022939 L 8.984375000000028 272.2175397205549 L 9.667968750000028 245.9919631937204 L 10.449218750000028 206.79814623619626 L 11.328125 150.97773083803952 L 12.304687500000028 74.4453952920936 L 13.15937614436858 -6.5 L 193.7314621722689 -6.5 L 194.53125 59.55331525496439 L 195.5078125 124.17983353319109 L 196.38671875 169.23657126879766 L 197.07031250000003 195.67052579095247 L 197.65625 212.3204562886963 L 198.14453125000003 221.9543568167618 L 198.53515625 226.88367725306998 L 198.828125 228.95972058393534 L 199.0234375 229.57175132752155 L 199.21875 229.5661501806513 L 199.4140625 228.94291689364636 L 199.70703125 226.85006818713669 L 200.09765625 221.89833504839598 L 200.5859375 212.2364041271693 L 201.171875 195.5528055611785 L 201.85546875 169.0795109928547 L 202.63671875 129.59806353545656 L 203.515625 73.44921968503934 L 204.4921875 -3.452764941541915 L 204.5242333914698 -6.5 L 386.69278763963564 -6.5 L 387.59765625 52.40835886399722 L 388.37890625 92.22439004464152 L 389.0625 118.98683572289971 L 389.6484375 135.91513531155238 L 390.13671875 145.77848846911178 L 390.52734375 150.88957369026565 L 390.8203125 153.10082362700857 L 391.1396725297328 153.927101387881 L 391.30859375 153.69592578116084 L 391.50390625 152.852290204795 L 391.796875 150.42795466544652 L 392.1875 145.03258766506394 L 392.67578125 134.81345519630193 L 393.26171875 117.45730513520377 L 393.9453125 90.19396097620623 L 394.7265625 49.80244667988302 L 395.5919523877365 -6.5" stroke-linecap="round" stroke-linejoin="round" stroke-miterlimit="10" stroke-width="3.5" stroke-dasharray=""/></g></g></g><g id="labels-1fb77075"/><g id="labels-1fb77075"/></g></svg>