<svg version="1.1" xmlns="http://www.w3.org/2000/svg" xmlns:xlink="http://www.w3.org/1999/xlink" width="800" height="800"><defs/><g transform="scale(2,2)"><g id="background-b25b5f11"><rect fill="white" stroke="none" x="0" y="0" width="400" height="400" class="dcg-svg-background"/></g><g id="graphpaper-b25b5f11"><g id="grid-b25b5f11"><g><path fill="none" stroke="rgb(0,0,0)" class="dcg-svg-minor-gridline" paint-order="fill stroke markers" d=" M 15.5 0 L 15.5 400" stroke-opacity="0.3" stroke-miterlimit="10" stroke-dasharray=""/><path fill="none" stroke="rgb(0,0,0)" class="dcg-svg-minor-gridline" paint-order="fill stroke markers" d=" M 46.5 0 L 46.5 400" stroke-opacity="0.3" stroke-miterlimit="10" stroke-dasharray=""/><path fill="none" stroke="rgb(0,0,0)" class="dcg-svg-minor-gridline" paint-order="fill stroke markers" d=" M 76.5 0 L 76.5 400" stroke-opacity="0.3" stroke-miterlimit="10" stroke-dasharray=""/><path fill="none" stroke="rgb(0,0,0)" class="dcg-svg-minor-gridline" paint-order="fill stroke markers" d=" M 107.5 0 L 107.5 400" stroke-opacity="0.3" stroke-miterlimit="10" stroke-dasharray=""/><path fill="none" stroke="rgb(0,0,0)" class="dcg-svg-minor-gridline" paint-order="fill stroke markers" d=" M 138.5 0 L 138.5 400" stroke-opacity="0.3" stroke-miterlimit="10" stroke-dasharray=""/><path fill="none" stroke="rgb(0,0,0)" class="dcg-svg-minor-gridline" paint-order="fill stroke markers" d=" M 168.5 0 L 168.5 400" stroke-opacity="0.3" stroke-miterlimit="10" stroke-dasharray=""/><path fill="none" stroke="rgb(0,0,0)" class="dcg-svg-minor-gridline" paint-order="fill stroke markers" d=" M 229.5 0 L 229.5 400" stroke-opacity="0.3" stroke-miterlimit="10" stroke-dasharray=""/><path fill="none" stroke="rgb(0,0,0)" class="dcg-svg-minor-gridline" paint-order="fill stroke markers" d=" M 260.5 0 L 260.5 400" stroke-opacity="0.3" stroke-miterlimit="10" stroke-dasharray=""/><path fill="none" stroke="rgb(0,0,0)" class="dcg-svg-minor-gridline" paint-order="fill stroke markers" d=" M 290.5 0 L 290.5 400" stroke-opacity="0.3" stroke-miterlimit="10" stroke-dasharray=""/><path fill="none" stroke="rgb(0,0,0)" class="dcg-svg-minor-gridline" paint-order="fill stroke markers" d=" M 321.5 0 L 321.5 400" stroke-opacity="0.3" stroke-miterlimit="10" stroke-dasharray=""/><path fill="none" stroke="rgb(0,0,0)" class="dcg-svg-minor-gridline" paint-order="fill stroke markers" d=" M 352.5 0 L 352.5 400" stroke-opacity="0.3" stroke-miterlimit="10" stroke-dasharray=""/><path fill="none" stroke="rgb(0,0,0)" class="dcg-svg-minor-gridline" paint-order="fill stroke markers" d=" M 382.5 0 L 382.5 400" stroke-opacity="0.3" stroke-miterlimit="10" stroke-dasharray=""/><path fill="none" stroke="rgb(0,0,0)" class="dcg-svg-minor-gridline" paint-order="fill stroke markers" d=" M 0 382.5 L 400 382.5" stroke-opacity="0.3" stroke-miterlimit="10" stroke-dasharray=""/><path fill="none" stroke="rgb(0,0,0)" class="dcg-svg-minor-gridline" paint-order="fill stroke markers" d=" M 0 351.5 L 400 351.5" stroke-opacity="0.3" stroke-miterlimit="10" stroke-dasharray=""/><path fill="none" stroke="rgb(0,0,0)" class="dcg-svg-minor-gridline" paint-order="fill stroke markers" d=" M 0 321.5 L 400 321.5" stroke-opacity="0.3" stroke-miterlimit="10" stroke-dasharray=""/><path fill="none" stroke="rgb(0,0,0)" class="dcg-svg-minor-gridline" paint-order="fill stroke markers" d=" M 0 290.5 L 400 290.5" stroke-opacity="0.3" stroke-miterlimit="10" stroke-dasharray=""/><path fill="none" stroke="rgb(0,0,0)" class="dcg-svg-minor-gridline" paint-order="fill stroke markers" d=" M 0 260.5 L 400 260.5" stroke-opacity="0.3" stroke-miterlimit="10" stroke-dasharray=""/><path fill="none" stroke="rgb(0,0,0)" class="dcg-svg-minor-gridline" paint-order="fill stroke markers" d=" M 0 199.5 L 400 199.5" stroke-opacity="0.3" stroke-miterlimit="10" stroke-dasharray=""/><path fill="none" stroke="rgb(0,0,0)" class="dcg-svg-minor-gridline" paint-order="fill stroke markers" d=" M 0 168.5 L 400 168.5" stroke-opacity="0.3" stroke-miterlimit="10" stroke-dasharray=""/><path fill="none" stroke="rgb(0,0,0)" class="dcg-svg-minor-gridline" paint-order="fill stroke markers" d=" M 0 137.5 L 400 137.5" stroke-opacity="0.3" stroke-miterlimit="10" stroke-dasharray=""/><path fill="none" stroke="rgb(0,0,0)" class="dcg-svg-minor-gridline" paint-order="fill stroke markers" d=" M 0 107.5 L 400 107.5" stroke-opacity="0.3" stroke-miterlimit="10" stroke-dasharray=""/><path fill="none" stroke="rgb(0,0,0)" class="dcg-svg-minor-gridline" paint-order="fill stroke markers" d=" M 0 76.5 L 400 76.5" stroke-opacity="0.3" stroke-miterlimit="10" stroke-dasharray=""/><path fill="none" stroke="rgb(0,0,0)" class="dcg-svg-minor-gridline" paint-order="fill stroke markers" d=" M 0 46.5 L 400 46.5" stroke-opacity="0.3" stroke-miterlimit="10" stroke-dasharray=""/><path fill="none" stroke="rgb(0,0,0)" class="dcg-svg-minor-gridline" paint-order="fill stroke markers" d=" M 0 15.5 L 400 15.5" stroke-opacity="0.3" stroke-miterlimit="10" stroke-dasharray=""/><path fill="none" stroke="rgb(0,0,0)" class="dcg-svg-major-gridline" paint-order="fill stroke markers" d=" M 46.5 0 L 46.5 400" stroke-opacity="0.4285714285714285" stroke-miterlimit="10" stroke-dasharray=""/><path fill="none" stroke="rgb(0,0,0)" class="dcg-svg-major-gridline" paint-order="fill stroke markers" d=" M 352.5 0 L 352.5 400" stroke-opacity="0.4285714285714285" stroke-miterlimit="10" stroke-dasharray=""/><path fill="none" stroke="rgb(0,0,0)" class="dcg-svg-major-gridline" paint-order="fill stroke markers" d=" M 0 382.5 L 400 382.5" stroke-opacity="0.4285714285714285" stroke-miterlimit="10" stroke-dasharray=""/><path fill="none" stroke="rgb(0,0,0)" class="dcg-svg-major-gridline" paint-order="fill stroke markers" d=" M 0 76.5 L 400 76.5" stroke-opacity="0.4285714285714285" stroke-miterlimit="10" stroke-dasharray=""/></g></g><g id="axis-b25b5f11"><g id="yaxis-b25b5f11"><title>Y axis</title><g><path fill="none" stroke="rgb(0,0,0)" class="dcg-svg-axis-line" paint-order="fill stroke markers" d=" M 199 0 L 199 400" stroke-opacity="0.9" stroke-miterlimit="10" stroke-width="2" stroke-dasharray=""/></g></g><g id="xaxis-b25b5f11"><title>X axis</title><g><path fill="none" stroke="rgb(0,0,0)" class="dcg-svg-axis-line" paint-order="fill stroke markers" d=" M 0 230 L 400 230" stroke-opacity="0.9" stroke-miterlimit="10" stroke-width="2" stroke-dasharray=""/></g></g><g><g class="dcg-svg-axis-value"><text fill="none" stroke="#ffffff" font-family="Arial" font-size="17px" font-style="normal" font-weight="normal" text-decoration="normal" x="189.45379038653385" y="247.73929934532703" text-anchor="middle" stroke-miterlimit="2" stroke-width="3" stroke-dasharray="">0</text><text fill="#000000" stroke="none" font-family="Arial" font-size="17px" font-style="normal" font-weight="normal" text-decoration="normal" x="189.45379038653385" y="247.73929934532703" text-anchor="middle">0</text></g><g class="dcg-svg-axis-value"><text fill="none" stroke="#ffffff" font-family="Arial" font-size="17px" font-style="normal" font-weight="normal" text-decoration="normal" x="43.48745114109539" y="247.73929934532703" text-anchor="middle" stroke-miterlimit="2" stroke-width="3" stroke-dasharray="">-5</text><text fill="#000000" stroke="none" font-family="Arial" font-size="17px" font-style="normal" font-weight="normal" text-decoration="normal" x="43.48745114109539" y="247.73929934532703" text-anchor="middle">-5</text></g><g class="dcg-svg-axis-value"><text fill="none" stroke="#ffffff" font-family="Arial" font-size="17px" font-style="normal" font-weight="normal" text-decoration="normal" x="352.0441530694723" y="247.73929934532703" text-anchor="middle" stroke-miterlimit="2" stroke-width="3" stroke-dasharray="">5</text><text fill="#000000" stroke="none" font-family="Arial" font-size="17px" font-style="normal" font-weight="normal" text-decoration="normal" x="352.0441530694723" y="247.73929934532703" text-anchor="middle">5</text></g><g class="dcg-svg-axis-value"><text fill="none" stroke="#ffffff" font-family="Arial" font-size="17px" font-style="normal" font-weight="normal" text-decoration="normal" x="186.62322398028385" y="387.1023671063906" text-anchor="middle" stroke-miterlimit="2" stroke-width="3" stroke-dasharray="">-5</text><text fill="#000000" stroke="none" font-family="Arial" font-size="17px" font-style="normal" font-weight="normal" text-decoration="normal" x="186.62322398028385" y="387.1023671063906" text-anchor="middle">-5</text></g><g class="dcg-svg-axis-value"><text fill="none" stroke="#ffffff" font-family="Arial" font-size="17px" font-style="normal" font-weight="normal" text-decoration="normal" x="189.45379038653385" y="81.37623158426351" text-anchor="middle" stroke-miterlimit="2" stroke-width="3" stroke-dasharray="">5</text><text fill="#000000" stroke="none" font-family="Arial" font-size="17px" font-style="normal" font-weight="normal" text-decoration="normal" x="189.45379038653385" y="81.37623158426351" text-anchor="middle">5</text></g></g></g></g><g id="expressions-b25b5f11"><g id="sketch-b25b5f11"><title>式1</title><path fill="#2d70b3" stroke="none" paint-order="stroke fill markers" d="" fill-opacity="0.4"/><g><path fill="none" stroke="#2d70b3" class="dcg-svg-curve" paint-order="fill stroke markers" d=" M 2.842170943040401e-14 321.182960982522 L 2.842170943040401e-14 321.182960982522 L 8.49609375 302.38697824795264 L 14.550781250000028 289.56156583279454 L 19.72656250000003 279.16320279578315 L 24.31640625 270.49004500943516 L 28.61328125 262.9162492417443 L 32.6171875 256.39090028826104 L 36.42578125 250.70255479690792 L 40.13671875000003 245.67886365764437 L 43.65234375000003 241.4151278262018 L 46.97265625000003 237.84640416008406 L 50.09765625000003 234.9033703770871 L 53.12500000000003 232.4416625123043 L 55.95703125000003 230.4871672445452 L 58.69140625000003 228.91871932564766 L 61.42578125000003 227.660422373303 L 64.06250000000003 226.73629136861985 L 66.69921875 226.0900515004927 L 69.3359375 225.71406720089846 L 71.97265625000001 225.59913346200852 L 74.70703125000001 225.74420383554207 L 77.53906250000001 226.16375736383216 L 80.46875000000001 226.86836886705723 L 83.59375000000001 227.9003172569362 L 86.91406250000001 229.2840981139762 L 90.52734375000001 231.08615008934072 L 94.53125000000001 233.3869499941217 L 99.31640625000001 236.46265527434628 L 105.6640625 240.89206555208773 L 119.33593750000003 250.51514071325033 L 124.31640625 253.63202636837292 L 128.515625 255.95516085231142 L 132.32421875000003 257.765314601548 L 135.83984375 259.1490429900354 L 139.16015625 260.1772290103353 L 142.38281250000003 260.89762882799374 L 145.41015625000003 261.3125628623729 L 148.4375 261.4648816292997 L 151.3671875 261.3566875877478 L 154.296875 260.9943152622585 L 157.32421875 260.35270597608167 L 160.3515625 259.4422668247999 L 163.4765625 258.2264301418111 L 166.69921875 256.68867613793464 L 170.1171875 254.75777764607847 L 173.73046875000003 252.40294354964553 L 177.63671875 249.52727171958784 L 181.93359375 246.01725775724674 L 186.9140625 241.5755554614815 L 193.1640625 235.59588356493586 L 213.96484375 215.36642639089044 L 218.84765625 211.19590292611045 L 223.14453125 207.88410125617762 L 227.05078125 205.21670202618822 L 230.6640625 203.07507931561042 L 234.08203125 201.36109179648864 L 237.3046875 200.03874116006705 L 240.4296875 199.0393789592591 L 243.45703125 198.34344440213778 L 246.484375 197.9187414044807 L 249.41406250000003 197.76637027172833 L 252.44140625000003 197.87373655673719 L 255.46875 198.24491236301304 L 258.59375 198.8959766928475 L 261.81640625 199.8395525125085 L 265.234375 201.123558592471 L 268.84765625 202.77146455606075 L 272.75390625 204.85070717803643 L 277.1484375 207.5006552035852 L 282.421875 211.009759622368 L 290.52734375 216.7786716147195 L 299.4140625 223.01476222171473 L 304.4921875 226.2429595619169 L 308.69140625 228.59717541271507 L 312.40234375 230.37257152838976 L 315.72265625 231.6745599470675 L 318.84765625 232.62074973182285 L 321.77734375 233.2378296996652 L 324.609375 233.56678759921212 L 327.34375 233.61936860468344 L 329.98046875 233.41111941233044 L 332.6171875 232.93831064416904 L 335.25390625 232.1922989890222 L 337.890625 231.16602931875823 L 340.52734375 229.85407838534152 L 343.26171875 228.1877846446071 L 346.09375 226.1314247201612 L 349.0234375 223.64990123540701 L 352.05078125 220.7095014760792 L 355.2734375 217.16514988546817 L 358.69140625 212.94999508687238 L 362.3046875 208.00105123795527 L 366.11328125 202.26219550356728 L 370.1171875 195.68754380822327 L 374.31640625 188.24509560701182 L 378.80859375 179.72981163818287 L 383.7890625 169.71512097799535 L 389.453125 157.7368854124208 L 396.484375 142.2559382369986 L 400 134.36171656768536" stroke-linecap="round" stroke-linejoin="round" stroke-miterlimit="10" stroke-width="3.5" stroke-dasharray=""/></g></g><g id="sketch-b25b5f11"><title>式3</title><path fill="#c74440" stroke="none" paint-order="stroke fill markers" d="" fill-opacity="0.4"/><g><path fill="none" stroke="#c74440" class="dcg-svg-curve" paint-order="fill stroke markers" d=" M 166.3226966053371 -6.5 L 166.3226966053371 -6.5 L 168.5546875 10.666257310827376 L 171.6796875 33.14927975789101 L 174.70703125 53.489219408747175 L 177.63671875 71.84016549871075 L 180.46875 88.35030167895403 L 183.30078125 103.67009333147774 L 186.03515625 117.34997825384983 L 188.671875 129.52411915956435 L 191.30859375 140.71674977267628 L 193.84765625 150.58355092059935 L 196.2890625 159.24280842667343 L 198.73046875 167.10492375354116 L 201.07421875 173.91615437412952 L 203.32031250000003 179.77880892729118 L 205.56640625 185.00232651615687 L 207.71484375 189.4110143769992 L 209.86328125000003 193.25484307789407 L 212.01171875 196.54325987816372 L 214.16015625 199.28545700741446 L 216.11328125000003 201.31185730683868 L 217.96875 202.83147475537754 L 219.7265625 203.91157188999873 L 221.38671875 204.61440507810576 L 222.94921875 204.9975191609588 L 224.51171875 205.1134872551561 L 226.07421875 204.96489824989703 L 227.63671875 204.55418738579345 L 229.296875 203.833140651978 L 230.95703125 202.82126988649833 L 232.71484375 201.43544130514272 L 234.5703125 199.62440053684054 L 236.62109375 197.2096089335277 L 238.8671875 194.07038749307247 L 241.11328125 190.41709966630393 L 243.45703125 186.059161394858 L 245.80078125 181.14514717240138 L 248.2421875 175.43541475011054 L 250.68359375 169.12181208106244 L 253.22265625000003 161.9128281420198 L 255.859375 153.72882857221586 L 258.49609375 144.82814012404796 L 261.23046875 134.8328119625109 L 264.0625 123.64870612718339 L 266.89453125 111.60513576369905 L 269.82421875 98.22572935880893 L 272.8515625 83.39712979583669 L 275.87890625 67.52627136403456 L 279.00390625 50.02392010570125 L 282.12890625 31.355356055379985 L 285.3515625 10.849250669610058 L 287.9145540415031 -6.5" stroke-linecap="round" stroke-linejoin="round" stroke-miterlimit="10" stroke-width="3.5" stroke-dasharray=""/></g></g><g id="sketch-b25b5f11"><title>式4</title><path fill="#348543" stroke="none" paint-order="stroke fill markers" d="" fill-opacity="0.4"/><g><path fill="none" stroke="#348543" class="dcg-svg-curve" paint-order="fill stroke markers" d=" M 2.842170943040401e-14 320.36505995823103 L 2.842170943040401e-14 320.36505995823103 L 4.687500000000028 310.63262509429677 L 9.9609375 299.09450241777057 L 16.30859375 284.5839909871668 L 27.63671875000003 257.93790757747627 L 35.54687500000003 239.65183209869653 L 41.01562500000003 227.59567532405282 L 45.60546875000003 218.0417625699838 L 49.8046875 209.86912229949098 L 53.61328125 203.00519595626383 L 57.2265625 197.0337085071307 L 60.64453125 191.91258941823332 L 63.96484375 187.46234181822692 L 67.08984375000003 183.77023425681492 L 70.01953125 180.76237703043057 L 72.75390625 178.36126111339087 L 75.29296875000001 176.48867897095369 L 77.73437500000001 175.01531712845144 L 80.078125 173.90359999033876 L 82.42187500000001 173.0877328757104 L 84.66796875 172.58147371484333 L 86.91406250000001 172.34173434891184 L 89.16015625000003 172.36407994266057 L 91.40625000000001 172.64285785049066 L 93.75000000000003 173.19973892923252 L 96.19140625000003 174.0589510419789 L 98.73046875000003 175.24208677524408 L 101.36718750000003 176.76727978393416 L 104.19921875000001 178.72085815410705 L 107.22656250000001 181.1421763621337 L 110.546875 184.15405838986118 L 114.35546875000001 188.00717845355715 L 118.75 192.8843667252378 L 124.31640625 199.53582674904933 L 144.04296875 223.53389893955787 L 148.4375 228.17561966464757 L 152.24609375 231.7902349723308 L 155.6640625 234.65549903111747 L 158.7890625 236.92517316488633 L 161.71875 238.72398641922712 L 164.453125 240.09799257434182 L 167.08984375 241.1314109758977 L 169.62890625 241.84696695318073 L 172.0703125 242.27012944852208 L 174.51171875 242.42950976820373 L 176.953125 242.32282294129664 L 179.39453125 241.94953996002994 L 181.8359375 241.31088519772203 L 184.375 240.36838248984498 L 187.01171875 239.09494137924764 L 189.74609375 237.46587923677944 L 192.578125 235.4598517734584 L 195.60546875 232.9744044014672 L 198.828125 229.96621484564494 L 202.44140625 226.18710508773614 L 206.4453125 221.5561721342488 L 211.03515625 215.76873137990452 L 216.69921875 208.0995311944587 L 225.5859375 195.4647131772243 L 234.66796875 182.71454151210617 L 240.13671875 175.55334003392792 L 244.7265625 170.03477886179914 L 248.73046875 165.68123327504415 L 252.34375 162.17836012781467 L 255.6640625 159.35303793999202 L 258.69140625 157.12936896605885 L 261.62109375 155.31389817767592 L 264.35546875 153.9286861512214 L 266.9921875 152.8823909191587 L 269.53125 152.14708738892836 L 272.0703125 151.68026108130096 L 274.609375 151.48119738532694 L 277.1484375 151.5471279661927 L 279.6875 151.87324260506466 L 282.32421875 152.4799490844574 L 285.05859375 153.38709249855873 L 287.890625 154.61063768095684 L 290.91796875 156.21804362882125 L 294.140625 158.2413062436752 L 297.65625 160.77558214738633 L 301.66015625 164.01489942466677 L 306.34765625 168.1786578247582 L 312.98828125 174.49321052099998 L 323.6328125 184.61213932013277 L 328.3203125 188.65552195427293 L 332.2265625 191.66560095116228 L 335.64453125 193.95711476524485 L 338.671875 195.67251987982223 L 341.50390625 196.97597691791827 L 344.140625 197.90240975140995 L 346.6796875 198.5126680843939 L 349.0234375 198.81535869640996 L 351.3671875 198.8551088923671 L 353.61328125 198.63614961523785 L 355.859375 198.15678057026588 L 358.10546875 197.409449141086 L 360.3515625 196.38777463627304 L 362.6953125 195.023598670016 L 365.0390625 193.35061739066913 L 367.48046875 191.2763543968619 L 370.1171875 188.65430115654257 L 372.8515625 185.51659072551993 L 375.78125 181.68524246498936 L 378.80859375 177.22336508457795 L 381.93359375 172.09387295773584 L 385.15625 166.26498937474872 L 388.4765625 159.71163294067082 L 391.9921875 152.20060569058705 L 395.703125 143.67956840452743 L 399.70703125 133.86630769483696 L 400 133.12500062001163" stroke-linecap="round" stroke-linejoin="round" stroke-miterlimit="10" stroke-width="3.5" stroke-dasharray=""/></g></g></g><g id="labels-b25b5f11"/><g id="labels-b25b5f11"/></g></svg>