<svg version="1.1" xmlns="http://www.w3.org/2000/svg" xmlns:xlink="http://www.w3.org/1999/xlink" width="1200" height="800"><defs/><g transform="scale(2,2)"><g id="background-e61de401"><rect fill="white" stroke="none" x="0" y="0" width="600" height="400" class="dcg-svg-background"/></g><g id="graphpaper-e61de401"><g id="grid-e61de401"><g><path fill="none" stroke="rgb(0,0,0)" class="dcg-svg-minor-gridline" paint-order="fill stroke markers" d=" M 10.5 0 L 10.5 400" stroke-opacity="0.2" stroke-miterlimit="10" stroke-dasharray=""/><path fill="none" stroke="rgb(0,0,0)" class="dcg-svg-minor-gridline" paint-order="fill stroke markers" d=" M 49.5 0 L 49.5 400" stroke-opacity="0.2" stroke-miterlimit="10" stroke-dasharray=""/><path fill="none" stroke="rgb(0,0,0)" class="dcg-svg-minor-gridline" paint-order="fill stroke markers" d=" M 68.5 0 L 68.5 400" stroke-opacity="0.2" stroke-miterlimit="10" stroke-dasharray=""/><path fill="none" stroke="rgb(0,0,0)" class="dcg-svg-minor-gridline" paint-order="fill stroke markers" d=" M 88.5 0 L 88.5 400" stroke-opacity="0.2" stroke-miterlimit="10" stroke-dasharray=""/><path fill="none" stroke="rgb(0,0,0)" class="dcg-svg-minor-gridline" paint-order="fill stroke markers" d=" M 108.5 0 L 108.5 400" stroke-opacity="0.2" stroke-miterlimit="10" stroke-dasharray=""/><path fill="none" stroke="rgb(0,0,0)" class="dcg-svg-minor-gridline" paint-order="fill stroke markers" d=" M 127.5 0 L 127.5 400" stroke-opacity="0.2" stroke-miterlimit="10" stroke-dasharray=""/><path fill="none" stroke="rgb(0,0,0)" class="dcg-svg-minor-gridline" paint-order="fill stroke markers" d=" M 147.5 0 L 147.5 400" stroke-opacity="0.2" stroke-miterlimit="10" stroke-dasharray=""/><path fill="none" stroke="rgb(0,0,0)" class="dcg-svg-minor-gridline" paint-order="fill stroke markers" d=" M 167.5 0 L 167.5 400" stroke-opacity="0.2" stroke-miterlimit="10" stroke-dasharray=""/><path fill="none" stroke="rgb(0,0,0)" class="dcg-svg-minor-gridline" paint-order="fill stroke markers" d=" M 186.5 0 L 186.5 400" stroke-opacity="0.2" stroke-miterlimit="10" stroke-dasharray=""/><path fill="none" stroke="rgb(0,0,0)" class="dcg-svg-minor-gridline" paint-order="fill stroke markers" d=" M 206.5 0 L 206.5 400" stroke-opacity="0.2" stroke-miterlimit="10" stroke-dasharray=""/><path fill="none" stroke="rgb(0,0,0)" class="dcg-svg-minor-gridline" paint-order="fill stroke markers" d=" M 225.5 0 L 225.5 400" stroke-opacity="0.2" stroke-miterlimit="10" stroke-dasharray=""/><path fill="none" stroke="rgb(0,0,0)" class="dcg-svg-minor-gridline" paint-order="fill stroke markers" d=" M 245.5 0 L 245.5 400" stroke-opacity="0.2" stroke-miterlimit="10" stroke-dasharray=""/><path fill="none" stroke="rgb(0,0,0)" class="dcg-svg-minor-gridline" paint-order="fill stroke markers" d=" M 265.5 0 L 265.5 400" stroke-opacity="0.2" stroke-miterlimit="10" stroke-dasharray=""/><path fill="none" stroke="rgb(0,0,0)" class="dcg-svg-minor-gridline" paint-order="fill stroke markers" d=" M 284.5 0 L 284.5 400" stroke-opacity="0.2" stroke-miterlimit="10" stroke-dasharray=""/><path fill="none" stroke="rgb(0,0,0)" class="dcg-svg-minor-gridline" paint-order="fill stroke markers" d=" M 304.5 0 L 304.5 400" stroke-opacity="0.2" stroke-miterlimit="10" stroke-dasharray=""/><path fill="none" stroke="rgb(0,0,0)" class="dcg-svg-minor-gridline" paint-order="fill stroke markers" d=" M 324.5 0 L 324.5 400" stroke-opacity="0.2" stroke-miterlimit="10" stroke-dasharray=""/><path fill="none" stroke="rgb(0,0,0)" class="dcg-svg-minor-gridline" paint-order="fill stroke markers" d=" M 343.5 0 L 343.5 400" stroke-opacity="0.2" stroke-miterlimit="10" stroke-dasharray=""/><path fill="none" stroke="rgb(0,0,0)" class="dcg-svg-minor-gridline" paint-order="fill stroke markers" d=" M 363.5 0 L 363.5 400" stroke-opacity="0.2" stroke-miterlimit="10" stroke-dasharray=""/><path fill="none" stroke="rgb(0,0,0)" class="dcg-svg-minor-gridline" paint-order="fill stroke markers" d=" M 382.5 0 L 382.5 400" stroke-opacity="0.2" stroke-miterlimit="10" stroke-dasharray=""/><path fill="none" stroke="rgb(0,0,0)" class="dcg-svg-minor-gridline" paint-order="fill stroke markers" d=" M 402.5 0 L 402.5 400" stroke-opacity="0.2" stroke-miterlimit="10" stroke-dasharray=""/><path fill="none" stroke="rgb(0,0,0)" class="dcg-svg-minor-gridline" paint-order="fill stroke markers" d=" M 422.5 0 L 422.5 400" stroke-opacity="0.2" stroke-miterlimit="10" stroke-dasharray=""/><path fill="none" stroke="rgb(0,0,0)" class="dcg-svg-minor-gridline" paint-order="fill stroke markers" d=" M 441.5 0 L 441.5 400" stroke-opacity="0.2" stroke-miterlimit="10" stroke-dasharray=""/><path fill="none" stroke="rgb(0,0,0)" class="dcg-svg-minor-gridline" paint-order="fill stroke markers" d=" M 461.5 0 L 461.5 400" stroke-opacity="0.2" stroke-miterlimit="10" stroke-dasharray=""/><path fill="none" stroke="rgb(0,0,0)" class="dcg-svg-minor-gridline" paint-order="fill stroke markers" d=" M 481.5 0 L 481.5 400" stroke-opacity="0.2" stroke-miterlimit="10" stroke-dasharray=""/><path fill="none" stroke="rgb(0,0,0)" class="dcg-svg-minor-gridline" paint-order="fill stroke markers" d=" M 500.5 0 L 500.5 400" stroke-opacity="0.2" stroke-miterlimit="10" stroke-dasharray=""/><path fill="none" stroke="rgb(0,0,0)" class="dcg-svg-minor-gridline" paint-order="fill stroke markers" d=" M 520.5 0 L 520.5 400" stroke-opacity="0.2" stroke-miterlimit="10" stroke-dasharray=""/><path fill="none" stroke="rgb(0,0,0)" class="dcg-svg-minor-gridline" paint-order="fill stroke markers" d=" M 539.5 0 L 539.5 400" stroke-opacity="0.2" stroke-miterlimit="10" stroke-dasharray=""/><path fill="none" stroke="rgb(0,0,0)" class="dcg-svg-minor-gridline" paint-order="fill stroke markers" d=" M 559.5 0 L 559.5 400" stroke-opacity="0.2" stroke-miterlimit="10" stroke-dasharray=""/><path fill="none" stroke="rgb(0,0,0)" class="dcg-svg-minor-gridline" paint-order="fill stroke markers" d=" M 579.5 0 L 579.5 400" stroke-opacity="0.2" stroke-miterlimit="10" stroke-dasharray=""/><path fill="none" stroke="rgb(0,0,0)" class="dcg-svg-minor-gridline" paint-order="fill stroke markers" d=" M 598.5 0 L 598.5 400" stroke-opacity="0.2" stroke-miterlimit="10" stroke-dasharray=""/><path fill="none" stroke="rgb(0,0,0)" class="dcg-svg-minor-gridline" paint-order="fill stroke markers" d=" M 0 393.5 L 600 393.5" stroke-opacity="0.2" stroke-miterlimit="10" stroke-dasharray=""/><path fill="none" stroke="rgb(0,0,0)" class="dcg-svg-minor-gridline" paint-order="fill stroke markers" d=" M 0 374.5 L 600 374.5" stroke-opacity="0.2" stroke-miterlimit="10" stroke-dasharray=""/><path fill="none" stroke="rgb(0,0,0)" class="dcg-svg-minor-gridline" paint-order="fill stroke markers" d=" M 0 354.5 L 600 354.5" stroke-opacity="0.2" stroke-miterlimit="10" stroke-dasharray=""/><path fill="none" stroke="rgb(0,0,0)" class="dcg-svg-minor-gridline" paint-order="fill stroke markers" d=" M 0 334.5 L 600 334.5" stroke-opacity="0.2" stroke-miterlimit="10" stroke-dasharray=""/><path fill="none" stroke="rgb(0,0,0)" class="dcg-svg-minor-gridline" paint-order="fill stroke markers" d=" M 0 315.5 L 600 315.5" stroke-opacity="0.2" stroke-miterlimit="10" stroke-dasharray=""/><path fill="none" stroke="rgb(0,0,0)" class="dcg-svg-minor-gridline" paint-order="fill stroke markers" d=" M 0 295.5 L 600 295.5" stroke-opacity="0.2" stroke-miterlimit="10" stroke-dasharray=""/><path fill="none" stroke="rgb(0,0,0)" class="dcg-svg-minor-gridline" paint-order="fill stroke markers" d=" M 0 256.5 L 600 256.5" stroke-opacity="0.2" stroke-miterlimit="10" stroke-dasharray=""/><path fill="none" stroke="rgb(0,0,0)" class="dcg-svg-minor-gridline" paint-order="fill stroke markers" d=" M 0 236.5 L 600 236.5" stroke-opacity="0.2" stroke-miterlimit="10" stroke-dasharray=""/><path fill="none" stroke="rgb(0,0,0)" class="dcg-svg-minor-gridline" paint-order="fill stroke markers" d=" M 0 217.5 L 600 217.5" stroke-opacity="0.2" stroke-miterlimit="10" stroke-dasharray=""/><path fill="none" stroke="rgb(0,0,0)" class="dcg-svg-minor-gridline" paint-order="fill stroke markers" d=" M 0 197.5 L 600 197.5" stroke-opacity="0.2" stroke-miterlimit="10" stroke-dasharray=""/><path fill="none" stroke="rgb(0,0,0)" class="dcg-svg-minor-gridline" paint-order="fill stroke markers" d=" M 0 177.5 L 600 177.5" stroke-opacity="0.2" stroke-miterlimit="10" stroke-dasharray=""/><path fill="none" stroke="rgb(0,0,0)" class="dcg-svg-minor-gridline" paint-order="fill stroke markers" d=" M 0 158.5 L 600 158.5" stroke-opacity="0.2" stroke-miterlimit="10" stroke-dasharray=""/><path fill="none" stroke="rgb(0,0,0)" class="dcg-svg-minor-gridline" paint-order="fill stroke markers" d=" M 0 138.5 L 600 138.5" stroke-opacity="0.2" stroke-miterlimit="10" stroke-dasharray=""/><path fill="none" stroke="rgb(0,0,0)" class="dcg-svg-minor-gridline" paint-order="fill stroke markers" d=" M 0 119.5 L 600 119.5" stroke-opacity="0.2" stroke-miterlimit="10" stroke-dasharray=""/><path fill="none" stroke="rgb(0,0,0)" class="dcg-svg-minor-gridline" paint-order="fill stroke markers" d=" M 0 99.5 L 600 99.5" stroke-opacity="0.2" stroke-miterlimit="10" stroke-dasharray=""/><path fill="none" stroke="rgb(0,0,0)" class="dcg-svg-minor-gridline" paint-order="fill stroke markers" d=" M 0 79.5 L 600 79.5" stroke-opacity="0.2" stroke-miterlimit="10" stroke-dasharray=""/><path fill="none" stroke="rgb(0,0,0)" class="dcg-svg-minor-gridline" paint-order="fill stroke markers" d=" M 0 60.5 L 600 60.5" stroke-opacity="0.2" stroke-miterlimit="10" stroke-dasharray=""/><path fill="none" stroke="rgb(0,0,0)" class="dcg-svg-minor-gridline" paint-order="fill stroke markers" d=" M 0 40.5 L 600 40.5" stroke-opacity="0.2" stroke-miterlimit="10" stroke-dasharray=""/><path fill="none" stroke="rgb(0,0,0)" class="dcg-svg-minor-gridline" paint-order="fill stroke markers" d=" M 0 20.5 L 600 20.5" stroke-opacity="0.2" stroke-miterlimit="10" stroke-dasharray=""/><path fill="none" stroke="rgb(0,0,0)" class="dcg-svg-minor-gridline" paint-order="fill stroke markers" d=" M 0 1.5 L 600 1.5" stroke-opacity="0.2" stroke-miterlimit="10" stroke-dasharray=""/><path fill="none" stroke="rgb(0,0,0)" class="dcg-svg-major-gridline" paint-order="fill stroke markers" d=" M 127.5 0 L 127.5 400" stroke-opacity="0.2500000000000001" stroke-miterlimit="10" stroke-dasharray=""/><path fill="none" stroke="rgb(0,0,0)" class="dcg-svg-major-gridline" paint-order="fill stroke markers" d=" M 225.5 0 L 225.5 400" stroke-opacity="0.2500000000000001" stroke-miterlimit="10" stroke-dasharray=""/><path fill="none" stroke="rgb(0,0,0)" class="dcg-svg-major-gridline" paint-order="fill stroke markers" d=" M 324.5 0 L 324.5 400" stroke-opacity="0.2500000000000001" stroke-miterlimit="10" stroke-dasharray=""/><path fill="none" stroke="rgb(0,0,0)" class="dcg-svg-major-gridline" paint-order="fill stroke markers" d=" M 422.5 0 L 422.5 400" stroke-opacity="0.2500000000000001" stroke-miterlimit="10" stroke-dasharray=""/><path fill="none" stroke="rgb(0,0,0)" class="dcg-svg-major-gridline" paint-order="fill stroke markers" d=" M 520.5 0 L 520.5 400" stroke-opacity="0.2500000000000001" stroke-miterlimit="10" stroke-dasharray=""/><path fill="none" stroke="rgb(0,0,0)" class="dcg-svg-major-gridline" paint-order="fill stroke markers" d=" M 0 374.5 L 600 374.5" stroke-opacity="0.2500000000000001" stroke-miterlimit="10" stroke-dasharray=""/><path fill="none" stroke="rgb(0,0,0)" class="dcg-svg-major-gridline" paint-order="fill stroke markers" d=" M 0 177.5 L 600 177.5" stroke-opacity="0.2500000000000001" stroke-miterlimit="10" stroke-dasharray=""/><path fill="none" stroke="rgb(0,0,0)" class="dcg-svg-major-gridline" paint-order="fill stroke markers" d=" M 0 79.5 L 600 79.5" stroke-opacity="0.2500000000000001" stroke-miterlimit="10" stroke-dasharray=""/></g></g><g id="axis-e61de401"><g id="yaxis-e61de401"><title>Y axis</title><g><path fill="none" stroke="rgb(0,0,0)" class="dcg-svg-axis-line" paint-order="fill stroke markers" d=" M 30 0 L 30 400" stroke-opacity="0.9" stroke-miterlimit="10" stroke-width="1.5" stroke-dasharray=""/></g></g><g id="xaxis-e61de401"><title>X axis</title><g><path fill="none" stroke="rgb(0,0,0)" class="dcg-svg-axis-line" paint-order="fill stroke markers" d=" M 0 276 L 600 276" stroke-opacity="0.9" stroke-miterlimit="10" stroke-width="1.5" stroke-dasharray=""/></g></g><g><g class="dcg-svg-axis-value"><text fill="none" stroke="#ffffff" font-family="Arial" font-size="14px" font-style="normal" font-weight="normal" text-decoration="normal" x="20.80398467923743" y="291.87870130866827" text-anchor="middle" stroke-miterlimit="2" stroke-width="3" stroke-dasharray="">0</text><text fill="#000000" stroke="none" font-family="Arial" font-size="14px" font-style="normal" font-weight="normal" text-decoration="normal" x="20.80398467923743" y="291.87870130866827" text-anchor="middle">0</text></g><g class="dcg-svg-axis-value"><text fill="none" stroke="#ffffff" font-family="Arial" font-size="14px" font-style="normal" font-weight="normal" text-decoration="normal" x="127.82408869962204" y="291.87870130866827" text-anchor="middle" stroke-miterlimit="2" stroke-width="3" stroke-dasharray="">5</text><text fill="#000000" stroke="none" font-family="Arial" font-size="14px" font-style="normal" font-weight="normal" text-decoration="normal" x="127.82408869962204" y="291.87870130866827" text-anchor="middle">5</text></g><g class="dcg-svg-axis-value"><text fill="none" stroke="#ffffff" font-family="Arial" font-size="14px" font-style="normal" font-weight="normal" text-decoration="normal" x="225.95112631375665" y="291.87870130866827" text-anchor="middle" stroke-miterlimit="2" stroke-width="3" stroke-dasharray="">10</text><text fill="#000000" stroke="none" font-family="Arial" font-size="14px" font-style="normal" font-weight="normal" text-decoration="normal" x="225.95112631375665" y="291.87870130866827" text-anchor="middle">10</text></g><g class="dcg-svg-axis-value"><text fill="none" stroke="#ffffff" font-family="Arial" font-size="14px" font-style="normal" font-weight="normal" text-decoration="normal" x="324.07816392789124" y="291.87870130866827" text-anchor="middle" stroke-miterlimit="2" stroke-width="3" stroke-dasharray="">15</text><text fill="#000000" stroke="none" font-family="Arial" font-size="14px" font-style="normal" font-weight="normal" text-decoration="normal" x="324.07816392789124" y="291.87870130866827" text-anchor="middle">15</text></g><g class="dcg-svg-axis-value"><text fill="none" stroke="#ffffff" font-family="Arial" font-size="14px" font-style="normal" font-weight="normal" text-decoration="normal" x="422.20520154202586" y="291.87870130866827" text-anchor="middle" stroke-miterlimit="2" stroke-width="3" stroke-dasharray="">20</text><text fill="#000000" stroke="none" font-family="Arial" font-size="14px" font-style="normal" font-weight="normal" text-decoration="normal" x="422.20520154202586" y="291.87870130866827" text-anchor="middle">20</text></g><g class="dcg-svg-axis-value"><text fill="none" stroke="#ffffff" font-family="Arial" font-size="14px" font-style="normal" font-weight="normal" text-decoration="normal" x="520.3322391561605" y="291.87870130866827" text-anchor="middle" stroke-miterlimit="2" stroke-width="3" stroke-dasharray="">25</text><text fill="#000000" stroke="none" font-family="Arial" font-size="14px" font-style="normal" font-weight="normal" text-decoration="normal" x="520.3322391561605" y="291.87870130866827" text-anchor="middle">25</text></g><g class="dcg-svg-axis-value"><text fill="none" stroke="#ffffff" font-family="Arial" font-size="14px" font-style="normal" font-weight="normal" text-decoration="normal" x="18.47292999173743" y="378.00573892280386" text-anchor="middle" stroke-miterlimit="2" stroke-width="3" stroke-dasharray="">-5</text><text fill="#000000" stroke="none" font-family="Arial" font-size="14px" font-style="normal" font-weight="normal" text-decoration="normal" x="18.47292999173743" y="378.00573892280386" text-anchor="middle">-5</text></g><g class="dcg-svg-axis-value"><text fill="none" stroke="#ffffff" font-family="Arial" font-size="14px" font-style="normal" font-weight="normal" text-decoration="normal" x="20.80398467923743" y="181.75166369453265" text-anchor="middle" stroke-miterlimit="2" stroke-width="3" stroke-dasharray="">5</text><text fill="#000000" stroke="none" font-family="Arial" font-size="14px" font-style="normal" font-weight="normal" text-decoration="normal" x="20.80398467923743" y="181.75166369453265" text-anchor="middle">5</text></g><g class="dcg-svg-axis-value"><text fill="none" stroke="#ffffff" font-family="Arial" font-size="14px" font-style="normal" font-weight="normal" text-decoration="normal" x="16.91091827298743" y="83.62462608039705" text-anchor="middle" stroke-miterlimit="2" stroke-width="3" stroke-dasharray="">10</text><text fill="#000000" stroke="none" font-family="Arial" font-size="14px" font-style="normal" font-weight="normal" text-decoration="normal" x="16.91091827298743" y="83.62462608039705" text-anchor="middle">10</text></g></g></g></g><g id="expressions-e61de401"><g id="sketch-e61de401"><title>式7</title><path fill="#c74440" stroke="none" paint-order="stroke fill markers" d="" fill-opacity="0.4"/><g><path fill="none" stroke="#c74440" class="dcg-svg-curve" paint-order="fill stroke markers" d=" M -2.4868995751603507e-14 236.9369981346993 L -2.4868995751603507e-14 236.9369981346993 L 2.197265624999975 236.9527996923843 L 4.394531249999975 237.22204653218523 L 6.738281249999972 237.78434337503467 L 9.228515624999975 238.68377014994815 L 11.865234374999975 239.9592796666521 L 14.794921874999973 241.73895275859468 L 18.01757812499998 244.09201462190225 L 21.82617187499998 247.3243193770999 L 26.660156249999975 251.9533724258931 L 35.30273437499998 260.88558602179114 L 41.74804687499997 267.27796397130777 L 46.142578124999986 271.1302609034257 L 49.80468749999997 273.87617985932746 L 53.02734374999997 275.870386341586 L 55.957031249999986 277.29930555170733 L 58.59374999999998 278.25035126171434 L 61.08398437499997 278.84526940487706 L 63.42773437499998 279.1309094224086 L 65.77148437499999 279.14994877410743 L 68.11523437499997 278.90573536037806 L 70.60546874999997 278.36593308937825 L 73.09570312499997 277.5503894994797 L 75.87890624999997 276.3346780167104 L 78.95507812499997 274.65406322491066 L 82.47070312499997 272.3637610826206 L 86.86523437499997 269.0767263265415 L 94.04296874999997 263.1799999297703 L 101.36718749999999 257.322281697282 L 105.61523437499999 254.37804238583297 L 109.13085937499997 252.3479903815299 L 112.06054687499999 251.0031448358447 L 114.69726562499999 250.09903694926066 L 117.18749999999999 249.5346916293258 L 119.53125 249.27533439947288 L 121.87499999999999 249.28947858920452 L 124.07226562499999 249.55642358047498 L 126.41601562499999 250.11377868538156 L 128.759765625 250.9508481081226 L 131.25 252.1404268042226 L 134.033203125 253.82196033260396 L 137.109375 256.08579073901024 L 140.625 259.1429622657583 L 144.72656249999997 263.24545262464295 L 149.560546875 268.6343109925775 L 158.05664062499997 278.7699022610053 L 164.64843749999997 286.3771212448531 L 169.189453125 291.07872194695597 L 172.998046875 294.50953567412336 L 176.3671875 297.0682609562933 L 179.443359375 298.9643654329005 L 182.08007812499997 300.23003001511154 L 184.5703125 301.10744269508064 L 186.91406249999997 301.6451603110534 L 189.25781249999997 301.90214997989756 L 191.6015625 301.8810404168553 L 193.94531249999997 301.5883340607206 L 196.2890625 301.0343114020706 L 198.92578124999997 300.11613529993804 L 201.70898437500003 298.83502147976174 L 204.93164062499997 296.9976168431015 L 208.59374999999997 294.52714947170006 L 213.427734375 290.81953678173267 L 228.80859375 278.67622916768727 L 232.61718749999997 276.30109792047364 L 235.83984375 274.6697305273883 L 238.623046875 273.5857951229416 L 241.259765625 272.8646807547855 L 243.75 272.47432720973234 L 246.09375 272.37521087348557 L 248.4375 272.5417852745759 L 250.78125 272.97553810681677 L 253.27148437499997 273.7263738308063 L 255.76171875 274.76835581677716 L 258.544921875 276.2619072766173 L 261.62109375 278.28801686365784 L 265.13671875 281.0328380707857 L 269.384765625 284.8526673690966 L 274.8046875 290.2797898245729 L 288.57421874999994 304.3337221204357 L 292.822265625 308.0011805074839 L 296.337890625 310.57566407784515 L 299.4140625 312.4185097845943 L 302.197265625 313.71764925733777 L 304.6875 314.5618100784593 L 307.03125 315.0692247686549 L 309.228515625 315.2854713737952 L 311.42578125 315.24770046135876 L 313.623046875 314.956120137714 L 315.966796875 314.3690449431361 L 318.45703125 313.44157097827167 L 321.09375 312.1337018466876 L 324.0234375 310.31397212451344 L 327.24609375 307.91079479809093 L 331.05468750000006 304.6096905387189 L 335.7421875 300.0265053892054 L 343.21289062500006 292.1144144253293 L 350.68359375 284.38005836952357 L 355.224609375 280.2001493451228 L 359.033203125 277.18056816697674 L 362.40234375 274.9639321654718 L 365.33203125000006 273.42776637222494 L 367.96875 272.37991903047447 L 370.458984375 271.6938954753408 L 372.802734375 271.32326535828656 L 375.146484375 271.2204140467383 L 377.49023437500006 271.3824268635195 L 379.833984375 271.80252702679576 L 382.32421875 272.5198170652237 L 384.9609375 273.56477272226897 L 387.89062499999994 275.0394057264085 L 391.25976562500006 277.0896489594655 L 395.36132812500006 279.9920002078435 L 401.22070312500006 284.6194120337618 L 411.03515625 292.3861038750383 L 415.283203125 295.2622450466171 L 418.65234375 297.1645570945486 L 421.58203125 298.4831449872431 L 424.21875 299.36681025790836 L 426.708984375 299.91447060456306 L 429.052734375 300.1603135502511 L 431.396484375 300.13464152459346 L 433.740234375 299.8314270862383 L 436.08398437499994 299.2485237664713 L 438.427734375 298.3877003633266 L 440.91796875 297.17495903114065 L 443.701171875 295.4702060043372 L 446.77734375 293.18416240873654 L 450.29296874999994 290.10626956945197 L 454.39453125 285.98619841343435 L 459.37500000000006 280.4158376654463 L 469.3359375 268.546787535183 L 475.048828125 262.0850021357462 L 479.296875 257.78637751687455 L 483.10546875 254.44974612838786 L 486.474609375 251.98773499282598 L 489.404296875 250.26450819942676 L 492.04101562500006 249.06882964356814 L 494.53124999999994 248.26068696545087 L 496.875 247.79033629757475 L 499.21875 247.60221263485414 L 501.5625 247.6930943450676 L 503.90625 248.05589577632784 L 506.396484375 248.72712038280932 L 509.033203125 249.73954969611893 L 511.96289062500006 251.19716537914 L 515.185546875 253.1552495423111 L 519.140625 255.9709506564137 L 524.4140625 260.2047584283001 L 537.158203125 270.61998805719105 L 541.259765625 273.4026580389425 L 544.62890625 275.2949634441464 L 547.55859375 276.5954288977215 L 550.1953125 277.4598602784669 L 552.685546875 277.9907641955283 L 555.029296875 278.2255527835065 L 557.373046875 278.19676348425844 L 559.716796875 277.9017404273276 L 562.060546875 277.3417338617724 L 564.55078125 276.46220055701025 L 567.1875 275.22342697360733 L 570.1171875 273.4986186394028 L 573.33984375 271.21704748441687 L 577.1484375 268.07627880387855 L 581.982421875 263.5624158004618 L 589.892578125 255.549540033924 L 596.77734375 248.77907706070184 L 600 245.91937862210943" stroke-linecap="round" stroke-linejoin="round" stroke-miterlimit="10" stroke-width="2.5" stroke-dasharray=""/></g></g><g id="sketch-e61de401"><title>式16</title><path fill="#6042a6" stroke="none" paint-order="stroke fill markers" d="" fill-opacity="0.4"/><g><path fill="none" stroke="#6042a6" class="dcg-svg-curve" paint-order="fill stroke markers" d=" M 104.69528444098098 -5.5 L 104.69528444098098 -5.5 L 104.69528444098098 405.5" stroke-linecap="round" stroke-linejoin="round" stroke-miterlimit="10" stroke-width="2.5" stroke-dasharray=""/></g><g><path fill="none" stroke="#6042a6" class="dcg-svg-curve" paint-order="fill stroke markers" d=" M 29.69704547605205 405.5 L 29.69704547605205 405.5 L 29.69704547605205 -5.5" stroke-linecap="round" stroke-linejoin="round" stroke-miterlimit="10" stroke-width="2.5" stroke-dasharray=""/></g><g><path fill="none" stroke="#6042a6" class="dcg-svg-curve" paint-order="fill stroke markers" d=" M 482.9396198782217 -5.5 L 482.9396198782217 -5.5 L 482.9396198782217 405.5" stroke-linecap="round" stroke-linejoin="round" stroke-miterlimit="10" stroke-width="2.5" stroke-dasharray=""/></g><g><path fill="none" stroke="#6042a6" class="dcg-svg-curve" paint-order="fill stroke markers" d=" M 135.62542020328624 405.5 L 135.62542020328624 405.5 L 135.62542020328624 -5.5" stroke-linecap="round" stroke-linejoin="round" stroke-miterlimit="10" stroke-width="2.5" stroke-dasharray=""/></g><g><path fill="none" stroke="#6042a6" class="dcg-svg-curve" paint-order="fill stroke markers" d=" M 590.9522648355141 -5.5 L 590.9522648355141 -5.5 L 590.9522648355141 405.5" stroke-linecap="round" stroke-linejoin="round" stroke-miterlimit="10" stroke-width="2.5" stroke-dasharray=""/></g><g><path fill="none" stroke="#6042a6" class="dcg-svg-curve" paint-order="fill stroke markers" d=" M 517.2112422123541 405.5 L 517.2112422123541 405.5 L 517.2112422123541 -5.5" stroke-linecap="round" stroke-linejoin="round" stroke-miterlimit="10" stroke-width="2.5" stroke-dasharray=""/></g><path fill="#6042a6" stroke="none" class="dcg-svg-region" paint-order="stroke fill markers" d=" M 104.69528444098098 -3 L 104.69528444098098 403 L 29.69704547605205 403 L 29.69704547605205 -3 L 104.69528444098098 -3 M 482.9396198782217 -3 L 482.9396198782217 403 L 135.62542020328624 403 L 135.62542020328624 -3 L 482.9396198782217 -3 M 590.9522648355141 -3 L 590.9522648355141 403 L 517.2112422123541 403 L 517.2112422123541 -3 L 590.9522648355141 -3" fill-opacity="0.4"/></g></g><g id="labels-e61de401"/><g id="labels-e61de401"/></g></svg>